%TF.GenerationSoftware,KiCad,Pcbnew,8.0.2*%
%TF.CreationDate,2024-07-20T17:05:26-04:00*%
%TF.ProjectId,electrical_design_hvac_v2,656c6563-7472-4696-9361-6c5f64657369,rev?*%
%TF.SameCoordinates,Original*%
%TF.FileFunction,Legend,Top*%
%TF.FilePolarity,Positive*%
%FSLAX46Y46*%
G04 Gerber Fmt 4.6, Leading zero omitted, Abs format (unit mm)*
G04 Created by KiCad (PCBNEW 8.0.2) date 2024-07-20 17:05:26*
%MOMM*%
%LPD*%
G01*
G04 APERTURE LIST*
%ADD10C,0.300000*%
%ADD11C,0.150000*%
%ADD12C,0.200000*%
%ADD13C,0.000000*%
%ADD14C,0.120000*%
%ADD15C,0.152400*%
%ADD16C,0.127000*%
%ADD17C,0.240000*%
G04 APERTURE END LIST*
D10*
X84625939Y-140368923D02*
X84983082Y-140487971D01*
X84983082Y-140487971D02*
X85102129Y-140607019D01*
X85102129Y-140607019D02*
X85221177Y-140845114D01*
X85221177Y-140845114D02*
X85221177Y-141202257D01*
X85221177Y-141202257D02*
X85102129Y-141440352D01*
X85102129Y-141440352D02*
X84983082Y-141559400D01*
X84983082Y-141559400D02*
X84744987Y-141678447D01*
X84744987Y-141678447D02*
X83792606Y-141678447D01*
X83792606Y-141678447D02*
X83792606Y-139178447D01*
X83792606Y-139178447D02*
X84625939Y-139178447D01*
X84625939Y-139178447D02*
X84864034Y-139297495D01*
X84864034Y-139297495D02*
X84983082Y-139416542D01*
X84983082Y-139416542D02*
X85102129Y-139654638D01*
X85102129Y-139654638D02*
X85102129Y-139892733D01*
X85102129Y-139892733D02*
X84983082Y-140130828D01*
X84983082Y-140130828D02*
X84864034Y-140249876D01*
X84864034Y-140249876D02*
X84625939Y-140368923D01*
X84625939Y-140368923D02*
X83792606Y-140368923D01*
X86649748Y-141678447D02*
X86411653Y-141559400D01*
X86411653Y-141559400D02*
X86292606Y-141440352D01*
X86292606Y-141440352D02*
X86173558Y-141202257D01*
X86173558Y-141202257D02*
X86173558Y-140487971D01*
X86173558Y-140487971D02*
X86292606Y-140249876D01*
X86292606Y-140249876D02*
X86411653Y-140130828D01*
X86411653Y-140130828D02*
X86649748Y-140011780D01*
X86649748Y-140011780D02*
X87006891Y-140011780D01*
X87006891Y-140011780D02*
X87244987Y-140130828D01*
X87244987Y-140130828D02*
X87364034Y-140249876D01*
X87364034Y-140249876D02*
X87483082Y-140487971D01*
X87483082Y-140487971D02*
X87483082Y-141202257D01*
X87483082Y-141202257D02*
X87364034Y-141440352D01*
X87364034Y-141440352D02*
X87244987Y-141559400D01*
X87244987Y-141559400D02*
X87006891Y-141678447D01*
X87006891Y-141678447D02*
X86649748Y-141678447D01*
X89625939Y-141678447D02*
X89625939Y-140368923D01*
X89625939Y-140368923D02*
X89506892Y-140130828D01*
X89506892Y-140130828D02*
X89268796Y-140011780D01*
X89268796Y-140011780D02*
X88792606Y-140011780D01*
X88792606Y-140011780D02*
X88554511Y-140130828D01*
X89625939Y-141559400D02*
X89387844Y-141678447D01*
X89387844Y-141678447D02*
X88792606Y-141678447D01*
X88792606Y-141678447D02*
X88554511Y-141559400D01*
X88554511Y-141559400D02*
X88435463Y-141321304D01*
X88435463Y-141321304D02*
X88435463Y-141083209D01*
X88435463Y-141083209D02*
X88554511Y-140845114D01*
X88554511Y-140845114D02*
X88792606Y-140726066D01*
X88792606Y-140726066D02*
X89387844Y-140726066D01*
X89387844Y-140726066D02*
X89625939Y-140607019D01*
X90816416Y-141678447D02*
X90816416Y-140011780D01*
X90816416Y-140487971D02*
X90935463Y-140249876D01*
X90935463Y-140249876D02*
X91054511Y-140130828D01*
X91054511Y-140130828D02*
X91292606Y-140011780D01*
X91292606Y-140011780D02*
X91530701Y-140011780D01*
X93435463Y-141678447D02*
X93435463Y-139178447D01*
X93435463Y-141559400D02*
X93197368Y-141678447D01*
X93197368Y-141678447D02*
X92721177Y-141678447D01*
X92721177Y-141678447D02*
X92483082Y-141559400D01*
X92483082Y-141559400D02*
X92364035Y-141440352D01*
X92364035Y-141440352D02*
X92244987Y-141202257D01*
X92244987Y-141202257D02*
X92244987Y-140487971D01*
X92244987Y-140487971D02*
X92364035Y-140249876D01*
X92364035Y-140249876D02*
X92483082Y-140130828D01*
X92483082Y-140130828D02*
X92721177Y-140011780D01*
X92721177Y-140011780D02*
X93197368Y-140011780D01*
X93197368Y-140011780D02*
X93435463Y-140130828D01*
X96530702Y-140011780D02*
X96530702Y-142511780D01*
X96530702Y-140130828D02*
X96768797Y-140011780D01*
X96768797Y-140011780D02*
X97244987Y-140011780D01*
X97244987Y-140011780D02*
X97483083Y-140130828D01*
X97483083Y-140130828D02*
X97602130Y-140249876D01*
X97602130Y-140249876D02*
X97721178Y-140487971D01*
X97721178Y-140487971D02*
X97721178Y-141202257D01*
X97721178Y-141202257D02*
X97602130Y-141440352D01*
X97602130Y-141440352D02*
X97483083Y-141559400D01*
X97483083Y-141559400D02*
X97244987Y-141678447D01*
X97244987Y-141678447D02*
X96768797Y-141678447D01*
X96768797Y-141678447D02*
X96530702Y-141559400D01*
X99149749Y-141678447D02*
X98911654Y-141559400D01*
X98911654Y-141559400D02*
X98792607Y-141440352D01*
X98792607Y-141440352D02*
X98673559Y-141202257D01*
X98673559Y-141202257D02*
X98673559Y-140487971D01*
X98673559Y-140487971D02*
X98792607Y-140249876D01*
X98792607Y-140249876D02*
X98911654Y-140130828D01*
X98911654Y-140130828D02*
X99149749Y-140011780D01*
X99149749Y-140011780D02*
X99506892Y-140011780D01*
X99506892Y-140011780D02*
X99744988Y-140130828D01*
X99744988Y-140130828D02*
X99864035Y-140249876D01*
X99864035Y-140249876D02*
X99983083Y-140487971D01*
X99983083Y-140487971D02*
X99983083Y-141202257D01*
X99983083Y-141202257D02*
X99864035Y-141440352D01*
X99864035Y-141440352D02*
X99744988Y-141559400D01*
X99744988Y-141559400D02*
X99506892Y-141678447D01*
X99506892Y-141678447D02*
X99149749Y-141678447D01*
X100816416Y-140011780D02*
X101292607Y-141678447D01*
X101292607Y-141678447D02*
X101768797Y-140487971D01*
X101768797Y-140487971D02*
X102244988Y-141678447D01*
X102244988Y-141678447D02*
X102721178Y-140011780D01*
X104625941Y-141559400D02*
X104387845Y-141678447D01*
X104387845Y-141678447D02*
X103911655Y-141678447D01*
X103911655Y-141678447D02*
X103673560Y-141559400D01*
X103673560Y-141559400D02*
X103554512Y-141321304D01*
X103554512Y-141321304D02*
X103554512Y-140368923D01*
X103554512Y-140368923D02*
X103673560Y-140130828D01*
X103673560Y-140130828D02*
X103911655Y-140011780D01*
X103911655Y-140011780D02*
X104387845Y-140011780D01*
X104387845Y-140011780D02*
X104625941Y-140130828D01*
X104625941Y-140130828D02*
X104744988Y-140368923D01*
X104744988Y-140368923D02*
X104744988Y-140607019D01*
X104744988Y-140607019D02*
X103554512Y-140845114D01*
X105816417Y-141678447D02*
X105816417Y-140011780D01*
X105816417Y-140487971D02*
X105935464Y-140249876D01*
X105935464Y-140249876D02*
X106054512Y-140130828D01*
X106054512Y-140130828D02*
X106292607Y-140011780D01*
X106292607Y-140011780D02*
X106530702Y-140011780D01*
X52125939Y-62118923D02*
X51292606Y-62118923D01*
X51292606Y-63428447D02*
X51292606Y-60928447D01*
X51292606Y-60928447D02*
X52483082Y-60928447D01*
X54506891Y-63428447D02*
X54506891Y-62118923D01*
X54506891Y-62118923D02*
X54387844Y-61880828D01*
X54387844Y-61880828D02*
X54149748Y-61761780D01*
X54149748Y-61761780D02*
X53673558Y-61761780D01*
X53673558Y-61761780D02*
X53435463Y-61880828D01*
X54506891Y-63309400D02*
X54268796Y-63428447D01*
X54268796Y-63428447D02*
X53673558Y-63428447D01*
X53673558Y-63428447D02*
X53435463Y-63309400D01*
X53435463Y-63309400D02*
X53316415Y-63071304D01*
X53316415Y-63071304D02*
X53316415Y-62833209D01*
X53316415Y-62833209D02*
X53435463Y-62595114D01*
X53435463Y-62595114D02*
X53673558Y-62476066D01*
X53673558Y-62476066D02*
X54268796Y-62476066D01*
X54268796Y-62476066D02*
X54506891Y-62357019D01*
X55697368Y-61761780D02*
X55697368Y-63428447D01*
X55697368Y-61999876D02*
X55816415Y-61880828D01*
X55816415Y-61880828D02*
X56054510Y-61761780D01*
X56054510Y-61761780D02*
X56411653Y-61761780D01*
X56411653Y-61761780D02*
X56649749Y-61880828D01*
X56649749Y-61880828D02*
X56768796Y-62118923D01*
X56768796Y-62118923D02*
X56768796Y-63428447D01*
X59864035Y-61761780D02*
X59864035Y-64261780D01*
X59864035Y-61880828D02*
X60102130Y-61761780D01*
X60102130Y-61761780D02*
X60578320Y-61761780D01*
X60578320Y-61761780D02*
X60816416Y-61880828D01*
X60816416Y-61880828D02*
X60935463Y-61999876D01*
X60935463Y-61999876D02*
X61054511Y-62237971D01*
X61054511Y-62237971D02*
X61054511Y-62952257D01*
X61054511Y-62952257D02*
X60935463Y-63190352D01*
X60935463Y-63190352D02*
X60816416Y-63309400D01*
X60816416Y-63309400D02*
X60578320Y-63428447D01*
X60578320Y-63428447D02*
X60102130Y-63428447D01*
X60102130Y-63428447D02*
X59864035Y-63309400D01*
X62483082Y-63428447D02*
X62244987Y-63309400D01*
X62244987Y-63309400D02*
X62125940Y-63190352D01*
X62125940Y-63190352D02*
X62006892Y-62952257D01*
X62006892Y-62952257D02*
X62006892Y-62237971D01*
X62006892Y-62237971D02*
X62125940Y-61999876D01*
X62125940Y-61999876D02*
X62244987Y-61880828D01*
X62244987Y-61880828D02*
X62483082Y-61761780D01*
X62483082Y-61761780D02*
X62840225Y-61761780D01*
X62840225Y-61761780D02*
X63078321Y-61880828D01*
X63078321Y-61880828D02*
X63197368Y-61999876D01*
X63197368Y-61999876D02*
X63316416Y-62237971D01*
X63316416Y-62237971D02*
X63316416Y-62952257D01*
X63316416Y-62952257D02*
X63197368Y-63190352D01*
X63197368Y-63190352D02*
X63078321Y-63309400D01*
X63078321Y-63309400D02*
X62840225Y-63428447D01*
X62840225Y-63428447D02*
X62483082Y-63428447D01*
X64149749Y-61761780D02*
X64625940Y-63428447D01*
X64625940Y-63428447D02*
X65102130Y-62237971D01*
X65102130Y-62237971D02*
X65578321Y-63428447D01*
X65578321Y-63428447D02*
X66054511Y-61761780D01*
X67959274Y-63309400D02*
X67721178Y-63428447D01*
X67721178Y-63428447D02*
X67244988Y-63428447D01*
X67244988Y-63428447D02*
X67006893Y-63309400D01*
X67006893Y-63309400D02*
X66887845Y-63071304D01*
X66887845Y-63071304D02*
X66887845Y-62118923D01*
X66887845Y-62118923D02*
X67006893Y-61880828D01*
X67006893Y-61880828D02*
X67244988Y-61761780D01*
X67244988Y-61761780D02*
X67721178Y-61761780D01*
X67721178Y-61761780D02*
X67959274Y-61880828D01*
X67959274Y-61880828D02*
X68078321Y-62118923D01*
X68078321Y-62118923D02*
X68078321Y-62357019D01*
X68078321Y-62357019D02*
X66887845Y-62595114D01*
X69149750Y-63428447D02*
X69149750Y-61761780D01*
X69149750Y-62237971D02*
X69268797Y-61999876D01*
X69268797Y-61999876D02*
X69387845Y-61880828D01*
X69387845Y-61880828D02*
X69625940Y-61761780D01*
X69625940Y-61761780D02*
X69864035Y-61761780D01*
X163185463Y-107928447D02*
X164614034Y-107928447D01*
X163899748Y-110428447D02*
X163899748Y-107928447D01*
X166399749Y-110309400D02*
X166161653Y-110428447D01*
X166161653Y-110428447D02*
X165685463Y-110428447D01*
X165685463Y-110428447D02*
X165447368Y-110309400D01*
X165447368Y-110309400D02*
X165328320Y-110071304D01*
X165328320Y-110071304D02*
X165328320Y-109118923D01*
X165328320Y-109118923D02*
X165447368Y-108880828D01*
X165447368Y-108880828D02*
X165685463Y-108761780D01*
X165685463Y-108761780D02*
X166161653Y-108761780D01*
X166161653Y-108761780D02*
X166399749Y-108880828D01*
X166399749Y-108880828D02*
X166518796Y-109118923D01*
X166518796Y-109118923D02*
X166518796Y-109357019D01*
X166518796Y-109357019D02*
X165328320Y-109595114D01*
X167590225Y-110428447D02*
X167590225Y-108761780D01*
X167590225Y-108999876D02*
X167709272Y-108880828D01*
X167709272Y-108880828D02*
X167947367Y-108761780D01*
X167947367Y-108761780D02*
X168304510Y-108761780D01*
X168304510Y-108761780D02*
X168542606Y-108880828D01*
X168542606Y-108880828D02*
X168661653Y-109118923D01*
X168661653Y-109118923D02*
X168661653Y-110428447D01*
X168661653Y-109118923D02*
X168780701Y-108880828D01*
X168780701Y-108880828D02*
X169018796Y-108761780D01*
X169018796Y-108761780D02*
X169375939Y-108761780D01*
X169375939Y-108761780D02*
X169614034Y-108880828D01*
X169614034Y-108880828D02*
X169733082Y-109118923D01*
X169733082Y-109118923D02*
X169733082Y-110428447D01*
X170923558Y-108761780D02*
X170923558Y-111261780D01*
X170923558Y-108880828D02*
X171161653Y-108761780D01*
X171161653Y-108761780D02*
X171637843Y-108761780D01*
X171637843Y-108761780D02*
X171875939Y-108880828D01*
X171875939Y-108880828D02*
X171994986Y-108999876D01*
X171994986Y-108999876D02*
X172114034Y-109237971D01*
X172114034Y-109237971D02*
X172114034Y-109952257D01*
X172114034Y-109952257D02*
X171994986Y-110190352D01*
X171994986Y-110190352D02*
X171875939Y-110309400D01*
X171875939Y-110309400D02*
X171637843Y-110428447D01*
X171637843Y-110428447D02*
X171161653Y-110428447D01*
X171161653Y-110428447D02*
X170923558Y-110309400D01*
X174971177Y-110309400D02*
X175209272Y-110428447D01*
X175209272Y-110428447D02*
X175685463Y-110428447D01*
X175685463Y-110428447D02*
X175923558Y-110309400D01*
X175923558Y-110309400D02*
X176042606Y-110071304D01*
X176042606Y-110071304D02*
X176042606Y-109952257D01*
X176042606Y-109952257D02*
X175923558Y-109714161D01*
X175923558Y-109714161D02*
X175685463Y-109595114D01*
X175685463Y-109595114D02*
X175328320Y-109595114D01*
X175328320Y-109595114D02*
X175090225Y-109476066D01*
X175090225Y-109476066D02*
X174971177Y-109237971D01*
X174971177Y-109237971D02*
X174971177Y-109118923D01*
X174971177Y-109118923D02*
X175090225Y-108880828D01*
X175090225Y-108880828D02*
X175328320Y-108761780D01*
X175328320Y-108761780D02*
X175685463Y-108761780D01*
X175685463Y-108761780D02*
X175923558Y-108880828D01*
X178066416Y-110309400D02*
X177828320Y-110428447D01*
X177828320Y-110428447D02*
X177352130Y-110428447D01*
X177352130Y-110428447D02*
X177114035Y-110309400D01*
X177114035Y-110309400D02*
X176994987Y-110071304D01*
X176994987Y-110071304D02*
X176994987Y-109118923D01*
X176994987Y-109118923D02*
X177114035Y-108880828D01*
X177114035Y-108880828D02*
X177352130Y-108761780D01*
X177352130Y-108761780D02*
X177828320Y-108761780D01*
X177828320Y-108761780D02*
X178066416Y-108880828D01*
X178066416Y-108880828D02*
X178185463Y-109118923D01*
X178185463Y-109118923D02*
X178185463Y-109357019D01*
X178185463Y-109357019D02*
X176994987Y-109595114D01*
X179256892Y-108761780D02*
X179256892Y-110428447D01*
X179256892Y-108999876D02*
X179375939Y-108880828D01*
X179375939Y-108880828D02*
X179614034Y-108761780D01*
X179614034Y-108761780D02*
X179971177Y-108761780D01*
X179971177Y-108761780D02*
X180209273Y-108880828D01*
X180209273Y-108880828D02*
X180328320Y-109118923D01*
X180328320Y-109118923D02*
X180328320Y-110428447D01*
X181399749Y-110309400D02*
X181637844Y-110428447D01*
X181637844Y-110428447D02*
X182114035Y-110428447D01*
X182114035Y-110428447D02*
X182352130Y-110309400D01*
X182352130Y-110309400D02*
X182471178Y-110071304D01*
X182471178Y-110071304D02*
X182471178Y-109952257D01*
X182471178Y-109952257D02*
X182352130Y-109714161D01*
X182352130Y-109714161D02*
X182114035Y-109595114D01*
X182114035Y-109595114D02*
X181756892Y-109595114D01*
X181756892Y-109595114D02*
X181518797Y-109476066D01*
X181518797Y-109476066D02*
X181399749Y-109237971D01*
X181399749Y-109237971D02*
X181399749Y-109118923D01*
X181399749Y-109118923D02*
X181518797Y-108880828D01*
X181518797Y-108880828D02*
X181756892Y-108761780D01*
X181756892Y-108761780D02*
X182114035Y-108761780D01*
X182114035Y-108761780D02*
X182352130Y-108880828D01*
X183899749Y-110428447D02*
X183661654Y-110309400D01*
X183661654Y-110309400D02*
X183542607Y-110190352D01*
X183542607Y-110190352D02*
X183423559Y-109952257D01*
X183423559Y-109952257D02*
X183423559Y-109237971D01*
X183423559Y-109237971D02*
X183542607Y-108999876D01*
X183542607Y-108999876D02*
X183661654Y-108880828D01*
X183661654Y-108880828D02*
X183899749Y-108761780D01*
X183899749Y-108761780D02*
X184256892Y-108761780D01*
X184256892Y-108761780D02*
X184494988Y-108880828D01*
X184494988Y-108880828D02*
X184614035Y-108999876D01*
X184614035Y-108999876D02*
X184733083Y-109237971D01*
X184733083Y-109237971D02*
X184733083Y-109952257D01*
X184733083Y-109952257D02*
X184614035Y-110190352D01*
X184614035Y-110190352D02*
X184494988Y-110309400D01*
X184494988Y-110309400D02*
X184256892Y-110428447D01*
X184256892Y-110428447D02*
X183899749Y-110428447D01*
X185804512Y-110428447D02*
X185804512Y-108761780D01*
X185804512Y-109237971D02*
X185923559Y-108999876D01*
X185923559Y-108999876D02*
X186042607Y-108880828D01*
X186042607Y-108880828D02*
X186280702Y-108761780D01*
X186280702Y-108761780D02*
X186518797Y-108761780D01*
X187233083Y-110309400D02*
X187471178Y-110428447D01*
X187471178Y-110428447D02*
X187947369Y-110428447D01*
X187947369Y-110428447D02*
X188185464Y-110309400D01*
X188185464Y-110309400D02*
X188304512Y-110071304D01*
X188304512Y-110071304D02*
X188304512Y-109952257D01*
X188304512Y-109952257D02*
X188185464Y-109714161D01*
X188185464Y-109714161D02*
X187947369Y-109595114D01*
X187947369Y-109595114D02*
X187590226Y-109595114D01*
X187590226Y-109595114D02*
X187352131Y-109476066D01*
X187352131Y-109476066D02*
X187233083Y-109237971D01*
X187233083Y-109237971D02*
X187233083Y-109118923D01*
X187233083Y-109118923D02*
X187352131Y-108880828D01*
X187352131Y-108880828D02*
X187590226Y-108761780D01*
X187590226Y-108761780D02*
X187947369Y-108761780D01*
X187947369Y-108761780D02*
X188185464Y-108880828D01*
X215542606Y-48678447D02*
X215542606Y-50702257D01*
X215542606Y-50702257D02*
X215661653Y-50940352D01*
X215661653Y-50940352D02*
X215780701Y-51059400D01*
X215780701Y-51059400D02*
X216018796Y-51178447D01*
X216018796Y-51178447D02*
X216494987Y-51178447D01*
X216494987Y-51178447D02*
X216733082Y-51059400D01*
X216733082Y-51059400D02*
X216852129Y-50940352D01*
X216852129Y-50940352D02*
X216971177Y-50702257D01*
X216971177Y-50702257D02*
X216971177Y-48678447D01*
X218042606Y-51059400D02*
X218280701Y-51178447D01*
X218280701Y-51178447D02*
X218756892Y-51178447D01*
X218756892Y-51178447D02*
X218994987Y-51059400D01*
X218994987Y-51059400D02*
X219114035Y-50821304D01*
X219114035Y-50821304D02*
X219114035Y-50702257D01*
X219114035Y-50702257D02*
X218994987Y-50464161D01*
X218994987Y-50464161D02*
X218756892Y-50345114D01*
X218756892Y-50345114D02*
X218399749Y-50345114D01*
X218399749Y-50345114D02*
X218161654Y-50226066D01*
X218161654Y-50226066D02*
X218042606Y-49987971D01*
X218042606Y-49987971D02*
X218042606Y-49868923D01*
X218042606Y-49868923D02*
X218161654Y-49630828D01*
X218161654Y-49630828D02*
X218399749Y-49511780D01*
X218399749Y-49511780D02*
X218756892Y-49511780D01*
X218756892Y-49511780D02*
X218994987Y-49630828D01*
X221137845Y-51059400D02*
X220899749Y-51178447D01*
X220899749Y-51178447D02*
X220423559Y-51178447D01*
X220423559Y-51178447D02*
X220185464Y-51059400D01*
X220185464Y-51059400D02*
X220066416Y-50821304D01*
X220066416Y-50821304D02*
X220066416Y-49868923D01*
X220066416Y-49868923D02*
X220185464Y-49630828D01*
X220185464Y-49630828D02*
X220423559Y-49511780D01*
X220423559Y-49511780D02*
X220899749Y-49511780D01*
X220899749Y-49511780D02*
X221137845Y-49630828D01*
X221137845Y-49630828D02*
X221256892Y-49868923D01*
X221256892Y-49868923D02*
X221256892Y-50107019D01*
X221256892Y-50107019D02*
X220066416Y-50345114D01*
X222328321Y-51178447D02*
X222328321Y-49511780D01*
X222328321Y-49987971D02*
X222447368Y-49749876D01*
X222447368Y-49749876D02*
X222566416Y-49630828D01*
X222566416Y-49630828D02*
X222804511Y-49511780D01*
X222804511Y-49511780D02*
X223042606Y-49511780D01*
X225780702Y-51178447D02*
X225780702Y-48678447D01*
X225780702Y-49630828D02*
X226018797Y-49511780D01*
X226018797Y-49511780D02*
X226494987Y-49511780D01*
X226494987Y-49511780D02*
X226733083Y-49630828D01*
X226733083Y-49630828D02*
X226852130Y-49749876D01*
X226852130Y-49749876D02*
X226971178Y-49987971D01*
X226971178Y-49987971D02*
X226971178Y-50702257D01*
X226971178Y-50702257D02*
X226852130Y-50940352D01*
X226852130Y-50940352D02*
X226733083Y-51059400D01*
X226733083Y-51059400D02*
X226494987Y-51178447D01*
X226494987Y-51178447D02*
X226018797Y-51178447D01*
X226018797Y-51178447D02*
X225780702Y-51059400D01*
X229114035Y-49511780D02*
X229114035Y-51178447D01*
X228042607Y-49511780D02*
X228042607Y-50821304D01*
X228042607Y-50821304D02*
X228161654Y-51059400D01*
X228161654Y-51059400D02*
X228399749Y-51178447D01*
X228399749Y-51178447D02*
X228756892Y-51178447D01*
X228756892Y-51178447D02*
X228994988Y-51059400D01*
X228994988Y-51059400D02*
X229114035Y-50940352D01*
X229947369Y-49511780D02*
X230899750Y-49511780D01*
X230304512Y-48678447D02*
X230304512Y-50821304D01*
X230304512Y-50821304D02*
X230423559Y-51059400D01*
X230423559Y-51059400D02*
X230661654Y-51178447D01*
X230661654Y-51178447D02*
X230899750Y-51178447D01*
X231375940Y-49511780D02*
X232328321Y-49511780D01*
X231733083Y-48678447D02*
X231733083Y-50821304D01*
X231733083Y-50821304D02*
X231852130Y-51059400D01*
X231852130Y-51059400D02*
X232090225Y-51178447D01*
X232090225Y-51178447D02*
X232328321Y-51178447D01*
X233518796Y-51178447D02*
X233280701Y-51059400D01*
X233280701Y-51059400D02*
X233161654Y-50940352D01*
X233161654Y-50940352D02*
X233042606Y-50702257D01*
X233042606Y-50702257D02*
X233042606Y-49987971D01*
X233042606Y-49987971D02*
X233161654Y-49749876D01*
X233161654Y-49749876D02*
X233280701Y-49630828D01*
X233280701Y-49630828D02*
X233518796Y-49511780D01*
X233518796Y-49511780D02*
X233875939Y-49511780D01*
X233875939Y-49511780D02*
X234114035Y-49630828D01*
X234114035Y-49630828D02*
X234233082Y-49749876D01*
X234233082Y-49749876D02*
X234352130Y-49987971D01*
X234352130Y-49987971D02*
X234352130Y-50702257D01*
X234352130Y-50702257D02*
X234233082Y-50940352D01*
X234233082Y-50940352D02*
X234114035Y-51059400D01*
X234114035Y-51059400D02*
X233875939Y-51178447D01*
X233875939Y-51178447D02*
X233518796Y-51178447D01*
X235423559Y-49511780D02*
X235423559Y-51178447D01*
X235423559Y-49749876D02*
X235542606Y-49630828D01*
X235542606Y-49630828D02*
X235780701Y-49511780D01*
X235780701Y-49511780D02*
X236137844Y-49511780D01*
X236137844Y-49511780D02*
X236375940Y-49630828D01*
X236375940Y-49630828D02*
X236494987Y-49868923D01*
X236494987Y-49868923D02*
X236494987Y-51178447D01*
X237566416Y-51059400D02*
X237804511Y-51178447D01*
X237804511Y-51178447D02*
X238280702Y-51178447D01*
X238280702Y-51178447D02*
X238518797Y-51059400D01*
X238518797Y-51059400D02*
X238637845Y-50821304D01*
X238637845Y-50821304D02*
X238637845Y-50702257D01*
X238637845Y-50702257D02*
X238518797Y-50464161D01*
X238518797Y-50464161D02*
X238280702Y-50345114D01*
X238280702Y-50345114D02*
X237923559Y-50345114D01*
X237923559Y-50345114D02*
X237685464Y-50226066D01*
X237685464Y-50226066D02*
X237566416Y-49987971D01*
X237566416Y-49987971D02*
X237566416Y-49868923D01*
X237566416Y-49868923D02*
X237685464Y-49630828D01*
X237685464Y-49630828D02*
X237923559Y-49511780D01*
X237923559Y-49511780D02*
X238280702Y-49511780D01*
X238280702Y-49511780D02*
X238518797Y-49630828D01*
X238983082Y-150678447D02*
X237792606Y-150678447D01*
X237792606Y-150678447D02*
X237792606Y-148178447D01*
X241244987Y-150440352D02*
X241125939Y-150559400D01*
X241125939Y-150559400D02*
X240768797Y-150678447D01*
X240768797Y-150678447D02*
X240530701Y-150678447D01*
X240530701Y-150678447D02*
X240173558Y-150559400D01*
X240173558Y-150559400D02*
X239935463Y-150321304D01*
X239935463Y-150321304D02*
X239816416Y-150083209D01*
X239816416Y-150083209D02*
X239697368Y-149607019D01*
X239697368Y-149607019D02*
X239697368Y-149249876D01*
X239697368Y-149249876D02*
X239816416Y-148773685D01*
X239816416Y-148773685D02*
X239935463Y-148535590D01*
X239935463Y-148535590D02*
X240173558Y-148297495D01*
X240173558Y-148297495D02*
X240530701Y-148178447D01*
X240530701Y-148178447D02*
X240768797Y-148178447D01*
X240768797Y-148178447D02*
X241125939Y-148297495D01*
X241125939Y-148297495D02*
X241244987Y-148416542D01*
X242316416Y-150678447D02*
X242316416Y-148178447D01*
X242316416Y-148178447D02*
X242911654Y-148178447D01*
X242911654Y-148178447D02*
X243268797Y-148297495D01*
X243268797Y-148297495D02*
X243506892Y-148535590D01*
X243506892Y-148535590D02*
X243625939Y-148773685D01*
X243625939Y-148773685D02*
X243744987Y-149249876D01*
X243744987Y-149249876D02*
X243744987Y-149607019D01*
X243744987Y-149607019D02*
X243625939Y-150083209D01*
X243625939Y-150083209D02*
X243506892Y-150321304D01*
X243506892Y-150321304D02*
X243268797Y-150559400D01*
X243268797Y-150559400D02*
X242911654Y-150678447D01*
X242911654Y-150678447D02*
X242316416Y-150678447D01*
X246721178Y-150678447D02*
X246721178Y-148178447D01*
X247792606Y-150678447D02*
X247792606Y-149368923D01*
X247792606Y-149368923D02*
X247673559Y-149130828D01*
X247673559Y-149130828D02*
X247435463Y-149011780D01*
X247435463Y-149011780D02*
X247078320Y-149011780D01*
X247078320Y-149011780D02*
X246840225Y-149130828D01*
X246840225Y-149130828D02*
X246721178Y-149249876D01*
X249935464Y-150559400D02*
X249697368Y-150678447D01*
X249697368Y-150678447D02*
X249221178Y-150678447D01*
X249221178Y-150678447D02*
X248983083Y-150559400D01*
X248983083Y-150559400D02*
X248864035Y-150321304D01*
X248864035Y-150321304D02*
X248864035Y-149368923D01*
X248864035Y-149368923D02*
X248983083Y-149130828D01*
X248983083Y-149130828D02*
X249221178Y-149011780D01*
X249221178Y-149011780D02*
X249697368Y-149011780D01*
X249697368Y-149011780D02*
X249935464Y-149130828D01*
X249935464Y-149130828D02*
X250054511Y-149368923D01*
X250054511Y-149368923D02*
X250054511Y-149607019D01*
X250054511Y-149607019D02*
X248864035Y-149845114D01*
X252197368Y-150678447D02*
X252197368Y-149368923D01*
X252197368Y-149368923D02*
X252078321Y-149130828D01*
X252078321Y-149130828D02*
X251840225Y-149011780D01*
X251840225Y-149011780D02*
X251364035Y-149011780D01*
X251364035Y-149011780D02*
X251125940Y-149130828D01*
X252197368Y-150559400D02*
X251959273Y-150678447D01*
X251959273Y-150678447D02*
X251364035Y-150678447D01*
X251364035Y-150678447D02*
X251125940Y-150559400D01*
X251125940Y-150559400D02*
X251006892Y-150321304D01*
X251006892Y-150321304D02*
X251006892Y-150083209D01*
X251006892Y-150083209D02*
X251125940Y-149845114D01*
X251125940Y-149845114D02*
X251364035Y-149726066D01*
X251364035Y-149726066D02*
X251959273Y-149726066D01*
X251959273Y-149726066D02*
X252197368Y-149607019D01*
X254459273Y-150678447D02*
X254459273Y-148178447D01*
X254459273Y-150559400D02*
X254221178Y-150678447D01*
X254221178Y-150678447D02*
X253744987Y-150678447D01*
X253744987Y-150678447D02*
X253506892Y-150559400D01*
X253506892Y-150559400D02*
X253387845Y-150440352D01*
X253387845Y-150440352D02*
X253268797Y-150202257D01*
X253268797Y-150202257D02*
X253268797Y-149487971D01*
X253268797Y-149487971D02*
X253387845Y-149249876D01*
X253387845Y-149249876D02*
X253506892Y-149130828D01*
X253506892Y-149130828D02*
X253744987Y-149011780D01*
X253744987Y-149011780D02*
X254221178Y-149011780D01*
X254221178Y-149011780D02*
X254459273Y-149130828D01*
X256602131Y-150559400D02*
X256364035Y-150678447D01*
X256364035Y-150678447D02*
X255887845Y-150678447D01*
X255887845Y-150678447D02*
X255649750Y-150559400D01*
X255649750Y-150559400D02*
X255530702Y-150321304D01*
X255530702Y-150321304D02*
X255530702Y-149368923D01*
X255530702Y-149368923D02*
X255649750Y-149130828D01*
X255649750Y-149130828D02*
X255887845Y-149011780D01*
X255887845Y-149011780D02*
X256364035Y-149011780D01*
X256364035Y-149011780D02*
X256602131Y-149130828D01*
X256602131Y-149130828D02*
X256721178Y-149368923D01*
X256721178Y-149368923D02*
X256721178Y-149607019D01*
X256721178Y-149607019D02*
X255530702Y-149845114D01*
X257792607Y-150678447D02*
X257792607Y-149011780D01*
X257792607Y-149487971D02*
X257911654Y-149249876D01*
X257911654Y-149249876D02*
X258030702Y-149130828D01*
X258030702Y-149130828D02*
X258268797Y-149011780D01*
X258268797Y-149011780D02*
X258506892Y-149011780D01*
X35435463Y-76678447D02*
X36864034Y-76678447D01*
X36149748Y-79178447D02*
X36149748Y-76678447D01*
X37697368Y-77868923D02*
X38530701Y-77868923D01*
X38887844Y-79178447D02*
X37697368Y-79178447D01*
X37697368Y-79178447D02*
X37697368Y-76678447D01*
X37697368Y-76678447D02*
X38887844Y-76678447D01*
X41387844Y-78940352D02*
X41268796Y-79059400D01*
X41268796Y-79059400D02*
X40911654Y-79178447D01*
X40911654Y-79178447D02*
X40673558Y-79178447D01*
X40673558Y-79178447D02*
X40316415Y-79059400D01*
X40316415Y-79059400D02*
X40078320Y-78821304D01*
X40078320Y-78821304D02*
X39959273Y-78583209D01*
X39959273Y-78583209D02*
X39840225Y-78107019D01*
X39840225Y-78107019D02*
X39840225Y-77749876D01*
X39840225Y-77749876D02*
X39959273Y-77273685D01*
X39959273Y-77273685D02*
X40078320Y-77035590D01*
X40078320Y-77035590D02*
X40316415Y-76797495D01*
X40316415Y-76797495D02*
X40673558Y-76678447D01*
X40673558Y-76678447D02*
X40911654Y-76678447D01*
X40911654Y-76678447D02*
X41268796Y-76797495D01*
X41268796Y-76797495D02*
X41387844Y-76916542D01*
X44364035Y-79178447D02*
X44364035Y-76678447D01*
X44364035Y-76678447D02*
X45316416Y-76678447D01*
X45316416Y-76678447D02*
X45554511Y-76797495D01*
X45554511Y-76797495D02*
X45673558Y-76916542D01*
X45673558Y-76916542D02*
X45792606Y-77154638D01*
X45792606Y-77154638D02*
X45792606Y-77511780D01*
X45792606Y-77511780D02*
X45673558Y-77749876D01*
X45673558Y-77749876D02*
X45554511Y-77868923D01*
X45554511Y-77868923D02*
X45316416Y-77987971D01*
X45316416Y-77987971D02*
X44364035Y-77987971D01*
X47221177Y-79178447D02*
X46983082Y-79059400D01*
X46983082Y-79059400D02*
X46864035Y-78940352D01*
X46864035Y-78940352D02*
X46744987Y-78702257D01*
X46744987Y-78702257D02*
X46744987Y-77987971D01*
X46744987Y-77987971D02*
X46864035Y-77749876D01*
X46864035Y-77749876D02*
X46983082Y-77630828D01*
X46983082Y-77630828D02*
X47221177Y-77511780D01*
X47221177Y-77511780D02*
X47578320Y-77511780D01*
X47578320Y-77511780D02*
X47816416Y-77630828D01*
X47816416Y-77630828D02*
X47935463Y-77749876D01*
X47935463Y-77749876D02*
X48054511Y-77987971D01*
X48054511Y-77987971D02*
X48054511Y-78702257D01*
X48054511Y-78702257D02*
X47935463Y-78940352D01*
X47935463Y-78940352D02*
X47816416Y-79059400D01*
X47816416Y-79059400D02*
X47578320Y-79178447D01*
X47578320Y-79178447D02*
X47221177Y-79178447D01*
X48887844Y-77511780D02*
X49364035Y-79178447D01*
X49364035Y-79178447D02*
X49840225Y-77987971D01*
X49840225Y-77987971D02*
X50316416Y-79178447D01*
X50316416Y-79178447D02*
X50792606Y-77511780D01*
X52697369Y-79059400D02*
X52459273Y-79178447D01*
X52459273Y-79178447D02*
X51983083Y-79178447D01*
X51983083Y-79178447D02*
X51744988Y-79059400D01*
X51744988Y-79059400D02*
X51625940Y-78821304D01*
X51625940Y-78821304D02*
X51625940Y-77868923D01*
X51625940Y-77868923D02*
X51744988Y-77630828D01*
X51744988Y-77630828D02*
X51983083Y-77511780D01*
X51983083Y-77511780D02*
X52459273Y-77511780D01*
X52459273Y-77511780D02*
X52697369Y-77630828D01*
X52697369Y-77630828D02*
X52816416Y-77868923D01*
X52816416Y-77868923D02*
X52816416Y-78107019D01*
X52816416Y-78107019D02*
X51625940Y-78345114D01*
X53887845Y-79178447D02*
X53887845Y-77511780D01*
X53887845Y-77987971D02*
X54006892Y-77749876D01*
X54006892Y-77749876D02*
X54125940Y-77630828D01*
X54125940Y-77630828D02*
X54364035Y-77511780D01*
X54364035Y-77511780D02*
X54602130Y-77511780D01*
D11*
X181440476Y-132454819D02*
X181773809Y-133454819D01*
X181773809Y-133454819D02*
X182107142Y-132454819D01*
X183011904Y-133454819D02*
X182678571Y-132978628D01*
X182440476Y-133454819D02*
X182440476Y-132454819D01*
X182440476Y-132454819D02*
X182821428Y-132454819D01*
X182821428Y-132454819D02*
X182916666Y-132502438D01*
X182916666Y-132502438D02*
X182964285Y-132550057D01*
X182964285Y-132550057D02*
X183011904Y-132645295D01*
X183011904Y-132645295D02*
X183011904Y-132788152D01*
X183011904Y-132788152D02*
X182964285Y-132883390D01*
X182964285Y-132883390D02*
X182916666Y-132931009D01*
X182916666Y-132931009D02*
X182821428Y-132978628D01*
X182821428Y-132978628D02*
X182440476Y-132978628D01*
X183964285Y-133454819D02*
X183392857Y-133454819D01*
X183678571Y-133454819D02*
X183678571Y-132454819D01*
X183678571Y-132454819D02*
X183583333Y-132597676D01*
X183583333Y-132597676D02*
X183488095Y-132692914D01*
X183488095Y-132692914D02*
X183392857Y-132740533D01*
X185816766Y-135223580D02*
X185816766Y-136223580D01*
X185816766Y-136223580D02*
X185578671Y-136223580D01*
X185578671Y-136223580D02*
X185435814Y-136175961D01*
X185435814Y-136175961D02*
X185340576Y-136080723D01*
X185340576Y-136080723D02*
X185292957Y-135985485D01*
X185292957Y-135985485D02*
X185245338Y-135795009D01*
X185245338Y-135795009D02*
X185245338Y-135652152D01*
X185245338Y-135652152D02*
X185292957Y-135461676D01*
X185292957Y-135461676D02*
X185340576Y-135366438D01*
X185340576Y-135366438D02*
X185435814Y-135271200D01*
X185435814Y-135271200D02*
X185578671Y-135223580D01*
X185578671Y-135223580D02*
X185816766Y-135223580D01*
X184435814Y-135271200D02*
X184531052Y-135223580D01*
X184531052Y-135223580D02*
X184721528Y-135223580D01*
X184721528Y-135223580D02*
X184816766Y-135271200D01*
X184816766Y-135271200D02*
X184864385Y-135366438D01*
X184864385Y-135366438D02*
X184864385Y-135747390D01*
X184864385Y-135747390D02*
X184816766Y-135842628D01*
X184816766Y-135842628D02*
X184721528Y-135890247D01*
X184721528Y-135890247D02*
X184531052Y-135890247D01*
X184531052Y-135890247D02*
X184435814Y-135842628D01*
X184435814Y-135842628D02*
X184388195Y-135747390D01*
X184388195Y-135747390D02*
X184388195Y-135652152D01*
X184388195Y-135652152D02*
X184864385Y-135556914D01*
X184007242Y-135271200D02*
X183912004Y-135223580D01*
X183912004Y-135223580D02*
X183721528Y-135223580D01*
X183721528Y-135223580D02*
X183626290Y-135271200D01*
X183626290Y-135271200D02*
X183578671Y-135366438D01*
X183578671Y-135366438D02*
X183578671Y-135414057D01*
X183578671Y-135414057D02*
X183626290Y-135509295D01*
X183626290Y-135509295D02*
X183721528Y-135556914D01*
X183721528Y-135556914D02*
X183864385Y-135556914D01*
X183864385Y-135556914D02*
X183959623Y-135604533D01*
X183959623Y-135604533D02*
X184007242Y-135699771D01*
X184007242Y-135699771D02*
X184007242Y-135747390D01*
X184007242Y-135747390D02*
X183959623Y-135842628D01*
X183959623Y-135842628D02*
X183864385Y-135890247D01*
X183864385Y-135890247D02*
X183721528Y-135890247D01*
X183721528Y-135890247D02*
X183626290Y-135842628D01*
X183150099Y-135223580D02*
X183150099Y-135890247D01*
X183150099Y-136223580D02*
X183197718Y-136175961D01*
X183197718Y-136175961D02*
X183150099Y-136128342D01*
X183150099Y-136128342D02*
X183102480Y-136175961D01*
X183102480Y-136175961D02*
X183150099Y-136223580D01*
X183150099Y-136223580D02*
X183150099Y-136128342D01*
X182245338Y-135890247D02*
X182245338Y-135080723D01*
X182245338Y-135080723D02*
X182292957Y-134985485D01*
X182292957Y-134985485D02*
X182340576Y-134937866D01*
X182340576Y-134937866D02*
X182435814Y-134890247D01*
X182435814Y-134890247D02*
X182578671Y-134890247D01*
X182578671Y-134890247D02*
X182673909Y-134937866D01*
X182245338Y-135271200D02*
X182340576Y-135223580D01*
X182340576Y-135223580D02*
X182531052Y-135223580D01*
X182531052Y-135223580D02*
X182626290Y-135271200D01*
X182626290Y-135271200D02*
X182673909Y-135318819D01*
X182673909Y-135318819D02*
X182721528Y-135414057D01*
X182721528Y-135414057D02*
X182721528Y-135699771D01*
X182721528Y-135699771D02*
X182673909Y-135795009D01*
X182673909Y-135795009D02*
X182626290Y-135842628D01*
X182626290Y-135842628D02*
X182531052Y-135890247D01*
X182531052Y-135890247D02*
X182340576Y-135890247D01*
X182340576Y-135890247D02*
X182245338Y-135842628D01*
X181769147Y-135890247D02*
X181769147Y-135223580D01*
X181769147Y-135795009D02*
X181721528Y-135842628D01*
X181721528Y-135842628D02*
X181626290Y-135890247D01*
X181626290Y-135890247D02*
X181483433Y-135890247D01*
X181483433Y-135890247D02*
X181388195Y-135842628D01*
X181388195Y-135842628D02*
X181340576Y-135747390D01*
X181340576Y-135747390D02*
X181340576Y-135223580D01*
X180435814Y-135223580D02*
X180435814Y-135747390D01*
X180435814Y-135747390D02*
X180483433Y-135842628D01*
X180483433Y-135842628D02*
X180578671Y-135890247D01*
X180578671Y-135890247D02*
X180769147Y-135890247D01*
X180769147Y-135890247D02*
X180864385Y-135842628D01*
X180435814Y-135271200D02*
X180531052Y-135223580D01*
X180531052Y-135223580D02*
X180769147Y-135223580D01*
X180769147Y-135223580D02*
X180864385Y-135271200D01*
X180864385Y-135271200D02*
X180912004Y-135366438D01*
X180912004Y-135366438D02*
X180912004Y-135461676D01*
X180912004Y-135461676D02*
X180864385Y-135556914D01*
X180864385Y-135556914D02*
X180769147Y-135604533D01*
X180769147Y-135604533D02*
X180531052Y-135604533D01*
X180531052Y-135604533D02*
X180435814Y-135652152D01*
X180102480Y-135890247D02*
X179721528Y-135890247D01*
X179959623Y-136223580D02*
X179959623Y-135366438D01*
X179959623Y-135366438D02*
X179912004Y-135271200D01*
X179912004Y-135271200D02*
X179816766Y-135223580D01*
X179816766Y-135223580D02*
X179721528Y-135223580D01*
X179245337Y-135223580D02*
X179340575Y-135271200D01*
X179340575Y-135271200D02*
X179388194Y-135318819D01*
X179388194Y-135318819D02*
X179435813Y-135414057D01*
X179435813Y-135414057D02*
X179435813Y-135699771D01*
X179435813Y-135699771D02*
X179388194Y-135795009D01*
X179388194Y-135795009D02*
X179340575Y-135842628D01*
X179340575Y-135842628D02*
X179245337Y-135890247D01*
X179245337Y-135890247D02*
X179102480Y-135890247D01*
X179102480Y-135890247D02*
X179007242Y-135842628D01*
X179007242Y-135842628D02*
X178959623Y-135795009D01*
X178959623Y-135795009D02*
X178912004Y-135699771D01*
X178912004Y-135699771D02*
X178912004Y-135414057D01*
X178912004Y-135414057D02*
X178959623Y-135318819D01*
X178959623Y-135318819D02*
X179007242Y-135271200D01*
X179007242Y-135271200D02*
X179102480Y-135223580D01*
X179102480Y-135223580D02*
X179245337Y-135223580D01*
X178483432Y-135223580D02*
X178483432Y-135890247D01*
X178483432Y-135699771D02*
X178435813Y-135795009D01*
X178435813Y-135795009D02*
X178388194Y-135842628D01*
X178388194Y-135842628D02*
X178292956Y-135890247D01*
X178292956Y-135890247D02*
X178197718Y-135890247D01*
X177340575Y-135223580D02*
X177912003Y-135223580D01*
X177626289Y-135223580D02*
X177626289Y-136223580D01*
X177626289Y-136223580D02*
X177721527Y-136080723D01*
X177721527Y-136080723D02*
X177816765Y-135985485D01*
X177816765Y-135985485D02*
X177912003Y-135937866D01*
X177007241Y-136223580D02*
X176388194Y-136223580D01*
X176388194Y-136223580D02*
X176721527Y-135842628D01*
X176721527Y-135842628D02*
X176578670Y-135842628D01*
X176578670Y-135842628D02*
X176483432Y-135795009D01*
X176483432Y-135795009D02*
X176435813Y-135747390D01*
X176435813Y-135747390D02*
X176388194Y-135652152D01*
X176388194Y-135652152D02*
X176388194Y-135414057D01*
X176388194Y-135414057D02*
X176435813Y-135318819D01*
X176435813Y-135318819D02*
X176483432Y-135271200D01*
X176483432Y-135271200D02*
X176578670Y-135223580D01*
X176578670Y-135223580D02*
X176864384Y-135223580D01*
X176864384Y-135223580D02*
X176959622Y-135271200D01*
X176959622Y-135271200D02*
X177007241Y-135318819D01*
X176054860Y-136223580D02*
X175388194Y-136223580D01*
X175388194Y-136223580D02*
X175816765Y-135223580D01*
X109738095Y-140204819D02*
X109738095Y-141014342D01*
X109738095Y-141014342D02*
X109785714Y-141109580D01*
X109785714Y-141109580D02*
X109833333Y-141157200D01*
X109833333Y-141157200D02*
X109928571Y-141204819D01*
X109928571Y-141204819D02*
X110119047Y-141204819D01*
X110119047Y-141204819D02*
X110214285Y-141157200D01*
X110214285Y-141157200D02*
X110261904Y-141109580D01*
X110261904Y-141109580D02*
X110309523Y-141014342D01*
X110309523Y-141014342D02*
X110309523Y-140204819D01*
X110738095Y-140300057D02*
X110785714Y-140252438D01*
X110785714Y-140252438D02*
X110880952Y-140204819D01*
X110880952Y-140204819D02*
X111119047Y-140204819D01*
X111119047Y-140204819D02*
X111214285Y-140252438D01*
X111214285Y-140252438D02*
X111261904Y-140300057D01*
X111261904Y-140300057D02*
X111309523Y-140395295D01*
X111309523Y-140395295D02*
X111309523Y-140490533D01*
X111309523Y-140490533D02*
X111261904Y-140633390D01*
X111261904Y-140633390D02*
X110690476Y-141204819D01*
X110690476Y-141204819D02*
X111309523Y-141204819D01*
X123274866Y-143428580D02*
X123274866Y-144428580D01*
X123274866Y-144428580D02*
X123036771Y-144428580D01*
X123036771Y-144428580D02*
X122893914Y-144380961D01*
X122893914Y-144380961D02*
X122798676Y-144285723D01*
X122798676Y-144285723D02*
X122751057Y-144190485D01*
X122751057Y-144190485D02*
X122703438Y-144000009D01*
X122703438Y-144000009D02*
X122703438Y-143857152D01*
X122703438Y-143857152D02*
X122751057Y-143666676D01*
X122751057Y-143666676D02*
X122798676Y-143571438D01*
X122798676Y-143571438D02*
X122893914Y-143476200D01*
X122893914Y-143476200D02*
X123036771Y-143428580D01*
X123036771Y-143428580D02*
X123274866Y-143428580D01*
X121893914Y-143476200D02*
X121989152Y-143428580D01*
X121989152Y-143428580D02*
X122179628Y-143428580D01*
X122179628Y-143428580D02*
X122274866Y-143476200D01*
X122274866Y-143476200D02*
X122322485Y-143571438D01*
X122322485Y-143571438D02*
X122322485Y-143952390D01*
X122322485Y-143952390D02*
X122274866Y-144047628D01*
X122274866Y-144047628D02*
X122179628Y-144095247D01*
X122179628Y-144095247D02*
X121989152Y-144095247D01*
X121989152Y-144095247D02*
X121893914Y-144047628D01*
X121893914Y-144047628D02*
X121846295Y-143952390D01*
X121846295Y-143952390D02*
X121846295Y-143857152D01*
X121846295Y-143857152D02*
X122322485Y-143761914D01*
X121465342Y-143476200D02*
X121370104Y-143428580D01*
X121370104Y-143428580D02*
X121179628Y-143428580D01*
X121179628Y-143428580D02*
X121084390Y-143476200D01*
X121084390Y-143476200D02*
X121036771Y-143571438D01*
X121036771Y-143571438D02*
X121036771Y-143619057D01*
X121036771Y-143619057D02*
X121084390Y-143714295D01*
X121084390Y-143714295D02*
X121179628Y-143761914D01*
X121179628Y-143761914D02*
X121322485Y-143761914D01*
X121322485Y-143761914D02*
X121417723Y-143809533D01*
X121417723Y-143809533D02*
X121465342Y-143904771D01*
X121465342Y-143904771D02*
X121465342Y-143952390D01*
X121465342Y-143952390D02*
X121417723Y-144047628D01*
X121417723Y-144047628D02*
X121322485Y-144095247D01*
X121322485Y-144095247D02*
X121179628Y-144095247D01*
X121179628Y-144095247D02*
X121084390Y-144047628D01*
X120608199Y-143428580D02*
X120608199Y-144095247D01*
X120608199Y-144428580D02*
X120655818Y-144380961D01*
X120655818Y-144380961D02*
X120608199Y-144333342D01*
X120608199Y-144333342D02*
X120560580Y-144380961D01*
X120560580Y-144380961D02*
X120608199Y-144428580D01*
X120608199Y-144428580D02*
X120608199Y-144333342D01*
X119703438Y-144095247D02*
X119703438Y-143285723D01*
X119703438Y-143285723D02*
X119751057Y-143190485D01*
X119751057Y-143190485D02*
X119798676Y-143142866D01*
X119798676Y-143142866D02*
X119893914Y-143095247D01*
X119893914Y-143095247D02*
X120036771Y-143095247D01*
X120036771Y-143095247D02*
X120132009Y-143142866D01*
X119703438Y-143476200D02*
X119798676Y-143428580D01*
X119798676Y-143428580D02*
X119989152Y-143428580D01*
X119989152Y-143428580D02*
X120084390Y-143476200D01*
X120084390Y-143476200D02*
X120132009Y-143523819D01*
X120132009Y-143523819D02*
X120179628Y-143619057D01*
X120179628Y-143619057D02*
X120179628Y-143904771D01*
X120179628Y-143904771D02*
X120132009Y-144000009D01*
X120132009Y-144000009D02*
X120084390Y-144047628D01*
X120084390Y-144047628D02*
X119989152Y-144095247D01*
X119989152Y-144095247D02*
X119798676Y-144095247D01*
X119798676Y-144095247D02*
X119703438Y-144047628D01*
X119227247Y-144095247D02*
X119227247Y-143428580D01*
X119227247Y-144000009D02*
X119179628Y-144047628D01*
X119179628Y-144047628D02*
X119084390Y-144095247D01*
X119084390Y-144095247D02*
X118941533Y-144095247D01*
X118941533Y-144095247D02*
X118846295Y-144047628D01*
X118846295Y-144047628D02*
X118798676Y-143952390D01*
X118798676Y-143952390D02*
X118798676Y-143428580D01*
X117893914Y-143428580D02*
X117893914Y-143952390D01*
X117893914Y-143952390D02*
X117941533Y-144047628D01*
X117941533Y-144047628D02*
X118036771Y-144095247D01*
X118036771Y-144095247D02*
X118227247Y-144095247D01*
X118227247Y-144095247D02*
X118322485Y-144047628D01*
X117893914Y-143476200D02*
X117989152Y-143428580D01*
X117989152Y-143428580D02*
X118227247Y-143428580D01*
X118227247Y-143428580D02*
X118322485Y-143476200D01*
X118322485Y-143476200D02*
X118370104Y-143571438D01*
X118370104Y-143571438D02*
X118370104Y-143666676D01*
X118370104Y-143666676D02*
X118322485Y-143761914D01*
X118322485Y-143761914D02*
X118227247Y-143809533D01*
X118227247Y-143809533D02*
X117989152Y-143809533D01*
X117989152Y-143809533D02*
X117893914Y-143857152D01*
X117560580Y-144095247D02*
X117179628Y-144095247D01*
X117417723Y-144428580D02*
X117417723Y-143571438D01*
X117417723Y-143571438D02*
X117370104Y-143476200D01*
X117370104Y-143476200D02*
X117274866Y-143428580D01*
X117274866Y-143428580D02*
X117179628Y-143428580D01*
X116703437Y-143428580D02*
X116798675Y-143476200D01*
X116798675Y-143476200D02*
X116846294Y-143523819D01*
X116846294Y-143523819D02*
X116893913Y-143619057D01*
X116893913Y-143619057D02*
X116893913Y-143904771D01*
X116893913Y-143904771D02*
X116846294Y-144000009D01*
X116846294Y-144000009D02*
X116798675Y-144047628D01*
X116798675Y-144047628D02*
X116703437Y-144095247D01*
X116703437Y-144095247D02*
X116560580Y-144095247D01*
X116560580Y-144095247D02*
X116465342Y-144047628D01*
X116465342Y-144047628D02*
X116417723Y-144000009D01*
X116417723Y-144000009D02*
X116370104Y-143904771D01*
X116370104Y-143904771D02*
X116370104Y-143619057D01*
X116370104Y-143619057D02*
X116417723Y-143523819D01*
X116417723Y-143523819D02*
X116465342Y-143476200D01*
X116465342Y-143476200D02*
X116560580Y-143428580D01*
X116560580Y-143428580D02*
X116703437Y-143428580D01*
X115941532Y-143428580D02*
X115941532Y-144095247D01*
X115941532Y-143904771D02*
X115893913Y-144000009D01*
X115893913Y-144000009D02*
X115846294Y-144047628D01*
X115846294Y-144047628D02*
X115751056Y-144095247D01*
X115751056Y-144095247D02*
X115655818Y-144095247D01*
X114798675Y-143428580D02*
X115370103Y-143428580D01*
X115084389Y-143428580D02*
X115084389Y-144428580D01*
X115084389Y-144428580D02*
X115179627Y-144285723D01*
X115179627Y-144285723D02*
X115274865Y-144190485D01*
X115274865Y-144190485D02*
X115370103Y-144142866D01*
X114465341Y-144428580D02*
X113846294Y-144428580D01*
X113846294Y-144428580D02*
X114179627Y-144047628D01*
X114179627Y-144047628D02*
X114036770Y-144047628D01*
X114036770Y-144047628D02*
X113941532Y-144000009D01*
X113941532Y-144000009D02*
X113893913Y-143952390D01*
X113893913Y-143952390D02*
X113846294Y-143857152D01*
X113846294Y-143857152D02*
X113846294Y-143619057D01*
X113846294Y-143619057D02*
X113893913Y-143523819D01*
X113893913Y-143523819D02*
X113941532Y-143476200D01*
X113941532Y-143476200D02*
X114036770Y-143428580D01*
X114036770Y-143428580D02*
X114322484Y-143428580D01*
X114322484Y-143428580D02*
X114417722Y-143476200D01*
X114417722Y-143476200D02*
X114465341Y-143523819D01*
X113512960Y-144428580D02*
X112846294Y-144428580D01*
X112846294Y-144428580D02*
X113274865Y-143428580D01*
X135761905Y-137384819D02*
X135761905Y-136384819D01*
X135761905Y-136384819D02*
X136000000Y-136384819D01*
X136000000Y-136384819D02*
X136142857Y-136432438D01*
X136142857Y-136432438D02*
X136238095Y-136527676D01*
X136238095Y-136527676D02*
X136285714Y-136622914D01*
X136285714Y-136622914D02*
X136333333Y-136813390D01*
X136333333Y-136813390D02*
X136333333Y-136956247D01*
X136333333Y-136956247D02*
X136285714Y-137146723D01*
X136285714Y-137146723D02*
X136238095Y-137241961D01*
X136238095Y-137241961D02*
X136142857Y-137337200D01*
X136142857Y-137337200D02*
X136000000Y-137384819D01*
X136000000Y-137384819D02*
X135761905Y-137384819D01*
X137285714Y-137384819D02*
X136714286Y-137384819D01*
X137000000Y-137384819D02*
X137000000Y-136384819D01*
X137000000Y-136384819D02*
X136904762Y-136527676D01*
X136904762Y-136527676D02*
X136809524Y-136622914D01*
X136809524Y-136622914D02*
X136714286Y-136670533D01*
X131158095Y-137754819D02*
X131158095Y-136754819D01*
X131729523Y-137754819D02*
X131300952Y-137183390D01*
X131729523Y-136754819D02*
X131158095Y-137326247D01*
X196833333Y-135454819D02*
X196357143Y-135454819D01*
X196357143Y-135454819D02*
X196357143Y-134454819D01*
X197119048Y-134550057D02*
X197166667Y-134502438D01*
X197166667Y-134502438D02*
X197261905Y-134454819D01*
X197261905Y-134454819D02*
X197500000Y-134454819D01*
X197500000Y-134454819D02*
X197595238Y-134502438D01*
X197595238Y-134502438D02*
X197642857Y-134550057D01*
X197642857Y-134550057D02*
X197690476Y-134645295D01*
X197690476Y-134645295D02*
X197690476Y-134740533D01*
X197690476Y-134740533D02*
X197642857Y-134883390D01*
X197642857Y-134883390D02*
X197071429Y-135454819D01*
X197071429Y-135454819D02*
X197690476Y-135454819D01*
X129083333Y-131954819D02*
X128607143Y-131954819D01*
X128607143Y-131954819D02*
X128607143Y-130954819D01*
X129940476Y-131954819D02*
X129369048Y-131954819D01*
X129654762Y-131954819D02*
X129654762Y-130954819D01*
X129654762Y-130954819D02*
X129559524Y-131097676D01*
X129559524Y-131097676D02*
X129464286Y-131192914D01*
X129464286Y-131192914D02*
X129369048Y-131240533D01*
X92909650Y-89892857D02*
X92957270Y-89940476D01*
X92957270Y-89940476D02*
X93004889Y-90083333D01*
X93004889Y-90083333D02*
X93004889Y-90178571D01*
X93004889Y-90178571D02*
X92957270Y-90321428D01*
X92957270Y-90321428D02*
X92862031Y-90416666D01*
X92862031Y-90416666D02*
X92766793Y-90464285D01*
X92766793Y-90464285D02*
X92576317Y-90511904D01*
X92576317Y-90511904D02*
X92433460Y-90511904D01*
X92433460Y-90511904D02*
X92242984Y-90464285D01*
X92242984Y-90464285D02*
X92147746Y-90416666D01*
X92147746Y-90416666D02*
X92052508Y-90321428D01*
X92052508Y-90321428D02*
X92004889Y-90178571D01*
X92004889Y-90178571D02*
X92004889Y-90083333D01*
X92004889Y-90083333D02*
X92052508Y-89940476D01*
X92052508Y-89940476D02*
X92100127Y-89892857D01*
X93004889Y-88940476D02*
X93004889Y-89511904D01*
X93004889Y-89226190D02*
X92004889Y-89226190D01*
X92004889Y-89226190D02*
X92147746Y-89321428D01*
X92147746Y-89321428D02*
X92242984Y-89416666D01*
X92242984Y-89416666D02*
X92290603Y-89511904D01*
X92004889Y-88035714D02*
X92004889Y-88511904D01*
X92004889Y-88511904D02*
X92481079Y-88559523D01*
X92481079Y-88559523D02*
X92433460Y-88511904D01*
X92433460Y-88511904D02*
X92385841Y-88416666D01*
X92385841Y-88416666D02*
X92385841Y-88178571D01*
X92385841Y-88178571D02*
X92433460Y-88083333D01*
X92433460Y-88083333D02*
X92481079Y-88035714D01*
X92481079Y-88035714D02*
X92576317Y-87988095D01*
X92576317Y-87988095D02*
X92814412Y-87988095D01*
X92814412Y-87988095D02*
X92909650Y-88035714D01*
X92909650Y-88035714D02*
X92957270Y-88083333D01*
X92957270Y-88083333D02*
X93004889Y-88178571D01*
X93004889Y-88178571D02*
X93004889Y-88416666D01*
X93004889Y-88416666D02*
X92957270Y-88511904D01*
X92957270Y-88511904D02*
X92909650Y-88559523D01*
X111674819Y-61592857D02*
X111198628Y-61926190D01*
X111674819Y-62164285D02*
X110674819Y-62164285D01*
X110674819Y-62164285D02*
X110674819Y-61783333D01*
X110674819Y-61783333D02*
X110722438Y-61688095D01*
X110722438Y-61688095D02*
X110770057Y-61640476D01*
X110770057Y-61640476D02*
X110865295Y-61592857D01*
X110865295Y-61592857D02*
X111008152Y-61592857D01*
X111008152Y-61592857D02*
X111103390Y-61640476D01*
X111103390Y-61640476D02*
X111151009Y-61688095D01*
X111151009Y-61688095D02*
X111198628Y-61783333D01*
X111198628Y-61783333D02*
X111198628Y-62164285D01*
X111674819Y-60640476D02*
X111674819Y-61211904D01*
X111674819Y-60926190D02*
X110674819Y-60926190D01*
X110674819Y-60926190D02*
X110817676Y-61021428D01*
X110817676Y-61021428D02*
X110912914Y-61116666D01*
X110912914Y-61116666D02*
X110960533Y-61211904D01*
X111103390Y-60069047D02*
X111055771Y-60164285D01*
X111055771Y-60164285D02*
X111008152Y-60211904D01*
X111008152Y-60211904D02*
X110912914Y-60259523D01*
X110912914Y-60259523D02*
X110865295Y-60259523D01*
X110865295Y-60259523D02*
X110770057Y-60211904D01*
X110770057Y-60211904D02*
X110722438Y-60164285D01*
X110722438Y-60164285D02*
X110674819Y-60069047D01*
X110674819Y-60069047D02*
X110674819Y-59878571D01*
X110674819Y-59878571D02*
X110722438Y-59783333D01*
X110722438Y-59783333D02*
X110770057Y-59735714D01*
X110770057Y-59735714D02*
X110865295Y-59688095D01*
X110865295Y-59688095D02*
X110912914Y-59688095D01*
X110912914Y-59688095D02*
X111008152Y-59735714D01*
X111008152Y-59735714D02*
X111055771Y-59783333D01*
X111055771Y-59783333D02*
X111103390Y-59878571D01*
X111103390Y-59878571D02*
X111103390Y-60069047D01*
X111103390Y-60069047D02*
X111151009Y-60164285D01*
X111151009Y-60164285D02*
X111198628Y-60211904D01*
X111198628Y-60211904D02*
X111293866Y-60259523D01*
X111293866Y-60259523D02*
X111484342Y-60259523D01*
X111484342Y-60259523D02*
X111579580Y-60211904D01*
X111579580Y-60211904D02*
X111627200Y-60164285D01*
X111627200Y-60164285D02*
X111674819Y-60069047D01*
X111674819Y-60069047D02*
X111674819Y-59878571D01*
X111674819Y-59878571D02*
X111627200Y-59783333D01*
X111627200Y-59783333D02*
X111579580Y-59735714D01*
X111579580Y-59735714D02*
X111484342Y-59688095D01*
X111484342Y-59688095D02*
X111293866Y-59688095D01*
X111293866Y-59688095D02*
X111198628Y-59735714D01*
X111198628Y-59735714D02*
X111151009Y-59783333D01*
X111151009Y-59783333D02*
X111103390Y-59878571D01*
X30857142Y-108109580D02*
X30809523Y-108157200D01*
X30809523Y-108157200D02*
X30666666Y-108204819D01*
X30666666Y-108204819D02*
X30571428Y-108204819D01*
X30571428Y-108204819D02*
X30428571Y-108157200D01*
X30428571Y-108157200D02*
X30333333Y-108061961D01*
X30333333Y-108061961D02*
X30285714Y-107966723D01*
X30285714Y-107966723D02*
X30238095Y-107776247D01*
X30238095Y-107776247D02*
X30238095Y-107633390D01*
X30238095Y-107633390D02*
X30285714Y-107442914D01*
X30285714Y-107442914D02*
X30333333Y-107347676D01*
X30333333Y-107347676D02*
X30428571Y-107252438D01*
X30428571Y-107252438D02*
X30571428Y-107204819D01*
X30571428Y-107204819D02*
X30666666Y-107204819D01*
X30666666Y-107204819D02*
X30809523Y-107252438D01*
X30809523Y-107252438D02*
X30857142Y-107300057D01*
X31238095Y-107300057D02*
X31285714Y-107252438D01*
X31285714Y-107252438D02*
X31380952Y-107204819D01*
X31380952Y-107204819D02*
X31619047Y-107204819D01*
X31619047Y-107204819D02*
X31714285Y-107252438D01*
X31714285Y-107252438D02*
X31761904Y-107300057D01*
X31761904Y-107300057D02*
X31809523Y-107395295D01*
X31809523Y-107395295D02*
X31809523Y-107490533D01*
X31809523Y-107490533D02*
X31761904Y-107633390D01*
X31761904Y-107633390D02*
X31190476Y-108204819D01*
X31190476Y-108204819D02*
X31809523Y-108204819D01*
X32142857Y-107204819D02*
X32761904Y-107204819D01*
X32761904Y-107204819D02*
X32428571Y-107585771D01*
X32428571Y-107585771D02*
X32571428Y-107585771D01*
X32571428Y-107585771D02*
X32666666Y-107633390D01*
X32666666Y-107633390D02*
X32714285Y-107681009D01*
X32714285Y-107681009D02*
X32761904Y-107776247D01*
X32761904Y-107776247D02*
X32761904Y-108014342D01*
X32761904Y-108014342D02*
X32714285Y-108109580D01*
X32714285Y-108109580D02*
X32666666Y-108157200D01*
X32666666Y-108157200D02*
X32571428Y-108204819D01*
X32571428Y-108204819D02*
X32285714Y-108204819D01*
X32285714Y-108204819D02*
X32190476Y-108157200D01*
X32190476Y-108157200D02*
X32142857Y-108109580D01*
X247057142Y-132234819D02*
X246723809Y-131758628D01*
X246485714Y-132234819D02*
X246485714Y-131234819D01*
X246485714Y-131234819D02*
X246866666Y-131234819D01*
X246866666Y-131234819D02*
X246961904Y-131282438D01*
X246961904Y-131282438D02*
X247009523Y-131330057D01*
X247009523Y-131330057D02*
X247057142Y-131425295D01*
X247057142Y-131425295D02*
X247057142Y-131568152D01*
X247057142Y-131568152D02*
X247009523Y-131663390D01*
X247009523Y-131663390D02*
X246961904Y-131711009D01*
X246961904Y-131711009D02*
X246866666Y-131758628D01*
X246866666Y-131758628D02*
X246485714Y-131758628D01*
X248009523Y-132234819D02*
X247438095Y-132234819D01*
X247723809Y-132234819D02*
X247723809Y-131234819D01*
X247723809Y-131234819D02*
X247628571Y-131377676D01*
X247628571Y-131377676D02*
X247533333Y-131472914D01*
X247533333Y-131472914D02*
X247438095Y-131520533D01*
X248485714Y-132234819D02*
X248676190Y-132234819D01*
X248676190Y-132234819D02*
X248771428Y-132187200D01*
X248771428Y-132187200D02*
X248819047Y-132139580D01*
X248819047Y-132139580D02*
X248914285Y-131996723D01*
X248914285Y-131996723D02*
X248961904Y-131806247D01*
X248961904Y-131806247D02*
X248961904Y-131425295D01*
X248961904Y-131425295D02*
X248914285Y-131330057D01*
X248914285Y-131330057D02*
X248866666Y-131282438D01*
X248866666Y-131282438D02*
X248771428Y-131234819D01*
X248771428Y-131234819D02*
X248580952Y-131234819D01*
X248580952Y-131234819D02*
X248485714Y-131282438D01*
X248485714Y-131282438D02*
X248438095Y-131330057D01*
X248438095Y-131330057D02*
X248390476Y-131425295D01*
X248390476Y-131425295D02*
X248390476Y-131663390D01*
X248390476Y-131663390D02*
X248438095Y-131758628D01*
X248438095Y-131758628D02*
X248485714Y-131806247D01*
X248485714Y-131806247D02*
X248580952Y-131853866D01*
X248580952Y-131853866D02*
X248771428Y-131853866D01*
X248771428Y-131853866D02*
X248866666Y-131806247D01*
X248866666Y-131806247D02*
X248914285Y-131758628D01*
X248914285Y-131758628D02*
X248961904Y-131663390D01*
X209333333Y-97109580D02*
X209285714Y-97157200D01*
X209285714Y-97157200D02*
X209142857Y-97204819D01*
X209142857Y-97204819D02*
X209047619Y-97204819D01*
X209047619Y-97204819D02*
X208904762Y-97157200D01*
X208904762Y-97157200D02*
X208809524Y-97061961D01*
X208809524Y-97061961D02*
X208761905Y-96966723D01*
X208761905Y-96966723D02*
X208714286Y-96776247D01*
X208714286Y-96776247D02*
X208714286Y-96633390D01*
X208714286Y-96633390D02*
X208761905Y-96442914D01*
X208761905Y-96442914D02*
X208809524Y-96347676D01*
X208809524Y-96347676D02*
X208904762Y-96252438D01*
X208904762Y-96252438D02*
X209047619Y-96204819D01*
X209047619Y-96204819D02*
X209142857Y-96204819D01*
X209142857Y-96204819D02*
X209285714Y-96252438D01*
X209285714Y-96252438D02*
X209333333Y-96300057D01*
X210238095Y-96204819D02*
X209761905Y-96204819D01*
X209761905Y-96204819D02*
X209714286Y-96681009D01*
X209714286Y-96681009D02*
X209761905Y-96633390D01*
X209761905Y-96633390D02*
X209857143Y-96585771D01*
X209857143Y-96585771D02*
X210095238Y-96585771D01*
X210095238Y-96585771D02*
X210190476Y-96633390D01*
X210190476Y-96633390D02*
X210238095Y-96681009D01*
X210238095Y-96681009D02*
X210285714Y-96776247D01*
X210285714Y-96776247D02*
X210285714Y-97014342D01*
X210285714Y-97014342D02*
X210238095Y-97109580D01*
X210238095Y-97109580D02*
X210190476Y-97157200D01*
X210190476Y-97157200D02*
X210095238Y-97204819D01*
X210095238Y-97204819D02*
X209857143Y-97204819D01*
X209857143Y-97204819D02*
X209761905Y-97157200D01*
X209761905Y-97157200D02*
X209714286Y-97109580D01*
X80309580Y-112416666D02*
X80357200Y-112464285D01*
X80357200Y-112464285D02*
X80404819Y-112607142D01*
X80404819Y-112607142D02*
X80404819Y-112702380D01*
X80404819Y-112702380D02*
X80357200Y-112845237D01*
X80357200Y-112845237D02*
X80261961Y-112940475D01*
X80261961Y-112940475D02*
X80166723Y-112988094D01*
X80166723Y-112988094D02*
X79976247Y-113035713D01*
X79976247Y-113035713D02*
X79833390Y-113035713D01*
X79833390Y-113035713D02*
X79642914Y-112988094D01*
X79642914Y-112988094D02*
X79547676Y-112940475D01*
X79547676Y-112940475D02*
X79452438Y-112845237D01*
X79452438Y-112845237D02*
X79404819Y-112702380D01*
X79404819Y-112702380D02*
X79404819Y-112607142D01*
X79404819Y-112607142D02*
X79452438Y-112464285D01*
X79452438Y-112464285D02*
X79500057Y-112416666D01*
X80404819Y-111464285D02*
X80404819Y-112035713D01*
X80404819Y-111749999D02*
X79404819Y-111749999D01*
X79404819Y-111749999D02*
X79547676Y-111845237D01*
X79547676Y-111845237D02*
X79642914Y-111940475D01*
X79642914Y-111940475D02*
X79690533Y-112035713D01*
X184166667Y-54657200D02*
X184309524Y-54704819D01*
X184309524Y-54704819D02*
X184547619Y-54704819D01*
X184547619Y-54704819D02*
X184642857Y-54657200D01*
X184642857Y-54657200D02*
X184690476Y-54609580D01*
X184690476Y-54609580D02*
X184738095Y-54514342D01*
X184738095Y-54514342D02*
X184738095Y-54419104D01*
X184738095Y-54419104D02*
X184690476Y-54323866D01*
X184690476Y-54323866D02*
X184642857Y-54276247D01*
X184642857Y-54276247D02*
X184547619Y-54228628D01*
X184547619Y-54228628D02*
X184357143Y-54181009D01*
X184357143Y-54181009D02*
X184261905Y-54133390D01*
X184261905Y-54133390D02*
X184214286Y-54085771D01*
X184214286Y-54085771D02*
X184166667Y-53990533D01*
X184166667Y-53990533D02*
X184166667Y-53895295D01*
X184166667Y-53895295D02*
X184214286Y-53800057D01*
X184214286Y-53800057D02*
X184261905Y-53752438D01*
X184261905Y-53752438D02*
X184357143Y-53704819D01*
X184357143Y-53704819D02*
X184595238Y-53704819D01*
X184595238Y-53704819D02*
X184738095Y-53752438D01*
X185071429Y-53704819D02*
X185309524Y-54704819D01*
X185309524Y-54704819D02*
X185500000Y-53990533D01*
X185500000Y-53990533D02*
X185690476Y-54704819D01*
X185690476Y-54704819D02*
X185928572Y-53704819D01*
X186833333Y-54704819D02*
X186261905Y-54704819D01*
X186547619Y-54704819D02*
X186547619Y-53704819D01*
X186547619Y-53704819D02*
X186452381Y-53847676D01*
X186452381Y-53847676D02*
X186357143Y-53942914D01*
X186357143Y-53942914D02*
X186261905Y-53990533D01*
X253704819Y-132392857D02*
X253228628Y-132726190D01*
X253704819Y-132964285D02*
X252704819Y-132964285D01*
X252704819Y-132964285D02*
X252704819Y-132583333D01*
X252704819Y-132583333D02*
X252752438Y-132488095D01*
X252752438Y-132488095D02*
X252800057Y-132440476D01*
X252800057Y-132440476D02*
X252895295Y-132392857D01*
X252895295Y-132392857D02*
X253038152Y-132392857D01*
X253038152Y-132392857D02*
X253133390Y-132440476D01*
X253133390Y-132440476D02*
X253181009Y-132488095D01*
X253181009Y-132488095D02*
X253228628Y-132583333D01*
X253228628Y-132583333D02*
X253228628Y-132964285D01*
X252800057Y-132011904D02*
X252752438Y-131964285D01*
X252752438Y-131964285D02*
X252704819Y-131869047D01*
X252704819Y-131869047D02*
X252704819Y-131630952D01*
X252704819Y-131630952D02*
X252752438Y-131535714D01*
X252752438Y-131535714D02*
X252800057Y-131488095D01*
X252800057Y-131488095D02*
X252895295Y-131440476D01*
X252895295Y-131440476D02*
X252990533Y-131440476D01*
X252990533Y-131440476D02*
X253133390Y-131488095D01*
X253133390Y-131488095D02*
X253704819Y-132059523D01*
X253704819Y-132059523D02*
X253704819Y-131440476D01*
X252704819Y-130821428D02*
X252704819Y-130726190D01*
X252704819Y-130726190D02*
X252752438Y-130630952D01*
X252752438Y-130630952D02*
X252800057Y-130583333D01*
X252800057Y-130583333D02*
X252895295Y-130535714D01*
X252895295Y-130535714D02*
X253085771Y-130488095D01*
X253085771Y-130488095D02*
X253323866Y-130488095D01*
X253323866Y-130488095D02*
X253514342Y-130535714D01*
X253514342Y-130535714D02*
X253609580Y-130583333D01*
X253609580Y-130583333D02*
X253657200Y-130630952D01*
X253657200Y-130630952D02*
X253704819Y-130726190D01*
X253704819Y-130726190D02*
X253704819Y-130821428D01*
X253704819Y-130821428D02*
X253657200Y-130916666D01*
X253657200Y-130916666D02*
X253609580Y-130964285D01*
X253609580Y-130964285D02*
X253514342Y-131011904D01*
X253514342Y-131011904D02*
X253323866Y-131059523D01*
X253323866Y-131059523D02*
X253085771Y-131059523D01*
X253085771Y-131059523D02*
X252895295Y-131011904D01*
X252895295Y-131011904D02*
X252800057Y-130964285D01*
X252800057Y-130964285D02*
X252752438Y-130916666D01*
X252752438Y-130916666D02*
X252704819Y-130821428D01*
X259416666Y-126954819D02*
X259416666Y-127669104D01*
X259416666Y-127669104D02*
X259369047Y-127811961D01*
X259369047Y-127811961D02*
X259273809Y-127907200D01*
X259273809Y-127907200D02*
X259130952Y-127954819D01*
X259130952Y-127954819D02*
X259035714Y-127954819D01*
X260321428Y-127288152D02*
X260321428Y-127954819D01*
X260083333Y-126907200D02*
X259845238Y-127621485D01*
X259845238Y-127621485D02*
X260464285Y-127621485D01*
X105174819Y-62142857D02*
X104698628Y-62476190D01*
X105174819Y-62714285D02*
X104174819Y-62714285D01*
X104174819Y-62714285D02*
X104174819Y-62333333D01*
X104174819Y-62333333D02*
X104222438Y-62238095D01*
X104222438Y-62238095D02*
X104270057Y-62190476D01*
X104270057Y-62190476D02*
X104365295Y-62142857D01*
X104365295Y-62142857D02*
X104508152Y-62142857D01*
X104508152Y-62142857D02*
X104603390Y-62190476D01*
X104603390Y-62190476D02*
X104651009Y-62238095D01*
X104651009Y-62238095D02*
X104698628Y-62333333D01*
X104698628Y-62333333D02*
X104698628Y-62714285D01*
X105174819Y-61190476D02*
X105174819Y-61761904D01*
X105174819Y-61476190D02*
X104174819Y-61476190D01*
X104174819Y-61476190D02*
X104317676Y-61571428D01*
X104317676Y-61571428D02*
X104412914Y-61666666D01*
X104412914Y-61666666D02*
X104460533Y-61761904D01*
X104174819Y-60857142D02*
X104174819Y-60190476D01*
X104174819Y-60190476D02*
X105174819Y-60619047D01*
X99603095Y-83692819D02*
X99603095Y-84502342D01*
X99603095Y-84502342D02*
X99650714Y-84597580D01*
X99650714Y-84597580D02*
X99698333Y-84645200D01*
X99698333Y-84645200D02*
X99793571Y-84692819D01*
X99793571Y-84692819D02*
X99984047Y-84692819D01*
X99984047Y-84692819D02*
X100079285Y-84645200D01*
X100079285Y-84645200D02*
X100126904Y-84597580D01*
X100126904Y-84597580D02*
X100174523Y-84502342D01*
X100174523Y-84502342D02*
X100174523Y-83692819D01*
X101079285Y-83692819D02*
X100888809Y-83692819D01*
X100888809Y-83692819D02*
X100793571Y-83740438D01*
X100793571Y-83740438D02*
X100745952Y-83788057D01*
X100745952Y-83788057D02*
X100650714Y-83930914D01*
X100650714Y-83930914D02*
X100603095Y-84121390D01*
X100603095Y-84121390D02*
X100603095Y-84502342D01*
X100603095Y-84502342D02*
X100650714Y-84597580D01*
X100650714Y-84597580D02*
X100698333Y-84645200D01*
X100698333Y-84645200D02*
X100793571Y-84692819D01*
X100793571Y-84692819D02*
X100984047Y-84692819D01*
X100984047Y-84692819D02*
X101079285Y-84645200D01*
X101079285Y-84645200D02*
X101126904Y-84597580D01*
X101126904Y-84597580D02*
X101174523Y-84502342D01*
X101174523Y-84502342D02*
X101174523Y-84264247D01*
X101174523Y-84264247D02*
X101126904Y-84169009D01*
X101126904Y-84169009D02*
X101079285Y-84121390D01*
X101079285Y-84121390D02*
X100984047Y-84073771D01*
X100984047Y-84073771D02*
X100793571Y-84073771D01*
X100793571Y-84073771D02*
X100698333Y-84121390D01*
X100698333Y-84121390D02*
X100650714Y-84169009D01*
X100650714Y-84169009D02*
X100603095Y-84264247D01*
X88857142Y-128704819D02*
X88523809Y-128228628D01*
X88285714Y-128704819D02*
X88285714Y-127704819D01*
X88285714Y-127704819D02*
X88666666Y-127704819D01*
X88666666Y-127704819D02*
X88761904Y-127752438D01*
X88761904Y-127752438D02*
X88809523Y-127800057D01*
X88809523Y-127800057D02*
X88857142Y-127895295D01*
X88857142Y-127895295D02*
X88857142Y-128038152D01*
X88857142Y-128038152D02*
X88809523Y-128133390D01*
X88809523Y-128133390D02*
X88761904Y-128181009D01*
X88761904Y-128181009D02*
X88666666Y-128228628D01*
X88666666Y-128228628D02*
X88285714Y-128228628D01*
X89809523Y-128704819D02*
X89238095Y-128704819D01*
X89523809Y-128704819D02*
X89523809Y-127704819D01*
X89523809Y-127704819D02*
X89428571Y-127847676D01*
X89428571Y-127847676D02*
X89333333Y-127942914D01*
X89333333Y-127942914D02*
X89238095Y-127990533D01*
X90190476Y-127800057D02*
X90238095Y-127752438D01*
X90238095Y-127752438D02*
X90333333Y-127704819D01*
X90333333Y-127704819D02*
X90571428Y-127704819D01*
X90571428Y-127704819D02*
X90666666Y-127752438D01*
X90666666Y-127752438D02*
X90714285Y-127800057D01*
X90714285Y-127800057D02*
X90761904Y-127895295D01*
X90761904Y-127895295D02*
X90761904Y-127990533D01*
X90761904Y-127990533D02*
X90714285Y-128133390D01*
X90714285Y-128133390D02*
X90142857Y-128704819D01*
X90142857Y-128704819D02*
X90761904Y-128704819D01*
X193204819Y-61142857D02*
X192728628Y-61476190D01*
X193204819Y-61714285D02*
X192204819Y-61714285D01*
X192204819Y-61714285D02*
X192204819Y-61333333D01*
X192204819Y-61333333D02*
X192252438Y-61238095D01*
X192252438Y-61238095D02*
X192300057Y-61190476D01*
X192300057Y-61190476D02*
X192395295Y-61142857D01*
X192395295Y-61142857D02*
X192538152Y-61142857D01*
X192538152Y-61142857D02*
X192633390Y-61190476D01*
X192633390Y-61190476D02*
X192681009Y-61238095D01*
X192681009Y-61238095D02*
X192728628Y-61333333D01*
X192728628Y-61333333D02*
X192728628Y-61714285D01*
X193204819Y-60190476D02*
X193204819Y-60761904D01*
X193204819Y-60476190D02*
X192204819Y-60476190D01*
X192204819Y-60476190D02*
X192347676Y-60571428D01*
X192347676Y-60571428D02*
X192442914Y-60666666D01*
X192442914Y-60666666D02*
X192490533Y-60761904D01*
X192204819Y-59333333D02*
X192204819Y-59523809D01*
X192204819Y-59523809D02*
X192252438Y-59619047D01*
X192252438Y-59619047D02*
X192300057Y-59666666D01*
X192300057Y-59666666D02*
X192442914Y-59761904D01*
X192442914Y-59761904D02*
X192633390Y-59809523D01*
X192633390Y-59809523D02*
X193014342Y-59809523D01*
X193014342Y-59809523D02*
X193109580Y-59761904D01*
X193109580Y-59761904D02*
X193157200Y-59714285D01*
X193157200Y-59714285D02*
X193204819Y-59619047D01*
X193204819Y-59619047D02*
X193204819Y-59428571D01*
X193204819Y-59428571D02*
X193157200Y-59333333D01*
X193157200Y-59333333D02*
X193109580Y-59285714D01*
X193109580Y-59285714D02*
X193014342Y-59238095D01*
X193014342Y-59238095D02*
X192776247Y-59238095D01*
X192776247Y-59238095D02*
X192681009Y-59285714D01*
X192681009Y-59285714D02*
X192633390Y-59333333D01*
X192633390Y-59333333D02*
X192585771Y-59428571D01*
X192585771Y-59428571D02*
X192585771Y-59619047D01*
X192585771Y-59619047D02*
X192633390Y-59714285D01*
X192633390Y-59714285D02*
X192681009Y-59761904D01*
X192681009Y-59761904D02*
X192776247Y-59809523D01*
X82294642Y-86099580D02*
X82247023Y-86147200D01*
X82247023Y-86147200D02*
X82104166Y-86194819D01*
X82104166Y-86194819D02*
X82008928Y-86194819D01*
X82008928Y-86194819D02*
X81866071Y-86147200D01*
X81866071Y-86147200D02*
X81770833Y-86051961D01*
X81770833Y-86051961D02*
X81723214Y-85956723D01*
X81723214Y-85956723D02*
X81675595Y-85766247D01*
X81675595Y-85766247D02*
X81675595Y-85623390D01*
X81675595Y-85623390D02*
X81723214Y-85432914D01*
X81723214Y-85432914D02*
X81770833Y-85337676D01*
X81770833Y-85337676D02*
X81866071Y-85242438D01*
X81866071Y-85242438D02*
X82008928Y-85194819D01*
X82008928Y-85194819D02*
X82104166Y-85194819D01*
X82104166Y-85194819D02*
X82247023Y-85242438D01*
X82247023Y-85242438D02*
X82294642Y-85290057D01*
X83247023Y-86194819D02*
X82675595Y-86194819D01*
X82961309Y-86194819D02*
X82961309Y-85194819D01*
X82961309Y-85194819D02*
X82866071Y-85337676D01*
X82866071Y-85337676D02*
X82770833Y-85432914D01*
X82770833Y-85432914D02*
X82675595Y-85480533D01*
X83627976Y-85290057D02*
X83675595Y-85242438D01*
X83675595Y-85242438D02*
X83770833Y-85194819D01*
X83770833Y-85194819D02*
X84008928Y-85194819D01*
X84008928Y-85194819D02*
X84104166Y-85242438D01*
X84104166Y-85242438D02*
X84151785Y-85290057D01*
X84151785Y-85290057D02*
X84199404Y-85385295D01*
X84199404Y-85385295D02*
X84199404Y-85480533D01*
X84199404Y-85480533D02*
X84151785Y-85623390D01*
X84151785Y-85623390D02*
X83580357Y-86194819D01*
X83580357Y-86194819D02*
X84199404Y-86194819D01*
X168954819Y-59216666D02*
X168478628Y-59549999D01*
X168954819Y-59788094D02*
X167954819Y-59788094D01*
X167954819Y-59788094D02*
X167954819Y-59407142D01*
X167954819Y-59407142D02*
X168002438Y-59311904D01*
X168002438Y-59311904D02*
X168050057Y-59264285D01*
X168050057Y-59264285D02*
X168145295Y-59216666D01*
X168145295Y-59216666D02*
X168288152Y-59216666D01*
X168288152Y-59216666D02*
X168383390Y-59264285D01*
X168383390Y-59264285D02*
X168431009Y-59311904D01*
X168431009Y-59311904D02*
X168478628Y-59407142D01*
X168478628Y-59407142D02*
X168478628Y-59788094D01*
X167954819Y-58883332D02*
X167954819Y-58216666D01*
X167954819Y-58216666D02*
X168954819Y-58645237D01*
X135341666Y-91319819D02*
X135341666Y-92034104D01*
X135341666Y-92034104D02*
X135294047Y-92176961D01*
X135294047Y-92176961D02*
X135198809Y-92272200D01*
X135198809Y-92272200D02*
X135055952Y-92319819D01*
X135055952Y-92319819D02*
X134960714Y-92319819D01*
X135722619Y-91319819D02*
X136341666Y-91319819D01*
X136341666Y-91319819D02*
X136008333Y-91700771D01*
X136008333Y-91700771D02*
X136151190Y-91700771D01*
X136151190Y-91700771D02*
X136246428Y-91748390D01*
X136246428Y-91748390D02*
X136294047Y-91796009D01*
X136294047Y-91796009D02*
X136341666Y-91891247D01*
X136341666Y-91891247D02*
X136341666Y-92129342D01*
X136341666Y-92129342D02*
X136294047Y-92224580D01*
X136294047Y-92224580D02*
X136246428Y-92272200D01*
X136246428Y-92272200D02*
X136151190Y-92319819D01*
X136151190Y-92319819D02*
X135865476Y-92319819D01*
X135865476Y-92319819D02*
X135770238Y-92272200D01*
X135770238Y-92272200D02*
X135722619Y-92224580D01*
X32916666Y-135954819D02*
X32916666Y-136669104D01*
X32916666Y-136669104D02*
X32869047Y-136811961D01*
X32869047Y-136811961D02*
X32773809Y-136907200D01*
X32773809Y-136907200D02*
X32630952Y-136954819D01*
X32630952Y-136954819D02*
X32535714Y-136954819D01*
X33345238Y-136050057D02*
X33392857Y-136002438D01*
X33392857Y-136002438D02*
X33488095Y-135954819D01*
X33488095Y-135954819D02*
X33726190Y-135954819D01*
X33726190Y-135954819D02*
X33821428Y-136002438D01*
X33821428Y-136002438D02*
X33869047Y-136050057D01*
X33869047Y-136050057D02*
X33916666Y-136145295D01*
X33916666Y-136145295D02*
X33916666Y-136240533D01*
X33916666Y-136240533D02*
X33869047Y-136383390D01*
X33869047Y-136383390D02*
X33297619Y-136954819D01*
X33297619Y-136954819D02*
X33916666Y-136954819D01*
X160803805Y-136824819D02*
X160803805Y-135824819D01*
X160803805Y-135824819D02*
X161041900Y-135824819D01*
X161041900Y-135824819D02*
X161184757Y-135872438D01*
X161184757Y-135872438D02*
X161279995Y-135967676D01*
X161279995Y-135967676D02*
X161327614Y-136062914D01*
X161327614Y-136062914D02*
X161375233Y-136253390D01*
X161375233Y-136253390D02*
X161375233Y-136396247D01*
X161375233Y-136396247D02*
X161327614Y-136586723D01*
X161327614Y-136586723D02*
X161279995Y-136681961D01*
X161279995Y-136681961D02*
X161184757Y-136777200D01*
X161184757Y-136777200D02*
X161041900Y-136824819D01*
X161041900Y-136824819D02*
X160803805Y-136824819D01*
X161756186Y-135920057D02*
X161803805Y-135872438D01*
X161803805Y-135872438D02*
X161899043Y-135824819D01*
X161899043Y-135824819D02*
X162137138Y-135824819D01*
X162137138Y-135824819D02*
X162232376Y-135872438D01*
X162232376Y-135872438D02*
X162279995Y-135920057D01*
X162279995Y-135920057D02*
X162327614Y-136015295D01*
X162327614Y-136015295D02*
X162327614Y-136110533D01*
X162327614Y-136110533D02*
X162279995Y-136253390D01*
X162279995Y-136253390D02*
X161708567Y-136824819D01*
X161708567Y-136824819D02*
X162327614Y-136824819D01*
X166359995Y-136454819D02*
X166359995Y-135454819D01*
X166931423Y-136454819D02*
X166502852Y-135883390D01*
X166931423Y-135454819D02*
X166359995Y-136026247D01*
X143633333Y-92484819D02*
X143300000Y-92008628D01*
X143061905Y-92484819D02*
X143061905Y-91484819D01*
X143061905Y-91484819D02*
X143442857Y-91484819D01*
X143442857Y-91484819D02*
X143538095Y-91532438D01*
X143538095Y-91532438D02*
X143585714Y-91580057D01*
X143585714Y-91580057D02*
X143633333Y-91675295D01*
X143633333Y-91675295D02*
X143633333Y-91818152D01*
X143633333Y-91818152D02*
X143585714Y-91913390D01*
X143585714Y-91913390D02*
X143538095Y-91961009D01*
X143538095Y-91961009D02*
X143442857Y-92008628D01*
X143442857Y-92008628D02*
X143061905Y-92008628D01*
X144204762Y-91913390D02*
X144109524Y-91865771D01*
X144109524Y-91865771D02*
X144061905Y-91818152D01*
X144061905Y-91818152D02*
X144014286Y-91722914D01*
X144014286Y-91722914D02*
X144014286Y-91675295D01*
X144014286Y-91675295D02*
X144061905Y-91580057D01*
X144061905Y-91580057D02*
X144109524Y-91532438D01*
X144109524Y-91532438D02*
X144204762Y-91484819D01*
X144204762Y-91484819D02*
X144395238Y-91484819D01*
X144395238Y-91484819D02*
X144490476Y-91532438D01*
X144490476Y-91532438D02*
X144538095Y-91580057D01*
X144538095Y-91580057D02*
X144585714Y-91675295D01*
X144585714Y-91675295D02*
X144585714Y-91722914D01*
X144585714Y-91722914D02*
X144538095Y-91818152D01*
X144538095Y-91818152D02*
X144490476Y-91865771D01*
X144490476Y-91865771D02*
X144395238Y-91913390D01*
X144395238Y-91913390D02*
X144204762Y-91913390D01*
X144204762Y-91913390D02*
X144109524Y-91961009D01*
X144109524Y-91961009D02*
X144061905Y-92008628D01*
X144061905Y-92008628D02*
X144014286Y-92103866D01*
X144014286Y-92103866D02*
X144014286Y-92294342D01*
X144014286Y-92294342D02*
X144061905Y-92389580D01*
X144061905Y-92389580D02*
X144109524Y-92437200D01*
X144109524Y-92437200D02*
X144204762Y-92484819D01*
X144204762Y-92484819D02*
X144395238Y-92484819D01*
X144395238Y-92484819D02*
X144490476Y-92437200D01*
X144490476Y-92437200D02*
X144538095Y-92389580D01*
X144538095Y-92389580D02*
X144585714Y-92294342D01*
X144585714Y-92294342D02*
X144585714Y-92103866D01*
X144585714Y-92103866D02*
X144538095Y-92008628D01*
X144538095Y-92008628D02*
X144490476Y-91961009D01*
X144490476Y-91961009D02*
X144395238Y-91913390D01*
X117883333Y-88234819D02*
X117550000Y-87758628D01*
X117311905Y-88234819D02*
X117311905Y-87234819D01*
X117311905Y-87234819D02*
X117692857Y-87234819D01*
X117692857Y-87234819D02*
X117788095Y-87282438D01*
X117788095Y-87282438D02*
X117835714Y-87330057D01*
X117835714Y-87330057D02*
X117883333Y-87425295D01*
X117883333Y-87425295D02*
X117883333Y-87568152D01*
X117883333Y-87568152D02*
X117835714Y-87663390D01*
X117835714Y-87663390D02*
X117788095Y-87711009D01*
X117788095Y-87711009D02*
X117692857Y-87758628D01*
X117692857Y-87758628D02*
X117311905Y-87758628D01*
X118740476Y-87568152D02*
X118740476Y-88234819D01*
X118502381Y-87187200D02*
X118264286Y-87901485D01*
X118264286Y-87901485D02*
X118883333Y-87901485D01*
X87409510Y-90642857D02*
X87457130Y-90690476D01*
X87457130Y-90690476D02*
X87504749Y-90833333D01*
X87504749Y-90833333D02*
X87504749Y-90928571D01*
X87504749Y-90928571D02*
X87457130Y-91071428D01*
X87457130Y-91071428D02*
X87361891Y-91166666D01*
X87361891Y-91166666D02*
X87266653Y-91214285D01*
X87266653Y-91214285D02*
X87076177Y-91261904D01*
X87076177Y-91261904D02*
X86933320Y-91261904D01*
X86933320Y-91261904D02*
X86742844Y-91214285D01*
X86742844Y-91214285D02*
X86647606Y-91166666D01*
X86647606Y-91166666D02*
X86552368Y-91071428D01*
X86552368Y-91071428D02*
X86504749Y-90928571D01*
X86504749Y-90928571D02*
X86504749Y-90833333D01*
X86504749Y-90833333D02*
X86552368Y-90690476D01*
X86552368Y-90690476D02*
X86599987Y-90642857D01*
X87504749Y-89690476D02*
X87504749Y-90261904D01*
X87504749Y-89976190D02*
X86504749Y-89976190D01*
X86504749Y-89976190D02*
X86647606Y-90071428D01*
X86647606Y-90071428D02*
X86742844Y-90166666D01*
X86742844Y-90166666D02*
X86790463Y-90261904D01*
X86504749Y-88833333D02*
X86504749Y-89023809D01*
X86504749Y-89023809D02*
X86552368Y-89119047D01*
X86552368Y-89119047D02*
X86599987Y-89166666D01*
X86599987Y-89166666D02*
X86742844Y-89261904D01*
X86742844Y-89261904D02*
X86933320Y-89309523D01*
X86933320Y-89309523D02*
X87314272Y-89309523D01*
X87314272Y-89309523D02*
X87409510Y-89261904D01*
X87409510Y-89261904D02*
X87457130Y-89214285D01*
X87457130Y-89214285D02*
X87504749Y-89119047D01*
X87504749Y-89119047D02*
X87504749Y-88928571D01*
X87504749Y-88928571D02*
X87457130Y-88833333D01*
X87457130Y-88833333D02*
X87409510Y-88785714D01*
X87409510Y-88785714D02*
X87314272Y-88738095D01*
X87314272Y-88738095D02*
X87076177Y-88738095D01*
X87076177Y-88738095D02*
X86980939Y-88785714D01*
X86980939Y-88785714D02*
X86933320Y-88833333D01*
X86933320Y-88833333D02*
X86885701Y-88928571D01*
X86885701Y-88928571D02*
X86885701Y-89119047D01*
X86885701Y-89119047D02*
X86933320Y-89214285D01*
X86933320Y-89214285D02*
X86980939Y-89261904D01*
X86980939Y-89261904D02*
X87076177Y-89309523D01*
X130116553Y-65379491D02*
X130593129Y-65379491D01*
X129592318Y-65713094D02*
X130116553Y-65379491D01*
X130116553Y-65379491D02*
X129592318Y-65045887D01*
X130593129Y-64188049D02*
X130593129Y-64759941D01*
X130593129Y-64473995D02*
X129592318Y-64473995D01*
X129592318Y-64473995D02*
X129735291Y-64569310D01*
X129735291Y-64569310D02*
X129830607Y-64664626D01*
X129830607Y-64664626D02*
X129878264Y-64759941D01*
X144270833Y-124059580D02*
X144223214Y-124107200D01*
X144223214Y-124107200D02*
X144080357Y-124154819D01*
X144080357Y-124154819D02*
X143985119Y-124154819D01*
X143985119Y-124154819D02*
X143842262Y-124107200D01*
X143842262Y-124107200D02*
X143747024Y-124011961D01*
X143747024Y-124011961D02*
X143699405Y-123916723D01*
X143699405Y-123916723D02*
X143651786Y-123726247D01*
X143651786Y-123726247D02*
X143651786Y-123583390D01*
X143651786Y-123583390D02*
X143699405Y-123392914D01*
X143699405Y-123392914D02*
X143747024Y-123297676D01*
X143747024Y-123297676D02*
X143842262Y-123202438D01*
X143842262Y-123202438D02*
X143985119Y-123154819D01*
X143985119Y-123154819D02*
X144080357Y-123154819D01*
X144080357Y-123154819D02*
X144223214Y-123202438D01*
X144223214Y-123202438D02*
X144270833Y-123250057D01*
X145127976Y-123488152D02*
X145127976Y-124154819D01*
X144889881Y-123107200D02*
X144651786Y-123821485D01*
X144651786Y-123821485D02*
X145270833Y-123821485D01*
X66089819Y-70275333D02*
X66804104Y-70275333D01*
X66804104Y-70275333D02*
X66946961Y-70322952D01*
X66946961Y-70322952D02*
X67042200Y-70418190D01*
X67042200Y-70418190D02*
X67089819Y-70561047D01*
X67089819Y-70561047D02*
X67089819Y-70656285D01*
X66518390Y-69656285D02*
X66470771Y-69751523D01*
X66470771Y-69751523D02*
X66423152Y-69799142D01*
X66423152Y-69799142D02*
X66327914Y-69846761D01*
X66327914Y-69846761D02*
X66280295Y-69846761D01*
X66280295Y-69846761D02*
X66185057Y-69799142D01*
X66185057Y-69799142D02*
X66137438Y-69751523D01*
X66137438Y-69751523D02*
X66089819Y-69656285D01*
X66089819Y-69656285D02*
X66089819Y-69465809D01*
X66089819Y-69465809D02*
X66137438Y-69370571D01*
X66137438Y-69370571D02*
X66185057Y-69322952D01*
X66185057Y-69322952D02*
X66280295Y-69275333D01*
X66280295Y-69275333D02*
X66327914Y-69275333D01*
X66327914Y-69275333D02*
X66423152Y-69322952D01*
X66423152Y-69322952D02*
X66470771Y-69370571D01*
X66470771Y-69370571D02*
X66518390Y-69465809D01*
X66518390Y-69465809D02*
X66518390Y-69656285D01*
X66518390Y-69656285D02*
X66566009Y-69751523D01*
X66566009Y-69751523D02*
X66613628Y-69799142D01*
X66613628Y-69799142D02*
X66708866Y-69846761D01*
X66708866Y-69846761D02*
X66899342Y-69846761D01*
X66899342Y-69846761D02*
X66994580Y-69799142D01*
X66994580Y-69799142D02*
X67042200Y-69751523D01*
X67042200Y-69751523D02*
X67089819Y-69656285D01*
X67089819Y-69656285D02*
X67089819Y-69465809D01*
X67089819Y-69465809D02*
X67042200Y-69370571D01*
X67042200Y-69370571D02*
X66994580Y-69322952D01*
X66994580Y-69322952D02*
X66899342Y-69275333D01*
X66899342Y-69275333D02*
X66708866Y-69275333D01*
X66708866Y-69275333D02*
X66613628Y-69322952D01*
X66613628Y-69322952D02*
X66566009Y-69370571D01*
X66566009Y-69370571D02*
X66518390Y-69465809D01*
X28607142Y-72359580D02*
X28559523Y-72407200D01*
X28559523Y-72407200D02*
X28416666Y-72454819D01*
X28416666Y-72454819D02*
X28321428Y-72454819D01*
X28321428Y-72454819D02*
X28178571Y-72407200D01*
X28178571Y-72407200D02*
X28083333Y-72311961D01*
X28083333Y-72311961D02*
X28035714Y-72216723D01*
X28035714Y-72216723D02*
X27988095Y-72026247D01*
X27988095Y-72026247D02*
X27988095Y-71883390D01*
X27988095Y-71883390D02*
X28035714Y-71692914D01*
X28035714Y-71692914D02*
X28083333Y-71597676D01*
X28083333Y-71597676D02*
X28178571Y-71502438D01*
X28178571Y-71502438D02*
X28321428Y-71454819D01*
X28321428Y-71454819D02*
X28416666Y-71454819D01*
X28416666Y-71454819D02*
X28559523Y-71502438D01*
X28559523Y-71502438D02*
X28607142Y-71550057D01*
X28988095Y-71550057D02*
X29035714Y-71502438D01*
X29035714Y-71502438D02*
X29130952Y-71454819D01*
X29130952Y-71454819D02*
X29369047Y-71454819D01*
X29369047Y-71454819D02*
X29464285Y-71502438D01*
X29464285Y-71502438D02*
X29511904Y-71550057D01*
X29511904Y-71550057D02*
X29559523Y-71645295D01*
X29559523Y-71645295D02*
X29559523Y-71740533D01*
X29559523Y-71740533D02*
X29511904Y-71883390D01*
X29511904Y-71883390D02*
X28940476Y-72454819D01*
X28940476Y-72454819D02*
X29559523Y-72454819D01*
X29940476Y-71550057D02*
X29988095Y-71502438D01*
X29988095Y-71502438D02*
X30083333Y-71454819D01*
X30083333Y-71454819D02*
X30321428Y-71454819D01*
X30321428Y-71454819D02*
X30416666Y-71502438D01*
X30416666Y-71502438D02*
X30464285Y-71550057D01*
X30464285Y-71550057D02*
X30511904Y-71645295D01*
X30511904Y-71645295D02*
X30511904Y-71740533D01*
X30511904Y-71740533D02*
X30464285Y-71883390D01*
X30464285Y-71883390D02*
X29892857Y-72454819D01*
X29892857Y-72454819D02*
X30511904Y-72454819D01*
X94357142Y-120454819D02*
X94023809Y-119978628D01*
X93785714Y-120454819D02*
X93785714Y-119454819D01*
X93785714Y-119454819D02*
X94166666Y-119454819D01*
X94166666Y-119454819D02*
X94261904Y-119502438D01*
X94261904Y-119502438D02*
X94309523Y-119550057D01*
X94309523Y-119550057D02*
X94357142Y-119645295D01*
X94357142Y-119645295D02*
X94357142Y-119788152D01*
X94357142Y-119788152D02*
X94309523Y-119883390D01*
X94309523Y-119883390D02*
X94261904Y-119931009D01*
X94261904Y-119931009D02*
X94166666Y-119978628D01*
X94166666Y-119978628D02*
X93785714Y-119978628D01*
X95309523Y-120454819D02*
X94738095Y-120454819D01*
X95023809Y-120454819D02*
X95023809Y-119454819D01*
X95023809Y-119454819D02*
X94928571Y-119597676D01*
X94928571Y-119597676D02*
X94833333Y-119692914D01*
X94833333Y-119692914D02*
X94738095Y-119740533D01*
X96261904Y-120454819D02*
X95690476Y-120454819D01*
X95976190Y-120454819D02*
X95976190Y-119454819D01*
X95976190Y-119454819D02*
X95880952Y-119597676D01*
X95880952Y-119597676D02*
X95785714Y-119692914D01*
X95785714Y-119692914D02*
X95690476Y-119740533D01*
X56238095Y-119204819D02*
X56238095Y-120014342D01*
X56238095Y-120014342D02*
X56285714Y-120109580D01*
X56285714Y-120109580D02*
X56333333Y-120157200D01*
X56333333Y-120157200D02*
X56428571Y-120204819D01*
X56428571Y-120204819D02*
X56619047Y-120204819D01*
X56619047Y-120204819D02*
X56714285Y-120157200D01*
X56714285Y-120157200D02*
X56761904Y-120109580D01*
X56761904Y-120109580D02*
X56809523Y-120014342D01*
X56809523Y-120014342D02*
X56809523Y-119204819D01*
X57761904Y-119204819D02*
X57285714Y-119204819D01*
X57285714Y-119204819D02*
X57238095Y-119681009D01*
X57238095Y-119681009D02*
X57285714Y-119633390D01*
X57285714Y-119633390D02*
X57380952Y-119585771D01*
X57380952Y-119585771D02*
X57619047Y-119585771D01*
X57619047Y-119585771D02*
X57714285Y-119633390D01*
X57714285Y-119633390D02*
X57761904Y-119681009D01*
X57761904Y-119681009D02*
X57809523Y-119776247D01*
X57809523Y-119776247D02*
X57809523Y-120014342D01*
X57809523Y-120014342D02*
X57761904Y-120109580D01*
X57761904Y-120109580D02*
X57714285Y-120157200D01*
X57714285Y-120157200D02*
X57619047Y-120204819D01*
X57619047Y-120204819D02*
X57380952Y-120204819D01*
X57380952Y-120204819D02*
X57285714Y-120157200D01*
X57285714Y-120157200D02*
X57238095Y-120109580D01*
X62253999Y-119693766D02*
X62253999Y-119455671D01*
X62492094Y-119550909D02*
X62253999Y-119455671D01*
X62253999Y-119455671D02*
X62015904Y-119550909D01*
X62396856Y-119265195D02*
X62253999Y-119455671D01*
X62253999Y-119455671D02*
X62111142Y-119265195D01*
X62254000Y-118603405D02*
X62254000Y-118841500D01*
X62015905Y-118746262D02*
X62254000Y-118841500D01*
X62254000Y-118841500D02*
X62492095Y-118746262D01*
X62111143Y-119031976D02*
X62254000Y-118841500D01*
X62254000Y-118841500D02*
X62396857Y-119031976D01*
X73154761Y-66050057D02*
X73059523Y-66002438D01*
X73059523Y-66002438D02*
X72964285Y-65907200D01*
X72964285Y-65907200D02*
X72821428Y-65764342D01*
X72821428Y-65764342D02*
X72726190Y-65716723D01*
X72726190Y-65716723D02*
X72630952Y-65716723D01*
X72678571Y-65954819D02*
X72583333Y-65907200D01*
X72583333Y-65907200D02*
X72488095Y-65811961D01*
X72488095Y-65811961D02*
X72440476Y-65621485D01*
X72440476Y-65621485D02*
X72440476Y-65288152D01*
X72440476Y-65288152D02*
X72488095Y-65097676D01*
X72488095Y-65097676D02*
X72583333Y-65002438D01*
X72583333Y-65002438D02*
X72678571Y-64954819D01*
X72678571Y-64954819D02*
X72869047Y-64954819D01*
X72869047Y-64954819D02*
X72964285Y-65002438D01*
X72964285Y-65002438D02*
X73059523Y-65097676D01*
X73059523Y-65097676D02*
X73107142Y-65288152D01*
X73107142Y-65288152D02*
X73107142Y-65621485D01*
X73107142Y-65621485D02*
X73059523Y-65811961D01*
X73059523Y-65811961D02*
X72964285Y-65907200D01*
X72964285Y-65907200D02*
X72869047Y-65954819D01*
X72869047Y-65954819D02*
X72678571Y-65954819D01*
X73488095Y-65050057D02*
X73535714Y-65002438D01*
X73535714Y-65002438D02*
X73630952Y-64954819D01*
X73630952Y-64954819D02*
X73869047Y-64954819D01*
X73869047Y-64954819D02*
X73964285Y-65002438D01*
X73964285Y-65002438D02*
X74011904Y-65050057D01*
X74011904Y-65050057D02*
X74059523Y-65145295D01*
X74059523Y-65145295D02*
X74059523Y-65240533D01*
X74059523Y-65240533D02*
X74011904Y-65383390D01*
X74011904Y-65383390D02*
X73440476Y-65954819D01*
X73440476Y-65954819D02*
X74059523Y-65954819D01*
X80594099Y-71915380D02*
X80594099Y-71677285D01*
X80832194Y-71772523D02*
X80594099Y-71677285D01*
X80594099Y-71677285D02*
X80356004Y-71772523D01*
X80736956Y-71486809D02*
X80594099Y-71677285D01*
X80594099Y-71677285D02*
X80451242Y-71486809D01*
X80594100Y-70825019D02*
X80594100Y-71063114D01*
X80356005Y-70967876D02*
X80594100Y-71063114D01*
X80594100Y-71063114D02*
X80832195Y-70967876D01*
X80451243Y-71253590D02*
X80594100Y-71063114D01*
X80594100Y-71063114D02*
X80736957Y-71253590D01*
X208270833Y-126559580D02*
X208223214Y-126607200D01*
X208223214Y-126607200D02*
X208080357Y-126654819D01*
X208080357Y-126654819D02*
X207985119Y-126654819D01*
X207985119Y-126654819D02*
X207842262Y-126607200D01*
X207842262Y-126607200D02*
X207747024Y-126511961D01*
X207747024Y-126511961D02*
X207699405Y-126416723D01*
X207699405Y-126416723D02*
X207651786Y-126226247D01*
X207651786Y-126226247D02*
X207651786Y-126083390D01*
X207651786Y-126083390D02*
X207699405Y-125892914D01*
X207699405Y-125892914D02*
X207747024Y-125797676D01*
X207747024Y-125797676D02*
X207842262Y-125702438D01*
X207842262Y-125702438D02*
X207985119Y-125654819D01*
X207985119Y-125654819D02*
X208080357Y-125654819D01*
X208080357Y-125654819D02*
X208223214Y-125702438D01*
X208223214Y-125702438D02*
X208270833Y-125750057D01*
X208604167Y-125654819D02*
X209223214Y-125654819D01*
X209223214Y-125654819D02*
X208889881Y-126035771D01*
X208889881Y-126035771D02*
X209032738Y-126035771D01*
X209032738Y-126035771D02*
X209127976Y-126083390D01*
X209127976Y-126083390D02*
X209175595Y-126131009D01*
X209175595Y-126131009D02*
X209223214Y-126226247D01*
X209223214Y-126226247D02*
X209223214Y-126464342D01*
X209223214Y-126464342D02*
X209175595Y-126559580D01*
X209175595Y-126559580D02*
X209127976Y-126607200D01*
X209127976Y-126607200D02*
X209032738Y-126654819D01*
X209032738Y-126654819D02*
X208747024Y-126654819D01*
X208747024Y-126654819D02*
X208651786Y-126607200D01*
X208651786Y-126607200D02*
X208604167Y-126559580D01*
X194083333Y-83859580D02*
X194035714Y-83907200D01*
X194035714Y-83907200D02*
X193892857Y-83954819D01*
X193892857Y-83954819D02*
X193797619Y-83954819D01*
X193797619Y-83954819D02*
X193654762Y-83907200D01*
X193654762Y-83907200D02*
X193559524Y-83811961D01*
X193559524Y-83811961D02*
X193511905Y-83716723D01*
X193511905Y-83716723D02*
X193464286Y-83526247D01*
X193464286Y-83526247D02*
X193464286Y-83383390D01*
X193464286Y-83383390D02*
X193511905Y-83192914D01*
X193511905Y-83192914D02*
X193559524Y-83097676D01*
X193559524Y-83097676D02*
X193654762Y-83002438D01*
X193654762Y-83002438D02*
X193797619Y-82954819D01*
X193797619Y-82954819D02*
X193892857Y-82954819D01*
X193892857Y-82954819D02*
X194035714Y-83002438D01*
X194035714Y-83002438D02*
X194083333Y-83050057D01*
X194559524Y-83954819D02*
X194750000Y-83954819D01*
X194750000Y-83954819D02*
X194845238Y-83907200D01*
X194845238Y-83907200D02*
X194892857Y-83859580D01*
X194892857Y-83859580D02*
X194988095Y-83716723D01*
X194988095Y-83716723D02*
X195035714Y-83526247D01*
X195035714Y-83526247D02*
X195035714Y-83145295D01*
X195035714Y-83145295D02*
X194988095Y-83050057D01*
X194988095Y-83050057D02*
X194940476Y-83002438D01*
X194940476Y-83002438D02*
X194845238Y-82954819D01*
X194845238Y-82954819D02*
X194654762Y-82954819D01*
X194654762Y-82954819D02*
X194559524Y-83002438D01*
X194559524Y-83002438D02*
X194511905Y-83050057D01*
X194511905Y-83050057D02*
X194464286Y-83145295D01*
X194464286Y-83145295D02*
X194464286Y-83383390D01*
X194464286Y-83383390D02*
X194511905Y-83478628D01*
X194511905Y-83478628D02*
X194559524Y-83526247D01*
X194559524Y-83526247D02*
X194654762Y-83573866D01*
X194654762Y-83573866D02*
X194845238Y-83573866D01*
X194845238Y-83573866D02*
X194940476Y-83526247D01*
X194940476Y-83526247D02*
X194988095Y-83478628D01*
X194988095Y-83478628D02*
X195035714Y-83383390D01*
X80174819Y-101942857D02*
X79698628Y-102276190D01*
X80174819Y-102514285D02*
X79174819Y-102514285D01*
X79174819Y-102514285D02*
X79174819Y-102133333D01*
X79174819Y-102133333D02*
X79222438Y-102038095D01*
X79222438Y-102038095D02*
X79270057Y-101990476D01*
X79270057Y-101990476D02*
X79365295Y-101942857D01*
X79365295Y-101942857D02*
X79508152Y-101942857D01*
X79508152Y-101942857D02*
X79603390Y-101990476D01*
X79603390Y-101990476D02*
X79651009Y-102038095D01*
X79651009Y-102038095D02*
X79698628Y-102133333D01*
X79698628Y-102133333D02*
X79698628Y-102514285D01*
X80174819Y-100990476D02*
X80174819Y-101561904D01*
X80174819Y-101276190D02*
X79174819Y-101276190D01*
X79174819Y-101276190D02*
X79317676Y-101371428D01*
X79317676Y-101371428D02*
X79412914Y-101466666D01*
X79412914Y-101466666D02*
X79460533Y-101561904D01*
X79174819Y-100085714D02*
X79174819Y-100561904D01*
X79174819Y-100561904D02*
X79651009Y-100609523D01*
X79651009Y-100609523D02*
X79603390Y-100561904D01*
X79603390Y-100561904D02*
X79555771Y-100466666D01*
X79555771Y-100466666D02*
X79555771Y-100228571D01*
X79555771Y-100228571D02*
X79603390Y-100133333D01*
X79603390Y-100133333D02*
X79651009Y-100085714D01*
X79651009Y-100085714D02*
X79746247Y-100038095D01*
X79746247Y-100038095D02*
X79984342Y-100038095D01*
X79984342Y-100038095D02*
X80079580Y-100085714D01*
X80079580Y-100085714D02*
X80127200Y-100133333D01*
X80127200Y-100133333D02*
X80174819Y-100228571D01*
X80174819Y-100228571D02*
X80174819Y-100466666D01*
X80174819Y-100466666D02*
X80127200Y-100561904D01*
X80127200Y-100561904D02*
X80079580Y-100609523D01*
X119419642Y-73159580D02*
X119372023Y-73207200D01*
X119372023Y-73207200D02*
X119229166Y-73254819D01*
X119229166Y-73254819D02*
X119133928Y-73254819D01*
X119133928Y-73254819D02*
X118991071Y-73207200D01*
X118991071Y-73207200D02*
X118895833Y-73111961D01*
X118895833Y-73111961D02*
X118848214Y-73016723D01*
X118848214Y-73016723D02*
X118800595Y-72826247D01*
X118800595Y-72826247D02*
X118800595Y-72683390D01*
X118800595Y-72683390D02*
X118848214Y-72492914D01*
X118848214Y-72492914D02*
X118895833Y-72397676D01*
X118895833Y-72397676D02*
X118991071Y-72302438D01*
X118991071Y-72302438D02*
X119133928Y-72254819D01*
X119133928Y-72254819D02*
X119229166Y-72254819D01*
X119229166Y-72254819D02*
X119372023Y-72302438D01*
X119372023Y-72302438D02*
X119419642Y-72350057D01*
X120372023Y-73254819D02*
X119800595Y-73254819D01*
X120086309Y-73254819D02*
X120086309Y-72254819D01*
X120086309Y-72254819D02*
X119991071Y-72397676D01*
X119991071Y-72397676D02*
X119895833Y-72492914D01*
X119895833Y-72492914D02*
X119800595Y-72540533D01*
X121229166Y-72588152D02*
X121229166Y-73254819D01*
X120991071Y-72207200D02*
X120752976Y-72921485D01*
X120752976Y-72921485D02*
X121372023Y-72921485D01*
X232166666Y-74454819D02*
X232166666Y-75169104D01*
X232166666Y-75169104D02*
X232119047Y-75311961D01*
X232119047Y-75311961D02*
X232023809Y-75407200D01*
X232023809Y-75407200D02*
X231880952Y-75454819D01*
X231880952Y-75454819D02*
X231785714Y-75454819D01*
X233119047Y-74454819D02*
X232642857Y-74454819D01*
X232642857Y-74454819D02*
X232595238Y-74931009D01*
X232595238Y-74931009D02*
X232642857Y-74883390D01*
X232642857Y-74883390D02*
X232738095Y-74835771D01*
X232738095Y-74835771D02*
X232976190Y-74835771D01*
X232976190Y-74835771D02*
X233071428Y-74883390D01*
X233071428Y-74883390D02*
X233119047Y-74931009D01*
X233119047Y-74931009D02*
X233166666Y-75026247D01*
X233166666Y-75026247D02*
X233166666Y-75264342D01*
X233166666Y-75264342D02*
X233119047Y-75359580D01*
X233119047Y-75359580D02*
X233071428Y-75407200D01*
X233071428Y-75407200D02*
X232976190Y-75454819D01*
X232976190Y-75454819D02*
X232738095Y-75454819D01*
X232738095Y-75454819D02*
X232642857Y-75407200D01*
X232642857Y-75407200D02*
X232595238Y-75359580D01*
X214488095Y-74692819D02*
X214488095Y-75502342D01*
X214488095Y-75502342D02*
X214535714Y-75597580D01*
X214535714Y-75597580D02*
X214583333Y-75645200D01*
X214583333Y-75645200D02*
X214678571Y-75692819D01*
X214678571Y-75692819D02*
X214869047Y-75692819D01*
X214869047Y-75692819D02*
X214964285Y-75645200D01*
X214964285Y-75645200D02*
X215011904Y-75597580D01*
X215011904Y-75597580D02*
X215059523Y-75502342D01*
X215059523Y-75502342D02*
X215059523Y-74692819D01*
X215440476Y-74692819D02*
X216059523Y-74692819D01*
X216059523Y-74692819D02*
X215726190Y-75073771D01*
X215726190Y-75073771D02*
X215869047Y-75073771D01*
X215869047Y-75073771D02*
X215964285Y-75121390D01*
X215964285Y-75121390D02*
X216011904Y-75169009D01*
X216011904Y-75169009D02*
X216059523Y-75264247D01*
X216059523Y-75264247D02*
X216059523Y-75502342D01*
X216059523Y-75502342D02*
X216011904Y-75597580D01*
X216011904Y-75597580D02*
X215964285Y-75645200D01*
X215964285Y-75645200D02*
X215869047Y-75692819D01*
X215869047Y-75692819D02*
X215583333Y-75692819D01*
X215583333Y-75692819D02*
X215488095Y-75645200D01*
X215488095Y-75645200D02*
X215440476Y-75597580D01*
X157416666Y-61954819D02*
X157416666Y-62669104D01*
X157416666Y-62669104D02*
X157369047Y-62811961D01*
X157369047Y-62811961D02*
X157273809Y-62907200D01*
X157273809Y-62907200D02*
X157130952Y-62954819D01*
X157130952Y-62954819D02*
X157035714Y-62954819D01*
X158416666Y-62954819D02*
X157845238Y-62954819D01*
X158130952Y-62954819D02*
X158130952Y-61954819D01*
X158130952Y-61954819D02*
X158035714Y-62097676D01*
X158035714Y-62097676D02*
X157940476Y-62192914D01*
X157940476Y-62192914D02*
X157845238Y-62240533D01*
X181145833Y-137309580D02*
X181098214Y-137357200D01*
X181098214Y-137357200D02*
X180955357Y-137404819D01*
X180955357Y-137404819D02*
X180860119Y-137404819D01*
X180860119Y-137404819D02*
X180717262Y-137357200D01*
X180717262Y-137357200D02*
X180622024Y-137261961D01*
X180622024Y-137261961D02*
X180574405Y-137166723D01*
X180574405Y-137166723D02*
X180526786Y-136976247D01*
X180526786Y-136976247D02*
X180526786Y-136833390D01*
X180526786Y-136833390D02*
X180574405Y-136642914D01*
X180574405Y-136642914D02*
X180622024Y-136547676D01*
X180622024Y-136547676D02*
X180717262Y-136452438D01*
X180717262Y-136452438D02*
X180860119Y-136404819D01*
X180860119Y-136404819D02*
X180955357Y-136404819D01*
X180955357Y-136404819D02*
X181098214Y-136452438D01*
X181098214Y-136452438D02*
X181145833Y-136500057D01*
X181526786Y-136500057D02*
X181574405Y-136452438D01*
X181574405Y-136452438D02*
X181669643Y-136404819D01*
X181669643Y-136404819D02*
X181907738Y-136404819D01*
X181907738Y-136404819D02*
X182002976Y-136452438D01*
X182002976Y-136452438D02*
X182050595Y-136500057D01*
X182050595Y-136500057D02*
X182098214Y-136595295D01*
X182098214Y-136595295D02*
X182098214Y-136690533D01*
X182098214Y-136690533D02*
X182050595Y-136833390D01*
X182050595Y-136833390D02*
X181479167Y-137404819D01*
X181479167Y-137404819D02*
X182098214Y-137404819D01*
X86607142Y-120704819D02*
X86273809Y-120228628D01*
X86035714Y-120704819D02*
X86035714Y-119704819D01*
X86035714Y-119704819D02*
X86416666Y-119704819D01*
X86416666Y-119704819D02*
X86511904Y-119752438D01*
X86511904Y-119752438D02*
X86559523Y-119800057D01*
X86559523Y-119800057D02*
X86607142Y-119895295D01*
X86607142Y-119895295D02*
X86607142Y-120038152D01*
X86607142Y-120038152D02*
X86559523Y-120133390D01*
X86559523Y-120133390D02*
X86511904Y-120181009D01*
X86511904Y-120181009D02*
X86416666Y-120228628D01*
X86416666Y-120228628D02*
X86035714Y-120228628D01*
X87559523Y-120704819D02*
X86988095Y-120704819D01*
X87273809Y-120704819D02*
X87273809Y-119704819D01*
X87273809Y-119704819D02*
X87178571Y-119847676D01*
X87178571Y-119847676D02*
X87083333Y-119942914D01*
X87083333Y-119942914D02*
X86988095Y-119990533D01*
X88178571Y-119704819D02*
X88273809Y-119704819D01*
X88273809Y-119704819D02*
X88369047Y-119752438D01*
X88369047Y-119752438D02*
X88416666Y-119800057D01*
X88416666Y-119800057D02*
X88464285Y-119895295D01*
X88464285Y-119895295D02*
X88511904Y-120085771D01*
X88511904Y-120085771D02*
X88511904Y-120323866D01*
X88511904Y-120323866D02*
X88464285Y-120514342D01*
X88464285Y-120514342D02*
X88416666Y-120609580D01*
X88416666Y-120609580D02*
X88369047Y-120657200D01*
X88369047Y-120657200D02*
X88273809Y-120704819D01*
X88273809Y-120704819D02*
X88178571Y-120704819D01*
X88178571Y-120704819D02*
X88083333Y-120657200D01*
X88083333Y-120657200D02*
X88035714Y-120609580D01*
X88035714Y-120609580D02*
X87988095Y-120514342D01*
X87988095Y-120514342D02*
X87940476Y-120323866D01*
X87940476Y-120323866D02*
X87940476Y-120085771D01*
X87940476Y-120085771D02*
X87988095Y-119895295D01*
X87988095Y-119895295D02*
X88035714Y-119800057D01*
X88035714Y-119800057D02*
X88083333Y-119752438D01*
X88083333Y-119752438D02*
X88178571Y-119704819D01*
X30607142Y-121359580D02*
X30559523Y-121407200D01*
X30559523Y-121407200D02*
X30416666Y-121454819D01*
X30416666Y-121454819D02*
X30321428Y-121454819D01*
X30321428Y-121454819D02*
X30178571Y-121407200D01*
X30178571Y-121407200D02*
X30083333Y-121311961D01*
X30083333Y-121311961D02*
X30035714Y-121216723D01*
X30035714Y-121216723D02*
X29988095Y-121026247D01*
X29988095Y-121026247D02*
X29988095Y-120883390D01*
X29988095Y-120883390D02*
X30035714Y-120692914D01*
X30035714Y-120692914D02*
X30083333Y-120597676D01*
X30083333Y-120597676D02*
X30178571Y-120502438D01*
X30178571Y-120502438D02*
X30321428Y-120454819D01*
X30321428Y-120454819D02*
X30416666Y-120454819D01*
X30416666Y-120454819D02*
X30559523Y-120502438D01*
X30559523Y-120502438D02*
X30607142Y-120550057D01*
X30988095Y-120550057D02*
X31035714Y-120502438D01*
X31035714Y-120502438D02*
X31130952Y-120454819D01*
X31130952Y-120454819D02*
X31369047Y-120454819D01*
X31369047Y-120454819D02*
X31464285Y-120502438D01*
X31464285Y-120502438D02*
X31511904Y-120550057D01*
X31511904Y-120550057D02*
X31559523Y-120645295D01*
X31559523Y-120645295D02*
X31559523Y-120740533D01*
X31559523Y-120740533D02*
X31511904Y-120883390D01*
X31511904Y-120883390D02*
X30940476Y-121454819D01*
X30940476Y-121454819D02*
X31559523Y-121454819D01*
X32464285Y-120454819D02*
X31988095Y-120454819D01*
X31988095Y-120454819D02*
X31940476Y-120931009D01*
X31940476Y-120931009D02*
X31988095Y-120883390D01*
X31988095Y-120883390D02*
X32083333Y-120835771D01*
X32083333Y-120835771D02*
X32321428Y-120835771D01*
X32321428Y-120835771D02*
X32416666Y-120883390D01*
X32416666Y-120883390D02*
X32464285Y-120931009D01*
X32464285Y-120931009D02*
X32511904Y-121026247D01*
X32511904Y-121026247D02*
X32511904Y-121264342D01*
X32511904Y-121264342D02*
X32464285Y-121359580D01*
X32464285Y-121359580D02*
X32416666Y-121407200D01*
X32416666Y-121407200D02*
X32321428Y-121454819D01*
X32321428Y-121454819D02*
X32083333Y-121454819D01*
X32083333Y-121454819D02*
X31988095Y-121407200D01*
X31988095Y-121407200D02*
X31940476Y-121359580D01*
X82294642Y-80099580D02*
X82247023Y-80147200D01*
X82247023Y-80147200D02*
X82104166Y-80194819D01*
X82104166Y-80194819D02*
X82008928Y-80194819D01*
X82008928Y-80194819D02*
X81866071Y-80147200D01*
X81866071Y-80147200D02*
X81770833Y-80051961D01*
X81770833Y-80051961D02*
X81723214Y-79956723D01*
X81723214Y-79956723D02*
X81675595Y-79766247D01*
X81675595Y-79766247D02*
X81675595Y-79623390D01*
X81675595Y-79623390D02*
X81723214Y-79432914D01*
X81723214Y-79432914D02*
X81770833Y-79337676D01*
X81770833Y-79337676D02*
X81866071Y-79242438D01*
X81866071Y-79242438D02*
X82008928Y-79194819D01*
X82008928Y-79194819D02*
X82104166Y-79194819D01*
X82104166Y-79194819D02*
X82247023Y-79242438D01*
X82247023Y-79242438D02*
X82294642Y-79290057D01*
X83247023Y-80194819D02*
X82675595Y-80194819D01*
X82961309Y-80194819D02*
X82961309Y-79194819D01*
X82961309Y-79194819D02*
X82866071Y-79337676D01*
X82866071Y-79337676D02*
X82770833Y-79432914D01*
X82770833Y-79432914D02*
X82675595Y-79480533D01*
X84199404Y-80194819D02*
X83627976Y-80194819D01*
X83913690Y-80194819D02*
X83913690Y-79194819D01*
X83913690Y-79194819D02*
X83818452Y-79337676D01*
X83818452Y-79337676D02*
X83723214Y-79432914D01*
X83723214Y-79432914D02*
X83627976Y-79480533D01*
X214454819Y-96511904D02*
X215264342Y-96511904D01*
X215264342Y-96511904D02*
X215359580Y-96464285D01*
X215359580Y-96464285D02*
X215407200Y-96416666D01*
X215407200Y-96416666D02*
X215454819Y-96321428D01*
X215454819Y-96321428D02*
X215454819Y-96130952D01*
X215454819Y-96130952D02*
X215407200Y-96035714D01*
X215407200Y-96035714D02*
X215359580Y-95988095D01*
X215359580Y-95988095D02*
X215264342Y-95940476D01*
X215264342Y-95940476D02*
X214454819Y-95940476D01*
X214788152Y-95035714D02*
X215454819Y-95035714D01*
X214407200Y-95273809D02*
X215121485Y-95511904D01*
X215121485Y-95511904D02*
X215121485Y-94892857D01*
X94116553Y-77879491D02*
X94593129Y-77879491D01*
X93592318Y-78213094D02*
X94116553Y-77879491D01*
X94116553Y-77879491D02*
X93592318Y-77545887D01*
X93592318Y-77307599D02*
X93592318Y-76688049D01*
X93592318Y-76688049D02*
X93973580Y-77021653D01*
X93973580Y-77021653D02*
X93973580Y-76878680D01*
X93973580Y-76878680D02*
X94021237Y-76783364D01*
X94021237Y-76783364D02*
X94068895Y-76735707D01*
X94068895Y-76735707D02*
X94164210Y-76688049D01*
X94164210Y-76688049D02*
X94402499Y-76688049D01*
X94402499Y-76688049D02*
X94497814Y-76735707D01*
X94497814Y-76735707D02*
X94545472Y-76783364D01*
X94545472Y-76783364D02*
X94593129Y-76878680D01*
X94593129Y-76878680D02*
X94593129Y-77164626D01*
X94593129Y-77164626D02*
X94545472Y-77259941D01*
X94545472Y-77259941D02*
X94497814Y-77307599D01*
X28857142Y-82859580D02*
X28809523Y-82907200D01*
X28809523Y-82907200D02*
X28666666Y-82954819D01*
X28666666Y-82954819D02*
X28571428Y-82954819D01*
X28571428Y-82954819D02*
X28428571Y-82907200D01*
X28428571Y-82907200D02*
X28333333Y-82811961D01*
X28333333Y-82811961D02*
X28285714Y-82716723D01*
X28285714Y-82716723D02*
X28238095Y-82526247D01*
X28238095Y-82526247D02*
X28238095Y-82383390D01*
X28238095Y-82383390D02*
X28285714Y-82192914D01*
X28285714Y-82192914D02*
X28333333Y-82097676D01*
X28333333Y-82097676D02*
X28428571Y-82002438D01*
X28428571Y-82002438D02*
X28571428Y-81954819D01*
X28571428Y-81954819D02*
X28666666Y-81954819D01*
X28666666Y-81954819D02*
X28809523Y-82002438D01*
X28809523Y-82002438D02*
X28857142Y-82050057D01*
X29238095Y-82050057D02*
X29285714Y-82002438D01*
X29285714Y-82002438D02*
X29380952Y-81954819D01*
X29380952Y-81954819D02*
X29619047Y-81954819D01*
X29619047Y-81954819D02*
X29714285Y-82002438D01*
X29714285Y-82002438D02*
X29761904Y-82050057D01*
X29761904Y-82050057D02*
X29809523Y-82145295D01*
X29809523Y-82145295D02*
X29809523Y-82240533D01*
X29809523Y-82240533D02*
X29761904Y-82383390D01*
X29761904Y-82383390D02*
X29190476Y-82954819D01*
X29190476Y-82954819D02*
X29809523Y-82954819D01*
X30761904Y-82954819D02*
X30190476Y-82954819D01*
X30476190Y-82954819D02*
X30476190Y-81954819D01*
X30476190Y-81954819D02*
X30380952Y-82097676D01*
X30380952Y-82097676D02*
X30285714Y-82192914D01*
X30285714Y-82192914D02*
X30190476Y-82240533D01*
X212958333Y-113659580D02*
X212910714Y-113707200D01*
X212910714Y-113707200D02*
X212767857Y-113754819D01*
X212767857Y-113754819D02*
X212672619Y-113754819D01*
X212672619Y-113754819D02*
X212529762Y-113707200D01*
X212529762Y-113707200D02*
X212434524Y-113611961D01*
X212434524Y-113611961D02*
X212386905Y-113516723D01*
X212386905Y-113516723D02*
X212339286Y-113326247D01*
X212339286Y-113326247D02*
X212339286Y-113183390D01*
X212339286Y-113183390D02*
X212386905Y-112992914D01*
X212386905Y-112992914D02*
X212434524Y-112897676D01*
X212434524Y-112897676D02*
X212529762Y-112802438D01*
X212529762Y-112802438D02*
X212672619Y-112754819D01*
X212672619Y-112754819D02*
X212767857Y-112754819D01*
X212767857Y-112754819D02*
X212910714Y-112802438D01*
X212910714Y-112802438D02*
X212958333Y-112850057D01*
X213815476Y-112754819D02*
X213625000Y-112754819D01*
X213625000Y-112754819D02*
X213529762Y-112802438D01*
X213529762Y-112802438D02*
X213482143Y-112850057D01*
X213482143Y-112850057D02*
X213386905Y-112992914D01*
X213386905Y-112992914D02*
X213339286Y-113183390D01*
X213339286Y-113183390D02*
X213339286Y-113564342D01*
X213339286Y-113564342D02*
X213386905Y-113659580D01*
X213386905Y-113659580D02*
X213434524Y-113707200D01*
X213434524Y-113707200D02*
X213529762Y-113754819D01*
X213529762Y-113754819D02*
X213720238Y-113754819D01*
X213720238Y-113754819D02*
X213815476Y-113707200D01*
X213815476Y-113707200D02*
X213863095Y-113659580D01*
X213863095Y-113659580D02*
X213910714Y-113564342D01*
X213910714Y-113564342D02*
X213910714Y-113326247D01*
X213910714Y-113326247D02*
X213863095Y-113231009D01*
X213863095Y-113231009D02*
X213815476Y-113183390D01*
X213815476Y-113183390D02*
X213720238Y-113135771D01*
X213720238Y-113135771D02*
X213529762Y-113135771D01*
X213529762Y-113135771D02*
X213434524Y-113183390D01*
X213434524Y-113183390D02*
X213386905Y-113231009D01*
X213386905Y-113231009D02*
X213339286Y-113326247D01*
X174083333Y-88954819D02*
X173750000Y-88478628D01*
X173511905Y-88954819D02*
X173511905Y-87954819D01*
X173511905Y-87954819D02*
X173892857Y-87954819D01*
X173892857Y-87954819D02*
X173988095Y-88002438D01*
X173988095Y-88002438D02*
X174035714Y-88050057D01*
X174035714Y-88050057D02*
X174083333Y-88145295D01*
X174083333Y-88145295D02*
X174083333Y-88288152D01*
X174083333Y-88288152D02*
X174035714Y-88383390D01*
X174035714Y-88383390D02*
X173988095Y-88431009D01*
X173988095Y-88431009D02*
X173892857Y-88478628D01*
X173892857Y-88478628D02*
X173511905Y-88478628D01*
X174559524Y-88954819D02*
X174750000Y-88954819D01*
X174750000Y-88954819D02*
X174845238Y-88907200D01*
X174845238Y-88907200D02*
X174892857Y-88859580D01*
X174892857Y-88859580D02*
X174988095Y-88716723D01*
X174988095Y-88716723D02*
X175035714Y-88526247D01*
X175035714Y-88526247D02*
X175035714Y-88145295D01*
X175035714Y-88145295D02*
X174988095Y-88050057D01*
X174988095Y-88050057D02*
X174940476Y-88002438D01*
X174940476Y-88002438D02*
X174845238Y-87954819D01*
X174845238Y-87954819D02*
X174654762Y-87954819D01*
X174654762Y-87954819D02*
X174559524Y-88002438D01*
X174559524Y-88002438D02*
X174511905Y-88050057D01*
X174511905Y-88050057D02*
X174464286Y-88145295D01*
X174464286Y-88145295D02*
X174464286Y-88383390D01*
X174464286Y-88383390D02*
X174511905Y-88478628D01*
X174511905Y-88478628D02*
X174559524Y-88526247D01*
X174559524Y-88526247D02*
X174654762Y-88573866D01*
X174654762Y-88573866D02*
X174845238Y-88573866D01*
X174845238Y-88573866D02*
X174940476Y-88526247D01*
X174940476Y-88526247D02*
X174988095Y-88478628D01*
X174988095Y-88478628D02*
X175035714Y-88383390D01*
X193857142Y-77859580D02*
X193809523Y-77907200D01*
X193809523Y-77907200D02*
X193666666Y-77954819D01*
X193666666Y-77954819D02*
X193571428Y-77954819D01*
X193571428Y-77954819D02*
X193428571Y-77907200D01*
X193428571Y-77907200D02*
X193333333Y-77811961D01*
X193333333Y-77811961D02*
X193285714Y-77716723D01*
X193285714Y-77716723D02*
X193238095Y-77526247D01*
X193238095Y-77526247D02*
X193238095Y-77383390D01*
X193238095Y-77383390D02*
X193285714Y-77192914D01*
X193285714Y-77192914D02*
X193333333Y-77097676D01*
X193333333Y-77097676D02*
X193428571Y-77002438D01*
X193428571Y-77002438D02*
X193571428Y-76954819D01*
X193571428Y-76954819D02*
X193666666Y-76954819D01*
X193666666Y-76954819D02*
X193809523Y-77002438D01*
X193809523Y-77002438D02*
X193857142Y-77050057D01*
X194809523Y-77954819D02*
X194238095Y-77954819D01*
X194523809Y-77954819D02*
X194523809Y-76954819D01*
X194523809Y-76954819D02*
X194428571Y-77097676D01*
X194428571Y-77097676D02*
X194333333Y-77192914D01*
X194333333Y-77192914D02*
X194238095Y-77240533D01*
X195428571Y-76954819D02*
X195523809Y-76954819D01*
X195523809Y-76954819D02*
X195619047Y-77002438D01*
X195619047Y-77002438D02*
X195666666Y-77050057D01*
X195666666Y-77050057D02*
X195714285Y-77145295D01*
X195714285Y-77145295D02*
X195761904Y-77335771D01*
X195761904Y-77335771D02*
X195761904Y-77573866D01*
X195761904Y-77573866D02*
X195714285Y-77764342D01*
X195714285Y-77764342D02*
X195666666Y-77859580D01*
X195666666Y-77859580D02*
X195619047Y-77907200D01*
X195619047Y-77907200D02*
X195523809Y-77954819D01*
X195523809Y-77954819D02*
X195428571Y-77954819D01*
X195428571Y-77954819D02*
X195333333Y-77907200D01*
X195333333Y-77907200D02*
X195285714Y-77859580D01*
X195285714Y-77859580D02*
X195238095Y-77764342D01*
X195238095Y-77764342D02*
X195190476Y-77573866D01*
X195190476Y-77573866D02*
X195190476Y-77335771D01*
X195190476Y-77335771D02*
X195238095Y-77145295D01*
X195238095Y-77145295D02*
X195285714Y-77050057D01*
X195285714Y-77050057D02*
X195333333Y-77002438D01*
X195333333Y-77002438D02*
X195428571Y-76954819D01*
X110179819Y-92198333D02*
X110894104Y-92198333D01*
X110894104Y-92198333D02*
X111036961Y-92245952D01*
X111036961Y-92245952D02*
X111132200Y-92341190D01*
X111132200Y-92341190D02*
X111179819Y-92484047D01*
X111179819Y-92484047D02*
X111179819Y-92579285D01*
X111179819Y-91674523D02*
X111179819Y-91484047D01*
X111179819Y-91484047D02*
X111132200Y-91388809D01*
X111132200Y-91388809D02*
X111084580Y-91341190D01*
X111084580Y-91341190D02*
X110941723Y-91245952D01*
X110941723Y-91245952D02*
X110751247Y-91198333D01*
X110751247Y-91198333D02*
X110370295Y-91198333D01*
X110370295Y-91198333D02*
X110275057Y-91245952D01*
X110275057Y-91245952D02*
X110227438Y-91293571D01*
X110227438Y-91293571D02*
X110179819Y-91388809D01*
X110179819Y-91388809D02*
X110179819Y-91579285D01*
X110179819Y-91579285D02*
X110227438Y-91674523D01*
X110227438Y-91674523D02*
X110275057Y-91722142D01*
X110275057Y-91722142D02*
X110370295Y-91769761D01*
X110370295Y-91769761D02*
X110608390Y-91769761D01*
X110608390Y-91769761D02*
X110703628Y-91722142D01*
X110703628Y-91722142D02*
X110751247Y-91674523D01*
X110751247Y-91674523D02*
X110798866Y-91579285D01*
X110798866Y-91579285D02*
X110798866Y-91388809D01*
X110798866Y-91388809D02*
X110751247Y-91293571D01*
X110751247Y-91293571D02*
X110703628Y-91245952D01*
X110703628Y-91245952D02*
X110608390Y-91198333D01*
X104333333Y-75454819D02*
X104000000Y-74978628D01*
X103761905Y-75454819D02*
X103761905Y-74454819D01*
X103761905Y-74454819D02*
X104142857Y-74454819D01*
X104142857Y-74454819D02*
X104238095Y-74502438D01*
X104238095Y-74502438D02*
X104285714Y-74550057D01*
X104285714Y-74550057D02*
X104333333Y-74645295D01*
X104333333Y-74645295D02*
X104333333Y-74788152D01*
X104333333Y-74788152D02*
X104285714Y-74883390D01*
X104285714Y-74883390D02*
X104238095Y-74931009D01*
X104238095Y-74931009D02*
X104142857Y-74978628D01*
X104142857Y-74978628D02*
X103761905Y-74978628D01*
X105190476Y-74454819D02*
X105000000Y-74454819D01*
X105000000Y-74454819D02*
X104904762Y-74502438D01*
X104904762Y-74502438D02*
X104857143Y-74550057D01*
X104857143Y-74550057D02*
X104761905Y-74692914D01*
X104761905Y-74692914D02*
X104714286Y-74883390D01*
X104714286Y-74883390D02*
X104714286Y-75264342D01*
X104714286Y-75264342D02*
X104761905Y-75359580D01*
X104761905Y-75359580D02*
X104809524Y-75407200D01*
X104809524Y-75407200D02*
X104904762Y-75454819D01*
X104904762Y-75454819D02*
X105095238Y-75454819D01*
X105095238Y-75454819D02*
X105190476Y-75407200D01*
X105190476Y-75407200D02*
X105238095Y-75359580D01*
X105238095Y-75359580D02*
X105285714Y-75264342D01*
X105285714Y-75264342D02*
X105285714Y-75026247D01*
X105285714Y-75026247D02*
X105238095Y-74931009D01*
X105238095Y-74931009D02*
X105190476Y-74883390D01*
X105190476Y-74883390D02*
X105095238Y-74835771D01*
X105095238Y-74835771D02*
X104904762Y-74835771D01*
X104904762Y-74835771D02*
X104809524Y-74883390D01*
X104809524Y-74883390D02*
X104761905Y-74931009D01*
X104761905Y-74931009D02*
X104714286Y-75026247D01*
X166666666Y-94704819D02*
X166666666Y-95419104D01*
X166666666Y-95419104D02*
X166619047Y-95561961D01*
X166619047Y-95561961D02*
X166523809Y-95657200D01*
X166523809Y-95657200D02*
X166380952Y-95704819D01*
X166380952Y-95704819D02*
X166285714Y-95704819D01*
X167571428Y-94704819D02*
X167380952Y-94704819D01*
X167380952Y-94704819D02*
X167285714Y-94752438D01*
X167285714Y-94752438D02*
X167238095Y-94800057D01*
X167238095Y-94800057D02*
X167142857Y-94942914D01*
X167142857Y-94942914D02*
X167095238Y-95133390D01*
X167095238Y-95133390D02*
X167095238Y-95514342D01*
X167095238Y-95514342D02*
X167142857Y-95609580D01*
X167142857Y-95609580D02*
X167190476Y-95657200D01*
X167190476Y-95657200D02*
X167285714Y-95704819D01*
X167285714Y-95704819D02*
X167476190Y-95704819D01*
X167476190Y-95704819D02*
X167571428Y-95657200D01*
X167571428Y-95657200D02*
X167619047Y-95609580D01*
X167619047Y-95609580D02*
X167666666Y-95514342D01*
X167666666Y-95514342D02*
X167666666Y-95276247D01*
X167666666Y-95276247D02*
X167619047Y-95181009D01*
X167619047Y-95181009D02*
X167571428Y-95133390D01*
X167571428Y-95133390D02*
X167476190Y-95085771D01*
X167476190Y-95085771D02*
X167285714Y-95085771D01*
X167285714Y-95085771D02*
X167190476Y-95133390D01*
X167190476Y-95133390D02*
X167142857Y-95181009D01*
X167142857Y-95181009D02*
X167095238Y-95276247D01*
X231833333Y-83704819D02*
X231500000Y-83228628D01*
X231261905Y-83704819D02*
X231261905Y-82704819D01*
X231261905Y-82704819D02*
X231642857Y-82704819D01*
X231642857Y-82704819D02*
X231738095Y-82752438D01*
X231738095Y-82752438D02*
X231785714Y-82800057D01*
X231785714Y-82800057D02*
X231833333Y-82895295D01*
X231833333Y-82895295D02*
X231833333Y-83038152D01*
X231833333Y-83038152D02*
X231785714Y-83133390D01*
X231785714Y-83133390D02*
X231738095Y-83181009D01*
X231738095Y-83181009D02*
X231642857Y-83228628D01*
X231642857Y-83228628D02*
X231261905Y-83228628D01*
X232214286Y-82800057D02*
X232261905Y-82752438D01*
X232261905Y-82752438D02*
X232357143Y-82704819D01*
X232357143Y-82704819D02*
X232595238Y-82704819D01*
X232595238Y-82704819D02*
X232690476Y-82752438D01*
X232690476Y-82752438D02*
X232738095Y-82800057D01*
X232738095Y-82800057D02*
X232785714Y-82895295D01*
X232785714Y-82895295D02*
X232785714Y-82990533D01*
X232785714Y-82990533D02*
X232738095Y-83133390D01*
X232738095Y-83133390D02*
X232166667Y-83704819D01*
X232166667Y-83704819D02*
X232785714Y-83704819D01*
X205116553Y-72226576D02*
X205593129Y-72226576D01*
X204592318Y-72560179D02*
X205116553Y-72226576D01*
X205116553Y-72226576D02*
X204592318Y-71892972D01*
X204687634Y-71607026D02*
X204639976Y-71559368D01*
X204639976Y-71559368D02*
X204592318Y-71464053D01*
X204592318Y-71464053D02*
X204592318Y-71225765D01*
X204592318Y-71225765D02*
X204639976Y-71130449D01*
X204639976Y-71130449D02*
X204687634Y-71082792D01*
X204687634Y-71082792D02*
X204782949Y-71035134D01*
X204782949Y-71035134D02*
X204878264Y-71035134D01*
X204878264Y-71035134D02*
X205021237Y-71082792D01*
X205021237Y-71082792D02*
X205593129Y-71654684D01*
X205593129Y-71654684D02*
X205593129Y-71035134D01*
X92907142Y-97674819D02*
X92573809Y-97198628D01*
X92335714Y-97674819D02*
X92335714Y-96674819D01*
X92335714Y-96674819D02*
X92716666Y-96674819D01*
X92716666Y-96674819D02*
X92811904Y-96722438D01*
X92811904Y-96722438D02*
X92859523Y-96770057D01*
X92859523Y-96770057D02*
X92907142Y-96865295D01*
X92907142Y-96865295D02*
X92907142Y-97008152D01*
X92907142Y-97008152D02*
X92859523Y-97103390D01*
X92859523Y-97103390D02*
X92811904Y-97151009D01*
X92811904Y-97151009D02*
X92716666Y-97198628D01*
X92716666Y-97198628D02*
X92335714Y-97198628D01*
X93859523Y-97674819D02*
X93288095Y-97674819D01*
X93573809Y-97674819D02*
X93573809Y-96674819D01*
X93573809Y-96674819D02*
X93478571Y-96817676D01*
X93478571Y-96817676D02*
X93383333Y-96912914D01*
X93383333Y-96912914D02*
X93288095Y-96960533D01*
X94192857Y-96674819D02*
X94811904Y-96674819D01*
X94811904Y-96674819D02*
X94478571Y-97055771D01*
X94478571Y-97055771D02*
X94621428Y-97055771D01*
X94621428Y-97055771D02*
X94716666Y-97103390D01*
X94716666Y-97103390D02*
X94764285Y-97151009D01*
X94764285Y-97151009D02*
X94811904Y-97246247D01*
X94811904Y-97246247D02*
X94811904Y-97484342D01*
X94811904Y-97484342D02*
X94764285Y-97579580D01*
X94764285Y-97579580D02*
X94716666Y-97627200D01*
X94716666Y-97627200D02*
X94621428Y-97674819D01*
X94621428Y-97674819D02*
X94335714Y-97674819D01*
X94335714Y-97674819D02*
X94240476Y-97627200D01*
X94240476Y-97627200D02*
X94192857Y-97579580D01*
X197833333Y-87359580D02*
X197785714Y-87407200D01*
X197785714Y-87407200D02*
X197642857Y-87454819D01*
X197642857Y-87454819D02*
X197547619Y-87454819D01*
X197547619Y-87454819D02*
X197404762Y-87407200D01*
X197404762Y-87407200D02*
X197309524Y-87311961D01*
X197309524Y-87311961D02*
X197261905Y-87216723D01*
X197261905Y-87216723D02*
X197214286Y-87026247D01*
X197214286Y-87026247D02*
X197214286Y-86883390D01*
X197214286Y-86883390D02*
X197261905Y-86692914D01*
X197261905Y-86692914D02*
X197309524Y-86597676D01*
X197309524Y-86597676D02*
X197404762Y-86502438D01*
X197404762Y-86502438D02*
X197547619Y-86454819D01*
X197547619Y-86454819D02*
X197642857Y-86454819D01*
X197642857Y-86454819D02*
X197785714Y-86502438D01*
X197785714Y-86502438D02*
X197833333Y-86550057D01*
X198404762Y-86883390D02*
X198309524Y-86835771D01*
X198309524Y-86835771D02*
X198261905Y-86788152D01*
X198261905Y-86788152D02*
X198214286Y-86692914D01*
X198214286Y-86692914D02*
X198214286Y-86645295D01*
X198214286Y-86645295D02*
X198261905Y-86550057D01*
X198261905Y-86550057D02*
X198309524Y-86502438D01*
X198309524Y-86502438D02*
X198404762Y-86454819D01*
X198404762Y-86454819D02*
X198595238Y-86454819D01*
X198595238Y-86454819D02*
X198690476Y-86502438D01*
X198690476Y-86502438D02*
X198738095Y-86550057D01*
X198738095Y-86550057D02*
X198785714Y-86645295D01*
X198785714Y-86645295D02*
X198785714Y-86692914D01*
X198785714Y-86692914D02*
X198738095Y-86788152D01*
X198738095Y-86788152D02*
X198690476Y-86835771D01*
X198690476Y-86835771D02*
X198595238Y-86883390D01*
X198595238Y-86883390D02*
X198404762Y-86883390D01*
X198404762Y-86883390D02*
X198309524Y-86931009D01*
X198309524Y-86931009D02*
X198261905Y-86978628D01*
X198261905Y-86978628D02*
X198214286Y-87073866D01*
X198214286Y-87073866D02*
X198214286Y-87264342D01*
X198214286Y-87264342D02*
X198261905Y-87359580D01*
X198261905Y-87359580D02*
X198309524Y-87407200D01*
X198309524Y-87407200D02*
X198404762Y-87454819D01*
X198404762Y-87454819D02*
X198595238Y-87454819D01*
X198595238Y-87454819D02*
X198690476Y-87407200D01*
X198690476Y-87407200D02*
X198738095Y-87359580D01*
X198738095Y-87359580D02*
X198785714Y-87264342D01*
X198785714Y-87264342D02*
X198785714Y-87073866D01*
X198785714Y-87073866D02*
X198738095Y-86978628D01*
X198738095Y-86978628D02*
X198690476Y-86931009D01*
X198690476Y-86931009D02*
X198595238Y-86883390D01*
X26607142Y-97109580D02*
X26559523Y-97157200D01*
X26559523Y-97157200D02*
X26416666Y-97204819D01*
X26416666Y-97204819D02*
X26321428Y-97204819D01*
X26321428Y-97204819D02*
X26178571Y-97157200D01*
X26178571Y-97157200D02*
X26083333Y-97061961D01*
X26083333Y-97061961D02*
X26035714Y-96966723D01*
X26035714Y-96966723D02*
X25988095Y-96776247D01*
X25988095Y-96776247D02*
X25988095Y-96633390D01*
X25988095Y-96633390D02*
X26035714Y-96442914D01*
X26035714Y-96442914D02*
X26083333Y-96347676D01*
X26083333Y-96347676D02*
X26178571Y-96252438D01*
X26178571Y-96252438D02*
X26321428Y-96204819D01*
X26321428Y-96204819D02*
X26416666Y-96204819D01*
X26416666Y-96204819D02*
X26559523Y-96252438D01*
X26559523Y-96252438D02*
X26607142Y-96300057D01*
X26988095Y-96300057D02*
X27035714Y-96252438D01*
X27035714Y-96252438D02*
X27130952Y-96204819D01*
X27130952Y-96204819D02*
X27369047Y-96204819D01*
X27369047Y-96204819D02*
X27464285Y-96252438D01*
X27464285Y-96252438D02*
X27511904Y-96300057D01*
X27511904Y-96300057D02*
X27559523Y-96395295D01*
X27559523Y-96395295D02*
X27559523Y-96490533D01*
X27559523Y-96490533D02*
X27511904Y-96633390D01*
X27511904Y-96633390D02*
X26940476Y-97204819D01*
X26940476Y-97204819D02*
X27559523Y-97204819D01*
X28178571Y-96204819D02*
X28273809Y-96204819D01*
X28273809Y-96204819D02*
X28369047Y-96252438D01*
X28369047Y-96252438D02*
X28416666Y-96300057D01*
X28416666Y-96300057D02*
X28464285Y-96395295D01*
X28464285Y-96395295D02*
X28511904Y-96585771D01*
X28511904Y-96585771D02*
X28511904Y-96823866D01*
X28511904Y-96823866D02*
X28464285Y-97014342D01*
X28464285Y-97014342D02*
X28416666Y-97109580D01*
X28416666Y-97109580D02*
X28369047Y-97157200D01*
X28369047Y-97157200D02*
X28273809Y-97204819D01*
X28273809Y-97204819D02*
X28178571Y-97204819D01*
X28178571Y-97204819D02*
X28083333Y-97157200D01*
X28083333Y-97157200D02*
X28035714Y-97109580D01*
X28035714Y-97109580D02*
X27988095Y-97014342D01*
X27988095Y-97014342D02*
X27940476Y-96823866D01*
X27940476Y-96823866D02*
X27940476Y-96585771D01*
X27940476Y-96585771D02*
X27988095Y-96395295D01*
X27988095Y-96395295D02*
X28035714Y-96300057D01*
X28035714Y-96300057D02*
X28083333Y-96252438D01*
X28083333Y-96252438D02*
X28178571Y-96204819D01*
X225833306Y-136516430D02*
X225499918Y-136040161D01*
X225261783Y-136516430D02*
X225261783Y-135516265D01*
X225261783Y-135516265D02*
X225642798Y-135516265D01*
X225642798Y-135516265D02*
X225738052Y-135563892D01*
X225738052Y-135563892D02*
X225785679Y-135611519D01*
X225785679Y-135611519D02*
X225833306Y-135706773D01*
X225833306Y-135706773D02*
X225833306Y-135849654D01*
X225833306Y-135849654D02*
X225785679Y-135944908D01*
X225785679Y-135944908D02*
X225738052Y-135992534D01*
X225738052Y-135992534D02*
X225642798Y-136040161D01*
X225642798Y-136040161D02*
X225261783Y-136040161D01*
X226785844Y-136516430D02*
X226214321Y-136516430D01*
X226500083Y-136516430D02*
X226500083Y-135516265D01*
X226500083Y-135516265D02*
X226404829Y-135659146D01*
X226404829Y-135659146D02*
X226309575Y-135754400D01*
X226309575Y-135754400D02*
X226214321Y-135802027D01*
X207833333Y-86359580D02*
X207785714Y-86407200D01*
X207785714Y-86407200D02*
X207642857Y-86454819D01*
X207642857Y-86454819D02*
X207547619Y-86454819D01*
X207547619Y-86454819D02*
X207404762Y-86407200D01*
X207404762Y-86407200D02*
X207309524Y-86311961D01*
X207309524Y-86311961D02*
X207261905Y-86216723D01*
X207261905Y-86216723D02*
X207214286Y-86026247D01*
X207214286Y-86026247D02*
X207214286Y-85883390D01*
X207214286Y-85883390D02*
X207261905Y-85692914D01*
X207261905Y-85692914D02*
X207309524Y-85597676D01*
X207309524Y-85597676D02*
X207404762Y-85502438D01*
X207404762Y-85502438D02*
X207547619Y-85454819D01*
X207547619Y-85454819D02*
X207642857Y-85454819D01*
X207642857Y-85454819D02*
X207785714Y-85502438D01*
X207785714Y-85502438D02*
X207833333Y-85550057D01*
X208166667Y-85454819D02*
X208833333Y-85454819D01*
X208833333Y-85454819D02*
X208404762Y-86454819D01*
X141738095Y-62704819D02*
X141738095Y-63514342D01*
X141738095Y-63514342D02*
X141785714Y-63609580D01*
X141785714Y-63609580D02*
X141833333Y-63657200D01*
X141833333Y-63657200D02*
X141928571Y-63704819D01*
X141928571Y-63704819D02*
X142119047Y-63704819D01*
X142119047Y-63704819D02*
X142214285Y-63657200D01*
X142214285Y-63657200D02*
X142261904Y-63609580D01*
X142261904Y-63609580D02*
X142309523Y-63514342D01*
X142309523Y-63514342D02*
X142309523Y-62704819D01*
X143309523Y-63704819D02*
X142738095Y-63704819D01*
X143023809Y-63704819D02*
X143023809Y-62704819D01*
X143023809Y-62704819D02*
X142928571Y-62847676D01*
X142928571Y-62847676D02*
X142833333Y-62942914D01*
X142833333Y-62942914D02*
X142738095Y-62990533D01*
X166174819Y-67116666D02*
X165698628Y-67449999D01*
X166174819Y-67688094D02*
X165174819Y-67688094D01*
X165174819Y-67688094D02*
X165174819Y-67307142D01*
X165174819Y-67307142D02*
X165222438Y-67211904D01*
X165222438Y-67211904D02*
X165270057Y-67164285D01*
X165270057Y-67164285D02*
X165365295Y-67116666D01*
X165365295Y-67116666D02*
X165508152Y-67116666D01*
X165508152Y-67116666D02*
X165603390Y-67164285D01*
X165603390Y-67164285D02*
X165651009Y-67211904D01*
X165651009Y-67211904D02*
X165698628Y-67307142D01*
X165698628Y-67307142D02*
X165698628Y-67688094D01*
X165174819Y-66211904D02*
X165174819Y-66688094D01*
X165174819Y-66688094D02*
X165651009Y-66735713D01*
X165651009Y-66735713D02*
X165603390Y-66688094D01*
X165603390Y-66688094D02*
X165555771Y-66592856D01*
X165555771Y-66592856D02*
X165555771Y-66354761D01*
X165555771Y-66354761D02*
X165603390Y-66259523D01*
X165603390Y-66259523D02*
X165651009Y-66211904D01*
X165651009Y-66211904D02*
X165746247Y-66164285D01*
X165746247Y-66164285D02*
X165984342Y-66164285D01*
X165984342Y-66164285D02*
X166079580Y-66211904D01*
X166079580Y-66211904D02*
X166127200Y-66259523D01*
X166127200Y-66259523D02*
X166174819Y-66354761D01*
X166174819Y-66354761D02*
X166174819Y-66592856D01*
X166174819Y-66592856D02*
X166127200Y-66688094D01*
X166127200Y-66688094D02*
X166079580Y-66735713D01*
X133857142Y-80109580D02*
X133809523Y-80157200D01*
X133809523Y-80157200D02*
X133666666Y-80204819D01*
X133666666Y-80204819D02*
X133571428Y-80204819D01*
X133571428Y-80204819D02*
X133428571Y-80157200D01*
X133428571Y-80157200D02*
X133333333Y-80061961D01*
X133333333Y-80061961D02*
X133285714Y-79966723D01*
X133285714Y-79966723D02*
X133238095Y-79776247D01*
X133238095Y-79776247D02*
X133238095Y-79633390D01*
X133238095Y-79633390D02*
X133285714Y-79442914D01*
X133285714Y-79442914D02*
X133333333Y-79347676D01*
X133333333Y-79347676D02*
X133428571Y-79252438D01*
X133428571Y-79252438D02*
X133571428Y-79204819D01*
X133571428Y-79204819D02*
X133666666Y-79204819D01*
X133666666Y-79204819D02*
X133809523Y-79252438D01*
X133809523Y-79252438D02*
X133857142Y-79300057D01*
X134809523Y-80204819D02*
X134238095Y-80204819D01*
X134523809Y-80204819D02*
X134523809Y-79204819D01*
X134523809Y-79204819D02*
X134428571Y-79347676D01*
X134428571Y-79347676D02*
X134333333Y-79442914D01*
X134333333Y-79442914D02*
X134238095Y-79490533D01*
X135380952Y-79633390D02*
X135285714Y-79585771D01*
X135285714Y-79585771D02*
X135238095Y-79538152D01*
X135238095Y-79538152D02*
X135190476Y-79442914D01*
X135190476Y-79442914D02*
X135190476Y-79395295D01*
X135190476Y-79395295D02*
X135238095Y-79300057D01*
X135238095Y-79300057D02*
X135285714Y-79252438D01*
X135285714Y-79252438D02*
X135380952Y-79204819D01*
X135380952Y-79204819D02*
X135571428Y-79204819D01*
X135571428Y-79204819D02*
X135666666Y-79252438D01*
X135666666Y-79252438D02*
X135714285Y-79300057D01*
X135714285Y-79300057D02*
X135761904Y-79395295D01*
X135761904Y-79395295D02*
X135761904Y-79442914D01*
X135761904Y-79442914D02*
X135714285Y-79538152D01*
X135714285Y-79538152D02*
X135666666Y-79585771D01*
X135666666Y-79585771D02*
X135571428Y-79633390D01*
X135571428Y-79633390D02*
X135380952Y-79633390D01*
X135380952Y-79633390D02*
X135285714Y-79681009D01*
X135285714Y-79681009D02*
X135238095Y-79728628D01*
X135238095Y-79728628D02*
X135190476Y-79823866D01*
X135190476Y-79823866D02*
X135190476Y-80014342D01*
X135190476Y-80014342D02*
X135238095Y-80109580D01*
X135238095Y-80109580D02*
X135285714Y-80157200D01*
X135285714Y-80157200D02*
X135380952Y-80204819D01*
X135380952Y-80204819D02*
X135571428Y-80204819D01*
X135571428Y-80204819D02*
X135666666Y-80157200D01*
X135666666Y-80157200D02*
X135714285Y-80109580D01*
X135714285Y-80109580D02*
X135761904Y-80014342D01*
X135761904Y-80014342D02*
X135761904Y-79823866D01*
X135761904Y-79823866D02*
X135714285Y-79728628D01*
X135714285Y-79728628D02*
X135666666Y-79681009D01*
X135666666Y-79681009D02*
X135571428Y-79633390D01*
X204916667Y-54407200D02*
X205059524Y-54454819D01*
X205059524Y-54454819D02*
X205297619Y-54454819D01*
X205297619Y-54454819D02*
X205392857Y-54407200D01*
X205392857Y-54407200D02*
X205440476Y-54359580D01*
X205440476Y-54359580D02*
X205488095Y-54264342D01*
X205488095Y-54264342D02*
X205488095Y-54169104D01*
X205488095Y-54169104D02*
X205440476Y-54073866D01*
X205440476Y-54073866D02*
X205392857Y-54026247D01*
X205392857Y-54026247D02*
X205297619Y-53978628D01*
X205297619Y-53978628D02*
X205107143Y-53931009D01*
X205107143Y-53931009D02*
X205011905Y-53883390D01*
X205011905Y-53883390D02*
X204964286Y-53835771D01*
X204964286Y-53835771D02*
X204916667Y-53740533D01*
X204916667Y-53740533D02*
X204916667Y-53645295D01*
X204916667Y-53645295D02*
X204964286Y-53550057D01*
X204964286Y-53550057D02*
X205011905Y-53502438D01*
X205011905Y-53502438D02*
X205107143Y-53454819D01*
X205107143Y-53454819D02*
X205345238Y-53454819D01*
X205345238Y-53454819D02*
X205488095Y-53502438D01*
X205821429Y-53454819D02*
X206059524Y-54454819D01*
X206059524Y-54454819D02*
X206250000Y-53740533D01*
X206250000Y-53740533D02*
X206440476Y-54454819D01*
X206440476Y-54454819D02*
X206678572Y-53454819D01*
X207011905Y-53550057D02*
X207059524Y-53502438D01*
X207059524Y-53502438D02*
X207154762Y-53454819D01*
X207154762Y-53454819D02*
X207392857Y-53454819D01*
X207392857Y-53454819D02*
X207488095Y-53502438D01*
X207488095Y-53502438D02*
X207535714Y-53550057D01*
X207535714Y-53550057D02*
X207583333Y-53645295D01*
X207583333Y-53645295D02*
X207583333Y-53740533D01*
X207583333Y-53740533D02*
X207535714Y-53883390D01*
X207535714Y-53883390D02*
X206964286Y-54454819D01*
X206964286Y-54454819D02*
X207583333Y-54454819D01*
X240333333Y-86454819D02*
X240000000Y-85978628D01*
X239761905Y-86454819D02*
X239761905Y-85454819D01*
X239761905Y-85454819D02*
X240142857Y-85454819D01*
X240142857Y-85454819D02*
X240238095Y-85502438D01*
X240238095Y-85502438D02*
X240285714Y-85550057D01*
X240285714Y-85550057D02*
X240333333Y-85645295D01*
X240333333Y-85645295D02*
X240333333Y-85788152D01*
X240333333Y-85788152D02*
X240285714Y-85883390D01*
X240285714Y-85883390D02*
X240238095Y-85931009D01*
X240238095Y-85931009D02*
X240142857Y-85978628D01*
X240142857Y-85978628D02*
X239761905Y-85978628D01*
X240666667Y-85454819D02*
X241285714Y-85454819D01*
X241285714Y-85454819D02*
X240952381Y-85835771D01*
X240952381Y-85835771D02*
X241095238Y-85835771D01*
X241095238Y-85835771D02*
X241190476Y-85883390D01*
X241190476Y-85883390D02*
X241238095Y-85931009D01*
X241238095Y-85931009D02*
X241285714Y-86026247D01*
X241285714Y-86026247D02*
X241285714Y-86264342D01*
X241285714Y-86264342D02*
X241238095Y-86359580D01*
X241238095Y-86359580D02*
X241190476Y-86407200D01*
X241190476Y-86407200D02*
X241095238Y-86454819D01*
X241095238Y-86454819D02*
X240809524Y-86454819D01*
X240809524Y-86454819D02*
X240714286Y-86407200D01*
X240714286Y-86407200D02*
X240666667Y-86359580D01*
X31607142Y-127859580D02*
X31559523Y-127907200D01*
X31559523Y-127907200D02*
X31416666Y-127954819D01*
X31416666Y-127954819D02*
X31321428Y-127954819D01*
X31321428Y-127954819D02*
X31178571Y-127907200D01*
X31178571Y-127907200D02*
X31083333Y-127811961D01*
X31083333Y-127811961D02*
X31035714Y-127716723D01*
X31035714Y-127716723D02*
X30988095Y-127526247D01*
X30988095Y-127526247D02*
X30988095Y-127383390D01*
X30988095Y-127383390D02*
X31035714Y-127192914D01*
X31035714Y-127192914D02*
X31083333Y-127097676D01*
X31083333Y-127097676D02*
X31178571Y-127002438D01*
X31178571Y-127002438D02*
X31321428Y-126954819D01*
X31321428Y-126954819D02*
X31416666Y-126954819D01*
X31416666Y-126954819D02*
X31559523Y-127002438D01*
X31559523Y-127002438D02*
X31607142Y-127050057D01*
X32559523Y-127954819D02*
X31988095Y-127954819D01*
X32273809Y-127954819D02*
X32273809Y-126954819D01*
X32273809Y-126954819D02*
X32178571Y-127097676D01*
X32178571Y-127097676D02*
X32083333Y-127192914D01*
X32083333Y-127192914D02*
X31988095Y-127240533D01*
X33035714Y-127954819D02*
X33226190Y-127954819D01*
X33226190Y-127954819D02*
X33321428Y-127907200D01*
X33321428Y-127907200D02*
X33369047Y-127859580D01*
X33369047Y-127859580D02*
X33464285Y-127716723D01*
X33464285Y-127716723D02*
X33511904Y-127526247D01*
X33511904Y-127526247D02*
X33511904Y-127145295D01*
X33511904Y-127145295D02*
X33464285Y-127050057D01*
X33464285Y-127050057D02*
X33416666Y-127002438D01*
X33416666Y-127002438D02*
X33321428Y-126954819D01*
X33321428Y-126954819D02*
X33130952Y-126954819D01*
X33130952Y-126954819D02*
X33035714Y-127002438D01*
X33035714Y-127002438D02*
X32988095Y-127050057D01*
X32988095Y-127050057D02*
X32940476Y-127145295D01*
X32940476Y-127145295D02*
X32940476Y-127383390D01*
X32940476Y-127383390D02*
X32988095Y-127478628D01*
X32988095Y-127478628D02*
X33035714Y-127526247D01*
X33035714Y-127526247D02*
X33130952Y-127573866D01*
X33130952Y-127573866D02*
X33321428Y-127573866D01*
X33321428Y-127573866D02*
X33416666Y-127526247D01*
X33416666Y-127526247D02*
X33464285Y-127478628D01*
X33464285Y-127478628D02*
X33511904Y-127383390D01*
X110857142Y-115204819D02*
X110523809Y-114728628D01*
X110285714Y-115204819D02*
X110285714Y-114204819D01*
X110285714Y-114204819D02*
X110666666Y-114204819D01*
X110666666Y-114204819D02*
X110761904Y-114252438D01*
X110761904Y-114252438D02*
X110809523Y-114300057D01*
X110809523Y-114300057D02*
X110857142Y-114395295D01*
X110857142Y-114395295D02*
X110857142Y-114538152D01*
X110857142Y-114538152D02*
X110809523Y-114633390D01*
X110809523Y-114633390D02*
X110761904Y-114681009D01*
X110761904Y-114681009D02*
X110666666Y-114728628D01*
X110666666Y-114728628D02*
X110285714Y-114728628D01*
X111809523Y-115204819D02*
X111238095Y-115204819D01*
X111523809Y-115204819D02*
X111523809Y-114204819D01*
X111523809Y-114204819D02*
X111428571Y-114347676D01*
X111428571Y-114347676D02*
X111333333Y-114442914D01*
X111333333Y-114442914D02*
X111238095Y-114490533D01*
X112666666Y-114538152D02*
X112666666Y-115204819D01*
X112428571Y-114157200D02*
X112190476Y-114871485D01*
X112190476Y-114871485D02*
X112809523Y-114871485D01*
X62166666Y-79454819D02*
X62166666Y-80169104D01*
X62166666Y-80169104D02*
X62119047Y-80311961D01*
X62119047Y-80311961D02*
X62023809Y-80407200D01*
X62023809Y-80407200D02*
X61880952Y-80454819D01*
X61880952Y-80454819D02*
X61785714Y-80454819D01*
X62547619Y-79454819D02*
X63214285Y-79454819D01*
X63214285Y-79454819D02*
X62785714Y-80454819D01*
X30357142Y-114859580D02*
X30309523Y-114907200D01*
X30309523Y-114907200D02*
X30166666Y-114954819D01*
X30166666Y-114954819D02*
X30071428Y-114954819D01*
X30071428Y-114954819D02*
X29928571Y-114907200D01*
X29928571Y-114907200D02*
X29833333Y-114811961D01*
X29833333Y-114811961D02*
X29785714Y-114716723D01*
X29785714Y-114716723D02*
X29738095Y-114526247D01*
X29738095Y-114526247D02*
X29738095Y-114383390D01*
X29738095Y-114383390D02*
X29785714Y-114192914D01*
X29785714Y-114192914D02*
X29833333Y-114097676D01*
X29833333Y-114097676D02*
X29928571Y-114002438D01*
X29928571Y-114002438D02*
X30071428Y-113954819D01*
X30071428Y-113954819D02*
X30166666Y-113954819D01*
X30166666Y-113954819D02*
X30309523Y-114002438D01*
X30309523Y-114002438D02*
X30357142Y-114050057D01*
X30738095Y-114050057D02*
X30785714Y-114002438D01*
X30785714Y-114002438D02*
X30880952Y-113954819D01*
X30880952Y-113954819D02*
X31119047Y-113954819D01*
X31119047Y-113954819D02*
X31214285Y-114002438D01*
X31214285Y-114002438D02*
X31261904Y-114050057D01*
X31261904Y-114050057D02*
X31309523Y-114145295D01*
X31309523Y-114145295D02*
X31309523Y-114240533D01*
X31309523Y-114240533D02*
X31261904Y-114383390D01*
X31261904Y-114383390D02*
X30690476Y-114954819D01*
X30690476Y-114954819D02*
X31309523Y-114954819D01*
X32166666Y-114288152D02*
X32166666Y-114954819D01*
X31928571Y-113907200D02*
X31690476Y-114621485D01*
X31690476Y-114621485D02*
X32309523Y-114621485D01*
X119419642Y-66659580D02*
X119372023Y-66707200D01*
X119372023Y-66707200D02*
X119229166Y-66754819D01*
X119229166Y-66754819D02*
X119133928Y-66754819D01*
X119133928Y-66754819D02*
X118991071Y-66707200D01*
X118991071Y-66707200D02*
X118895833Y-66611961D01*
X118895833Y-66611961D02*
X118848214Y-66516723D01*
X118848214Y-66516723D02*
X118800595Y-66326247D01*
X118800595Y-66326247D02*
X118800595Y-66183390D01*
X118800595Y-66183390D02*
X118848214Y-65992914D01*
X118848214Y-65992914D02*
X118895833Y-65897676D01*
X118895833Y-65897676D02*
X118991071Y-65802438D01*
X118991071Y-65802438D02*
X119133928Y-65754819D01*
X119133928Y-65754819D02*
X119229166Y-65754819D01*
X119229166Y-65754819D02*
X119372023Y-65802438D01*
X119372023Y-65802438D02*
X119419642Y-65850057D01*
X120372023Y-66754819D02*
X119800595Y-66754819D01*
X120086309Y-66754819D02*
X120086309Y-65754819D01*
X120086309Y-65754819D02*
X119991071Y-65897676D01*
X119991071Y-65897676D02*
X119895833Y-65992914D01*
X119895833Y-65992914D02*
X119800595Y-66040533D01*
X120705357Y-65754819D02*
X121324404Y-65754819D01*
X121324404Y-65754819D02*
X120991071Y-66135771D01*
X120991071Y-66135771D02*
X121133928Y-66135771D01*
X121133928Y-66135771D02*
X121229166Y-66183390D01*
X121229166Y-66183390D02*
X121276785Y-66231009D01*
X121276785Y-66231009D02*
X121324404Y-66326247D01*
X121324404Y-66326247D02*
X121324404Y-66564342D01*
X121324404Y-66564342D02*
X121276785Y-66659580D01*
X121276785Y-66659580D02*
X121229166Y-66707200D01*
X121229166Y-66707200D02*
X121133928Y-66754819D01*
X121133928Y-66754819D02*
X120848214Y-66754819D01*
X120848214Y-66754819D02*
X120752976Y-66707200D01*
X120752976Y-66707200D02*
X120705357Y-66659580D01*
X130107142Y-72859580D02*
X130059523Y-72907200D01*
X130059523Y-72907200D02*
X129916666Y-72954819D01*
X129916666Y-72954819D02*
X129821428Y-72954819D01*
X129821428Y-72954819D02*
X129678571Y-72907200D01*
X129678571Y-72907200D02*
X129583333Y-72811961D01*
X129583333Y-72811961D02*
X129535714Y-72716723D01*
X129535714Y-72716723D02*
X129488095Y-72526247D01*
X129488095Y-72526247D02*
X129488095Y-72383390D01*
X129488095Y-72383390D02*
X129535714Y-72192914D01*
X129535714Y-72192914D02*
X129583333Y-72097676D01*
X129583333Y-72097676D02*
X129678571Y-72002438D01*
X129678571Y-72002438D02*
X129821428Y-71954819D01*
X129821428Y-71954819D02*
X129916666Y-71954819D01*
X129916666Y-71954819D02*
X130059523Y-72002438D01*
X130059523Y-72002438D02*
X130107142Y-72050057D01*
X131059523Y-72954819D02*
X130488095Y-72954819D01*
X130773809Y-72954819D02*
X130773809Y-71954819D01*
X130773809Y-71954819D02*
X130678571Y-72097676D01*
X130678571Y-72097676D02*
X130583333Y-72192914D01*
X130583333Y-72192914D02*
X130488095Y-72240533D01*
X131392857Y-71954819D02*
X132059523Y-71954819D01*
X132059523Y-71954819D02*
X131630952Y-72954819D01*
D12*
%TO.C,VR1*%
X175746899Y-123445001D02*
X175746899Y-134144999D01*
X177008901Y-123445001D02*
X177008901Y-134144999D01*
X180646900Y-123445001D02*
X175746899Y-123445001D01*
X180646900Y-123445001D02*
X180646900Y-134144999D01*
X180646900Y-134144999D02*
X175746899Y-134144999D01*
D13*
G36*
X180668901Y-134144999D02*
G01*
X179557900Y-134144999D01*
X179557900Y-133113000D01*
X180668901Y-133113000D01*
X180668901Y-134144999D01*
G37*
D12*
%TO.C,U2*%
X113204999Y-131650001D02*
X113204999Y-142349999D01*
X114467001Y-131650001D02*
X114467001Y-142349999D01*
X118105000Y-131650001D02*
X113204999Y-131650001D01*
X118105000Y-131650001D02*
X118105000Y-142349999D01*
X118105000Y-142349999D02*
X113204999Y-142349999D01*
D13*
G36*
X118127001Y-142349999D02*
G01*
X117016000Y-142349999D01*
X117016000Y-141318000D01*
X118127001Y-141318000D01*
X118127001Y-142349999D01*
G37*
D14*
%TO.C,D1*%
X132760000Y-139400000D02*
X133780000Y-139400000D01*
X133780000Y-137930000D02*
X133780000Y-140870000D01*
X133780000Y-140870000D02*
X139220000Y-140870000D01*
X134560000Y-137930000D02*
X134560000Y-140870000D01*
X134680000Y-137930000D02*
X134680000Y-140870000D01*
X134800000Y-137930000D02*
X134800000Y-140870000D01*
X139220000Y-137930000D02*
X133780000Y-137930000D01*
X139220000Y-140870000D02*
X139220000Y-137930000D01*
X140240000Y-139400000D02*
X139220000Y-139400000D01*
D15*
%TO.C,L2*%
X187124600Y-120624600D02*
X187124600Y-124088950D01*
X187124600Y-129911050D02*
X187124600Y-133375400D01*
X187124600Y-133375400D02*
X199875400Y-133375400D01*
X199875400Y-120624600D02*
X187124600Y-120624600D01*
X199875400Y-124088950D02*
X199875400Y-120624600D01*
X199875400Y-133375400D02*
X199875400Y-129911050D01*
%TO.C,L1*%
X123624600Y-117624600D02*
X123624600Y-121088950D01*
X123624600Y-126911050D02*
X123624600Y-130375400D01*
X123624600Y-130375400D02*
X136375400Y-130375400D01*
X136375400Y-117624600D02*
X123624600Y-117624600D01*
X136375400Y-121088950D02*
X136375400Y-117624600D01*
X136375400Y-130375400D02*
X136375400Y-126911050D01*
D14*
%TO.C,C15*%
X88640000Y-89351248D02*
X88640000Y-90773752D01*
X91360000Y-89351248D02*
X91360000Y-90773752D01*
%TO.C,R18*%
X112145000Y-61673737D02*
X112145000Y-60226263D01*
X114855000Y-61673737D02*
X114855000Y-60226263D01*
%TO.C,C23*%
X32773752Y-103640000D02*
X31351248Y-103640000D01*
X32773752Y-106360000D02*
X31351248Y-106360000D01*
%TO.C,R19*%
X248423737Y-128145000D02*
X246976263Y-128145000D01*
X248423737Y-130855000D02*
X246976263Y-130855000D01*
%TO.C,C5*%
X211148752Y-92890000D02*
X209726248Y-92890000D01*
X211148752Y-95610000D02*
X209726248Y-95610000D01*
%TO.C,C1*%
X80890000Y-112961252D02*
X80890000Y-111538748D01*
X83610000Y-112961252D02*
X83610000Y-111538748D01*
D15*
%TO.C,SW1*%
X181000000Y-56129405D02*
X181000000Y-57399405D01*
X181635000Y-56764405D02*
X180365000Y-56764405D01*
X184621400Y-49500005D02*
G75*
G02*
X172378600Y-49500005I-6121400J0D01*
G01*
X172378600Y-49500005D02*
G75*
G02*
X184621400Y-49500005I6121400J0D01*
G01*
D14*
%TO.C,R20*%
X254395000Y-132673737D02*
X254395000Y-131226263D01*
X257105000Y-132673737D02*
X257105000Y-131226263D01*
%TO.C,J4*%
X260390000Y-124360000D02*
X260390000Y-105375000D01*
X260936529Y-124360000D02*
X260390000Y-124360000D01*
X261192470Y-105375000D02*
X260390000Y-105375000D01*
X262610000Y-105375000D02*
X261807530Y-105375000D01*
X262610000Y-124360000D02*
X262063471Y-124360000D01*
X262610000Y-124360000D02*
X262610000Y-105375000D01*
X262610000Y-125120000D02*
X262610000Y-125880000D01*
X262610000Y-125880000D02*
X261500000Y-125880000D01*
%TO.C,R17*%
X105645000Y-61673737D02*
X105645000Y-60226263D01*
X108355000Y-61673737D02*
X108355000Y-60226263D01*
D16*
%TO.C,U6*%
X98800000Y-85050000D02*
X103200000Y-85050000D01*
X98800000Y-91950000D02*
X103200000Y-91950000D01*
D12*
X96660000Y-85165000D02*
G75*
G02*
X96460000Y-85165000I-100000J0D01*
G01*
X96460000Y-85165000D02*
G75*
G02*
X96660000Y-85165000I100000J0D01*
G01*
D14*
%TO.C,R12*%
X88226263Y-129645000D02*
X89673737Y-129645000D01*
X88226263Y-132355000D02*
X89673737Y-132355000D01*
%TO.C,R16*%
X194145000Y-60773737D02*
X194145000Y-59326263D01*
X196855000Y-60773737D02*
X196855000Y-59326263D01*
%TO.C,C12*%
X83648752Y-82080000D02*
X82226248Y-82080000D01*
X83648752Y-84800000D02*
X82226248Y-84800000D01*
%TO.C,R7*%
X169645000Y-59773737D02*
X169645000Y-58326263D01*
X172355000Y-59773737D02*
X172355000Y-58326263D01*
D16*
%TO.C,J3*%
X132500000Y-93000000D02*
X147500000Y-93000000D01*
X132500000Y-101250000D02*
X132500000Y-93000000D01*
X132500000Y-101250000D02*
X147500000Y-101250000D01*
X147500000Y-101250000D02*
X147500000Y-93000000D01*
D12*
X131850000Y-97000000D02*
G75*
G02*
X131650000Y-97000000I-100000J0D01*
G01*
X131650000Y-97000000D02*
G75*
G02*
X131850000Y-97000000I100000J0D01*
G01*
D16*
%TO.C,J2*%
X53767000Y-127500000D02*
X53767000Y-136500000D01*
X53767000Y-136500000D02*
X63767000Y-136500000D01*
X63767000Y-127500000D02*
X53767000Y-127500000D01*
X63767000Y-136500000D02*
X63767000Y-127500000D01*
D12*
X53367000Y-132000000D02*
G75*
G02*
X53167000Y-132000000I-100000J0D01*
G01*
X53167000Y-132000000D02*
G75*
G02*
X53367000Y-132000000I100000J0D01*
G01*
D14*
%TO.C,D2*%
X157801900Y-133900000D02*
X158821900Y-133900000D01*
X158821900Y-132430000D02*
X158821900Y-135370000D01*
X158821900Y-135370000D02*
X164261900Y-135370000D01*
X163241900Y-135370000D02*
X163241900Y-132430000D01*
X163361900Y-135370000D02*
X163361900Y-132430000D01*
X163481900Y-135370000D02*
X163481900Y-132430000D01*
X164261900Y-132430000D02*
X158821900Y-132430000D01*
X164261900Y-135370000D02*
X164261900Y-132430000D01*
X165281900Y-133900000D02*
X164261900Y-133900000D01*
%TO.C,R8*%
X144523737Y-88395000D02*
X143076263Y-88395000D01*
X144523737Y-91105000D02*
X143076263Y-91105000D01*
%TO.C,R4*%
X118773737Y-84145000D02*
X117326263Y-84145000D01*
X118773737Y-86855000D02*
X117326263Y-86855000D01*
%TO.C,C16*%
X83389930Y-89476248D02*
X83389930Y-90898752D01*
X86109930Y-89476248D02*
X86109930Y-90898752D01*
D16*
%TO.C,Y1*%
X124170000Y-71905000D02*
X124170000Y-63095000D01*
X125490000Y-61825000D02*
X127510000Y-61825000D01*
X127510000Y-73175000D02*
X125490000Y-73175000D01*
X128830000Y-63095000D02*
X128830000Y-71905000D01*
X124170000Y-63095000D02*
G75*
G02*
X125490000Y-61825000I1294999J-24999D01*
G01*
X125490000Y-73175000D02*
G75*
G02*
X124170000Y-71905000I-25000J1295000D01*
G01*
X127510000Y-61825000D02*
G75*
G02*
X128830000Y-63095000I25001J-1294999D01*
G01*
X128830000Y-71905000D02*
G75*
G02*
X127510000Y-73175000I-1295000J25000D01*
G01*
D14*
%TO.C,C4*%
X143726248Y-124640000D02*
X145148752Y-124640000D01*
X143726248Y-127360000D02*
X145148752Y-127360000D01*
D16*
%TO.C,J8*%
X56500000Y-66767000D02*
X56500000Y-76767000D01*
X56500000Y-76767000D02*
X65500000Y-76767000D01*
X65500000Y-66767000D02*
X56500000Y-66767000D01*
X65500000Y-76767000D02*
X65500000Y-66767000D01*
D12*
X61100000Y-66267000D02*
G75*
G02*
X60900000Y-66267000I-100000J0D01*
G01*
X60900000Y-66267000D02*
G75*
G02*
X61100000Y-66267000I100000J0D01*
G01*
D14*
%TO.C,C22*%
X31023752Y-67890000D02*
X29601248Y-67890000D01*
X31023752Y-70610000D02*
X29601248Y-70610000D01*
%TO.C,R11*%
X95823737Y-121145000D02*
X94376263Y-121145000D01*
X95823737Y-123855000D02*
X94376263Y-123855000D01*
D15*
%TO.C,U5*%
X56672350Y-108395877D02*
X56672350Y-108689628D01*
X56672350Y-118160526D02*
X56672350Y-118454277D01*
X56672350Y-118454277D02*
X61422150Y-118454277D01*
X61422150Y-108395877D02*
X56672350Y-108395877D01*
X61422150Y-108689628D02*
X61422150Y-108395877D01*
X61422150Y-118454277D02*
X61422150Y-118160526D01*
D13*
G36*
X55135650Y-112640598D02*
G01*
X54881650Y-112640598D01*
X54881650Y-112259598D01*
X55135650Y-112259598D01*
X55135650Y-112640598D01*
G37*
G36*
X63212850Y-111990612D02*
G01*
X62958850Y-111990612D01*
X62958850Y-111609612D01*
X63212850Y-111609612D01*
X63212850Y-111990612D01*
G37*
D15*
%TO.C,Q2*%
X74574300Y-66125100D02*
X74574300Y-66867935D01*
X74574300Y-67592065D02*
X74574300Y-69407935D01*
X74574300Y-70132065D02*
X74574300Y-70874900D01*
X74574300Y-70874900D02*
X79425700Y-70874900D01*
X79425700Y-66125100D02*
X74574300Y-66125100D01*
X79425700Y-66867935D02*
X79425700Y-66125100D01*
X79425700Y-69407935D02*
X79425700Y-67592065D01*
X79425700Y-70874900D02*
X79425700Y-70132065D01*
D14*
%TO.C,C3*%
X207726248Y-127140000D02*
X209148752Y-127140000D01*
X207726248Y-129860000D02*
X209148752Y-129860000D01*
%TO.C,C9*%
X194648752Y-79580000D02*
X193226248Y-79580000D01*
X194648752Y-82300000D02*
X193226248Y-82300000D01*
%TO.C,R15*%
X80645000Y-102023737D02*
X80645000Y-100576263D01*
X83355000Y-102023737D02*
X83355000Y-100576263D01*
%TO.C,C14*%
X120773752Y-69140000D02*
X119351248Y-69140000D01*
X120773752Y-71860000D02*
X119351248Y-71860000D01*
%TO.C,J5*%
X234160000Y-76630000D02*
X234160000Y-75500000D01*
X234225000Y-73100000D02*
X243235000Y-73100000D01*
X234225000Y-73922470D02*
X234225000Y-73100000D01*
X234225000Y-74740000D02*
X234225000Y-74537530D01*
X234356529Y-74740000D02*
X234225000Y-74740000D01*
X234920000Y-76630000D02*
X234160000Y-76630000D01*
X235626529Y-74740000D02*
X235483471Y-74740000D01*
X235680000Y-74936529D02*
X235680000Y-74793471D01*
X235680000Y-76630000D02*
X235680000Y-76063471D01*
X235680000Y-76630000D02*
X243235000Y-76630000D01*
X243235000Y-73922470D02*
X243235000Y-73100000D01*
X243235000Y-75192470D02*
X243235000Y-74537530D01*
X243235000Y-76630000D02*
X243235000Y-75807530D01*
D16*
%TO.C,U3*%
X213800000Y-76050000D02*
X218200000Y-76050000D01*
X213800000Y-82950000D02*
X218200000Y-82950000D01*
D12*
X211660000Y-76165000D02*
G75*
G02*
X211460000Y-76165000I-100000J0D01*
G01*
X211460000Y-76165000D02*
G75*
G02*
X211660000Y-76165000I100000J0D01*
G01*
D14*
%TO.C,J1*%
X152430000Y-67130000D02*
X152430000Y-66000000D01*
X152495000Y-63600000D02*
X161505000Y-63600000D01*
X152495000Y-64422470D02*
X152495000Y-63600000D01*
X152495000Y-65240000D02*
X152495000Y-65037530D01*
X152626529Y-65240000D02*
X152495000Y-65240000D01*
X153190000Y-67130000D02*
X152430000Y-67130000D01*
X153896529Y-65240000D02*
X153753471Y-65240000D01*
X153950000Y-65436529D02*
X153950000Y-65293471D01*
X153950000Y-67130000D02*
X153950000Y-66563471D01*
X153950000Y-67130000D02*
X161505000Y-67130000D01*
X161505000Y-64422470D02*
X161505000Y-63600000D01*
X161505000Y-65692470D02*
X161505000Y-65037530D01*
X161505000Y-67130000D02*
X161505000Y-66307530D01*
%TO.C,C2*%
X180601248Y-137890000D02*
X182023752Y-137890000D01*
X180601248Y-140610000D02*
X182023752Y-140610000D01*
%TO.C,R10*%
X84976263Y-122145000D02*
X86423737Y-122145000D01*
X84976263Y-124855000D02*
X86423737Y-124855000D01*
%TO.C,C25*%
X32773752Y-117140000D02*
X31351248Y-117140000D01*
X32773752Y-119860000D02*
X31351248Y-119860000D01*
%TO.C,C11*%
X83648752Y-76080000D02*
X82226248Y-76080000D01*
X83648752Y-78800000D02*
X82226248Y-78800000D01*
D16*
%TO.C,U4*%
X216550000Y-97200000D02*
X216550000Y-92800000D01*
X223450000Y-97200000D02*
X223450000Y-92800000D01*
D12*
X217175000Y-99190000D02*
G75*
G02*
X216975000Y-99190000I-100000J0D01*
G01*
X216975000Y-99190000D02*
G75*
G02*
X217175000Y-99190000I100000J0D01*
G01*
D16*
%TO.C,Y3*%
X88170000Y-84405000D02*
X88170000Y-75595000D01*
X89490000Y-74325000D02*
X91510000Y-74325000D01*
X91510000Y-85675000D02*
X89490000Y-85675000D01*
X92830000Y-75595000D02*
X92830000Y-84405000D01*
X88170000Y-75595000D02*
G75*
G02*
X89490000Y-74325000I1294999J-24999D01*
G01*
X89490000Y-85675000D02*
G75*
G02*
X88170000Y-84405000I-25000J1295000D01*
G01*
X91510000Y-74325000D02*
G75*
G02*
X92830000Y-75595000I25001J-1294999D01*
G01*
X92830000Y-84405000D02*
G75*
G02*
X91510000Y-85675000I-1295000J25000D01*
G01*
D14*
%TO.C,C21*%
X31023752Y-78390000D02*
X29601248Y-78390000D01*
X31023752Y-81110000D02*
X29601248Y-81110000D01*
%TO.C,C6*%
X213836252Y-109640000D02*
X212413748Y-109640000D01*
X213836252Y-112360000D02*
X212413748Y-112360000D01*
%TO.C,R9*%
X178773737Y-87145000D02*
X177326263Y-87145000D01*
X178773737Y-89855000D02*
X177326263Y-89855000D01*
%TO.C,C10*%
X194648752Y-73580000D02*
X193226248Y-73580000D01*
X194648752Y-76300000D02*
X193226248Y-76300000D01*
%TO.C,J9*%
X111660000Y-93630000D02*
X111660000Y-92500000D01*
X111725000Y-90100000D02*
X120735000Y-90100000D01*
X111725000Y-90922470D02*
X111725000Y-90100000D01*
X111725000Y-91740000D02*
X111725000Y-91537530D01*
X111856529Y-91740000D02*
X111725000Y-91740000D01*
X112420000Y-93630000D02*
X111660000Y-93630000D01*
X113126529Y-91740000D02*
X112983471Y-91740000D01*
X113180000Y-91936529D02*
X113180000Y-91793471D01*
X113180000Y-93630000D02*
X113180000Y-93063471D01*
X113180000Y-93630000D02*
X120735000Y-93630000D01*
X120735000Y-90922470D02*
X120735000Y-90100000D01*
X120735000Y-92192470D02*
X120735000Y-91537530D01*
X120735000Y-93630000D02*
X120735000Y-92807530D01*
%TO.C,R6*%
X103645000Y-72173737D02*
X103645000Y-70726263D01*
X106355000Y-72173737D02*
X106355000Y-70726263D01*
D16*
%TO.C,J6*%
X169000000Y-92750000D02*
X184000000Y-92750000D01*
X169000000Y-101000000D02*
X169000000Y-92750000D01*
X169000000Y-101000000D02*
X184000000Y-101000000D01*
X184000000Y-101000000D02*
X184000000Y-92750000D01*
D12*
X168350000Y-96750000D02*
G75*
G02*
X168150000Y-96750000I-100000J0D01*
G01*
X168150000Y-96750000D02*
G75*
G02*
X168350000Y-96750000I100000J0D01*
G01*
D14*
%TO.C,R2*%
X227726263Y-82395000D02*
X229173737Y-82395000D01*
X227726263Y-85105000D02*
X229173737Y-85105000D01*
D16*
%TO.C,Y2*%
X199170000Y-80405000D02*
X199170000Y-71595000D01*
X200490000Y-70325000D02*
X202510000Y-70325000D01*
X202510000Y-81675000D02*
X200490000Y-81675000D01*
X203830000Y-71595000D02*
X203830000Y-80405000D01*
X199170000Y-71595000D02*
G75*
G02*
X200490000Y-70325000I1294999J-24999D01*
G01*
X200490000Y-81675000D02*
G75*
G02*
X199170000Y-80405000I-25000J1295000D01*
G01*
X202510000Y-70325000D02*
G75*
G02*
X203830000Y-71595000I25001J-1294999D01*
G01*
X203830000Y-80405000D02*
G75*
G02*
X202510000Y-81675000I-1295000J25000D01*
G01*
D14*
%TO.C,R13*%
X92826263Y-98145000D02*
X94273737Y-98145000D01*
X92826263Y-100855000D02*
X94273737Y-100855000D01*
%TO.C,C8*%
X201101248Y-84390000D02*
X202523752Y-84390000D01*
X201101248Y-87110000D02*
X202523752Y-87110000D01*
D15*
%TO.C,C20*%
X31115000Y-97886000D02*
X32385000Y-97886000D01*
X31750000Y-98521000D02*
X31750000Y-97251000D01*
X37122100Y-91751900D02*
G75*
G02*
X26377900Y-91751900I-5372100J0D01*
G01*
X26377900Y-91751900D02*
G75*
G02*
X37122100Y-91751900I5372100J0D01*
G01*
D16*
%TO.C,R1*%
X223700000Y-137270000D02*
X226350000Y-137270000D01*
X223700000Y-140870000D02*
X226350000Y-140870000D01*
X226350000Y-137270000D02*
X226350000Y-137870000D01*
X226350000Y-140870000D02*
X226350000Y-140270000D01*
D17*
X221724330Y-137512000D02*
G75*
G02*
X221484330Y-137512000I-120000J0D01*
G01*
X221484330Y-137512000D02*
G75*
G02*
X221724330Y-137512000I120000J0D01*
G01*
D14*
%TO.C,C7*%
X206390000Y-81601248D02*
X206390000Y-83023752D01*
X209110000Y-81601248D02*
X209110000Y-83023752D01*
D16*
%TO.C,U1*%
X141300000Y-64550000D02*
X145700000Y-64550000D01*
X141300000Y-71450000D02*
X145700000Y-71450000D01*
D12*
X139160000Y-64665000D02*
G75*
G02*
X138960000Y-64665000I-100000J0D01*
G01*
X138960000Y-64665000D02*
G75*
G02*
X139160000Y-64665000I100000J0D01*
G01*
D14*
%TO.C,R5*%
X166645000Y-67673737D02*
X166645000Y-66226263D01*
X169355000Y-67673737D02*
X169355000Y-66226263D01*
%TO.C,C18*%
X135398752Y-75890000D02*
X133976248Y-75890000D01*
X135398752Y-78610000D02*
X133976248Y-78610000D01*
D15*
%TO.C,SW2*%
X205121400Y-50000005D02*
G75*
G02*
X192878600Y-50000005I-6121400J0D01*
G01*
X192878600Y-50000005D02*
G75*
G02*
X205121400Y-50000005I6121400J0D01*
G01*
X202135000Y-57264405D02*
X200865000Y-57264405D01*
X201500000Y-56629405D02*
X201500000Y-57899405D01*
D14*
%TO.C,R3*%
X239145000Y-83023737D02*
X239145000Y-81576263D01*
X241855000Y-83023737D02*
X241855000Y-81576263D01*
%TO.C,C19*%
X32773752Y-123640000D02*
X31351248Y-123640000D01*
X32773752Y-126360000D02*
X31351248Y-126360000D01*
%TO.C,R14*%
X106726263Y-113395070D02*
X108173737Y-113395070D01*
X106726263Y-116105070D02*
X108173737Y-116105070D01*
D16*
%TO.C,J7*%
X54500000Y-85000000D02*
X54500000Y-95000000D01*
X54500000Y-95000000D02*
X63500000Y-95000000D01*
X63500000Y-85000000D02*
X54500000Y-85000000D01*
X63500000Y-95000000D02*
X63500000Y-85000000D01*
D12*
X59100000Y-84500000D02*
G75*
G02*
X58900000Y-84500000I-100000J0D01*
G01*
X58900000Y-84500000D02*
G75*
G02*
X59100000Y-84500000I100000J0D01*
G01*
D14*
%TO.C,C24*%
X32773752Y-110640000D02*
X31351248Y-110640000D01*
X32773752Y-113360000D02*
X31351248Y-113360000D01*
%TO.C,C13*%
X120773752Y-62640000D02*
X119351248Y-62640000D01*
X120773752Y-65360000D02*
X119351248Y-65360000D01*
%TO.C,C17*%
X135523752Y-71640000D02*
X134101248Y-71640000D01*
X135523752Y-74360000D02*
X134101248Y-74360000D01*
%TD*%
M02*
