%TF.GenerationSoftware,KiCad,Pcbnew,8.0.2*%
%TF.CreationDate,2024-07-20T17:05:26-04:00*%
%TF.ProjectId,electrical_design_hvac_v2,656c6563-7472-4696-9361-6c5f64657369,rev?*%
%TF.SameCoordinates,Original*%
%TF.FileFunction,Paste,Top*%
%TF.FilePolarity,Positive*%
%FSLAX46Y46*%
G04 Gerber Fmt 4.6, Leading zero omitted, Abs format (unit mm)*
G04 Created by KiCad (PCBNEW 8.0.2) date 2024-07-20 17:05:26*
%MOMM*%
%LPD*%
G01*
G04 APERTURE LIST*
G04 Aperture macros list*
%AMRoundRect*
0 Rectangle with rounded corners*
0 $1 Rounding radius*
0 $2 $3 $4 $5 $6 $7 $8 $9 X,Y pos of 4 corners*
0 Add a 4 corners polygon primitive as box body*
4,1,4,$2,$3,$4,$5,$6,$7,$8,$9,$2,$3,0*
0 Add four circle primitives for the rounded corners*
1,1,$1+$1,$2,$3*
1,1,$1+$1,$4,$5*
1,1,$1+$1,$6,$7*
1,1,$1+$1,$8,$9*
0 Add four rect primitives between the rounded corners*
20,1,$1+$1,$2,$3,$4,$5,0*
20,1,$1+$1,$4,$5,$6,$7,0*
20,1,$1+$1,$6,$7,$8,$9,0*
20,1,$1+$1,$8,$9,$2,$3,0*%
G04 Aperture macros list end*
%ADD10C,0.000000*%
%ADD11R,2.413000X5.207000*%
%ADD12RoundRect,0.250000X-1.100000X0.412500X-1.100000X-0.412500X1.100000X-0.412500X1.100000X0.412500X0*%
%ADD13RoundRect,0.250000X1.075000X-0.400000X1.075000X0.400000X-1.075000X0.400000X-1.075000X-0.400000X0*%
%ADD14RoundRect,0.250000X0.412500X1.100000X-0.412500X1.100000X-0.412500X-1.100000X0.412500X-1.100000X0*%
%ADD15RoundRect,0.250000X0.400000X1.075000X-0.400000X1.075000X-0.400000X-1.075000X0.400000X-1.075000X0*%
%ADD16RoundRect,0.250000X1.100000X-0.412500X1.100000X0.412500X-1.100000X0.412500X-1.100000X-0.412500X0*%
%ADD17RoundRect,0.051250X-0.728750X-0.153750X0.728750X-0.153750X0.728750X0.153750X-0.728750X0.153750X0*%
%ADD18RoundRect,0.250000X-0.400000X-1.075000X0.400000X-1.075000X0.400000X1.075000X-0.400000X1.075000X0*%
%ADD19RoundRect,0.250000X-0.412500X-1.100000X0.412500X-1.100000X0.412500X1.100000X-0.412500X1.100000X0*%
%ADD20R,1.409700X0.355600*%
%ADD21R,1.219200X0.457200*%
%ADD22RoundRect,0.051250X0.153750X-0.733750X0.153750X0.733750X-0.153750X0.733750X-0.153750X-0.733750X0*%
%ADD23R,1.200000X1.200000*%
%ADD24R,1.500000X1.600000*%
G04 APERTURE END LIST*
D10*
%TO.C,U5*%
G36*
X58947250Y-111915377D02*
G01*
X57572450Y-111915377D01*
X57572450Y-110705677D01*
X58947250Y-110705677D01*
X58947250Y-111915377D01*
G37*
G36*
X58947250Y-113325077D02*
G01*
X57572450Y-113325077D01*
X57572450Y-112115377D01*
X58947250Y-112115377D01*
X58947250Y-113325077D01*
G37*
G36*
X58947250Y-114734777D02*
G01*
X57572450Y-114734777D01*
X57572450Y-113525077D01*
X58947250Y-113525077D01*
X58947250Y-114734777D01*
G37*
G36*
X58947250Y-116144477D02*
G01*
X57572450Y-116144477D01*
X57572450Y-114934777D01*
X58947250Y-114934777D01*
X58947250Y-116144477D01*
G37*
G36*
X60522050Y-111915377D02*
G01*
X59147250Y-111915377D01*
X59147250Y-110705677D01*
X60522050Y-110705677D01*
X60522050Y-111915377D01*
G37*
G36*
X60522050Y-113325077D02*
G01*
X59147250Y-113325077D01*
X59147250Y-112115377D01*
X60522050Y-112115377D01*
X60522050Y-113325077D01*
G37*
G36*
X60522050Y-114734777D02*
G01*
X59147250Y-114734777D01*
X59147250Y-113525077D01*
X60522050Y-113525077D01*
X60522050Y-114734777D01*
G37*
G36*
X60522050Y-116144477D02*
G01*
X59147250Y-116144477D01*
X59147250Y-114934777D01*
X60522050Y-114934777D01*
X60522050Y-116144477D01*
G37*
%TD*%
D11*
%TO.C,L2*%
X188458100Y-127000000D03*
X198541900Y-127000000D03*
%TD*%
%TO.C,L1*%
X124958100Y-124000000D03*
X135041900Y-124000000D03*
%TD*%
D12*
%TO.C,C15*%
X90000000Y-88500000D03*
X90000000Y-91625000D03*
%TD*%
D13*
%TO.C,R18*%
X113500000Y-62500000D03*
X113500000Y-59400000D03*
%TD*%
D14*
%TO.C,C23*%
X33625000Y-105000000D03*
X30500000Y-105000000D03*
%TD*%
D15*
%TO.C,R19*%
X249250000Y-129500000D03*
X246150000Y-129500000D03*
%TD*%
D14*
%TO.C,C5*%
X212000000Y-94250000D03*
X208875000Y-94250000D03*
%TD*%
D16*
%TO.C,C1*%
X82250000Y-113812500D03*
X82250000Y-110687500D03*
%TD*%
D13*
%TO.C,R20*%
X255750000Y-133500000D03*
X255750000Y-130400000D03*
%TD*%
%TO.C,R17*%
X107000000Y-62500000D03*
X107000000Y-59400000D03*
%TD*%
D17*
%TO.C,U6*%
X98120000Y-85575000D03*
X98120000Y-86225000D03*
X98120000Y-86875000D03*
X98120000Y-87525000D03*
X98120000Y-88175000D03*
X98120000Y-88825000D03*
X98120000Y-89475000D03*
X98120000Y-90125000D03*
X98120000Y-90775000D03*
X98120000Y-91425000D03*
X103880000Y-91425000D03*
X103880000Y-90775000D03*
X103880000Y-90125000D03*
X103880000Y-89475000D03*
X103880000Y-88825000D03*
X103880000Y-88175000D03*
X103880000Y-87525000D03*
X103880000Y-86875000D03*
X103880000Y-86225000D03*
X103880000Y-85575000D03*
%TD*%
D18*
%TO.C,R12*%
X87400000Y-131000000D03*
X90500000Y-131000000D03*
%TD*%
D13*
%TO.C,R16*%
X195500000Y-61600000D03*
X195500000Y-58500000D03*
%TD*%
D14*
%TO.C,C12*%
X84500000Y-83440000D03*
X81375000Y-83440000D03*
%TD*%
D13*
%TO.C,R7*%
X171000000Y-60600000D03*
X171000000Y-57500000D03*
%TD*%
D15*
%TO.C,R8*%
X145350000Y-89750000D03*
X142250000Y-89750000D03*
%TD*%
%TO.C,R4*%
X119600000Y-85500000D03*
X116500000Y-85500000D03*
%TD*%
D12*
%TO.C,C16*%
X84749930Y-88625000D03*
X84749930Y-91750000D03*
%TD*%
D19*
%TO.C,C4*%
X142875000Y-126000000D03*
X146000000Y-126000000D03*
%TD*%
D14*
%TO.C,C22*%
X31875000Y-69250000D03*
X28750000Y-69250000D03*
%TD*%
D15*
%TO.C,R11*%
X96650000Y-122500000D03*
X93550000Y-122500000D03*
%TD*%
D20*
%TO.C,U5*%
X62000000Y-117649986D03*
X62000000Y-117000000D03*
X62000000Y-116350014D03*
X62000000Y-115700028D03*
X62000000Y-115050042D03*
X62000000Y-114400056D03*
X62000000Y-113750070D03*
X62000000Y-113100084D03*
X62000000Y-112450098D03*
X62000000Y-111800112D03*
X62000000Y-111150126D03*
X62000000Y-110500140D03*
X62000000Y-109850154D03*
X62000000Y-109200168D03*
X56094500Y-109200168D03*
X56094500Y-109850154D03*
X56094500Y-110500140D03*
X56094500Y-111150126D03*
X56094500Y-111800112D03*
X56094500Y-112450098D03*
X56094500Y-113100084D03*
X56094500Y-113750070D03*
X56094500Y-114400056D03*
X56094500Y-115050042D03*
X56094500Y-115700028D03*
X56094500Y-116350014D03*
X56094500Y-117000000D03*
X56094500Y-117649986D03*
%TD*%
D21*
%TO.C,Q2*%
X80340100Y-69770000D03*
X80340100Y-67230000D03*
X73659900Y-67230000D03*
X73659900Y-69770000D03*
%TD*%
D19*
%TO.C,C3*%
X206875000Y-128500000D03*
X210000000Y-128500000D03*
%TD*%
D14*
%TO.C,C9*%
X195500000Y-80940000D03*
X192375000Y-80940000D03*
%TD*%
D13*
%TO.C,R15*%
X82000000Y-102850000D03*
X82000000Y-99750000D03*
%TD*%
D14*
%TO.C,C14*%
X121625000Y-70500000D03*
X118500000Y-70500000D03*
%TD*%
D17*
%TO.C,U3*%
X213120000Y-76575000D03*
X213120000Y-77225000D03*
X213120000Y-77875000D03*
X213120000Y-78525000D03*
X213120000Y-79175000D03*
X213120000Y-79825000D03*
X213120000Y-80475000D03*
X213120000Y-81125000D03*
X213120000Y-81775000D03*
X213120000Y-82425000D03*
X218880000Y-82425000D03*
X218880000Y-81775000D03*
X218880000Y-81125000D03*
X218880000Y-80475000D03*
X218880000Y-79825000D03*
X218880000Y-79175000D03*
X218880000Y-78525000D03*
X218880000Y-77875000D03*
X218880000Y-77225000D03*
X218880000Y-76575000D03*
%TD*%
D19*
%TO.C,C2*%
X179750000Y-139250000D03*
X182875000Y-139250000D03*
%TD*%
D18*
%TO.C,R10*%
X84150000Y-123500000D03*
X87250000Y-123500000D03*
%TD*%
D14*
%TO.C,C25*%
X33625000Y-118500000D03*
X30500000Y-118500000D03*
%TD*%
%TO.C,C11*%
X84500000Y-77440000D03*
X81375000Y-77440000D03*
%TD*%
D22*
%TO.C,U4*%
X217075000Y-97870000D03*
X217725000Y-97870000D03*
X218375000Y-97870000D03*
X219025000Y-97870000D03*
X219675000Y-97870000D03*
X220325000Y-97870000D03*
X220975000Y-97870000D03*
X221625000Y-97870000D03*
X222275000Y-97870000D03*
X222925000Y-97870000D03*
X222925000Y-92130000D03*
X222275000Y-92130000D03*
X221625000Y-92130000D03*
X220975000Y-92130000D03*
X220325000Y-92130000D03*
X219675000Y-92130000D03*
X219025000Y-92130000D03*
X218375000Y-92130000D03*
X217725000Y-92130000D03*
X217075000Y-92130000D03*
%TD*%
D14*
%TO.C,C21*%
X31875000Y-79750000D03*
X28750000Y-79750000D03*
%TD*%
%TO.C,C6*%
X214687500Y-111000000D03*
X211562500Y-111000000D03*
%TD*%
D15*
%TO.C,R9*%
X179600000Y-88500000D03*
X176500000Y-88500000D03*
%TD*%
D14*
%TO.C,C10*%
X195500000Y-74940000D03*
X192375000Y-74940000D03*
%TD*%
D13*
%TO.C,R6*%
X105000000Y-73000000D03*
X105000000Y-69900000D03*
%TD*%
D18*
%TO.C,R2*%
X226900000Y-83750000D03*
X230000000Y-83750000D03*
%TD*%
%TO.C,R13*%
X92000000Y-99500000D03*
X95100000Y-99500000D03*
%TD*%
D19*
%TO.C,C8*%
X200250000Y-85750000D03*
X203375000Y-85750000D03*
%TD*%
D23*
%TO.C,R1*%
X222750000Y-138070000D03*
D24*
X226000000Y-139070000D03*
D23*
X222750000Y-140070000D03*
%TD*%
D12*
%TO.C,C7*%
X207750000Y-80750000D03*
X207750000Y-83875000D03*
%TD*%
D17*
%TO.C,U1*%
X140620000Y-65075000D03*
X140620000Y-65725000D03*
X140620000Y-66375000D03*
X140620000Y-67025000D03*
X140620000Y-67675000D03*
X140620000Y-68325000D03*
X140620000Y-68975000D03*
X140620000Y-69625000D03*
X140620000Y-70275000D03*
X140620000Y-70925000D03*
X146380000Y-70925000D03*
X146380000Y-70275000D03*
X146380000Y-69625000D03*
X146380000Y-68975000D03*
X146380000Y-68325000D03*
X146380000Y-67675000D03*
X146380000Y-67025000D03*
X146380000Y-66375000D03*
X146380000Y-65725000D03*
X146380000Y-65075000D03*
%TD*%
D13*
%TO.C,R5*%
X168000000Y-68500000D03*
X168000000Y-65400000D03*
%TD*%
D14*
%TO.C,C18*%
X136250000Y-77250000D03*
X133125000Y-77250000D03*
%TD*%
D13*
%TO.C,R3*%
X240500000Y-83850000D03*
X240500000Y-80750000D03*
%TD*%
D14*
%TO.C,C19*%
X33625000Y-125000000D03*
X30500000Y-125000000D03*
%TD*%
D18*
%TO.C,R14*%
X105900000Y-114750070D03*
X109000000Y-114750070D03*
%TD*%
D14*
%TO.C,C24*%
X33625000Y-112000000D03*
X30500000Y-112000000D03*
%TD*%
%TO.C,C13*%
X121625000Y-64000000D03*
X118500000Y-64000000D03*
%TD*%
%TO.C,C17*%
X136375000Y-73000000D03*
X133250000Y-73000000D03*
%TD*%
M02*
