M48
; DRILL file {KiCad 8.0.2} date 2024-07-21T10:42:10-0400
; FORMAT={-:-/ absolute / inch / decimal}
; #@! TF.CreationDate,2024-07-21T10:42:10-04:00
; #@! TF.GenerationSoftware,Kicad,Pcbnew,8.0.2
; #@! TF.FileFunction,Plated,1,2,PTH
FMAT,2
INCH
; #@! TA.AperFunction,Plated,PTH,ViaDrill
T1C0.0157
; #@! TA.AperFunction,Plated,PTH,ComponentDrill
T2C0.0248
; #@! TA.AperFunction,Plated,PTH,ComponentDrill
T3C0.0256
; #@! TA.AperFunction,Plated,PTH,ComponentDrill
T4C0.0340
; #@! TA.AperFunction,Plated,PTH,ViaDrill
T5C0.0394
; #@! TA.AperFunction,Plated,PTH,ComponentDrill
T6C0.0420
; #@! TA.AperFunction,Plated,PTH,ComponentDrill
T7C0.0433
; #@! TA.AperFunction,Plated,PTH,ComponentDrill
T8C0.0512
; #@! TA.AperFunction,Plated,PTH,ViaDrill
T9C0.0787
%
G90
G05
T1
X3.1496Y-3.1693
X3.2776Y-3.8681
X3.4252Y-3.6713
X3.4744Y-4.7835
X3.5925Y-3.7008
X3.6024Y-4.7736
X3.622Y-5.1378
X3.6909Y-3.7697
X3.7106Y-4.0945
X3.7598Y-3.4843
X3.8091Y-4.1142
X3.9173Y-2.6969
X3.9764Y-3.3957
X4.0059Y-2.1752
X4.0059Y-3.4449
X4.0748Y-2.2244
X4.0748Y-2.6969
X4.1831Y-3.4459
X4.2421Y-3.3563
X4.2421Y-4.6949
X4.2913Y-3.2776
X4.3504Y-4.7047
X4.5374Y-3.7894
X4.5472Y-3.8681
X4.5965Y-2.6673
X4.6161Y-3.7598
X5.1673Y-2.9035
X5.1673Y-3.1004
X5.2264Y-3.6319
X5.374Y-3.2185
X5.4429Y-2.7264
X5.4724Y-3.2677
X5.6693Y-2.6378
X5.6791Y-1.7028
X5.689Y-1.5551
X5.9154Y-2.6476
X5.9154Y-2.7264
X6.0138Y-2.8937
X6.0433Y-3.4744
X6.25Y-2.6772
X6.6043Y-3.6811
X7.2244Y-2.185
X7.5591Y-3.061
X8.0315Y-2.2047
X8.1102Y-3.4252
X8.1693Y-3.1102
X8.1693Y-3.7106
X8.248Y-4.3406
X8.4547Y-3.0315
X8.5039Y-3.061
X8.5433Y-3.0315
X8.7303Y-3.1398
X8.7992Y-3.5433
X8.8091Y-3.1004
X8.8681Y-3.1398
X8.8681Y-5.6201
X9.124Y-3.3366
X9.2717Y-3.2382
X9.2815Y-3.1201
X9.4193Y-3.0709
X9.5768Y-5.1083
X10.128Y-4.1437
X10.374Y-5.0197
T2
X3.563Y-3.0535
X3.563Y-3.2457
X4.9803Y-2.5614
X4.9803Y-2.7535
X7.9331Y-2.8961
X7.9331Y-3.0882
T3
X4.426Y-3.5917
X4.426Y-3.6417
X4.476Y-3.5917
X4.476Y-3.6417
X4.526Y-3.5917
X4.526Y-3.6417
X4.576Y-3.5917
X4.576Y-3.6417
X4.626Y-3.5917
X4.626Y-3.6417
X4.676Y-3.5917
X4.676Y-3.6417
X4.726Y-3.5917
X4.726Y-3.6417
X6.0311Y-2.5484
X6.0311Y-2.5984
X6.0811Y-2.5484
X6.0811Y-2.5984
X6.1311Y-2.5484
X6.1311Y-2.5984
X6.1811Y-2.5484
X6.1811Y-2.5984
X6.2311Y-2.5484
X6.2311Y-2.5984
X6.2811Y-2.5484
X6.2811Y-2.5984
X6.3311Y-2.5484
X6.3311Y-2.5984
X9.2488Y-2.9224
X9.2488Y-2.9724
X9.2988Y-2.9224
X9.2988Y-2.9724
X9.3488Y-2.9224
X9.3488Y-2.9724
X9.3988Y-2.9224
X9.3988Y-2.9724
X9.4488Y-2.9224
X9.4488Y-2.9724
X9.4988Y-2.9224
X9.4988Y-2.9724
X9.5488Y-2.9224
X9.5488Y-2.9724
X10.2953Y-4.176
X10.2953Y-4.226
X10.2953Y-4.276
X10.2953Y-4.326
X10.2953Y-4.376
X10.2953Y-4.426
X10.2953Y-4.476
X10.2953Y-4.526
X10.2953Y-4.576
X10.2953Y-4.626
X10.2953Y-4.676
X10.2953Y-4.726
X10.2953Y-4.776
X10.2953Y-4.826
X10.2953Y-4.876
X10.2953Y-4.926
T4
X1.25Y-3.5138
X1.25Y-3.7108
T5
X1.0138Y-3.3858
X1.0236Y-2.9823
X1.063Y-2.5886
X1.0827Y-4.5177
X1.0925Y-4.252
X1.0925Y-4.7933
X1.122Y-5.0591
X2.126Y-2.7756
X2.2047Y-4.0551
X2.2047Y-4.2126
X2.4409Y-4.0551
X2.4409Y-4.2126
X3.0807Y-2.8839
X3.2185Y-4.252
X4.3701Y-5.4626
X4.5177Y-5.0689
X4.6752Y-5.1181
X4.7441Y-4.6555
X4.7736Y-5.3839
X5.689Y-5.4035
X5.8366Y-5.0886
X6.0335Y-5.2461
X6.7717Y-4.9311
X6.7815Y-5.0689
X7.2589Y-5.064
X7.3425Y-5.4528
X8.3957Y-5.0295
T6
X6.9291Y-1.8504
X6.9291Y-2.0472
X7.126Y-1.8504
X7.126Y-2.0472
X7.7362Y-1.8701
X7.7362Y-2.0669
X7.9331Y-1.8701
X7.9331Y-2.0669
T7
X4.5669Y-5.26
X4.5669Y-5.327
X4.5669Y-5.3939
X4.5669Y-5.4608
X4.5669Y-5.5278
X5.174Y-5.4882
X5.574Y-5.4882
X6.1599Y-5.2717
X6.5599Y-5.2717
X7.0292Y-4.937
X7.0292Y-5.0039
X7.0292Y-5.0709
X7.0292Y-5.1378
X7.0292Y-5.2047
T8
X2.2152Y-5.1969
X2.3228Y-3.4449
X2.3228Y-3.6417
X2.4016Y-2.727
X2.4016Y-2.9239
X2.4121Y-5.1969
X5.315Y-3.8189
X5.5118Y-3.8189
X5.7087Y-3.8189
X6.752Y-3.8091
X6.9488Y-3.8091
X7.1457Y-3.8091
T9
X1.5256Y-4.5079
X1.7323Y-4.5079
X1.7913Y-5.0787
X1.7913Y-5.2756
X1.7913Y-5.4724
X1.7913Y-5.7087
X1.9291Y-4.5079
X2.0276Y-5.0787
X2.0276Y-5.2756
X2.0276Y-5.4724
X2.0276Y-5.7087
X2.3228Y-4.1142
X2.4803Y-5.5709
X2.4803Y-5.7677
X2.5984Y-5.1181
X2.5984Y-5.3346
X2.6772Y-4.5276
X2.8346Y-5.1181
X2.8346Y-5.3346
X2.8346Y-5.5709
X2.8346Y-5.7677
X2.8642Y-4.5374
X3.0315Y-4.5374
X6.2697Y-3.5531
M30
