%TF.GenerationSoftware,KiCad,Pcbnew,8.0.2*%
%TF.CreationDate,2024-07-20T17:11:53-04:00*%
%TF.ProjectId,electrical_design_hvac_v2,656c6563-7472-4696-9361-6c5f64657369,rev?*%
%TF.SameCoordinates,Original*%
%TF.FileFunction,Copper,L2,Bot*%
%TF.FilePolarity,Positive*%
%FSLAX46Y46*%
G04 Gerber Fmt 4.6, Leading zero omitted, Abs format (unit mm)*
G04 Created by KiCad (PCBNEW 8.0.2) date 2024-07-20 17:11:53*
%MOMM*%
%LPD*%
G01*
G04 APERTURE LIST*
%TA.AperFunction,ComponentPad*%
%ADD10R,2.000001X1.400000*%
%TD*%
%TA.AperFunction,ComponentPad*%
%ADD11O,2.000001X1.400000*%
%TD*%
%TA.AperFunction,ComponentPad*%
%ADD12R,2.200000X2.200000*%
%TD*%
%TA.AperFunction,ComponentPad*%
%ADD13O,2.200000X2.200000*%
%TD*%
%TA.AperFunction,ComponentPad*%
%ADD14C,1.574800*%
%TD*%
%TA.AperFunction,ComponentPad*%
%ADD15R,1.000000X1.000000*%
%TD*%
%TA.AperFunction,ComponentPad*%
%ADD16O,1.000000X1.000000*%
%TD*%
%TA.AperFunction,ComponentPad*%
%ADD17R,1.950000X1.950000*%
%TD*%
%TA.AperFunction,ComponentPad*%
%ADD18C,1.950000*%
%TD*%
%TA.AperFunction,ComponentPad*%
%ADD19C,1.030000*%
%TD*%
%TA.AperFunction,ComponentPad*%
%ADD20C,1.371600*%
%TD*%
%TA.AperFunction,ViaPad*%
%ADD21C,0.700000*%
%TD*%
%TA.AperFunction,ViaPad*%
%ADD22C,3.000000*%
%TD*%
%TA.AperFunction,ViaPad*%
%ADD23C,1.400000*%
%TD*%
%TA.AperFunction,Conductor*%
%ADD24C,0.200000*%
%TD*%
%TA.AperFunction,Conductor*%
%ADD25C,0.500000*%
%TD*%
%TA.AperFunction,Conductor*%
%ADD26C,1.000000*%
%TD*%
G04 APERTURE END LIST*
D10*
%TO.P,VR1,1,VIN*%
%TO.N,+12V*%
X178541900Y-132200000D03*
D11*
%TO.P,VR1,2,OUTPUT*%
%TO.N,Net-(D2-K)*%
X178541900Y-130500000D03*
%TO.P,VR1,3,GROUND*%
%TO.N,GND*%
X178541900Y-128799999D03*
%TO.P,VR1,4,FEEDBACK*%
%TO.N,+5V*%
X178541900Y-127100000D03*
%TO.P,VR1,5,~{ON}/OFF*%
%TO.N,GND*%
X178541900Y-125400000D03*
%TD*%
D10*
%TO.P,U2,1,VIN*%
%TO.N,+12V*%
X116000000Y-140405000D03*
D11*
%TO.P,U2,2,OUT*%
%TO.N,Net-(D1-K)*%
X116000000Y-138705000D03*
%TO.P,U2,3,GND*%
%TO.N,GND*%
X116000000Y-137004999D03*
%TO.P,U2,4,FB*%
%TO.N,+3V3*%
X116000000Y-135305000D03*
%TO.P,U2,5,ON_OFF_N*%
%TO.N,GND*%
X116000000Y-133605000D03*
%TD*%
D12*
%TO.P,D1,1,K*%
%TO.N,Net-(D1-K)*%
X131420000Y-139400000D03*
D13*
%TO.P,D1,2,A*%
%TO.N,GND*%
X141580000Y-139400000D03*
%TD*%
D14*
%TO.P,SW1,1,1*%
%TO.N,GND*%
X181000000Y-52000000D03*
%TO.P,SW1,2,2*%
%TO.N,/MCU3/pushbutton_pa2*%
X176000000Y-52000000D03*
%TO.P,SW1,3,3*%
%TO.N,unconnected-(SW1-Pad3)*%
X176000000Y-47000010D03*
%TO.P,SW1,4,4*%
%TO.N,unconnected-(SW1-Pad4)*%
X181000000Y-47000010D03*
%TD*%
D15*
%TO.P,J4,1,Pin_1*%
%TO.N,GND*%
X261500000Y-125120000D03*
D16*
%TO.P,J4,2,Pin_2*%
%TO.N,Net-(J4-Pin_2)*%
X261500000Y-123850000D03*
%TO.P,J4,3,Pin_3*%
%TO.N,Net-(J4-Pin_3)*%
X261500000Y-122580000D03*
%TO.P,J4,4,Pin_4*%
%TO.N,Net-(J4-Pin_4)*%
X261500000Y-121310000D03*
%TO.P,J4,5,Pin_5*%
%TO.N,Net-(J4-Pin_5)*%
X261500000Y-120040000D03*
%TO.P,J4,6,Pin_6*%
%TO.N,Net-(J4-Pin_6)*%
X261500000Y-118770000D03*
%TO.P,J4,7,Pin_7*%
%TO.N,unconnected-(J4-Pin_7-Pad7)*%
X261500000Y-117500000D03*
%TO.P,J4,8,Pin_8*%
%TO.N,unconnected-(J4-Pin_8-Pad8)*%
X261500000Y-116230000D03*
%TO.P,J4,9,Pin_9*%
%TO.N,unconnected-(J4-Pin_9-Pad9)*%
X261500000Y-114960000D03*
%TO.P,J4,10,Pin_10*%
%TO.N,unconnected-(J4-Pin_10-Pad10)*%
X261500000Y-113690000D03*
%TO.P,J4,11,Pin_11*%
%TO.N,Net-(J4-Pin_11)*%
X261500000Y-112420000D03*
%TO.P,J4,12,Pin_12*%
%TO.N,Net-(J4-Pin_12)*%
X261500000Y-111150000D03*
%TO.P,J4,13,Pin_13*%
%TO.N,Net-(J4-Pin_13)*%
X261500000Y-109880000D03*
%TO.P,J4,14,Pin_14*%
%TO.N,Net-(J4-Pin_14)*%
X261500000Y-108610000D03*
%TO.P,J4,15,Pin_15*%
%TO.N,+5V*%
X261500000Y-107340000D03*
%TO.P,J4,16,Pin_16*%
%TO.N,GND*%
X261500000Y-106070000D03*
%TD*%
D17*
%TO.P,J3,1,1*%
%TO.N,GND*%
X135000000Y-97000000D03*
D18*
%TO.P,J3,2,2*%
%TO.N,/MCU3/temp_sense_pa2*%
X140000000Y-97000000D03*
%TO.P,J3,3,3*%
%TO.N,+3V3*%
X145000000Y-97000000D03*
%TD*%
D17*
%TO.P,J2,1,1*%
%TO.N,GND*%
X56267000Y-132000000D03*
D18*
%TO.P,J2,2,2*%
%TO.N,+12V*%
X61267000Y-132000000D03*
%TD*%
D12*
%TO.P,D2,1,K*%
%TO.N,Net-(D2-K)*%
X166621900Y-133900000D03*
D13*
%TO.P,D2,2,A*%
%TO.N,GND*%
X156461900Y-133900000D03*
%TD*%
D19*
%TO.P,Y1,1*%
%TO.N,Net-(U1-PC14-OSCX_IN)*%
X126500000Y-65060000D03*
%TO.P,Y1,2*%
%TO.N,Net-(U1-PC15-OSCX_IN)*%
X126500000Y-69940000D03*
%TD*%
D17*
%TO.P,J8,1,1*%
%TO.N,GND*%
X61000000Y-69267000D03*
D18*
%TO.P,J8,2,2*%
%TO.N,Net-(J8-Pad2)*%
X61000000Y-74267000D03*
%TD*%
D15*
%TO.P,J5,1,Pin_1*%
%TO.N,unconnected-(J5-Pin_1-Pad1)*%
X234920000Y-75500000D03*
D16*
%TO.P,J5,2,Pin_2*%
%TO.N,unconnected-(J5-Pin_2-Pad2)*%
X234920000Y-74230000D03*
%TO.P,J5,3,Pin_3*%
%TO.N,+3V3*%
X236190000Y-75500000D03*
%TO.P,J5,4,Pin_4*%
%TO.N,MCU1_SWDIO*%
X236190000Y-74230000D03*
%TO.P,J5,5,Pin_5*%
%TO.N,GND*%
X237460000Y-75500000D03*
%TO.P,J5,6,Pin_6*%
%TO.N,MCU1_SWCLK*%
X237460000Y-74230000D03*
%TO.P,J5,7,Pin_7*%
%TO.N,GND*%
X238730000Y-75500000D03*
%TO.P,J5,8,Pin_8*%
%TO.N,unconnected-(J5-Pin_8-Pad8)*%
X238730000Y-74230000D03*
%TO.P,J5,9,Pin_9*%
%TO.N,unconnected-(J5-Pin_9-Pad9)*%
X240000000Y-75500000D03*
%TO.P,J5,10,Pin_10*%
%TO.N,unconnected-(J5-Pin_10-Pad10)*%
X240000000Y-74230000D03*
%TO.P,J5,11,Pin_11*%
%TO.N,GND*%
X241270000Y-75500000D03*
%TO.P,J5,12,Pin_12*%
%TO.N,/MCU1/NRST_PIN1*%
X241270000Y-74230000D03*
%TO.P,J5,13,Pin_13*%
%TO.N,unconnected-(J5-Pin_13-Pad13)*%
X242540000Y-75500000D03*
%TO.P,J5,14,Pin_14*%
%TO.N,unconnected-(J5-Pin_14-Pad14)*%
X242540000Y-74230000D03*
%TD*%
D15*
%TO.P,J1,1,Pin_1*%
%TO.N,unconnected-(J1-Pin_1-Pad1)*%
X153190000Y-66000000D03*
D16*
%TO.P,J1,2,Pin_2*%
%TO.N,unconnected-(J1-Pin_2-Pad2)*%
X153190000Y-64730000D03*
%TO.P,J1,3,Pin_3*%
%TO.N,+3V3*%
X154460000Y-66000000D03*
%TO.P,J1,4,Pin_4*%
%TO.N,MCU3_SWDIO*%
X154460000Y-64730000D03*
%TO.P,J1,5,Pin_5*%
%TO.N,GND*%
X155730000Y-66000000D03*
%TO.P,J1,6,Pin_6*%
%TO.N,MCU3_SWCLK*%
X155730000Y-64730000D03*
%TO.P,J1,7,Pin_7*%
%TO.N,GND*%
X157000000Y-66000000D03*
%TO.P,J1,8,Pin_8*%
%TO.N,unconnected-(J1-Pin_8-Pad8)*%
X157000000Y-64730000D03*
%TO.P,J1,9,Pin_9*%
%TO.N,unconnected-(J1-Pin_9-Pad9)*%
X158270000Y-66000000D03*
%TO.P,J1,10,Pin_10*%
%TO.N,unconnected-(J1-Pin_10-Pad10)*%
X158270000Y-64730000D03*
%TO.P,J1,11,Pin_11*%
%TO.N,GND*%
X159540000Y-66000000D03*
%TO.P,J1,12,Pin_12*%
%TO.N,/MCU3/NRST_PIN3*%
X159540000Y-64730000D03*
%TO.P,J1,13,Pin_13*%
%TO.N,unconnected-(J1-Pin_13-Pad13)*%
X160810000Y-66000000D03*
%TO.P,J1,14,Pin_14*%
%TO.N,unconnected-(J1-Pin_14-Pad14)*%
X160810000Y-64730000D03*
%TD*%
D19*
%TO.P,Y3,1*%
%TO.N,Net-(U6-PC14-OSCX_IN)*%
X90500000Y-77560000D03*
%TO.P,Y3,2*%
%TO.N,Net-(U6-PC15-OSCX_IN)*%
X90500000Y-82440000D03*
%TD*%
D15*
%TO.P,J9,1,Pin_1*%
%TO.N,unconnected-(J9-Pin_1-Pad1)*%
X112420000Y-92500000D03*
D16*
%TO.P,J9,2,Pin_2*%
%TO.N,unconnected-(J9-Pin_2-Pad2)*%
X112420000Y-91230000D03*
%TO.P,J9,3,Pin_3*%
%TO.N,+3V3*%
X113690000Y-92500000D03*
%TO.P,J9,4,Pin_4*%
%TO.N,MCU2_SWDIO*%
X113690000Y-91230000D03*
%TO.P,J9,5,Pin_5*%
%TO.N,GND*%
X114960000Y-92500000D03*
%TO.P,J9,6,Pin_6*%
%TO.N,MCU2_SWCLK*%
X114960000Y-91230000D03*
%TO.P,J9,7,Pin_7*%
%TO.N,GND*%
X116230000Y-92500000D03*
%TO.P,J9,8,Pin_8*%
%TO.N,unconnected-(J9-Pin_8-Pad8)*%
X116230000Y-91230000D03*
%TO.P,J9,9,Pin_9*%
%TO.N,unconnected-(J9-Pin_9-Pad9)*%
X117500000Y-92500000D03*
%TO.P,J9,10,Pin_10*%
%TO.N,unconnected-(J9-Pin_10-Pad10)*%
X117500000Y-91230000D03*
%TO.P,J9,11,Pin_11*%
%TO.N,GND*%
X118770000Y-92500000D03*
%TO.P,J9,12,Pin_12*%
%TO.N,/MCU2/NRST_PIN2*%
X118770000Y-91230000D03*
%TO.P,J9,13,Pin_13*%
%TO.N,unconnected-(J9-Pin_13-Pad13)*%
X120040000Y-92500000D03*
%TO.P,J9,14,Pin_14*%
%TO.N,unconnected-(J9-Pin_14-Pad14)*%
X120040000Y-91230000D03*
%TD*%
D17*
%TO.P,J6,1,1*%
%TO.N,GND*%
X171500000Y-96750000D03*
D18*
%TO.P,J6,2,2*%
%TO.N,/MCU3/temp_sense_pa1*%
X176500000Y-96750000D03*
%TO.P,J6,3,3*%
%TO.N,+3V3*%
X181500000Y-96750000D03*
%TD*%
D19*
%TO.P,Y2,1*%
%TO.N,Net-(U3-PC14-OSCX_IN)*%
X201500000Y-73560000D03*
%TO.P,Y2,2*%
%TO.N,Net-(U3-PC15-OSCX_IN)*%
X201500000Y-78440000D03*
%TD*%
D20*
%TO.P,C20,1*%
%TO.N,+12V*%
X31750000Y-94253800D03*
%TO.P,C20,2*%
%TO.N,GND*%
X31750000Y-89250000D03*
%TD*%
D14*
%TO.P,SW2,4,4*%
%TO.N,unconnected-(SW2-Pad4)*%
X201500000Y-47500010D03*
%TO.P,SW2,3,3*%
%TO.N,unconnected-(SW2-Pad3)*%
X196500000Y-47500010D03*
%TO.P,SW2,2,2*%
%TO.N,/MCU3/pushbutton_pa3*%
X196500000Y-52500000D03*
%TO.P,SW2,1,1*%
%TO.N,GND*%
X201500000Y-52500000D03*
%TD*%
D17*
%TO.P,J7,1,1*%
%TO.N,/MCU2/OUT2*%
X59000000Y-87500000D03*
D18*
%TO.P,J7,2,2*%
%TO.N,/MCU2/OUT1*%
X59000000Y-92500000D03*
%TD*%
D21*
%TO.N,GND*%
X239250000Y-78000000D03*
X167750000Y-93500000D03*
D22*
X51500000Y-145000000D03*
D21*
X192000000Y-77750000D03*
D23*
X78250000Y-73250000D03*
D21*
X206000000Y-87000000D03*
X91500000Y-121250000D03*
X117250000Y-95500000D03*
X83250000Y-98250000D03*
D23*
X153250000Y-133250000D03*
D21*
X225250000Y-142750000D03*
X95500000Y-88500000D03*
X138250000Y-69250000D03*
X231750000Y-84750000D03*
D22*
X51500000Y-134000000D03*
D23*
X26000000Y-75750000D03*
D21*
X132750000Y-92250000D03*
X223500000Y-90000000D03*
D23*
X172000000Y-125250000D03*
X81750000Y-108000000D03*
X25750000Y-86000000D03*
D21*
X207500000Y-94250000D03*
D23*
X62000000Y-103000000D03*
D22*
X45500000Y-145000000D03*
D21*
X209500000Y-110250000D03*
D23*
X27500000Y-114750000D03*
D21*
X87000000Y-93250000D03*
D23*
X62000000Y-107000000D03*
D21*
X131250000Y-73750000D03*
D23*
X27750000Y-108000000D03*
X148250000Y-129250000D03*
D21*
X183500000Y-55500000D03*
X88250000Y-121500000D03*
D22*
X45500000Y-139000000D03*
D21*
X92000000Y-130500000D03*
D22*
X51500000Y-129000000D03*
D21*
X116750000Y-67750000D03*
D23*
X28500000Y-128500000D03*
D21*
X80000000Y-80500000D03*
D22*
X59000000Y-104500000D03*
D21*
X243250000Y-129750000D03*
X158750000Y-68000000D03*
D23*
X213250000Y-127750000D03*
X56000000Y-103000000D03*
D21*
X101750000Y-87500000D03*
D23*
X54000000Y-70500000D03*
D22*
X45500000Y-134000000D03*
X45500000Y-129000000D03*
D23*
X186500000Y-138500000D03*
X27750000Y-121750000D03*
X56000000Y-107000000D03*
D21*
X216000000Y-77750000D03*
X263500000Y-127500000D03*
X257250000Y-105250000D03*
X204000000Y-56000000D03*
D22*
X51500000Y-139000000D03*
D23*
X27000000Y-65750000D03*
X144500000Y-137250000D03*
D21*
X131250000Y-78750000D03*
D23*
X118750000Y-130000000D03*
D22*
%TO.N,+12V*%
X72000000Y-130000000D03*
X63000000Y-141500000D03*
X44000000Y-114500000D03*
X77000000Y-115250000D03*
X72000000Y-141500000D03*
X66000000Y-130000000D03*
X72000000Y-135500000D03*
X66000000Y-135500000D03*
X72000000Y-146500000D03*
X72750000Y-115250000D03*
X68000000Y-115000000D03*
X38750000Y-114500000D03*
X63000000Y-146500000D03*
X49000000Y-114500000D03*
D21*
%TO.N,+3V3*%
X235500000Y-82250000D03*
X115500000Y-98250000D03*
D23*
X114750000Y-128750000D03*
D21*
X235750000Y-79250000D03*
X152750000Y-73500000D03*
X107750000Y-119250000D03*
X217000000Y-77000000D03*
X136500000Y-81750000D03*
X96750000Y-104500000D03*
X94250000Y-104000000D03*
X115250000Y-96250000D03*
X150250000Y-69250000D03*
X214750000Y-77000000D03*
D22*
X159250000Y-90250000D03*
D21*
X150250000Y-67250000D03*
D23*
X120500000Y-118250000D03*
D21*
X101000000Y-86250000D03*
X139000000Y-83000000D03*
X207500000Y-79000000D03*
X110500000Y-119500000D03*
X153500000Y-88250000D03*
X144000000Y-67000000D03*
X223750000Y-78750000D03*
X109000000Y-83250000D03*
D23*
%TO.N,Net-(D1-K)*%
X121250000Y-136750000D03*
X111000000Y-138750000D03*
%TO.N,Net-(D2-K)*%
X184375000Y-128625000D03*
X172250000Y-128750000D03*
D21*
%TO.N,Net-(Q2-Pad2)*%
X103500000Y-68500000D03*
X99500000Y-68500000D03*
%TO.N,/MCU2/PA12_fan_relay*%
X107750000Y-85250000D03*
X106250000Y-87525000D03*
%TO.N,/MCU2/PA2_hbridge_DRVOFF*%
X93750000Y-95750000D03*
X91250000Y-94000000D03*
%TO.N,I2C_SCL*%
X144250000Y-43250000D03*
X101750000Y-55250000D03*
X103500000Y-56500000D03*
X144500000Y-39500000D03*
%TO.N,/MCU1/NRST_PIN1*%
X221750000Y-79750000D03*
X225250000Y-79750000D03*
%TD*%
D24*
%TO.N,+3V3*%
X115250000Y-98000000D02*
X115500000Y-98250000D01*
X136500000Y-81750000D02*
X137750000Y-81750000D01*
X152750000Y-73500000D02*
X152750000Y-87500000D01*
X218750000Y-78750000D02*
X217000000Y-77000000D01*
X152750000Y-87500000D02*
X153500000Y-88250000D01*
X235750000Y-79250000D02*
X235750000Y-82000000D01*
X137750000Y-81750000D02*
X139000000Y-83000000D01*
X214750000Y-77000000D02*
X209500000Y-77000000D01*
X144250000Y-67250000D02*
X150250000Y-67250000D01*
X94250000Y-104000000D02*
X94500000Y-104250000D01*
X94500000Y-104250000D02*
X96500000Y-104250000D01*
X107750000Y-119250000D02*
X110250000Y-119250000D01*
X209500000Y-77000000D02*
X207500000Y-79000000D01*
D25*
X104000000Y-83250000D02*
X101000000Y-86250000D01*
D24*
X223750000Y-78750000D02*
X218750000Y-78750000D01*
X115250000Y-96250000D02*
X115250000Y-98000000D01*
D25*
X109000000Y-83250000D02*
X104000000Y-83250000D01*
D26*
X120500000Y-123000000D02*
X120500000Y-118250000D01*
X114750000Y-128750000D02*
X120500000Y-123000000D01*
D24*
X235750000Y-82000000D02*
X235500000Y-82250000D01*
X150250000Y-67250000D02*
X150250000Y-69250000D01*
X110250000Y-119250000D02*
X110500000Y-119500000D01*
X96500000Y-104250000D02*
X96750000Y-104500000D01*
X144000000Y-67000000D02*
X144250000Y-67250000D01*
D26*
%TO.N,Net-(D1-K)*%
X111000000Y-138750000D02*
X119250000Y-138750000D01*
X119250000Y-138750000D02*
X121250000Y-136750000D01*
%TO.N,Net-(D2-K)*%
X173699999Y-130199999D02*
X182800001Y-130199999D01*
X182800001Y-130199999D02*
X184375000Y-128625000D01*
X172250000Y-128750000D02*
X173699999Y-130199999D01*
D24*
%TO.N,Net-(Q2-Pad2)*%
X103500000Y-68500000D02*
X99500000Y-68500000D01*
%TO.N,/MCU2/PA12_fan_relay*%
X107750000Y-86025000D02*
X107750000Y-85250000D01*
X106250000Y-87525000D02*
X107750000Y-86025000D01*
%TO.N,/MCU2/PA2_hbridge_DRVOFF*%
X93750000Y-95750000D02*
X92000000Y-94000000D01*
X92000000Y-94000000D02*
X91250000Y-94000000D01*
%TO.N,I2C_SCL*%
X144250000Y-39750000D02*
X144500000Y-39500000D01*
X102250000Y-55250000D02*
X103500000Y-56500000D01*
X101750000Y-55250000D02*
X102250000Y-55250000D01*
X144250000Y-43250000D02*
X144250000Y-39750000D01*
%TO.N,/MCU1/NRST_PIN1*%
X221750000Y-79750000D02*
X225250000Y-79750000D01*
%TD*%
%TA.AperFunction,Conductor*%
%TO.N,+12V*%
G36*
X51023166Y-112009266D02*
G01*
X53500000Y-113000000D01*
X54876000Y-113000000D01*
X54943039Y-113019685D01*
X54988794Y-113072489D01*
X55000000Y-113124000D01*
X55000000Y-114500000D01*
X59500000Y-120000000D01*
X65500000Y-120000000D01*
X66500000Y-119000000D01*
X66500000Y-117500000D01*
X66500000Y-117499999D01*
X64520826Y-114531238D01*
X64500018Y-114464539D01*
X64500000Y-114462455D01*
X64500000Y-113076636D01*
X64519685Y-113009597D01*
X64568546Y-112965727D01*
X65473818Y-112513091D01*
X65529272Y-112500000D01*
X79876000Y-112500000D01*
X79943039Y-112519685D01*
X79988794Y-112572489D01*
X80000000Y-112624000D01*
X80000000Y-117433637D01*
X79980315Y-117500676D01*
X79944783Y-117536811D01*
X77000000Y-119499999D01*
X77000000Y-126999987D01*
X77497246Y-149873305D01*
X77479023Y-149940756D01*
X77427226Y-149987648D01*
X77373275Y-150000000D01*
X59124000Y-150000000D01*
X59056961Y-149980315D01*
X59011206Y-149927511D01*
X59000000Y-149876000D01*
X59000000Y-126000000D01*
X55551362Y-126000000D01*
X55484323Y-125980315D01*
X55463681Y-125963681D01*
X53000000Y-123500000D01*
X52999998Y-123499999D01*
X36120355Y-123003539D01*
X36053923Y-122981892D01*
X36009740Y-122927766D01*
X36000000Y-122879593D01*
X36000000Y-112371950D01*
X36019685Y-112304911D01*
X36072489Y-112259156D01*
X36121930Y-112247967D01*
X50975055Y-112000415D01*
X51023166Y-112009266D01*
G37*
%TD.AperFunction*%
%TD*%
%TA.AperFunction,Conductor*%
%TO.N,GND*%
G36*
X143664396Y-39020185D02*
G01*
X143710151Y-39072989D01*
X143720095Y-39142147D01*
X143715288Y-39162818D01*
X143663504Y-39322192D01*
X143663503Y-39322194D01*
X143644815Y-39500001D01*
X143656636Y-39612483D01*
X143653091Y-39657531D01*
X143649500Y-39670934D01*
X143649499Y-39670943D01*
X143649499Y-39839046D01*
X143649500Y-39839059D01*
X143649500Y-42598270D01*
X143629815Y-42665309D01*
X143617650Y-42681242D01*
X143558144Y-42747329D01*
X143558139Y-42747336D01*
X143468750Y-42902164D01*
X143468747Y-42902170D01*
X143413504Y-43072192D01*
X143413503Y-43072194D01*
X143394815Y-43250000D01*
X143413503Y-43427805D01*
X143413504Y-43427807D01*
X143468747Y-43597829D01*
X143468750Y-43597835D01*
X143558141Y-43752665D01*
X143599812Y-43798946D01*
X143677764Y-43885521D01*
X143677767Y-43885523D01*
X143677770Y-43885526D01*
X143822407Y-43990612D01*
X143985733Y-44063329D01*
X144160609Y-44100500D01*
X144160610Y-44100500D01*
X144339389Y-44100500D01*
X144339391Y-44100500D01*
X144514267Y-44063329D01*
X144677593Y-43990612D01*
X144822230Y-43885526D01*
X144941859Y-43752665D01*
X145031250Y-43597835D01*
X145086497Y-43427803D01*
X145105185Y-43250000D01*
X145086497Y-43072197D01*
X145031250Y-42902165D01*
X144941859Y-42747335D01*
X144941855Y-42747329D01*
X144882350Y-42681242D01*
X144852120Y-42618250D01*
X144850500Y-42598270D01*
X144850500Y-40355462D01*
X144870185Y-40288423D01*
X144922989Y-40242668D01*
X144923915Y-40242249D01*
X144927593Y-40240612D01*
X145072230Y-40135526D01*
X145191859Y-40002665D01*
X145281250Y-39847835D01*
X145336497Y-39677803D01*
X145355185Y-39500000D01*
X145336497Y-39322197D01*
X145316858Y-39261756D01*
X145284712Y-39162818D01*
X145282717Y-39092977D01*
X145318798Y-39033144D01*
X145381499Y-39002316D01*
X145402643Y-39000500D01*
X271875500Y-39000500D01*
X271942539Y-39020185D01*
X271988294Y-39072989D01*
X271999500Y-39124500D01*
X271999500Y-156625500D01*
X271979815Y-156692539D01*
X271927011Y-156738294D01*
X271875500Y-156749500D01*
X23874500Y-156749500D01*
X23807461Y-156729815D01*
X23761706Y-156677011D01*
X23750500Y-156625500D01*
X23750500Y-124000000D01*
X35000000Y-124000000D01*
X52454105Y-124498688D01*
X52520553Y-124520279D01*
X52533968Y-124530880D01*
X55250000Y-127000000D01*
X57876000Y-127000000D01*
X57943039Y-127019685D01*
X57988794Y-127072489D01*
X58000000Y-127124000D01*
X58000000Y-151250000D01*
X78499999Y-151250000D01*
X78500000Y-151250000D01*
X78296748Y-138749999D01*
X109794357Y-138749999D01*
X109794357Y-138750000D01*
X109814884Y-138971535D01*
X109814885Y-138971537D01*
X109875769Y-139185523D01*
X109875775Y-139185538D01*
X109974938Y-139384683D01*
X109974943Y-139384691D01*
X110109020Y-139562238D01*
X110273437Y-139712123D01*
X110273439Y-139712125D01*
X110462595Y-139829245D01*
X110462596Y-139829245D01*
X110462599Y-139829247D01*
X110670060Y-139909618D01*
X110888757Y-139950500D01*
X110888759Y-139950500D01*
X111111241Y-139950500D01*
X111111243Y-139950500D01*
X111329940Y-139909618D01*
X111537401Y-139829247D01*
X111634586Y-139769073D01*
X111699863Y-139750500D01*
X114375499Y-139750500D01*
X114442538Y-139770185D01*
X114488293Y-139822989D01*
X114499499Y-139874500D01*
X114499499Y-141152870D01*
X114499500Y-141152876D01*
X114505907Y-141212483D01*
X114556201Y-141347328D01*
X114556205Y-141347335D01*
X114642451Y-141462544D01*
X114642454Y-141462547D01*
X114757663Y-141548793D01*
X114757670Y-141548797D01*
X114892516Y-141599091D01*
X114892515Y-141599091D01*
X114899443Y-141599835D01*
X114952126Y-141605500D01*
X117047873Y-141605499D01*
X117107484Y-141599091D01*
X117242332Y-141548796D01*
X117357547Y-141462546D01*
X117443797Y-141347331D01*
X117494092Y-141212483D01*
X117500501Y-141152873D01*
X117500500Y-139874499D01*
X117520185Y-139807461D01*
X117572988Y-139761706D01*
X117624500Y-139750500D01*
X119348542Y-139750500D01*
X119367870Y-139746655D01*
X119445188Y-139731275D01*
X119541836Y-139712051D01*
X119595165Y-139689961D01*
X119723914Y-139636632D01*
X119887782Y-139527139D01*
X120027139Y-139387782D01*
X120027140Y-139387779D01*
X120034206Y-139380714D01*
X120034209Y-139380710D01*
X121162783Y-138252135D01*
X129819500Y-138252135D01*
X129819500Y-140547870D01*
X129819501Y-140547876D01*
X129825908Y-140607483D01*
X129876202Y-140742328D01*
X129876206Y-140742335D01*
X129962452Y-140857544D01*
X129962455Y-140857547D01*
X130077664Y-140943793D01*
X130077671Y-140943797D01*
X130212517Y-140994091D01*
X130212516Y-140994091D01*
X130219444Y-140994835D01*
X130272127Y-141000500D01*
X132567872Y-141000499D01*
X132627483Y-140994091D01*
X132762331Y-140943796D01*
X132877546Y-140857546D01*
X132963796Y-140742331D01*
X133014091Y-140607483D01*
X133020500Y-140547873D01*
X133020499Y-138252128D01*
X133014091Y-138192517D01*
X132963796Y-138057669D01*
X132963795Y-138057668D01*
X132963793Y-138057664D01*
X132877547Y-137942455D01*
X132877544Y-137942452D01*
X132762335Y-137856206D01*
X132762328Y-137856202D01*
X132627482Y-137805908D01*
X132627483Y-137805908D01*
X132567883Y-137799501D01*
X132567881Y-137799500D01*
X132567873Y-137799500D01*
X132567864Y-137799500D01*
X130272129Y-137799500D01*
X130272123Y-137799501D01*
X130212516Y-137805908D01*
X130077671Y-137856202D01*
X130077664Y-137856206D01*
X129962455Y-137942452D01*
X129962452Y-137942455D01*
X129876206Y-138057664D01*
X129876202Y-138057671D01*
X129825908Y-138192517D01*
X129819501Y-138252116D01*
X129819501Y-138252123D01*
X129819500Y-138252135D01*
X121162783Y-138252135D01*
X121460990Y-137953928D01*
X121522311Y-137920445D01*
X121525838Y-137919731D01*
X121579940Y-137909618D01*
X121787401Y-137829247D01*
X121976562Y-137712124D01*
X122140981Y-137562236D01*
X122275058Y-137384689D01*
X122374229Y-137185528D01*
X122435115Y-136971536D01*
X122455643Y-136750000D01*
X122435115Y-136528464D01*
X122374229Y-136314472D01*
X122327531Y-136220690D01*
X122275061Y-136115316D01*
X122275056Y-136115308D01*
X122140979Y-135937761D01*
X121976562Y-135787876D01*
X121976560Y-135787874D01*
X121787404Y-135670754D01*
X121787398Y-135670752D01*
X121579940Y-135590382D01*
X121361243Y-135549500D01*
X121138757Y-135549500D01*
X120920060Y-135590382D01*
X120788864Y-135641207D01*
X120712601Y-135670752D01*
X120712595Y-135670754D01*
X120523439Y-135787874D01*
X120523437Y-135787876D01*
X120359020Y-135937761D01*
X120224943Y-136115308D01*
X120224936Y-136115320D01*
X120125775Y-136314462D01*
X120125768Y-136314480D01*
X120076985Y-136485932D01*
X120045400Y-136539678D01*
X118871899Y-137713181D01*
X118810576Y-137746666D01*
X118784218Y-137749500D01*
X117067570Y-137749500D01*
X117000531Y-137729815D01*
X116994692Y-137725823D01*
X116929199Y-137678240D01*
X116914503Y-137670752D01*
X116760836Y-137592454D01*
X116581118Y-137534059D01*
X116394486Y-137504500D01*
X116394481Y-137504500D01*
X115605519Y-137504500D01*
X115605514Y-137504500D01*
X115418881Y-137534059D01*
X115239163Y-137592454D01*
X115070800Y-137678240D01*
X115027583Y-137709639D01*
X115005314Y-137725818D01*
X114939509Y-137749298D01*
X114932430Y-137749500D01*
X111699863Y-137749500D01*
X111634586Y-137730927D01*
X111537404Y-137670754D01*
X111537398Y-137670752D01*
X111329940Y-137590382D01*
X111111243Y-137549500D01*
X110888757Y-137549500D01*
X110670060Y-137590382D01*
X110538864Y-137641207D01*
X110462601Y-137670752D01*
X110462595Y-137670754D01*
X110273439Y-137787874D01*
X110273437Y-137787876D01*
X110109020Y-137937761D01*
X109974943Y-138115308D01*
X109974938Y-138115316D01*
X109875775Y-138314461D01*
X109875769Y-138314476D01*
X109814885Y-138528462D01*
X109814884Y-138528464D01*
X109794357Y-138749999D01*
X78296748Y-138749999D01*
X78239195Y-135210513D01*
X114499500Y-135210513D01*
X114499500Y-135399486D01*
X114529059Y-135586118D01*
X114587454Y-135765836D01*
X114673240Y-135934199D01*
X114784310Y-136087073D01*
X114917927Y-136220690D01*
X115070801Y-136331760D01*
X115150347Y-136372290D01*
X115239163Y-136417545D01*
X115239165Y-136417545D01*
X115239168Y-136417547D01*
X115335497Y-136448846D01*
X115418881Y-136475940D01*
X115605514Y-136505500D01*
X115605519Y-136505500D01*
X116394486Y-136505500D01*
X116581118Y-136475940D01*
X116760832Y-136417547D01*
X116929199Y-136331760D01*
X117082073Y-136220690D01*
X117215690Y-136087073D01*
X117326760Y-135934199D01*
X117412547Y-135765832D01*
X117470940Y-135586118D01*
X117476740Y-135549500D01*
X117500500Y-135399486D01*
X117500500Y-135210513D01*
X117470940Y-135023881D01*
X117412545Y-134844163D01*
X117326759Y-134675800D01*
X117215690Y-134522927D01*
X117082073Y-134389310D01*
X116929199Y-134278240D01*
X116760836Y-134192454D01*
X116581118Y-134134059D01*
X116394486Y-134104500D01*
X116394481Y-134104500D01*
X115605519Y-134104500D01*
X115605514Y-134104500D01*
X115418881Y-134134059D01*
X115239163Y-134192454D01*
X115070800Y-134278240D01*
X114983579Y-134341610D01*
X114917927Y-134389310D01*
X114917925Y-134389312D01*
X114917924Y-134389312D01*
X114784312Y-134522924D01*
X114784312Y-134522925D01*
X114784310Y-134522927D01*
X114736610Y-134588579D01*
X114673240Y-134675800D01*
X114587454Y-134844163D01*
X114529059Y-135023881D01*
X114499500Y-135210513D01*
X78239195Y-135210513D01*
X78199221Y-132752135D01*
X165021400Y-132752135D01*
X165021400Y-135047870D01*
X165021401Y-135047876D01*
X165027808Y-135107483D01*
X165078102Y-135242328D01*
X165078106Y-135242335D01*
X165164352Y-135357544D01*
X165164355Y-135357547D01*
X165279564Y-135443793D01*
X165279571Y-135443797D01*
X165414417Y-135494091D01*
X165414416Y-135494091D01*
X165421344Y-135494835D01*
X165474027Y-135500500D01*
X167769772Y-135500499D01*
X167829383Y-135494091D01*
X167964231Y-135443796D01*
X168079446Y-135357546D01*
X168165696Y-135242331D01*
X168215991Y-135107483D01*
X168222400Y-135047873D01*
X168222399Y-132752128D01*
X168215991Y-132692517D01*
X168165696Y-132557669D01*
X168165695Y-132557668D01*
X168165693Y-132557664D01*
X168079447Y-132442455D01*
X168079444Y-132442452D01*
X167964235Y-132356206D01*
X167964228Y-132356202D01*
X167829382Y-132305908D01*
X167829383Y-132305908D01*
X167769783Y-132299501D01*
X167769781Y-132299500D01*
X167769773Y-132299500D01*
X167769764Y-132299500D01*
X165474029Y-132299500D01*
X165474023Y-132299501D01*
X165414416Y-132305908D01*
X165279571Y-132356202D01*
X165279564Y-132356206D01*
X165164355Y-132442452D01*
X165164352Y-132442455D01*
X165078106Y-132557664D01*
X165078102Y-132557671D01*
X165027808Y-132692517D01*
X165021401Y-132752116D01*
X165021401Y-132752123D01*
X165021400Y-132752135D01*
X78199221Y-132752135D01*
X78134146Y-128749999D01*
X113544357Y-128749999D01*
X113544357Y-128750000D01*
X113564884Y-128971535D01*
X113564885Y-128971537D01*
X113625769Y-129185523D01*
X113625775Y-129185538D01*
X113724938Y-129384683D01*
X113724943Y-129384691D01*
X113859020Y-129562238D01*
X114023437Y-129712123D01*
X114023439Y-129712125D01*
X114212595Y-129829245D01*
X114212596Y-129829245D01*
X114212599Y-129829247D01*
X114420060Y-129909618D01*
X114638757Y-129950500D01*
X114638759Y-129950500D01*
X114861241Y-129950500D01*
X114861243Y-129950500D01*
X115079940Y-129909618D01*
X115287401Y-129829247D01*
X115476562Y-129712124D01*
X115640981Y-129562236D01*
X115775058Y-129384689D01*
X115874229Y-129185528D01*
X115923013Y-129014064D01*
X115954596Y-128960322D01*
X116164919Y-128749999D01*
X171044357Y-128749999D01*
X171044357Y-128750000D01*
X171064884Y-128971535D01*
X171064885Y-128971537D01*
X171125769Y-129185523D01*
X171125775Y-129185538D01*
X171224938Y-129384683D01*
X171224943Y-129384691D01*
X171359020Y-129562238D01*
X171523437Y-129712123D01*
X171523439Y-129712125D01*
X171712595Y-129829245D01*
X171712596Y-129829245D01*
X171712599Y-129829247D01*
X171920060Y-129909618D01*
X171974115Y-129919722D01*
X172036394Y-129951391D01*
X172039009Y-129953930D01*
X172922859Y-130837780D01*
X172922860Y-130837781D01*
X172995798Y-130910719D01*
X173062218Y-130977139D01*
X173226078Y-131086627D01*
X173226091Y-131086634D01*
X173354832Y-131139960D01*
X173408158Y-131162048D01*
X173408163Y-131162050D01*
X173446396Y-131169655D01*
X173485161Y-131177366D01*
X173601455Y-131200499D01*
X173601458Y-131200499D01*
X173601459Y-131200499D01*
X173798539Y-131200499D01*
X176940833Y-131200499D01*
X177007872Y-131220184D01*
X177053627Y-131272988D01*
X177063571Y-131342146D01*
X177057015Y-131367833D01*
X177047807Y-131392518D01*
X177041400Y-131452116D01*
X177041400Y-131452123D01*
X177041399Y-131452135D01*
X177041399Y-132947870D01*
X177041400Y-132947876D01*
X177047807Y-133007483D01*
X177098101Y-133142328D01*
X177098105Y-133142335D01*
X177184351Y-133257544D01*
X177184354Y-133257547D01*
X177299563Y-133343793D01*
X177299570Y-133343797D01*
X177434416Y-133394091D01*
X177434415Y-133394091D01*
X177441343Y-133394835D01*
X177494026Y-133400500D01*
X179589773Y-133400499D01*
X179649384Y-133394091D01*
X179784232Y-133343796D01*
X179899447Y-133257546D01*
X179985697Y-133142331D01*
X180035992Y-133007483D01*
X180042401Y-132947873D01*
X180042400Y-131452128D01*
X180035992Y-131392517D01*
X180026784Y-131367831D01*
X180021801Y-131298141D01*
X180055285Y-131236818D01*
X180116608Y-131203333D01*
X180142967Y-131200499D01*
X182898544Y-131200499D01*
X183001916Y-131179936D01*
X183053604Y-131169655D01*
X183091837Y-131162050D01*
X183145166Y-131139960D01*
X183273915Y-131086631D01*
X183437783Y-130977138D01*
X183577140Y-130837781D01*
X183577141Y-130837778D01*
X183584207Y-130830713D01*
X183584210Y-130830709D01*
X184585990Y-129828928D01*
X184647311Y-129795445D01*
X184650838Y-129794731D01*
X184704940Y-129784618D01*
X184912401Y-129704247D01*
X185101562Y-129587124D01*
X185265981Y-129437236D01*
X185400058Y-129259689D01*
X185499229Y-129060528D01*
X185560115Y-128846536D01*
X185580643Y-128625000D01*
X185567756Y-128485930D01*
X185560115Y-128403464D01*
X185560114Y-128403462D01*
X185548013Y-128360932D01*
X185499229Y-128189472D01*
X185468002Y-128126760D01*
X185400061Y-127990316D01*
X185400056Y-127990308D01*
X185265979Y-127812761D01*
X185101562Y-127662876D01*
X185101560Y-127662874D01*
X184912404Y-127545754D01*
X184912398Y-127545752D01*
X184704940Y-127465382D01*
X184486243Y-127424500D01*
X184263757Y-127424500D01*
X184045060Y-127465382D01*
X183913864Y-127516207D01*
X183837601Y-127545752D01*
X183837595Y-127545754D01*
X183648439Y-127662874D01*
X183648437Y-127662876D01*
X183484020Y-127812761D01*
X183349943Y-127990308D01*
X183349936Y-127990320D01*
X183250775Y-128189462D01*
X183250768Y-128189480D01*
X183201985Y-128360932D01*
X183170400Y-128414678D01*
X182421900Y-129163180D01*
X182360577Y-129196665D01*
X182334219Y-129199499D01*
X174165782Y-129199499D01*
X174098743Y-129179814D01*
X174078101Y-129163180D01*
X173454598Y-128539678D01*
X173423013Y-128485932D01*
X173374229Y-128314472D01*
X173374224Y-128314461D01*
X173275061Y-128115316D01*
X173275056Y-128115308D01*
X173140979Y-127937761D01*
X172976562Y-127787876D01*
X172976560Y-127787874D01*
X172787404Y-127670754D01*
X172787398Y-127670752D01*
X172579940Y-127590382D01*
X172361243Y-127549500D01*
X172138757Y-127549500D01*
X171920060Y-127590382D01*
X171788864Y-127641207D01*
X171712601Y-127670752D01*
X171712595Y-127670754D01*
X171523439Y-127787874D01*
X171523437Y-127787876D01*
X171359020Y-127937761D01*
X171224943Y-128115308D01*
X171224938Y-128115316D01*
X171125775Y-128314461D01*
X171125769Y-128314476D01*
X171064885Y-128528462D01*
X171064884Y-128528464D01*
X171044357Y-128749999D01*
X116164919Y-128749999D01*
X117909405Y-127005513D01*
X177041400Y-127005513D01*
X177041400Y-127194486D01*
X177070959Y-127381118D01*
X177129354Y-127560836D01*
X177185360Y-127670753D01*
X177215140Y-127729199D01*
X177326210Y-127882073D01*
X177459827Y-128015690D01*
X177612701Y-128126760D01*
X177692247Y-128167290D01*
X177781063Y-128212545D01*
X177781065Y-128212545D01*
X177781068Y-128212547D01*
X177877397Y-128243846D01*
X177960781Y-128270940D01*
X178147414Y-128300500D01*
X178147419Y-128300500D01*
X178936386Y-128300500D01*
X179123018Y-128270940D01*
X179302732Y-128212547D01*
X179471099Y-128126760D01*
X179623973Y-128015690D01*
X179757590Y-127882073D01*
X179868660Y-127729199D01*
X179954447Y-127560832D01*
X180012840Y-127381118D01*
X180042400Y-127194486D01*
X180042400Y-127005513D01*
X180012840Y-126818881D01*
X179954445Y-126639163D01*
X179868659Y-126470800D01*
X179757590Y-126317927D01*
X179623973Y-126184310D01*
X179471099Y-126073240D01*
X179302736Y-125987454D01*
X179123018Y-125929059D01*
X178936386Y-125899500D01*
X178936381Y-125899500D01*
X178147419Y-125899500D01*
X178147414Y-125899500D01*
X177960781Y-125929059D01*
X177781063Y-125987454D01*
X177612700Y-126073240D01*
X177525479Y-126136610D01*
X177459827Y-126184310D01*
X177459825Y-126184312D01*
X177459824Y-126184312D01*
X177326212Y-126317924D01*
X177326212Y-126317925D01*
X177326210Y-126317927D01*
X177278510Y-126383579D01*
X177215140Y-126470800D01*
X177129354Y-126639163D01*
X177070959Y-126818881D01*
X177041400Y-127005513D01*
X117909405Y-127005513D01*
X121137778Y-123777141D01*
X121137782Y-123777139D01*
X121277139Y-123637782D01*
X121386632Y-123473914D01*
X121462051Y-123291835D01*
X121462125Y-123291467D01*
X121462233Y-123290923D01*
X121474478Y-123229361D01*
X121496539Y-123118452D01*
X121500500Y-123098541D01*
X121500500Y-118958769D01*
X121520185Y-118891730D01*
X121524761Y-118885167D01*
X121525053Y-118884694D01*
X121525058Y-118884689D01*
X121624229Y-118685528D01*
X121685115Y-118471536D01*
X121705643Y-118250000D01*
X121702072Y-118211467D01*
X121685115Y-118028464D01*
X121685114Y-118028462D01*
X121624230Y-117814476D01*
X121624229Y-117814472D01*
X121624224Y-117814461D01*
X121525061Y-117615316D01*
X121525056Y-117615308D01*
X121390979Y-117437761D01*
X121226562Y-117287876D01*
X121226560Y-117287874D01*
X121037404Y-117170754D01*
X121037398Y-117170752D01*
X120829940Y-117090382D01*
X120611243Y-117049500D01*
X120388757Y-117049500D01*
X120170060Y-117090382D01*
X120038864Y-117141207D01*
X119962601Y-117170752D01*
X119962595Y-117170754D01*
X119773439Y-117287874D01*
X119773437Y-117287876D01*
X119609020Y-117437761D01*
X119474943Y-117615308D01*
X119474938Y-117615316D01*
X119375775Y-117814461D01*
X119375769Y-117814476D01*
X119314885Y-118028462D01*
X119314884Y-118028464D01*
X119294357Y-118249999D01*
X119294357Y-118250000D01*
X119314884Y-118471535D01*
X119314885Y-118471537D01*
X119375769Y-118685523D01*
X119375775Y-118685538D01*
X119474938Y-118884683D01*
X119477959Y-118889561D01*
X119476805Y-118890275D01*
X119499145Y-118949389D01*
X119499500Y-118958769D01*
X119499500Y-122534217D01*
X119479815Y-122601256D01*
X119463181Y-122621898D01*
X114539009Y-127546069D01*
X114477686Y-127579554D01*
X114474115Y-127580276D01*
X114420068Y-127590380D01*
X114420060Y-127590382D01*
X114212601Y-127670751D01*
X114212595Y-127670754D01*
X114023439Y-127787874D01*
X114023437Y-127787876D01*
X113859020Y-127937761D01*
X113724943Y-128115308D01*
X113724938Y-128115316D01*
X113625775Y-128314461D01*
X113625769Y-128314476D01*
X113564885Y-128528462D01*
X113564884Y-128528464D01*
X113544357Y-128749999D01*
X78134146Y-128749999D01*
X78001179Y-120572556D01*
X78019771Y-120505208D01*
X78062680Y-120463436D01*
X80142857Y-119250000D01*
X106894815Y-119250000D01*
X106913503Y-119427805D01*
X106913504Y-119427807D01*
X106968747Y-119597829D01*
X106968750Y-119597835D01*
X107058141Y-119752665D01*
X107099812Y-119798946D01*
X107177764Y-119885521D01*
X107177767Y-119885523D01*
X107177770Y-119885526D01*
X107322407Y-119990612D01*
X107485733Y-120063329D01*
X107660609Y-120100500D01*
X107660610Y-120100500D01*
X107839389Y-120100500D01*
X107839391Y-120100500D01*
X108014267Y-120063329D01*
X108177593Y-119990612D01*
X108322230Y-119885526D01*
X108322238Y-119885517D01*
X108325755Y-119882351D01*
X108388747Y-119852121D01*
X108408729Y-119850500D01*
X109648697Y-119850500D01*
X109715736Y-119870185D01*
X109756084Y-119912500D01*
X109796051Y-119981725D01*
X109808141Y-120002665D01*
X109841758Y-120040000D01*
X109927764Y-120135521D01*
X109927767Y-120135523D01*
X109927770Y-120135526D01*
X110072407Y-120240612D01*
X110235733Y-120313329D01*
X110410609Y-120350500D01*
X110410610Y-120350500D01*
X110589389Y-120350500D01*
X110589391Y-120350500D01*
X110764267Y-120313329D01*
X110927593Y-120240612D01*
X111072230Y-120135526D01*
X111191859Y-120002665D01*
X111281250Y-119847835D01*
X111336497Y-119677803D01*
X111355185Y-119500000D01*
X111336497Y-119322197D01*
X111308873Y-119237181D01*
X111281252Y-119152170D01*
X111281249Y-119152164D01*
X111191859Y-118997335D01*
X111106172Y-118902170D01*
X111072235Y-118864478D01*
X111072232Y-118864476D01*
X111072231Y-118864475D01*
X111072230Y-118864474D01*
X110927593Y-118759388D01*
X110764267Y-118686671D01*
X110764265Y-118686670D01*
X110634861Y-118659165D01*
X110589391Y-118649500D01*
X110410609Y-118649500D01*
X110410608Y-118649500D01*
X110394246Y-118652977D01*
X110336382Y-118651461D01*
X110329061Y-118649499D01*
X110329057Y-118649499D01*
X110170943Y-118649499D01*
X110163347Y-118649499D01*
X110163331Y-118649500D01*
X108408729Y-118649500D01*
X108341690Y-118629815D01*
X108325755Y-118617649D01*
X108322233Y-118614477D01*
X108322230Y-118614474D01*
X108177593Y-118509388D01*
X108014267Y-118436671D01*
X108014265Y-118436670D01*
X107886594Y-118409533D01*
X107839391Y-118399500D01*
X107660609Y-118399500D01*
X107629954Y-118406015D01*
X107485733Y-118436670D01*
X107485728Y-118436672D01*
X107322408Y-118509387D01*
X107177768Y-118614475D01*
X107058140Y-118747336D01*
X106968750Y-118902164D01*
X106968747Y-118902170D01*
X106913504Y-119072192D01*
X106913503Y-119072194D01*
X106894815Y-119250000D01*
X80142857Y-119250000D01*
X81000000Y-118750000D01*
X81000000Y-111250000D01*
X65499999Y-111250000D01*
X64014852Y-111992573D01*
X63983716Y-112003256D01*
X61500000Y-112499999D01*
X61499999Y-112499999D01*
X60946595Y-114575269D01*
X60654276Y-115671467D01*
X60524547Y-116157950D01*
X60488254Y-116217654D01*
X60425443Y-116248258D01*
X60404734Y-116250000D01*
X57608564Y-116250000D01*
X57541525Y-116230315D01*
X57495770Y-116177511D01*
X57485652Y-116142388D01*
X57000000Y-112500000D01*
X53514713Y-112002101D01*
X53486197Y-111994478D01*
X51000002Y-111000000D01*
X50999998Y-110999999D01*
X36001020Y-111249983D01*
X35998954Y-111250000D01*
X35240566Y-111250000D01*
X35000000Y-124000000D01*
X23750500Y-124000000D01*
X23750500Y-107340000D01*
X260494659Y-107340000D01*
X260513975Y-107536129D01*
X260571188Y-107724733D01*
X260664086Y-107898532D01*
X260667473Y-107903601D01*
X260665836Y-107904694D01*
X260689596Y-107960663D01*
X260677795Y-108029529D01*
X260667109Y-108046156D01*
X260667473Y-108046399D01*
X260664086Y-108051467D01*
X260571188Y-108225266D01*
X260513975Y-108413870D01*
X260494659Y-108610000D01*
X260513975Y-108806129D01*
X260571188Y-108994733D01*
X260664086Y-109168532D01*
X260667473Y-109173601D01*
X260665836Y-109174694D01*
X260689596Y-109230663D01*
X260677795Y-109299529D01*
X260667109Y-109316156D01*
X260667473Y-109316399D01*
X260664086Y-109321467D01*
X260571188Y-109495266D01*
X260513975Y-109683870D01*
X260494659Y-109880000D01*
X260513975Y-110076129D01*
X260571188Y-110264733D01*
X260664086Y-110438532D01*
X260667473Y-110443601D01*
X260665836Y-110444694D01*
X260689596Y-110500663D01*
X260677795Y-110569529D01*
X260667109Y-110586156D01*
X260667473Y-110586399D01*
X260664086Y-110591467D01*
X260571188Y-110765266D01*
X260513975Y-110953870D01*
X260494659Y-111150000D01*
X260513975Y-111346129D01*
X260571188Y-111534733D01*
X260664086Y-111708532D01*
X260667473Y-111713601D01*
X260665836Y-111714694D01*
X260689596Y-111770663D01*
X260677795Y-111839529D01*
X260667109Y-111856156D01*
X260667473Y-111856399D01*
X260664086Y-111861467D01*
X260571188Y-112035266D01*
X260513975Y-112223870D01*
X260494659Y-112420000D01*
X260513975Y-112616129D01*
X260571188Y-112804733D01*
X260664086Y-112978532D01*
X260667473Y-112983601D01*
X260665836Y-112984694D01*
X260689596Y-113040663D01*
X260677795Y-113109529D01*
X260667109Y-113126156D01*
X260667473Y-113126399D01*
X260664086Y-113131467D01*
X260571188Y-113305266D01*
X260513975Y-113493870D01*
X260494659Y-113690000D01*
X260513975Y-113886129D01*
X260571188Y-114074733D01*
X260664086Y-114248532D01*
X260667473Y-114253601D01*
X260665836Y-114254694D01*
X260689596Y-114310663D01*
X260677795Y-114379529D01*
X260667109Y-114396156D01*
X260667473Y-114396399D01*
X260664086Y-114401467D01*
X260571188Y-114575266D01*
X260513975Y-114763870D01*
X260494659Y-114960000D01*
X260513975Y-115156129D01*
X260513976Y-115156132D01*
X260567677Y-115333161D01*
X260571188Y-115344733D01*
X260664086Y-115518532D01*
X260667473Y-115523601D01*
X260665836Y-115524694D01*
X260689596Y-115580663D01*
X260677795Y-115649529D01*
X260667109Y-115666156D01*
X260667473Y-115666399D01*
X260664086Y-115671467D01*
X260571188Y-115845266D01*
X260513975Y-116033870D01*
X260494659Y-116230000D01*
X260513975Y-116426129D01*
X260571188Y-116614733D01*
X260664086Y-116788532D01*
X260667473Y-116793601D01*
X260665836Y-116794694D01*
X260689596Y-116850663D01*
X260677795Y-116919529D01*
X260667109Y-116936156D01*
X260667473Y-116936399D01*
X260664086Y-116941467D01*
X260571188Y-117115266D01*
X260513975Y-117303870D01*
X260494659Y-117500000D01*
X260513975Y-117696129D01*
X260513976Y-117696132D01*
X260549875Y-117814476D01*
X260571188Y-117884733D01*
X260664086Y-118058532D01*
X260667473Y-118063601D01*
X260665836Y-118064694D01*
X260689596Y-118120663D01*
X260677795Y-118189529D01*
X260667109Y-118206156D01*
X260667473Y-118206399D01*
X260664086Y-118211467D01*
X260571188Y-118385266D01*
X260513975Y-118573870D01*
X260494659Y-118770000D01*
X260513975Y-118966129D01*
X260513976Y-118966132D01*
X260570410Y-119152170D01*
X260571188Y-119154733D01*
X260664086Y-119328532D01*
X260667473Y-119333601D01*
X260665836Y-119334694D01*
X260689596Y-119390663D01*
X260677795Y-119459529D01*
X260667109Y-119476156D01*
X260667473Y-119476399D01*
X260664086Y-119481467D01*
X260571188Y-119655266D01*
X260513975Y-119843870D01*
X260494659Y-120040000D01*
X260513975Y-120236129D01*
X260571188Y-120424733D01*
X260664086Y-120598532D01*
X260667473Y-120603601D01*
X260665836Y-120604694D01*
X260689596Y-120660663D01*
X260677795Y-120729529D01*
X260667109Y-120746156D01*
X260667473Y-120746399D01*
X260664086Y-120751467D01*
X260571188Y-120925266D01*
X260513975Y-121113870D01*
X260494659Y-121310000D01*
X260513975Y-121506129D01*
X260571188Y-121694733D01*
X260664086Y-121868532D01*
X260667473Y-121873601D01*
X260665836Y-121874694D01*
X260689596Y-121930663D01*
X260677795Y-121999529D01*
X260667109Y-122016156D01*
X260667473Y-122016399D01*
X260664086Y-122021467D01*
X260571188Y-122195266D01*
X260513975Y-122383870D01*
X260494659Y-122580000D01*
X260513975Y-122776129D01*
X260571188Y-122964733D01*
X260664086Y-123138532D01*
X260667473Y-123143601D01*
X260665836Y-123144694D01*
X260689596Y-123200663D01*
X260677795Y-123269529D01*
X260667109Y-123286156D01*
X260667473Y-123286399D01*
X260664086Y-123291467D01*
X260571188Y-123465266D01*
X260513975Y-123653870D01*
X260494659Y-123850000D01*
X260513975Y-124046129D01*
X260571188Y-124234733D01*
X260664086Y-124408532D01*
X260664090Y-124408539D01*
X260789116Y-124560883D01*
X260941460Y-124685909D01*
X260941467Y-124685913D01*
X261115266Y-124778811D01*
X261115269Y-124778811D01*
X261115273Y-124778814D01*
X261303868Y-124836024D01*
X261500000Y-124855341D01*
X261696132Y-124836024D01*
X261884727Y-124778814D01*
X262058538Y-124685910D01*
X262210883Y-124560883D01*
X262335910Y-124408538D01*
X262428814Y-124234727D01*
X262486024Y-124046132D01*
X262505341Y-123850000D01*
X262486024Y-123653868D01*
X262428814Y-123465273D01*
X262335910Y-123291462D01*
X262335907Y-123291458D01*
X262332523Y-123286393D01*
X262334164Y-123285296D01*
X262310405Y-123229361D01*
X262322194Y-123160493D01*
X262332888Y-123143851D01*
X262332523Y-123143607D01*
X262335904Y-123138544D01*
X262335910Y-123138538D01*
X262428814Y-122964727D01*
X262486024Y-122776132D01*
X262505341Y-122580000D01*
X262486024Y-122383868D01*
X262428814Y-122195273D01*
X262335910Y-122021462D01*
X262335907Y-122021458D01*
X262332523Y-122016393D01*
X262334164Y-122015296D01*
X262310405Y-121959361D01*
X262322194Y-121890493D01*
X262332888Y-121873851D01*
X262332523Y-121873607D01*
X262335904Y-121868544D01*
X262335910Y-121868538D01*
X262428814Y-121694727D01*
X262486024Y-121506132D01*
X262505341Y-121310000D01*
X262486024Y-121113868D01*
X262428814Y-120925273D01*
X262335910Y-120751462D01*
X262335907Y-120751458D01*
X262332523Y-120746393D01*
X262334164Y-120745296D01*
X262310405Y-120689361D01*
X262322194Y-120620493D01*
X262332888Y-120603851D01*
X262332523Y-120603607D01*
X262335904Y-120598544D01*
X262335910Y-120598538D01*
X262428814Y-120424727D01*
X262486024Y-120236132D01*
X262505341Y-120040000D01*
X262486024Y-119843868D01*
X262428814Y-119655273D01*
X262335910Y-119481462D01*
X262335907Y-119481458D01*
X262332523Y-119476393D01*
X262334164Y-119475296D01*
X262310405Y-119419361D01*
X262322194Y-119350493D01*
X262332888Y-119333851D01*
X262332523Y-119333607D01*
X262335904Y-119328544D01*
X262335910Y-119328538D01*
X262428814Y-119154727D01*
X262486024Y-118966132D01*
X262505341Y-118770000D01*
X262486024Y-118573868D01*
X262428814Y-118385273D01*
X262335910Y-118211462D01*
X262335907Y-118211458D01*
X262332523Y-118206393D01*
X262334164Y-118205296D01*
X262310405Y-118149361D01*
X262322194Y-118080493D01*
X262332888Y-118063851D01*
X262332523Y-118063607D01*
X262335904Y-118058544D01*
X262335910Y-118058538D01*
X262428814Y-117884727D01*
X262486024Y-117696132D01*
X262505341Y-117500000D01*
X262486024Y-117303868D01*
X262428814Y-117115273D01*
X262335910Y-116941462D01*
X262335907Y-116941458D01*
X262332523Y-116936393D01*
X262334164Y-116935296D01*
X262310405Y-116879361D01*
X262322194Y-116810493D01*
X262332888Y-116793851D01*
X262332523Y-116793607D01*
X262335904Y-116788544D01*
X262335910Y-116788538D01*
X262428814Y-116614727D01*
X262486024Y-116426132D01*
X262505341Y-116230000D01*
X262486024Y-116033868D01*
X262428814Y-115845273D01*
X262335910Y-115671462D01*
X262335907Y-115671458D01*
X262332523Y-115666393D01*
X262334164Y-115665296D01*
X262310405Y-115609361D01*
X262322194Y-115540493D01*
X262332888Y-115523851D01*
X262332523Y-115523607D01*
X262335904Y-115518544D01*
X262335910Y-115518538D01*
X262428814Y-115344727D01*
X262486024Y-115156132D01*
X262505341Y-114960000D01*
X262486024Y-114763868D01*
X262428814Y-114575273D01*
X262335910Y-114401462D01*
X262335907Y-114401458D01*
X262332523Y-114396393D01*
X262334164Y-114395296D01*
X262310405Y-114339361D01*
X262322194Y-114270493D01*
X262332888Y-114253851D01*
X262332523Y-114253607D01*
X262335904Y-114248544D01*
X262335910Y-114248538D01*
X262428814Y-114074727D01*
X262486024Y-113886132D01*
X262505341Y-113690000D01*
X262486024Y-113493868D01*
X262428814Y-113305273D01*
X262335910Y-113131462D01*
X262335907Y-113131458D01*
X262332523Y-113126393D01*
X262334164Y-113125296D01*
X262310405Y-113069361D01*
X262322194Y-113000493D01*
X262332888Y-112983851D01*
X262332523Y-112983607D01*
X262335904Y-112978544D01*
X262335910Y-112978538D01*
X262428814Y-112804727D01*
X262486024Y-112616132D01*
X262505341Y-112420000D01*
X262486024Y-112223868D01*
X262428814Y-112035273D01*
X262335910Y-111861462D01*
X262335907Y-111861458D01*
X262332523Y-111856393D01*
X262334164Y-111855296D01*
X262310405Y-111799361D01*
X262322194Y-111730493D01*
X262332888Y-111713851D01*
X262332523Y-111713607D01*
X262335904Y-111708544D01*
X262335910Y-111708538D01*
X262428814Y-111534727D01*
X262486024Y-111346132D01*
X262505341Y-111150000D01*
X262486024Y-110953868D01*
X262428814Y-110765273D01*
X262335910Y-110591462D01*
X262335907Y-110591458D01*
X262332523Y-110586393D01*
X262334164Y-110585296D01*
X262310405Y-110529361D01*
X262322194Y-110460493D01*
X262332888Y-110443851D01*
X262332523Y-110443607D01*
X262335904Y-110438544D01*
X262335910Y-110438538D01*
X262428814Y-110264727D01*
X262486024Y-110076132D01*
X262505341Y-109880000D01*
X262486024Y-109683868D01*
X262428814Y-109495273D01*
X262335910Y-109321462D01*
X262335907Y-109321458D01*
X262332523Y-109316393D01*
X262334164Y-109315296D01*
X262310405Y-109259361D01*
X262322194Y-109190493D01*
X262332888Y-109173851D01*
X262332523Y-109173607D01*
X262335904Y-109168544D01*
X262335910Y-109168538D01*
X262428814Y-108994727D01*
X262486024Y-108806132D01*
X262505341Y-108610000D01*
X262486024Y-108413868D01*
X262428814Y-108225273D01*
X262335910Y-108051462D01*
X262335907Y-108051458D01*
X262332523Y-108046393D01*
X262334164Y-108045296D01*
X262310405Y-107989361D01*
X262322194Y-107920493D01*
X262332888Y-107903851D01*
X262332523Y-107903607D01*
X262335904Y-107898544D01*
X262335910Y-107898538D01*
X262428814Y-107724727D01*
X262486024Y-107536132D01*
X262505341Y-107340000D01*
X262486024Y-107143868D01*
X262428814Y-106955273D01*
X262428811Y-106955269D01*
X262428811Y-106955266D01*
X262335913Y-106781467D01*
X262335909Y-106781460D01*
X262210883Y-106629116D01*
X262058539Y-106504090D01*
X262058532Y-106504086D01*
X261884733Y-106411188D01*
X261884727Y-106411186D01*
X261696132Y-106353976D01*
X261696129Y-106353975D01*
X261500000Y-106334659D01*
X261303870Y-106353975D01*
X261115266Y-106411188D01*
X260941467Y-106504086D01*
X260941460Y-106504090D01*
X260789116Y-106629116D01*
X260664090Y-106781460D01*
X260664086Y-106781467D01*
X260571188Y-106955266D01*
X260513975Y-107143870D01*
X260494659Y-107340000D01*
X23750500Y-107340000D01*
X23750500Y-104000000D01*
X93394815Y-104000000D01*
X93413503Y-104177805D01*
X93413504Y-104177807D01*
X93468747Y-104347829D01*
X93468750Y-104347835D01*
X93558141Y-104502665D01*
X93599812Y-104548946D01*
X93677764Y-104635521D01*
X93677767Y-104635523D01*
X93677770Y-104635526D01*
X93822407Y-104740612D01*
X93985733Y-104813329D01*
X94160609Y-104850500D01*
X94160610Y-104850500D01*
X94339388Y-104850500D01*
X94339391Y-104850500D01*
X94355747Y-104847023D01*
X94413623Y-104848538D01*
X94420942Y-104850500D01*
X94420943Y-104850500D01*
X95898697Y-104850500D01*
X95965736Y-104870185D01*
X96006084Y-104912500D01*
X96046051Y-104981725D01*
X96058141Y-105002665D01*
X96099812Y-105048946D01*
X96177764Y-105135521D01*
X96177767Y-105135523D01*
X96177770Y-105135526D01*
X96322407Y-105240612D01*
X96485733Y-105313329D01*
X96660609Y-105350500D01*
X96660610Y-105350500D01*
X96839389Y-105350500D01*
X96839391Y-105350500D01*
X97014267Y-105313329D01*
X97177593Y-105240612D01*
X97322230Y-105135526D01*
X97441859Y-105002665D01*
X97531250Y-104847835D01*
X97586497Y-104677803D01*
X97605185Y-104500000D01*
X97586497Y-104322197D01*
X97539581Y-104177805D01*
X97531252Y-104152170D01*
X97531249Y-104152164D01*
X97441859Y-103997335D01*
X97395003Y-103945296D01*
X97322235Y-103864478D01*
X97322232Y-103864476D01*
X97322231Y-103864475D01*
X97322230Y-103864474D01*
X97177593Y-103759388D01*
X97014267Y-103686671D01*
X97014265Y-103686670D01*
X96884861Y-103659165D01*
X96839391Y-103649500D01*
X96660609Y-103649500D01*
X96660608Y-103649500D01*
X96644246Y-103652977D01*
X96586382Y-103651461D01*
X96579061Y-103649499D01*
X96579057Y-103649499D01*
X96420943Y-103649499D01*
X96413347Y-103649499D01*
X96413331Y-103649500D01*
X95101303Y-103649500D01*
X95034264Y-103629815D01*
X94993916Y-103587500D01*
X94969462Y-103545146D01*
X94941859Y-103497335D01*
X94895003Y-103445296D01*
X94822235Y-103364478D01*
X94822232Y-103364476D01*
X94822231Y-103364475D01*
X94822230Y-103364474D01*
X94677593Y-103259388D01*
X94514267Y-103186671D01*
X94514265Y-103186670D01*
X94386594Y-103159533D01*
X94339391Y-103149500D01*
X94160609Y-103149500D01*
X94129954Y-103156015D01*
X93985733Y-103186670D01*
X93985728Y-103186672D01*
X93822408Y-103259387D01*
X93677768Y-103364475D01*
X93558140Y-103497336D01*
X93468750Y-103652164D01*
X93468747Y-103652170D01*
X93413504Y-103822192D01*
X93413503Y-103822194D01*
X93394815Y-104000000D01*
X23750500Y-104000000D01*
X23750500Y-94253800D01*
X30558618Y-94253800D01*
X30578903Y-94472713D01*
X30639069Y-94684179D01*
X30737063Y-94880976D01*
X30737068Y-94880984D01*
X30751051Y-94899500D01*
X30869558Y-95056429D01*
X31032032Y-95204543D01*
X31218955Y-95320281D01*
X31423963Y-95399702D01*
X31640073Y-95440100D01*
X31640075Y-95440100D01*
X31859925Y-95440100D01*
X31859927Y-95440100D01*
X32076037Y-95399702D01*
X32281045Y-95320281D01*
X32467968Y-95204543D01*
X32630442Y-95056429D01*
X32762933Y-94880982D01*
X32860931Y-94684177D01*
X32921096Y-94472716D01*
X32941382Y-94253800D01*
X32921096Y-94034884D01*
X32911171Y-94000000D01*
X90394815Y-94000000D01*
X90413503Y-94177805D01*
X90413504Y-94177807D01*
X90468747Y-94347829D01*
X90468750Y-94347835D01*
X90558141Y-94502665D01*
X90599812Y-94548946D01*
X90677764Y-94635521D01*
X90677767Y-94635523D01*
X90677770Y-94635526D01*
X90822407Y-94740612D01*
X90985733Y-94813329D01*
X91160609Y-94850500D01*
X91160610Y-94850500D01*
X91339389Y-94850500D01*
X91339391Y-94850500D01*
X91514267Y-94813329D01*
X91677593Y-94740612D01*
X91715734Y-94712900D01*
X91781538Y-94689419D01*
X91849592Y-94705243D01*
X91876300Y-94725535D01*
X92398099Y-95247335D01*
X92863066Y-95712302D01*
X92896551Y-95773625D01*
X92898706Y-95787021D01*
X92913503Y-95927804D01*
X92913504Y-95927807D01*
X92968747Y-96097829D01*
X92968750Y-96097835D01*
X93058141Y-96252665D01*
X93073087Y-96269264D01*
X93177764Y-96385521D01*
X93177767Y-96385523D01*
X93177770Y-96385526D01*
X93322407Y-96490612D01*
X93485733Y-96563329D01*
X93660609Y-96600500D01*
X93660610Y-96600500D01*
X93839389Y-96600500D01*
X93839391Y-96600500D01*
X94014267Y-96563329D01*
X94177593Y-96490612D01*
X94322230Y-96385526D01*
X94441859Y-96252665D01*
X94443398Y-96250000D01*
X114394815Y-96250000D01*
X114413503Y-96427805D01*
X114413504Y-96427807D01*
X114468747Y-96597829D01*
X114468750Y-96597835D01*
X114558141Y-96752665D01*
X114617650Y-96818756D01*
X114647880Y-96881747D01*
X114649500Y-96901728D01*
X114649500Y-97913330D01*
X114649499Y-97913348D01*
X114649499Y-98079053D01*
X114649498Y-98079053D01*
X114649499Y-98079056D01*
X114649499Y-98079057D01*
X114653092Y-98092467D01*
X114656637Y-98137516D01*
X114644815Y-98249999D01*
X114663503Y-98427805D01*
X114663504Y-98427807D01*
X114718747Y-98597829D01*
X114718750Y-98597835D01*
X114808141Y-98752665D01*
X114849812Y-98798946D01*
X114927764Y-98885521D01*
X114927767Y-98885523D01*
X114927770Y-98885526D01*
X115072407Y-98990612D01*
X115235733Y-99063329D01*
X115410609Y-99100500D01*
X115410610Y-99100500D01*
X115589389Y-99100500D01*
X115589391Y-99100500D01*
X115764267Y-99063329D01*
X115927593Y-98990612D01*
X116072230Y-98885526D01*
X116191859Y-98752665D01*
X116281250Y-98597835D01*
X116336497Y-98427803D01*
X116355185Y-98250000D01*
X116336497Y-98072197D01*
X116308873Y-97987181D01*
X116281252Y-97902170D01*
X116281249Y-97902164D01*
X116191859Y-97747335D01*
X116145003Y-97695296D01*
X116072235Y-97614478D01*
X116072232Y-97614476D01*
X116072231Y-97614475D01*
X116072230Y-97614474D01*
X115927593Y-97509388D01*
X115927592Y-97509387D01*
X115924056Y-97507813D01*
X115922345Y-97506358D01*
X115921970Y-97506142D01*
X115922009Y-97506073D01*
X115870822Y-97462558D01*
X115850506Y-97395708D01*
X115850500Y-97394537D01*
X115850500Y-96999994D01*
X138519443Y-96999994D01*
X138519443Y-97000005D01*
X138539634Y-97243683D01*
X138539636Y-97243695D01*
X138599663Y-97480734D01*
X138697888Y-97704666D01*
X138831632Y-97909378D01*
X138997242Y-98089277D01*
X138997252Y-98089286D01*
X139190208Y-98239470D01*
X139190212Y-98239473D01*
X139405267Y-98355855D01*
X139405270Y-98355856D01*
X139636541Y-98435251D01*
X139636543Y-98435251D01*
X139636545Y-98435252D01*
X139877737Y-98475500D01*
X139877738Y-98475500D01*
X140122262Y-98475500D01*
X140122263Y-98475500D01*
X140363455Y-98435252D01*
X140594733Y-98355855D01*
X140809788Y-98239473D01*
X141002754Y-98089281D01*
X141168368Y-97909377D01*
X141302111Y-97704667D01*
X141400336Y-97480736D01*
X141460364Y-97243692D01*
X141480557Y-97000000D01*
X141480557Y-96999994D01*
X143519443Y-96999994D01*
X143519443Y-97000005D01*
X143539634Y-97243683D01*
X143539636Y-97243695D01*
X143599663Y-97480734D01*
X143697888Y-97704666D01*
X143831632Y-97909378D01*
X143997242Y-98089277D01*
X143997252Y-98089286D01*
X144190208Y-98239470D01*
X144190212Y-98239473D01*
X144405267Y-98355855D01*
X144405270Y-98355856D01*
X144636541Y-98435251D01*
X144636543Y-98435251D01*
X144636545Y-98435252D01*
X144877737Y-98475500D01*
X144877738Y-98475500D01*
X145122262Y-98475500D01*
X145122263Y-98475500D01*
X145363455Y-98435252D01*
X145594733Y-98355855D01*
X145809788Y-98239473D01*
X146002754Y-98089281D01*
X146168368Y-97909377D01*
X146302111Y-97704667D01*
X146400336Y-97480736D01*
X146460364Y-97243692D01*
X146480557Y-97000000D01*
X146480034Y-96993692D01*
X146460365Y-96756316D01*
X146460363Y-96756304D01*
X146458765Y-96749994D01*
X175019443Y-96749994D01*
X175019443Y-96750005D01*
X175039634Y-96993683D01*
X175039636Y-96993695D01*
X175099663Y-97230734D01*
X175197888Y-97454666D01*
X175331632Y-97659378D01*
X175497242Y-97839277D01*
X175497252Y-97839286D01*
X175690208Y-97989470D01*
X175690212Y-97989473D01*
X175880522Y-98092464D01*
X175905267Y-98105855D01*
X175905270Y-98105856D01*
X176136541Y-98185251D01*
X176136543Y-98185251D01*
X176136545Y-98185252D01*
X176377737Y-98225500D01*
X176377738Y-98225500D01*
X176622262Y-98225500D01*
X176622263Y-98225500D01*
X176863455Y-98185252D01*
X177094733Y-98105855D01*
X177309788Y-97989473D01*
X177502754Y-97839281D01*
X177668368Y-97659377D01*
X177802111Y-97454667D01*
X177900336Y-97230736D01*
X177960364Y-96993692D01*
X177960365Y-96993683D01*
X177980557Y-96750005D01*
X177980557Y-96749994D01*
X180019443Y-96749994D01*
X180019443Y-96750005D01*
X180039634Y-96993683D01*
X180039636Y-96993695D01*
X180099663Y-97230734D01*
X180197888Y-97454666D01*
X180331632Y-97659378D01*
X180497242Y-97839277D01*
X180497252Y-97839286D01*
X180690208Y-97989470D01*
X180690212Y-97989473D01*
X180880522Y-98092464D01*
X180905267Y-98105855D01*
X180905270Y-98105856D01*
X181136541Y-98185251D01*
X181136543Y-98185251D01*
X181136545Y-98185252D01*
X181377737Y-98225500D01*
X181377738Y-98225500D01*
X181622262Y-98225500D01*
X181622263Y-98225500D01*
X181863455Y-98185252D01*
X182094733Y-98105855D01*
X182309788Y-97989473D01*
X182502754Y-97839281D01*
X182668368Y-97659377D01*
X182802111Y-97454667D01*
X182900336Y-97230736D01*
X182960364Y-96993692D01*
X182960365Y-96993683D01*
X182980557Y-96750005D01*
X182980557Y-96749994D01*
X182960365Y-96506316D01*
X182960363Y-96506304D01*
X182929776Y-96385521D01*
X182900336Y-96269264D01*
X182802111Y-96045333D01*
X182714160Y-95910713D01*
X182668367Y-95840621D01*
X182502757Y-95660722D01*
X182502747Y-95660713D01*
X182309791Y-95510529D01*
X182309787Y-95510526D01*
X182094734Y-95394145D01*
X182094729Y-95394143D01*
X181863458Y-95314748D01*
X181682561Y-95284562D01*
X181622263Y-95274500D01*
X181377737Y-95274500D01*
X181329498Y-95282549D01*
X181136541Y-95314748D01*
X180905270Y-95394143D01*
X180905265Y-95394145D01*
X180690212Y-95510526D01*
X180690208Y-95510529D01*
X180497252Y-95660713D01*
X180497242Y-95660722D01*
X180331632Y-95840621D01*
X180197888Y-96045333D01*
X180099663Y-96269265D01*
X180039636Y-96506304D01*
X180039634Y-96506316D01*
X180019443Y-96749994D01*
X177980557Y-96749994D01*
X177960365Y-96506316D01*
X177960363Y-96506304D01*
X177929776Y-96385521D01*
X177900336Y-96269264D01*
X177802111Y-96045333D01*
X177714160Y-95910713D01*
X177668367Y-95840621D01*
X177502757Y-95660722D01*
X177502747Y-95660713D01*
X177309791Y-95510529D01*
X177309787Y-95510526D01*
X177094734Y-95394145D01*
X177094729Y-95394143D01*
X176863458Y-95314748D01*
X176682561Y-95284562D01*
X176622263Y-95274500D01*
X176377737Y-95274500D01*
X176329498Y-95282549D01*
X176136541Y-95314748D01*
X175905270Y-95394143D01*
X175905265Y-95394145D01*
X175690212Y-95510526D01*
X175690208Y-95510529D01*
X175497252Y-95660713D01*
X175497242Y-95660722D01*
X175331632Y-95840621D01*
X175197888Y-96045333D01*
X175099663Y-96269265D01*
X175039636Y-96506304D01*
X175039634Y-96506316D01*
X175019443Y-96749994D01*
X146458765Y-96749994D01*
X146400336Y-96519265D01*
X146360217Y-96427803D01*
X146302111Y-96295333D01*
X146274235Y-96252665D01*
X146168367Y-96090621D01*
X146002757Y-95910722D01*
X146002747Y-95910713D01*
X145809791Y-95760529D01*
X145809787Y-95760526D01*
X145594734Y-95644145D01*
X145594729Y-95644143D01*
X145363458Y-95564748D01*
X145182561Y-95534562D01*
X145122263Y-95524500D01*
X144877737Y-95524500D01*
X144829498Y-95532549D01*
X144636541Y-95564748D01*
X144405270Y-95644143D01*
X144405265Y-95644145D01*
X144190212Y-95760526D01*
X144190208Y-95760529D01*
X143997252Y-95910713D01*
X143997242Y-95910722D01*
X143831632Y-96090621D01*
X143697888Y-96295333D01*
X143599663Y-96519265D01*
X143539636Y-96756304D01*
X143539634Y-96756316D01*
X143519443Y-96999994D01*
X141480557Y-96999994D01*
X141480034Y-96993692D01*
X141460365Y-96756316D01*
X141460363Y-96756304D01*
X141400336Y-96519265D01*
X141360217Y-96427803D01*
X141302111Y-96295333D01*
X141274235Y-96252665D01*
X141168367Y-96090621D01*
X141002757Y-95910722D01*
X141002747Y-95910713D01*
X140809791Y-95760529D01*
X140809787Y-95760526D01*
X140594734Y-95644145D01*
X140594729Y-95644143D01*
X140363458Y-95564748D01*
X140182561Y-95534562D01*
X140122263Y-95524500D01*
X139877737Y-95524500D01*
X139829498Y-95532549D01*
X139636541Y-95564748D01*
X139405270Y-95644143D01*
X139405265Y-95644145D01*
X139190212Y-95760526D01*
X139190208Y-95760529D01*
X138997252Y-95910713D01*
X138997242Y-95910722D01*
X138831632Y-96090621D01*
X138697888Y-96295333D01*
X138599663Y-96519265D01*
X138539636Y-96756304D01*
X138539634Y-96756316D01*
X138519443Y-96999994D01*
X115850500Y-96999994D01*
X115850500Y-96901728D01*
X115870185Y-96834689D01*
X115882350Y-96818756D01*
X115941859Y-96752665D01*
X116031250Y-96597835D01*
X116086497Y-96427803D01*
X116105185Y-96250000D01*
X116086497Y-96072197D01*
X116039581Y-95927804D01*
X116031252Y-95902170D01*
X116031249Y-95902164D01*
X115941859Y-95747335D01*
X115895003Y-95695296D01*
X115822235Y-95614478D01*
X115822232Y-95614476D01*
X115822231Y-95614475D01*
X115822230Y-95614474D01*
X115677593Y-95509388D01*
X115514267Y-95436671D01*
X115514265Y-95436670D01*
X115351952Y-95402170D01*
X115339391Y-95399500D01*
X115160609Y-95399500D01*
X115148048Y-95402170D01*
X114985733Y-95436670D01*
X114985728Y-95436672D01*
X114822408Y-95509387D01*
X114677768Y-95614475D01*
X114558140Y-95747336D01*
X114468750Y-95902164D01*
X114468747Y-95902170D01*
X114413504Y-96072192D01*
X114413503Y-96072194D01*
X114394815Y-96250000D01*
X94443398Y-96250000D01*
X94531250Y-96097835D01*
X94586497Y-95927803D01*
X94605185Y-95750000D01*
X94586497Y-95572197D01*
X94542462Y-95436671D01*
X94531252Y-95402170D01*
X94531249Y-95402164D01*
X94529711Y-95399500D01*
X94441859Y-95247335D01*
X94395003Y-95195296D01*
X94322235Y-95114478D01*
X94322232Y-95114476D01*
X94322231Y-95114475D01*
X94322230Y-95114474D01*
X94177593Y-95009388D01*
X94014267Y-94936671D01*
X94014265Y-94936670D01*
X93886594Y-94909533D01*
X93839391Y-94899500D01*
X93839390Y-94899500D01*
X93800098Y-94899500D01*
X93733059Y-94879815D01*
X93712417Y-94863181D01*
X92487590Y-93638355D01*
X92487588Y-93638352D01*
X92368717Y-93519481D01*
X92368716Y-93519480D01*
X92281904Y-93469360D01*
X92281904Y-93469359D01*
X92281900Y-93469358D01*
X92231785Y-93440423D01*
X92079057Y-93399499D01*
X91920943Y-93399499D01*
X91913347Y-93399499D01*
X91913331Y-93399500D01*
X91908729Y-93399500D01*
X91841690Y-93379815D01*
X91825755Y-93367649D01*
X91822233Y-93364477D01*
X91822230Y-93364474D01*
X91677593Y-93259388D01*
X91514267Y-93186671D01*
X91514265Y-93186670D01*
X91386594Y-93159533D01*
X91339391Y-93149500D01*
X91160609Y-93149500D01*
X91129954Y-93156015D01*
X90985733Y-93186670D01*
X90985728Y-93186672D01*
X90822408Y-93259387D01*
X90677768Y-93364475D01*
X90558140Y-93497336D01*
X90468750Y-93652164D01*
X90468747Y-93652170D01*
X90413504Y-93822192D01*
X90413503Y-93822194D01*
X90394815Y-94000000D01*
X32911171Y-94000000D01*
X32860931Y-93823423D01*
X32860321Y-93822197D01*
X32762936Y-93626623D01*
X32762931Y-93626615D01*
X32682026Y-93519480D01*
X32630442Y-93451171D01*
X32467968Y-93303057D01*
X32397442Y-93259389D01*
X32281046Y-93187319D01*
X32281044Y-93187318D01*
X32183423Y-93149500D01*
X32076037Y-93107898D01*
X31859927Y-93067500D01*
X31640073Y-93067500D01*
X31423963Y-93107898D01*
X31366719Y-93130074D01*
X31218955Y-93187318D01*
X31218953Y-93187319D01*
X31032036Y-93303054D01*
X31032034Y-93303055D01*
X31032032Y-93303057D01*
X30926240Y-93399499D01*
X30869557Y-93451172D01*
X30737068Y-93626615D01*
X30737063Y-93626623D01*
X30639069Y-93823420D01*
X30578903Y-94034886D01*
X30558618Y-94253800D01*
X23750500Y-94253800D01*
X23750500Y-92499994D01*
X57519443Y-92499994D01*
X57519443Y-92500005D01*
X57539634Y-92743683D01*
X57539636Y-92743695D01*
X57599663Y-92980734D01*
X57697888Y-93204666D01*
X57831632Y-93409378D01*
X57997242Y-93589277D01*
X57997252Y-93589286D01*
X58190208Y-93739470D01*
X58190212Y-93739473D01*
X58405267Y-93855855D01*
X58405270Y-93855856D01*
X58636541Y-93935251D01*
X58636543Y-93935251D01*
X58636545Y-93935252D01*
X58877737Y-93975500D01*
X58877738Y-93975500D01*
X59122262Y-93975500D01*
X59122263Y-93975500D01*
X59363455Y-93935252D01*
X59594733Y-93855855D01*
X59809788Y-93739473D01*
X60002754Y-93589281D01*
X60168368Y-93409377D01*
X60302111Y-93204667D01*
X60400336Y-92980736D01*
X60460364Y-92743692D01*
X60480557Y-92500000D01*
X60468690Y-92356793D01*
X60460365Y-92256316D01*
X60460363Y-92256304D01*
X60454779Y-92234255D01*
X60400336Y-92019264D01*
X60302111Y-91795333D01*
X60277502Y-91757666D01*
X60168367Y-91590621D01*
X60002757Y-91410722D01*
X60002747Y-91410713D01*
X59809791Y-91260529D01*
X59809787Y-91260526D01*
X59753380Y-91230000D01*
X111414659Y-91230000D01*
X111433975Y-91426129D01*
X111433976Y-91426132D01*
X111483873Y-91590621D01*
X111491187Y-91614729D01*
X111492321Y-91616850D01*
X111492580Y-91618094D01*
X111493518Y-91620359D01*
X111493088Y-91620536D01*
X111506564Y-91685253D01*
X111482233Y-91749614D01*
X111476205Y-91757666D01*
X111476202Y-91757671D01*
X111425908Y-91892517D01*
X111419501Y-91952116D01*
X111419500Y-91952135D01*
X111419500Y-93047870D01*
X111419501Y-93047876D01*
X111425908Y-93107483D01*
X111476202Y-93242328D01*
X111476206Y-93242335D01*
X111562452Y-93357544D01*
X111562455Y-93357547D01*
X111677664Y-93443793D01*
X111677671Y-93443797D01*
X111812517Y-93494091D01*
X111812516Y-93494091D01*
X111819444Y-93494835D01*
X111872127Y-93500500D01*
X112967872Y-93500499D01*
X113027483Y-93494091D01*
X113162331Y-93443796D01*
X113170379Y-93437770D01*
X113235842Y-93413351D01*
X113299474Y-93426895D01*
X113299645Y-93426483D01*
X113301875Y-93427406D01*
X113303146Y-93427677D01*
X113305273Y-93428814D01*
X113493868Y-93486024D01*
X113690000Y-93505341D01*
X113886132Y-93486024D01*
X114074727Y-93428814D01*
X114076853Y-93427678D01*
X114166398Y-93379815D01*
X114248538Y-93335910D01*
X114400883Y-93210883D01*
X114525910Y-93058538D01*
X114618814Y-92884727D01*
X114676024Y-92696132D01*
X114695341Y-92500000D01*
X114681236Y-92356791D01*
X114694255Y-92288147D01*
X114742320Y-92237437D01*
X114810170Y-92220762D01*
X114816771Y-92221234D01*
X114960000Y-92235341D01*
X115156132Y-92216024D01*
X115344727Y-92158814D01*
X115518538Y-92065910D01*
X115518544Y-92065904D01*
X115523607Y-92062523D01*
X115524703Y-92064164D01*
X115580639Y-92040405D01*
X115649507Y-92052194D01*
X115666148Y-92062888D01*
X115666393Y-92062523D01*
X115671458Y-92065907D01*
X115671462Y-92065910D01*
X115845273Y-92158814D01*
X116033868Y-92216024D01*
X116230000Y-92235341D01*
X116373208Y-92221236D01*
X116441852Y-92234255D01*
X116492562Y-92282320D01*
X116509237Y-92350170D01*
X116508763Y-92356793D01*
X116494659Y-92499999D01*
X116494659Y-92500000D01*
X116497028Y-92524054D01*
X116513975Y-92696129D01*
X116571188Y-92884733D01*
X116664086Y-93058532D01*
X116664090Y-93058539D01*
X116789116Y-93210883D01*
X116941460Y-93335909D01*
X116941467Y-93335913D01*
X117115266Y-93428811D01*
X117115269Y-93428811D01*
X117115273Y-93428814D01*
X117303868Y-93486024D01*
X117500000Y-93505341D01*
X117696132Y-93486024D01*
X117884727Y-93428814D01*
X117886853Y-93427678D01*
X117976398Y-93379815D01*
X118058538Y-93335910D01*
X118210883Y-93210883D01*
X118335910Y-93058538D01*
X118428814Y-92884727D01*
X118486024Y-92696132D01*
X118505341Y-92500000D01*
X118491236Y-92356791D01*
X118504255Y-92288147D01*
X118552320Y-92237437D01*
X118620170Y-92220762D01*
X118626771Y-92221234D01*
X118770000Y-92235341D01*
X118913208Y-92221236D01*
X118981852Y-92234255D01*
X119032562Y-92282320D01*
X119049237Y-92350170D01*
X119048763Y-92356793D01*
X119034659Y-92499999D01*
X119034659Y-92500000D01*
X119037028Y-92524054D01*
X119053975Y-92696129D01*
X119111188Y-92884733D01*
X119204086Y-93058532D01*
X119204090Y-93058539D01*
X119329116Y-93210883D01*
X119481460Y-93335909D01*
X119481467Y-93335913D01*
X119655266Y-93428811D01*
X119655269Y-93428811D01*
X119655273Y-93428814D01*
X119843868Y-93486024D01*
X120040000Y-93505341D01*
X120236132Y-93486024D01*
X120424727Y-93428814D01*
X120426853Y-93427678D01*
X120516398Y-93379815D01*
X120598538Y-93335910D01*
X120750883Y-93210883D01*
X120875910Y-93058538D01*
X120968814Y-92884727D01*
X121026024Y-92696132D01*
X121045341Y-92500000D01*
X121026024Y-92303868D01*
X120968814Y-92115273D01*
X120875910Y-91941462D01*
X120875907Y-91941458D01*
X120872523Y-91936393D01*
X120874164Y-91935296D01*
X120850405Y-91879361D01*
X120862194Y-91810493D01*
X120872888Y-91793851D01*
X120872523Y-91793607D01*
X120875904Y-91788544D01*
X120875910Y-91788538D01*
X120968814Y-91614727D01*
X121026024Y-91426132D01*
X121045341Y-91230000D01*
X121026024Y-91033868D01*
X120968814Y-90845273D01*
X120968811Y-90845269D01*
X120968811Y-90845266D01*
X120875913Y-90671467D01*
X120875909Y-90671460D01*
X120750883Y-90519116D01*
X120598539Y-90394090D01*
X120598532Y-90394086D01*
X120424733Y-90301188D01*
X120424727Y-90301186D01*
X120255994Y-90250001D01*
X120255984Y-90249998D01*
X157244390Y-90249998D01*
X157244390Y-90250001D01*
X157264804Y-90535433D01*
X157325628Y-90815037D01*
X157325630Y-90815043D01*
X157325631Y-90815046D01*
X157418765Y-91064748D01*
X157425635Y-91083166D01*
X157562770Y-91334309D01*
X157562775Y-91334317D01*
X157734254Y-91563387D01*
X157734270Y-91563405D01*
X157936594Y-91765729D01*
X157936612Y-91765745D01*
X158165682Y-91937224D01*
X158165690Y-91937229D01*
X158416833Y-92074364D01*
X158416832Y-92074364D01*
X158416836Y-92074365D01*
X158416839Y-92074367D01*
X158684954Y-92174369D01*
X158684960Y-92174370D01*
X158684962Y-92174371D01*
X158964566Y-92235195D01*
X158964568Y-92235195D01*
X158964572Y-92235196D01*
X159218220Y-92253337D01*
X159249999Y-92255610D01*
X159250000Y-92255610D01*
X159250001Y-92255610D01*
X159278595Y-92253564D01*
X159535428Y-92235196D01*
X159599602Y-92221236D01*
X159815037Y-92174371D01*
X159815037Y-92174370D01*
X159815046Y-92174369D01*
X160083161Y-92074367D01*
X160334315Y-91937226D01*
X160563395Y-91765739D01*
X160765739Y-91563395D01*
X160937226Y-91334315D01*
X161074367Y-91083161D01*
X161174369Y-90815046D01*
X161235196Y-90535428D01*
X161255610Y-90250000D01*
X161235196Y-89964572D01*
X161174369Y-89684954D01*
X161074367Y-89416839D01*
X160937226Y-89165685D01*
X160937224Y-89165682D01*
X160765745Y-88936612D01*
X160765729Y-88936594D01*
X160563405Y-88734270D01*
X160563387Y-88734254D01*
X160334317Y-88562775D01*
X160334309Y-88562770D01*
X160083166Y-88425635D01*
X160083167Y-88425635D01*
X159975915Y-88385632D01*
X159815046Y-88325631D01*
X159815043Y-88325630D01*
X159815037Y-88325628D01*
X159535433Y-88264804D01*
X159250001Y-88244390D01*
X159249999Y-88244390D01*
X158964566Y-88264804D01*
X158684962Y-88325628D01*
X158416833Y-88425635D01*
X158165690Y-88562770D01*
X158165682Y-88562775D01*
X157936612Y-88734254D01*
X157936594Y-88734270D01*
X157734270Y-88936594D01*
X157734254Y-88936612D01*
X157562775Y-89165682D01*
X157562770Y-89165690D01*
X157425635Y-89416833D01*
X157325628Y-89684962D01*
X157264804Y-89964566D01*
X157244390Y-90249998D01*
X120255984Y-90249998D01*
X120236129Y-90243975D01*
X120040000Y-90224659D01*
X119843870Y-90243975D01*
X119655266Y-90301188D01*
X119481467Y-90394086D01*
X119476399Y-90397473D01*
X119475305Y-90395836D01*
X119419337Y-90419596D01*
X119350471Y-90407795D01*
X119333843Y-90397109D01*
X119333601Y-90397473D01*
X119328532Y-90394086D01*
X119154733Y-90301188D01*
X119154727Y-90301186D01*
X118985994Y-90250001D01*
X118966129Y-90243975D01*
X118770000Y-90224659D01*
X118573870Y-90243975D01*
X118385266Y-90301188D01*
X118211467Y-90394086D01*
X118206399Y-90397473D01*
X118205305Y-90395836D01*
X118149337Y-90419596D01*
X118080471Y-90407795D01*
X118063843Y-90397109D01*
X118063601Y-90397473D01*
X118058532Y-90394086D01*
X117884733Y-90301188D01*
X117884727Y-90301186D01*
X117715994Y-90250001D01*
X117696129Y-90243975D01*
X117500000Y-90224659D01*
X117303870Y-90243975D01*
X117115266Y-90301188D01*
X116941467Y-90394086D01*
X116936399Y-90397473D01*
X116935305Y-90395836D01*
X116879337Y-90419596D01*
X116810471Y-90407795D01*
X116793843Y-90397109D01*
X116793601Y-90397473D01*
X116788532Y-90394086D01*
X116614733Y-90301188D01*
X116614727Y-90301186D01*
X116445994Y-90250001D01*
X116426129Y-90243975D01*
X116230000Y-90224659D01*
X116033870Y-90243975D01*
X115845266Y-90301188D01*
X115671467Y-90394086D01*
X115666399Y-90397473D01*
X115665305Y-90395836D01*
X115609337Y-90419596D01*
X115540471Y-90407795D01*
X115523843Y-90397109D01*
X115523601Y-90397473D01*
X115518532Y-90394086D01*
X115344733Y-90301188D01*
X115344727Y-90301186D01*
X115175994Y-90250001D01*
X115156129Y-90243975D01*
X114960000Y-90224659D01*
X114763870Y-90243975D01*
X114575266Y-90301188D01*
X114401467Y-90394086D01*
X114396399Y-90397473D01*
X114395305Y-90395836D01*
X114339337Y-90419596D01*
X114270471Y-90407795D01*
X114253843Y-90397109D01*
X114253601Y-90397473D01*
X114248532Y-90394086D01*
X114074733Y-90301188D01*
X114074727Y-90301186D01*
X113905994Y-90250001D01*
X113886129Y-90243975D01*
X113690000Y-90224659D01*
X113493870Y-90243975D01*
X113305266Y-90301188D01*
X113131467Y-90394086D01*
X113126399Y-90397473D01*
X113125305Y-90395836D01*
X113069337Y-90419596D01*
X113000471Y-90407795D01*
X112983843Y-90397109D01*
X112983601Y-90397473D01*
X112978532Y-90394086D01*
X112804733Y-90301188D01*
X112804727Y-90301186D01*
X112635994Y-90250001D01*
X112616129Y-90243975D01*
X112420000Y-90224659D01*
X112223870Y-90243975D01*
X112035266Y-90301188D01*
X111861467Y-90394086D01*
X111861460Y-90394090D01*
X111709116Y-90519116D01*
X111584090Y-90671460D01*
X111584086Y-90671467D01*
X111491188Y-90845266D01*
X111433975Y-91033870D01*
X111414659Y-91230000D01*
X59753380Y-91230000D01*
X59594734Y-91144145D01*
X59594729Y-91144143D01*
X59363458Y-91064748D01*
X59178402Y-91033868D01*
X59122263Y-91024500D01*
X58877737Y-91024500D01*
X58829498Y-91032549D01*
X58636541Y-91064748D01*
X58405270Y-91144143D01*
X58405265Y-91144145D01*
X58190212Y-91260526D01*
X58190208Y-91260529D01*
X57997252Y-91410713D01*
X57997242Y-91410722D01*
X57831632Y-91590621D01*
X57697888Y-91795333D01*
X57599663Y-92019265D01*
X57539636Y-92256304D01*
X57539634Y-92256316D01*
X57519443Y-92499994D01*
X23750500Y-92499994D01*
X23750500Y-86477135D01*
X57524500Y-86477135D01*
X57524500Y-88522870D01*
X57524501Y-88522876D01*
X57530908Y-88582483D01*
X57581202Y-88717328D01*
X57581206Y-88717335D01*
X57667452Y-88832544D01*
X57667455Y-88832547D01*
X57782664Y-88918793D01*
X57782671Y-88918797D01*
X57917517Y-88969091D01*
X57917516Y-88969091D01*
X57924444Y-88969835D01*
X57977127Y-88975500D01*
X60022872Y-88975499D01*
X60082483Y-88969091D01*
X60217331Y-88918796D01*
X60332546Y-88832546D01*
X60418796Y-88717331D01*
X60469091Y-88582483D01*
X60475500Y-88522873D01*
X60475500Y-87525000D01*
X105394815Y-87525000D01*
X105413503Y-87702805D01*
X105413504Y-87702807D01*
X105468747Y-87872829D01*
X105468750Y-87872835D01*
X105558141Y-88027665D01*
X105598233Y-88072192D01*
X105677764Y-88160521D01*
X105677767Y-88160523D01*
X105677770Y-88160526D01*
X105822407Y-88265612D01*
X105985733Y-88338329D01*
X106160609Y-88375500D01*
X106160610Y-88375500D01*
X106339389Y-88375500D01*
X106339391Y-88375500D01*
X106514267Y-88338329D01*
X106677593Y-88265612D01*
X106822230Y-88160526D01*
X106941859Y-88027665D01*
X107031250Y-87872835D01*
X107086497Y-87702803D01*
X107101294Y-87562016D01*
X107127877Y-87497405D01*
X107136924Y-87487309D01*
X108108506Y-86515728D01*
X108108511Y-86515724D01*
X108118714Y-86505520D01*
X108118716Y-86505520D01*
X108230520Y-86393716D01*
X108309577Y-86256784D01*
X108350500Y-86104057D01*
X108350500Y-85901728D01*
X108370185Y-85834689D01*
X108382350Y-85818756D01*
X108389294Y-85811044D01*
X108441859Y-85752665D01*
X108531250Y-85597835D01*
X108586497Y-85427803D01*
X108605185Y-85250000D01*
X108586497Y-85072197D01*
X108531250Y-84902165D01*
X108441859Y-84747335D01*
X108395003Y-84695296D01*
X108322235Y-84614478D01*
X108322232Y-84614476D01*
X108322231Y-84614475D01*
X108322230Y-84614474D01*
X108177593Y-84509388D01*
X108014267Y-84436671D01*
X108014265Y-84436670D01*
X107886594Y-84409533D01*
X107839391Y-84399500D01*
X107660609Y-84399500D01*
X107629954Y-84406015D01*
X107485733Y-84436670D01*
X107485728Y-84436672D01*
X107322408Y-84509387D01*
X107177768Y-84614475D01*
X107058140Y-84747336D01*
X106968750Y-84902164D01*
X106968747Y-84902170D01*
X106913504Y-85072192D01*
X106913503Y-85072194D01*
X106894815Y-85250000D01*
X106913503Y-85427805D01*
X106913504Y-85427807D01*
X106968747Y-85597829D01*
X106968750Y-85597835D01*
X107052644Y-85743144D01*
X107069117Y-85811044D01*
X107046264Y-85877071D01*
X107032938Y-85892825D01*
X106287584Y-86638181D01*
X106226261Y-86671666D01*
X106199903Y-86674500D01*
X106160609Y-86674500D01*
X106129954Y-86681015D01*
X105985733Y-86711670D01*
X105985728Y-86711672D01*
X105822408Y-86784387D01*
X105677768Y-86889475D01*
X105558140Y-87022336D01*
X105468750Y-87177164D01*
X105468747Y-87177170D01*
X105413504Y-87347192D01*
X105413503Y-87347194D01*
X105394815Y-87525000D01*
X60475500Y-87525000D01*
X60475499Y-86477128D01*
X60469091Y-86417517D01*
X60460214Y-86393717D01*
X60418797Y-86282671D01*
X60418793Y-86282664D01*
X60394341Y-86250000D01*
X100144815Y-86250000D01*
X100163503Y-86427805D01*
X100163504Y-86427807D01*
X100218747Y-86597829D01*
X100218750Y-86597835D01*
X100308141Y-86752665D01*
X100336704Y-86784387D01*
X100427764Y-86885521D01*
X100427767Y-86885523D01*
X100427770Y-86885526D01*
X100572407Y-86990612D01*
X100735733Y-87063329D01*
X100910609Y-87100500D01*
X100910610Y-87100500D01*
X101089389Y-87100500D01*
X101089391Y-87100500D01*
X101264267Y-87063329D01*
X101427593Y-86990612D01*
X101572230Y-86885526D01*
X101691859Y-86752665D01*
X101781250Y-86597835D01*
X101804644Y-86525834D01*
X101834890Y-86476476D01*
X104274548Y-84036819D01*
X104335871Y-84003334D01*
X104362229Y-84000500D01*
X108568259Y-84000500D01*
X108618693Y-84011219D01*
X108735733Y-84063329D01*
X108910609Y-84100500D01*
X108910610Y-84100500D01*
X109089389Y-84100500D01*
X109089391Y-84100500D01*
X109264267Y-84063329D01*
X109427593Y-83990612D01*
X109572230Y-83885526D01*
X109691859Y-83752665D01*
X109781250Y-83597835D01*
X109836497Y-83427803D01*
X109855185Y-83250000D01*
X109836497Y-83072197D01*
X109808873Y-82987181D01*
X109781252Y-82902170D01*
X109781249Y-82902164D01*
X109771643Y-82885526D01*
X109691859Y-82747335D01*
X109606172Y-82652170D01*
X109572235Y-82614478D01*
X109572232Y-82614476D01*
X109572231Y-82614475D01*
X109572230Y-82614474D01*
X109427593Y-82509388D01*
X109264267Y-82436671D01*
X109264265Y-82436670D01*
X109136594Y-82409533D01*
X109089391Y-82399500D01*
X108910609Y-82399500D01*
X108879954Y-82406015D01*
X108735733Y-82436670D01*
X108618694Y-82488780D01*
X108568259Y-82499500D01*
X103926076Y-82499500D01*
X103897242Y-82505234D01*
X103897243Y-82505235D01*
X103781093Y-82528339D01*
X103781089Y-82528340D01*
X103705679Y-82559577D01*
X103705678Y-82559577D01*
X103644511Y-82584912D01*
X103644499Y-82584919D01*
X103593921Y-82618715D01*
X103521582Y-82667049D01*
X103521579Y-82667052D01*
X100780820Y-85407810D01*
X100740894Y-85432289D01*
X100741669Y-85434029D01*
X100735736Y-85436670D01*
X100735733Y-85436671D01*
X100572408Y-85509388D01*
X100572406Y-85509389D01*
X100427768Y-85614475D01*
X100308140Y-85747336D01*
X100218750Y-85902164D01*
X100218747Y-85902170D01*
X100163504Y-86072192D01*
X100163503Y-86072194D01*
X100144815Y-86250000D01*
X60394341Y-86250000D01*
X60332547Y-86167455D01*
X60332544Y-86167452D01*
X60217335Y-86081206D01*
X60217328Y-86081202D01*
X60082482Y-86030908D01*
X60082483Y-86030908D01*
X60022883Y-86024501D01*
X60022881Y-86024500D01*
X60022873Y-86024500D01*
X60022864Y-86024500D01*
X57977129Y-86024500D01*
X57977123Y-86024501D01*
X57917516Y-86030908D01*
X57782671Y-86081202D01*
X57782664Y-86081206D01*
X57667455Y-86167452D01*
X57667452Y-86167455D01*
X57581206Y-86282664D01*
X57581202Y-86282671D01*
X57530908Y-86417517D01*
X57524570Y-86476474D01*
X57524501Y-86477123D01*
X57524500Y-86477135D01*
X23750500Y-86477135D01*
X23750500Y-82440000D01*
X89479586Y-82440000D01*
X89499192Y-82639071D01*
X89499193Y-82639073D01*
X89557260Y-82830496D01*
X89651557Y-83006912D01*
X89778458Y-83161542D01*
X89933088Y-83288443D01*
X90109504Y-83382740D01*
X90300927Y-83440807D01*
X90500000Y-83460414D01*
X90699073Y-83440807D01*
X90890496Y-83382740D01*
X91066912Y-83288443D01*
X91221542Y-83161542D01*
X91348443Y-83006912D01*
X91442740Y-82830496D01*
X91500807Y-82639073D01*
X91520414Y-82440000D01*
X91500807Y-82240927D01*
X91442740Y-82049504D01*
X91348443Y-81873088D01*
X91247428Y-81750000D01*
X135644815Y-81750000D01*
X135663503Y-81927805D01*
X135663504Y-81927807D01*
X135718747Y-82097829D01*
X135718750Y-82097835D01*
X135808141Y-82252665D01*
X135849812Y-82298946D01*
X135927764Y-82385521D01*
X135927767Y-82385523D01*
X135927770Y-82385526D01*
X136072407Y-82490612D01*
X136235733Y-82563329D01*
X136410609Y-82600500D01*
X136410610Y-82600500D01*
X136589389Y-82600500D01*
X136589391Y-82600500D01*
X136764267Y-82563329D01*
X136927593Y-82490612D01*
X137072230Y-82385526D01*
X137072238Y-82385517D01*
X137075755Y-82382351D01*
X137138747Y-82352121D01*
X137158729Y-82350500D01*
X137449903Y-82350500D01*
X137516942Y-82370185D01*
X137537584Y-82386819D01*
X138113066Y-82962301D01*
X138146551Y-83023624D01*
X138148706Y-83037020D01*
X138163503Y-83177804D01*
X138163504Y-83177807D01*
X138218747Y-83347829D01*
X138218750Y-83347835D01*
X138308141Y-83502665D01*
X138349812Y-83548946D01*
X138427764Y-83635521D01*
X138427767Y-83635523D01*
X138427770Y-83635526D01*
X138572407Y-83740612D01*
X138735733Y-83813329D01*
X138910609Y-83850500D01*
X138910610Y-83850500D01*
X139089389Y-83850500D01*
X139089391Y-83850500D01*
X139264267Y-83813329D01*
X139427593Y-83740612D01*
X139572230Y-83635526D01*
X139691859Y-83502665D01*
X139781250Y-83347835D01*
X139836497Y-83177803D01*
X139855185Y-83000000D01*
X139836497Y-82822197D01*
X139781250Y-82652165D01*
X139691859Y-82497335D01*
X139637236Y-82436670D01*
X139572235Y-82364478D01*
X139572232Y-82364476D01*
X139572231Y-82364475D01*
X139572230Y-82364474D01*
X139427593Y-82259388D01*
X139264267Y-82186671D01*
X139264265Y-82186670D01*
X139136594Y-82159533D01*
X139089391Y-82149500D01*
X139089390Y-82149500D01*
X139050097Y-82149500D01*
X138983058Y-82129815D01*
X138962416Y-82113181D01*
X138237590Y-81388355D01*
X138237588Y-81388352D01*
X138118717Y-81269481D01*
X138118716Y-81269480D01*
X138031904Y-81219360D01*
X138031904Y-81219359D01*
X138031900Y-81219358D01*
X137981785Y-81190423D01*
X137829057Y-81149499D01*
X137670943Y-81149499D01*
X137663347Y-81149499D01*
X137663331Y-81149500D01*
X137158729Y-81149500D01*
X137091690Y-81129815D01*
X137075755Y-81117649D01*
X137072233Y-81114477D01*
X137072230Y-81114474D01*
X136927593Y-81009388D01*
X136764267Y-80936671D01*
X136764265Y-80936670D01*
X136636594Y-80909533D01*
X136589391Y-80899500D01*
X136410609Y-80899500D01*
X136379954Y-80906015D01*
X136235733Y-80936670D01*
X136235728Y-80936672D01*
X136072408Y-81009387D01*
X135927768Y-81114475D01*
X135808140Y-81247336D01*
X135718750Y-81402164D01*
X135718747Y-81402170D01*
X135663504Y-81572192D01*
X135663503Y-81572194D01*
X135644815Y-81750000D01*
X91247428Y-81750000D01*
X91221542Y-81718458D01*
X91066912Y-81591557D01*
X90890496Y-81497260D01*
X90772861Y-81461576D01*
X90699071Y-81439192D01*
X90500000Y-81419586D01*
X90300928Y-81439192D01*
X90109501Y-81497261D01*
X89933087Y-81591557D01*
X89778458Y-81718458D01*
X89651557Y-81873087D01*
X89557261Y-82049501D01*
X89499192Y-82240928D01*
X89479586Y-82440000D01*
X23750500Y-82440000D01*
X23750500Y-77560000D01*
X89479586Y-77560000D01*
X89499192Y-77759071D01*
X89499193Y-77759073D01*
X89557260Y-77950496D01*
X89651557Y-78126912D01*
X89778458Y-78281542D01*
X89933088Y-78408443D01*
X90109504Y-78502740D01*
X90300927Y-78560807D01*
X90500000Y-78580414D01*
X90699073Y-78560807D01*
X90890496Y-78502740D01*
X91066912Y-78408443D01*
X91221542Y-78281542D01*
X91348443Y-78126912D01*
X91442740Y-77950496D01*
X91500807Y-77759073D01*
X91520414Y-77560000D01*
X91500807Y-77360927D01*
X91442740Y-77169504D01*
X91348443Y-76993088D01*
X91221542Y-76838458D01*
X91066912Y-76711557D01*
X90890496Y-76617260D01*
X90794784Y-76588226D01*
X90699071Y-76559192D01*
X90500000Y-76539586D01*
X90300928Y-76559192D01*
X90109501Y-76617261D01*
X89933087Y-76711557D01*
X89778458Y-76838458D01*
X89651557Y-76993087D01*
X89557261Y-77169501D01*
X89499192Y-77360928D01*
X89479586Y-77560000D01*
X23750500Y-77560000D01*
X23750500Y-74266994D01*
X59519443Y-74266994D01*
X59519443Y-74267005D01*
X59539634Y-74510683D01*
X59539636Y-74510695D01*
X59599663Y-74747734D01*
X59697888Y-74971666D01*
X59831632Y-75176378D01*
X59997242Y-75356277D01*
X59997252Y-75356286D01*
X60190208Y-75506470D01*
X60190212Y-75506473D01*
X60405267Y-75622855D01*
X60405270Y-75622856D01*
X60636541Y-75702251D01*
X60636543Y-75702251D01*
X60636545Y-75702252D01*
X60877737Y-75742500D01*
X60877738Y-75742500D01*
X61122262Y-75742500D01*
X61122263Y-75742500D01*
X61363455Y-75702252D01*
X61594733Y-75622855D01*
X61809788Y-75506473D01*
X62002754Y-75356281D01*
X62168368Y-75176377D01*
X62302111Y-74971667D01*
X62400336Y-74747736D01*
X62460364Y-74510692D01*
X62480557Y-74267000D01*
X62477491Y-74230000D01*
X62460365Y-74023316D01*
X62460363Y-74023304D01*
X62400336Y-73786265D01*
X62352761Y-73677805D01*
X62302111Y-73562333D01*
X62261387Y-73500000D01*
X151894815Y-73500000D01*
X151913503Y-73677805D01*
X151913504Y-73677807D01*
X151968747Y-73847829D01*
X151968750Y-73847835D01*
X152058141Y-74002665D01*
X152117650Y-74068756D01*
X152147880Y-74131747D01*
X152149500Y-74151728D01*
X152149500Y-87413330D01*
X152149499Y-87413348D01*
X152149499Y-87579054D01*
X152149498Y-87579054D01*
X152190423Y-87731785D01*
X152219358Y-87781900D01*
X152219359Y-87781904D01*
X152219360Y-87781904D01*
X152269479Y-87868714D01*
X152269481Y-87868717D01*
X152388349Y-87987585D01*
X152388355Y-87987590D01*
X152613066Y-88212301D01*
X152646551Y-88273624D01*
X152648706Y-88287020D01*
X152663503Y-88427804D01*
X152663504Y-88427807D01*
X152718747Y-88597829D01*
X152718750Y-88597835D01*
X152808141Y-88752665D01*
X152849812Y-88798946D01*
X152927764Y-88885521D01*
X152927767Y-88885523D01*
X152927770Y-88885526D01*
X153072407Y-88990612D01*
X153235733Y-89063329D01*
X153410609Y-89100500D01*
X153410610Y-89100500D01*
X153589389Y-89100500D01*
X153589391Y-89100500D01*
X153764267Y-89063329D01*
X153927593Y-88990612D01*
X154072230Y-88885526D01*
X154191859Y-88752665D01*
X154281250Y-88597835D01*
X154336497Y-88427803D01*
X154355185Y-88250000D01*
X154336497Y-88072197D01*
X154281250Y-87902165D01*
X154191859Y-87747335D01*
X154145003Y-87695296D01*
X154072235Y-87614478D01*
X154072232Y-87614476D01*
X154072231Y-87614475D01*
X154072230Y-87614474D01*
X153927593Y-87509388D01*
X153764267Y-87436671D01*
X153764265Y-87436670D01*
X153636594Y-87409533D01*
X153589391Y-87399500D01*
X153589390Y-87399500D01*
X153550097Y-87399500D01*
X153483058Y-87379815D01*
X153462416Y-87363181D01*
X153386819Y-87287584D01*
X153353334Y-87226261D01*
X153350500Y-87199903D01*
X153350500Y-82250000D01*
X234644815Y-82250000D01*
X234663503Y-82427805D01*
X234663504Y-82427807D01*
X234718747Y-82597829D01*
X234718750Y-82597835D01*
X234808141Y-82752665D01*
X234849812Y-82798946D01*
X234927764Y-82885521D01*
X234927767Y-82885523D01*
X234927770Y-82885526D01*
X235072407Y-82990612D01*
X235235733Y-83063329D01*
X235410609Y-83100500D01*
X235410610Y-83100500D01*
X235589389Y-83100500D01*
X235589391Y-83100500D01*
X235764267Y-83063329D01*
X235927593Y-82990612D01*
X236072230Y-82885526D01*
X236191859Y-82752665D01*
X236281250Y-82597835D01*
X236336497Y-82427803D01*
X236355185Y-82250000D01*
X236343362Y-82137513D01*
X236346908Y-82092460D01*
X236350500Y-82079058D01*
X236350500Y-81920943D01*
X236350500Y-79901728D01*
X236370185Y-79834689D01*
X236382350Y-79818756D01*
X236441859Y-79752665D01*
X236531250Y-79597835D01*
X236586497Y-79427803D01*
X236605185Y-79250000D01*
X236586497Y-79072197D01*
X236558873Y-78987181D01*
X236531252Y-78902170D01*
X236531249Y-78902164D01*
X236489873Y-78830498D01*
X236441859Y-78747335D01*
X236356172Y-78652170D01*
X236322235Y-78614478D01*
X236322232Y-78614476D01*
X236322231Y-78614475D01*
X236322230Y-78614474D01*
X236177593Y-78509388D01*
X236014267Y-78436671D01*
X236014265Y-78436670D01*
X235886594Y-78409533D01*
X235839391Y-78399500D01*
X235660609Y-78399500D01*
X235648048Y-78402170D01*
X235485733Y-78436670D01*
X235485728Y-78436672D01*
X235322408Y-78509387D01*
X235177768Y-78614475D01*
X235058140Y-78747336D01*
X234968750Y-78902164D01*
X234968747Y-78902170D01*
X234913504Y-79072192D01*
X234913503Y-79072194D01*
X234894815Y-79250000D01*
X234913503Y-79427805D01*
X234913504Y-79427807D01*
X234968747Y-79597829D01*
X234968750Y-79597835D01*
X235058141Y-79752665D01*
X235117650Y-79818756D01*
X235147880Y-79881747D01*
X235149500Y-79901728D01*
X235149500Y-81394537D01*
X235129815Y-81461576D01*
X235077011Y-81507331D01*
X235075944Y-81507813D01*
X235072409Y-81509386D01*
X234927768Y-81614475D01*
X234808140Y-81747336D01*
X234718750Y-81902164D01*
X234718747Y-81902170D01*
X234663504Y-82072192D01*
X234663503Y-82072194D01*
X234644815Y-82250000D01*
X153350500Y-82250000D01*
X153350500Y-78440000D01*
X200479586Y-78440000D01*
X200499192Y-78639071D01*
X200499193Y-78639073D01*
X200557260Y-78830496D01*
X200651557Y-79006912D01*
X200778458Y-79161542D01*
X200933088Y-79288443D01*
X201109504Y-79382740D01*
X201300927Y-79440807D01*
X201500000Y-79460414D01*
X201699073Y-79440807D01*
X201890496Y-79382740D01*
X202066912Y-79288443D01*
X202221542Y-79161542D01*
X202348443Y-79006912D01*
X202352138Y-79000000D01*
X206644815Y-79000000D01*
X206663503Y-79177805D01*
X206663504Y-79177807D01*
X206718747Y-79347829D01*
X206718750Y-79347835D01*
X206808141Y-79502665D01*
X206849812Y-79548946D01*
X206927764Y-79635521D01*
X206927767Y-79635523D01*
X206927770Y-79635526D01*
X207072407Y-79740612D01*
X207235733Y-79813329D01*
X207410609Y-79850500D01*
X207410610Y-79850500D01*
X207589389Y-79850500D01*
X207589391Y-79850500D01*
X207764267Y-79813329D01*
X207927593Y-79740612D01*
X208072230Y-79635526D01*
X208191859Y-79502665D01*
X208281250Y-79347835D01*
X208336497Y-79177803D01*
X208351294Y-79037016D01*
X208377877Y-78972405D01*
X208386924Y-78962309D01*
X209712416Y-77636819D01*
X209773739Y-77603334D01*
X209800097Y-77600500D01*
X214091271Y-77600500D01*
X214158310Y-77620185D01*
X214174245Y-77632351D01*
X214177766Y-77635521D01*
X214177770Y-77635526D01*
X214322407Y-77740612D01*
X214485733Y-77813329D01*
X214660609Y-77850500D01*
X214660610Y-77850500D01*
X214839389Y-77850500D01*
X214839391Y-77850500D01*
X215014267Y-77813329D01*
X215177593Y-77740612D01*
X215322230Y-77635526D01*
X215441859Y-77502665D01*
X215531250Y-77347835D01*
X215586497Y-77177803D01*
X215605185Y-77000000D01*
X216144815Y-77000000D01*
X216163503Y-77177805D01*
X216163504Y-77177807D01*
X216218747Y-77347829D01*
X216218750Y-77347835D01*
X216308141Y-77502665D01*
X216349812Y-77548946D01*
X216427764Y-77635521D01*
X216427767Y-77635523D01*
X216427770Y-77635526D01*
X216572407Y-77740612D01*
X216735733Y-77813329D01*
X216910609Y-77850500D01*
X216949903Y-77850500D01*
X217016942Y-77870185D01*
X217037583Y-77886818D01*
X218381284Y-79230520D01*
X218381286Y-79230521D01*
X218381290Y-79230524D01*
X218518209Y-79309573D01*
X218518216Y-79309577D01*
X218670943Y-79350501D01*
X218670945Y-79350501D01*
X218836654Y-79350501D01*
X218836670Y-79350500D01*
X220814865Y-79350500D01*
X220881904Y-79370185D01*
X220927659Y-79422989D01*
X220937603Y-79492147D01*
X220932796Y-79512817D01*
X220913505Y-79572189D01*
X220913503Y-79572194D01*
X220894815Y-79750000D01*
X220913503Y-79927805D01*
X220913504Y-79927807D01*
X220968747Y-80097829D01*
X220968750Y-80097835D01*
X221058141Y-80252665D01*
X221099812Y-80298946D01*
X221177764Y-80385521D01*
X221177767Y-80385523D01*
X221177770Y-80385526D01*
X221322407Y-80490612D01*
X221485733Y-80563329D01*
X221660609Y-80600500D01*
X221660610Y-80600500D01*
X221839389Y-80600500D01*
X221839391Y-80600500D01*
X222014267Y-80563329D01*
X222177593Y-80490612D01*
X222322230Y-80385526D01*
X222322238Y-80385517D01*
X222325755Y-80382351D01*
X222388747Y-80352121D01*
X222408729Y-80350500D01*
X224591271Y-80350500D01*
X224658310Y-80370185D01*
X224674245Y-80382351D01*
X224677766Y-80385521D01*
X224677770Y-80385526D01*
X224822407Y-80490612D01*
X224985733Y-80563329D01*
X225160609Y-80600500D01*
X225160610Y-80600500D01*
X225339389Y-80600500D01*
X225339391Y-80600500D01*
X225514267Y-80563329D01*
X225677593Y-80490612D01*
X225822230Y-80385526D01*
X225941859Y-80252665D01*
X226031250Y-80097835D01*
X226086497Y-79927803D01*
X226105185Y-79750000D01*
X226086497Y-79572197D01*
X226039581Y-79427805D01*
X226031252Y-79402170D01*
X226031249Y-79402164D01*
X226020035Y-79382740D01*
X225941859Y-79247335D01*
X225895003Y-79195296D01*
X225822235Y-79114478D01*
X225822232Y-79114476D01*
X225822231Y-79114475D01*
X225822230Y-79114474D01*
X225677593Y-79009388D01*
X225514267Y-78936671D01*
X225514265Y-78936670D01*
X225351952Y-78902170D01*
X225339391Y-78899500D01*
X225160609Y-78899500D01*
X225148048Y-78902170D01*
X224985733Y-78936670D01*
X224985728Y-78936672D01*
X224822408Y-79009388D01*
X224822403Y-79009390D01*
X224783026Y-79038000D01*
X224717220Y-79061480D01*
X224649166Y-79045654D01*
X224600471Y-78995549D01*
X224586596Y-78927070D01*
X224586809Y-78924826D01*
X224605185Y-78750000D01*
X224586497Y-78572197D01*
X224558873Y-78487181D01*
X224531252Y-78402170D01*
X224531249Y-78402164D01*
X224529711Y-78399500D01*
X224441859Y-78247335D01*
X224353768Y-78149500D01*
X224322235Y-78114478D01*
X224322232Y-78114476D01*
X224322231Y-78114475D01*
X224322230Y-78114474D01*
X224177593Y-78009388D01*
X224014267Y-77936671D01*
X224014265Y-77936670D01*
X223886594Y-77909533D01*
X223839391Y-77899500D01*
X223660609Y-77899500D01*
X223629954Y-77906015D01*
X223485733Y-77936670D01*
X223485728Y-77936672D01*
X223322408Y-78009387D01*
X223177772Y-78114472D01*
X223174245Y-78117649D01*
X223111253Y-78147879D01*
X223091271Y-78149500D01*
X219050098Y-78149500D01*
X218983059Y-78129815D01*
X218962417Y-78113181D01*
X217886933Y-77037697D01*
X217853448Y-76976374D01*
X217851295Y-76962992D01*
X217836497Y-76822197D01*
X217781250Y-76652165D01*
X217691859Y-76497335D01*
X217630162Y-76428814D01*
X217572235Y-76364478D01*
X217572232Y-76364476D01*
X217572231Y-76364475D01*
X217572230Y-76364474D01*
X217427593Y-76259388D01*
X217264267Y-76186671D01*
X217264265Y-76186670D01*
X217136594Y-76159533D01*
X217089391Y-76149500D01*
X216910609Y-76149500D01*
X216879954Y-76156015D01*
X216735733Y-76186670D01*
X216735728Y-76186672D01*
X216572408Y-76259387D01*
X216427768Y-76364475D01*
X216308140Y-76497336D01*
X216218750Y-76652164D01*
X216218747Y-76652170D01*
X216163504Y-76822192D01*
X216163503Y-76822194D01*
X216144815Y-77000000D01*
X215605185Y-77000000D01*
X215586497Y-76822197D01*
X215531250Y-76652165D01*
X215441859Y-76497335D01*
X215380162Y-76428814D01*
X215322235Y-76364478D01*
X215322232Y-76364476D01*
X215322231Y-76364475D01*
X215322230Y-76364474D01*
X215177593Y-76259388D01*
X215014267Y-76186671D01*
X215014265Y-76186670D01*
X214886594Y-76159533D01*
X214839391Y-76149500D01*
X214660609Y-76149500D01*
X214629954Y-76156015D01*
X214485733Y-76186670D01*
X214485728Y-76186672D01*
X214322408Y-76259387D01*
X214177772Y-76364472D01*
X214174245Y-76367649D01*
X214111253Y-76397879D01*
X214091271Y-76399500D01*
X209579057Y-76399500D01*
X209420943Y-76399500D01*
X209268215Y-76440423D01*
X209268214Y-76440423D01*
X209268212Y-76440424D01*
X209268209Y-76440425D01*
X209218096Y-76469359D01*
X209218095Y-76469360D01*
X209189232Y-76486024D01*
X209131285Y-76519479D01*
X209131282Y-76519481D01*
X209019478Y-76631286D01*
X207537584Y-78113181D01*
X207476261Y-78146666D01*
X207449903Y-78149500D01*
X207410609Y-78149500D01*
X207379954Y-78156015D01*
X207235733Y-78186670D01*
X207235728Y-78186672D01*
X207072408Y-78259387D01*
X206927768Y-78364475D01*
X206808140Y-78497336D01*
X206718750Y-78652164D01*
X206718747Y-78652170D01*
X206663504Y-78822192D01*
X206663503Y-78822194D01*
X206644815Y-79000000D01*
X202352138Y-79000000D01*
X202442740Y-78830496D01*
X202500807Y-78639073D01*
X202520414Y-78440000D01*
X202500807Y-78240927D01*
X202442740Y-78049504D01*
X202348443Y-77873088D01*
X202221542Y-77718458D01*
X202066912Y-77591557D01*
X201890496Y-77497260D01*
X201794784Y-77468226D01*
X201699071Y-77439192D01*
X201500000Y-77419586D01*
X201300928Y-77439192D01*
X201109501Y-77497261D01*
X200933087Y-77591557D01*
X200778458Y-77718458D01*
X200651557Y-77873087D01*
X200557261Y-78049501D01*
X200499192Y-78240928D01*
X200479586Y-78440000D01*
X153350500Y-78440000D01*
X153350500Y-74151728D01*
X153370185Y-74084689D01*
X153382350Y-74068756D01*
X153441859Y-74002665D01*
X153531250Y-73847835D01*
X153586497Y-73677803D01*
X153598879Y-73560000D01*
X200479586Y-73560000D01*
X200499192Y-73759071D01*
X200525339Y-73845266D01*
X200557260Y-73950496D01*
X200651557Y-74126912D01*
X200778458Y-74281542D01*
X200933088Y-74408443D01*
X201109504Y-74502740D01*
X201300927Y-74560807D01*
X201500000Y-74580414D01*
X201699073Y-74560807D01*
X201890496Y-74502740D01*
X202066912Y-74408443D01*
X202221542Y-74281542D01*
X202263841Y-74230000D01*
X233914659Y-74230000D01*
X233933975Y-74426129D01*
X233933976Y-74426132D01*
X233980777Y-74580414D01*
X233991187Y-74614729D01*
X233992321Y-74616850D01*
X233992580Y-74618094D01*
X233993518Y-74620359D01*
X233993088Y-74620536D01*
X234006564Y-74685253D01*
X233982233Y-74749614D01*
X233976205Y-74757666D01*
X233976202Y-74757671D01*
X233925908Y-74892517D01*
X233919501Y-74952116D01*
X233919500Y-74952135D01*
X233919500Y-76047870D01*
X233919501Y-76047876D01*
X233925908Y-76107483D01*
X233976202Y-76242328D01*
X233976206Y-76242335D01*
X234062452Y-76357544D01*
X234062455Y-76357547D01*
X234177664Y-76443793D01*
X234177671Y-76443797D01*
X234312517Y-76494091D01*
X234312516Y-76494091D01*
X234319444Y-76494835D01*
X234372127Y-76500500D01*
X235467872Y-76500499D01*
X235527483Y-76494091D01*
X235662331Y-76443796D01*
X235670379Y-76437770D01*
X235735842Y-76413351D01*
X235799474Y-76426895D01*
X235799645Y-76426483D01*
X235801875Y-76427406D01*
X235803146Y-76427677D01*
X235805273Y-76428814D01*
X235993868Y-76486024D01*
X236190000Y-76505341D01*
X236386132Y-76486024D01*
X236574727Y-76428814D01*
X236576853Y-76427678D01*
X236661632Y-76382362D01*
X236748538Y-76335910D01*
X236900883Y-76210883D01*
X237025910Y-76058538D01*
X237118814Y-75884727D01*
X237176024Y-75696132D01*
X237195341Y-75500000D01*
X237181236Y-75356791D01*
X237194255Y-75288147D01*
X237242320Y-75237437D01*
X237310170Y-75220762D01*
X237316771Y-75221234D01*
X237460000Y-75235341D01*
X237656132Y-75216024D01*
X237844727Y-75158814D01*
X238018538Y-75065910D01*
X238018544Y-75065904D01*
X238023607Y-75062523D01*
X238024703Y-75064164D01*
X238080639Y-75040405D01*
X238149507Y-75052194D01*
X238166148Y-75062888D01*
X238166393Y-75062523D01*
X238171458Y-75065907D01*
X238171462Y-75065910D01*
X238345273Y-75158814D01*
X238533868Y-75216024D01*
X238730000Y-75235341D01*
X238873208Y-75221236D01*
X238941852Y-75234255D01*
X238992562Y-75282320D01*
X239009237Y-75350170D01*
X239008763Y-75356793D01*
X238994659Y-75499999D01*
X239013975Y-75696129D01*
X239071188Y-75884733D01*
X239164086Y-76058532D01*
X239164090Y-76058539D01*
X239289116Y-76210883D01*
X239441460Y-76335909D01*
X239441467Y-76335913D01*
X239615266Y-76428811D01*
X239615269Y-76428811D01*
X239615273Y-76428814D01*
X239803868Y-76486024D01*
X240000000Y-76505341D01*
X240196132Y-76486024D01*
X240384727Y-76428814D01*
X240386853Y-76427678D01*
X240471632Y-76382362D01*
X240558538Y-76335910D01*
X240710883Y-76210883D01*
X240835910Y-76058538D01*
X240928814Y-75884727D01*
X240986024Y-75696132D01*
X241005341Y-75500000D01*
X240991236Y-75356791D01*
X241004255Y-75288147D01*
X241052320Y-75237437D01*
X241120170Y-75220762D01*
X241126771Y-75221234D01*
X241270000Y-75235341D01*
X241413208Y-75221236D01*
X241481852Y-75234255D01*
X241532562Y-75282320D01*
X241549237Y-75350170D01*
X241548763Y-75356793D01*
X241534659Y-75499999D01*
X241553975Y-75696129D01*
X241611188Y-75884733D01*
X241704086Y-76058532D01*
X241704090Y-76058539D01*
X241829116Y-76210883D01*
X241981460Y-76335909D01*
X241981467Y-76335913D01*
X242155266Y-76428811D01*
X242155269Y-76428811D01*
X242155273Y-76428814D01*
X242343868Y-76486024D01*
X242540000Y-76505341D01*
X242736132Y-76486024D01*
X242924727Y-76428814D01*
X242926853Y-76427678D01*
X243011632Y-76382362D01*
X243098538Y-76335910D01*
X243250883Y-76210883D01*
X243375910Y-76058538D01*
X243468814Y-75884727D01*
X243526024Y-75696132D01*
X243545341Y-75500000D01*
X243526024Y-75303868D01*
X243468814Y-75115273D01*
X243375910Y-74941462D01*
X243375907Y-74941458D01*
X243372523Y-74936393D01*
X243374164Y-74935296D01*
X243350405Y-74879361D01*
X243362194Y-74810493D01*
X243372888Y-74793851D01*
X243372523Y-74793607D01*
X243375904Y-74788544D01*
X243375910Y-74788538D01*
X243468814Y-74614727D01*
X243526024Y-74426132D01*
X243545341Y-74230000D01*
X243526024Y-74033868D01*
X243468814Y-73845273D01*
X243468811Y-73845269D01*
X243468811Y-73845266D01*
X243375913Y-73671467D01*
X243375909Y-73671460D01*
X243250883Y-73519116D01*
X243098539Y-73394090D01*
X243098532Y-73394086D01*
X242924733Y-73301188D01*
X242924727Y-73301186D01*
X242736132Y-73243976D01*
X242736129Y-73243975D01*
X242540000Y-73224659D01*
X242343870Y-73243975D01*
X242155266Y-73301188D01*
X241981467Y-73394086D01*
X241976399Y-73397473D01*
X241975305Y-73395836D01*
X241919337Y-73419596D01*
X241850471Y-73407795D01*
X241833843Y-73397109D01*
X241833601Y-73397473D01*
X241828532Y-73394086D01*
X241654733Y-73301188D01*
X241654727Y-73301186D01*
X241466132Y-73243976D01*
X241466129Y-73243975D01*
X241270000Y-73224659D01*
X241073870Y-73243975D01*
X240885266Y-73301188D01*
X240711467Y-73394086D01*
X240706399Y-73397473D01*
X240705305Y-73395836D01*
X240649337Y-73419596D01*
X240580471Y-73407795D01*
X240563843Y-73397109D01*
X240563601Y-73397473D01*
X240558532Y-73394086D01*
X240384733Y-73301188D01*
X240384727Y-73301186D01*
X240196132Y-73243976D01*
X240196129Y-73243975D01*
X240000000Y-73224659D01*
X239803870Y-73243975D01*
X239615266Y-73301188D01*
X239441467Y-73394086D01*
X239436399Y-73397473D01*
X239435305Y-73395836D01*
X239379337Y-73419596D01*
X239310471Y-73407795D01*
X239293843Y-73397109D01*
X239293601Y-73397473D01*
X239288532Y-73394086D01*
X239114733Y-73301188D01*
X239114727Y-73301186D01*
X238926132Y-73243976D01*
X238926129Y-73243975D01*
X238730000Y-73224659D01*
X238533870Y-73243975D01*
X238345266Y-73301188D01*
X238171467Y-73394086D01*
X238166399Y-73397473D01*
X238165305Y-73395836D01*
X238109337Y-73419596D01*
X238040471Y-73407795D01*
X238023843Y-73397109D01*
X238023601Y-73397473D01*
X238018532Y-73394086D01*
X237844733Y-73301188D01*
X237844727Y-73301186D01*
X237656132Y-73243976D01*
X237656129Y-73243975D01*
X237460000Y-73224659D01*
X237263870Y-73243975D01*
X237075266Y-73301188D01*
X236901467Y-73394086D01*
X236896399Y-73397473D01*
X236895305Y-73395836D01*
X236839337Y-73419596D01*
X236770471Y-73407795D01*
X236753843Y-73397109D01*
X236753601Y-73397473D01*
X236748532Y-73394086D01*
X236574733Y-73301188D01*
X236574727Y-73301186D01*
X236386132Y-73243976D01*
X236386129Y-73243975D01*
X236190000Y-73224659D01*
X235993870Y-73243975D01*
X235805266Y-73301188D01*
X235631467Y-73394086D01*
X235626399Y-73397473D01*
X235625305Y-73395836D01*
X235569337Y-73419596D01*
X235500471Y-73407795D01*
X235483843Y-73397109D01*
X235483601Y-73397473D01*
X235478532Y-73394086D01*
X235304733Y-73301188D01*
X235304727Y-73301186D01*
X235116132Y-73243976D01*
X235116129Y-73243975D01*
X234920000Y-73224659D01*
X234723870Y-73243975D01*
X234535266Y-73301188D01*
X234361467Y-73394086D01*
X234361460Y-73394090D01*
X234209116Y-73519116D01*
X234084090Y-73671460D01*
X234084086Y-73671467D01*
X233991188Y-73845266D01*
X233933975Y-74033870D01*
X233914659Y-74230000D01*
X202263841Y-74230000D01*
X202348443Y-74126912D01*
X202442740Y-73950496D01*
X202500807Y-73759073D01*
X202520414Y-73560000D01*
X202500807Y-73360927D01*
X202442740Y-73169504D01*
X202348443Y-72993088D01*
X202221542Y-72838458D01*
X202066912Y-72711557D01*
X201890496Y-72617260D01*
X201794784Y-72588226D01*
X201699071Y-72559192D01*
X201500000Y-72539586D01*
X201300928Y-72559192D01*
X201109501Y-72617261D01*
X200933087Y-72711557D01*
X200778458Y-72838458D01*
X200651557Y-72993087D01*
X200557261Y-73169501D01*
X200499192Y-73360928D01*
X200479586Y-73560000D01*
X153598879Y-73560000D01*
X153605185Y-73500000D01*
X153586497Y-73322197D01*
X153531250Y-73152165D01*
X153441859Y-72997335D01*
X153364253Y-72911145D01*
X153322235Y-72864478D01*
X153322232Y-72864476D01*
X153322231Y-72864475D01*
X153322230Y-72864474D01*
X153177593Y-72759388D01*
X153014267Y-72686671D01*
X153014265Y-72686670D01*
X152886594Y-72659533D01*
X152839391Y-72649500D01*
X152660609Y-72649500D01*
X152629954Y-72656015D01*
X152485733Y-72686670D01*
X152485728Y-72686672D01*
X152322408Y-72759387D01*
X152177768Y-72864475D01*
X152058140Y-72997336D01*
X151968750Y-73152164D01*
X151968747Y-73152170D01*
X151913504Y-73322192D01*
X151913503Y-73322194D01*
X151894815Y-73500000D01*
X62261387Y-73500000D01*
X62194403Y-73397473D01*
X62168367Y-73357621D01*
X62002757Y-73177722D01*
X62002747Y-73177713D01*
X61809791Y-73027529D01*
X61809787Y-73027526D01*
X61594734Y-72911145D01*
X61594729Y-72911143D01*
X61363458Y-72831748D01*
X61182561Y-72801562D01*
X61122263Y-72791500D01*
X60877737Y-72791500D01*
X60829498Y-72799549D01*
X60636541Y-72831748D01*
X60405270Y-72911143D01*
X60405265Y-72911145D01*
X60190212Y-73027526D01*
X60190208Y-73027529D01*
X59997252Y-73177713D01*
X59997242Y-73177722D01*
X59831632Y-73357621D01*
X59697888Y-73562333D01*
X59599663Y-73786265D01*
X59539636Y-74023304D01*
X59539634Y-74023316D01*
X59519443Y-74266994D01*
X23750500Y-74266994D01*
X23750500Y-69940000D01*
X125479586Y-69940000D01*
X125499192Y-70139071D01*
X125499193Y-70139073D01*
X125557260Y-70330496D01*
X125651557Y-70506912D01*
X125778458Y-70661542D01*
X125933088Y-70788443D01*
X126109504Y-70882740D01*
X126300927Y-70940807D01*
X126500000Y-70960414D01*
X126699073Y-70940807D01*
X126890496Y-70882740D01*
X127066912Y-70788443D01*
X127221542Y-70661542D01*
X127348443Y-70506912D01*
X127442740Y-70330496D01*
X127500807Y-70139073D01*
X127520414Y-69940000D01*
X127500807Y-69740927D01*
X127442740Y-69549504D01*
X127348443Y-69373088D01*
X127221542Y-69218458D01*
X127066912Y-69091557D01*
X126890496Y-68997260D01*
X126794784Y-68968226D01*
X126699071Y-68939192D01*
X126500000Y-68919586D01*
X126300928Y-68939192D01*
X126109501Y-68997261D01*
X125933087Y-69091557D01*
X125778458Y-69218458D01*
X125651557Y-69373087D01*
X125557261Y-69549501D01*
X125499192Y-69740928D01*
X125479586Y-69940000D01*
X23750500Y-69940000D01*
X23750500Y-68500000D01*
X98644815Y-68500000D01*
X98663503Y-68677805D01*
X98663504Y-68677807D01*
X98718747Y-68847829D01*
X98718750Y-68847835D01*
X98808141Y-69002665D01*
X98849812Y-69048946D01*
X98927764Y-69135521D01*
X98927767Y-69135523D01*
X98927770Y-69135526D01*
X99072407Y-69240612D01*
X99235733Y-69313329D01*
X99410609Y-69350500D01*
X99410610Y-69350500D01*
X99589389Y-69350500D01*
X99589391Y-69350500D01*
X99764267Y-69313329D01*
X99927593Y-69240612D01*
X100072230Y-69135526D01*
X100072238Y-69135517D01*
X100075755Y-69132351D01*
X100138747Y-69102121D01*
X100158729Y-69100500D01*
X102841271Y-69100500D01*
X102908310Y-69120185D01*
X102924245Y-69132351D01*
X102927766Y-69135521D01*
X102927770Y-69135526D01*
X103072407Y-69240612D01*
X103235733Y-69313329D01*
X103410609Y-69350500D01*
X103410610Y-69350500D01*
X103589389Y-69350500D01*
X103589391Y-69350500D01*
X103764267Y-69313329D01*
X103927593Y-69240612D01*
X104072230Y-69135526D01*
X104191859Y-69002665D01*
X104281250Y-68847835D01*
X104336497Y-68677803D01*
X104355185Y-68500000D01*
X104336497Y-68322197D01*
X104281250Y-68152165D01*
X104191859Y-67997335D01*
X104145003Y-67945296D01*
X104072235Y-67864478D01*
X104072232Y-67864476D01*
X104072231Y-67864475D01*
X104072230Y-67864474D01*
X103927593Y-67759388D01*
X103764267Y-67686671D01*
X103764265Y-67686670D01*
X103636594Y-67659533D01*
X103589391Y-67649500D01*
X103410609Y-67649500D01*
X103379954Y-67656015D01*
X103235733Y-67686670D01*
X103235728Y-67686672D01*
X103072408Y-67759387D01*
X102927772Y-67864472D01*
X102924245Y-67867649D01*
X102861253Y-67897879D01*
X102841271Y-67899500D01*
X100158729Y-67899500D01*
X100091690Y-67879815D01*
X100075755Y-67867649D01*
X100072233Y-67864477D01*
X100072230Y-67864474D01*
X99927593Y-67759388D01*
X99764267Y-67686671D01*
X99764265Y-67686670D01*
X99636594Y-67659533D01*
X99589391Y-67649500D01*
X99410609Y-67649500D01*
X99379954Y-67656015D01*
X99235733Y-67686670D01*
X99235728Y-67686672D01*
X99072408Y-67759387D01*
X98927768Y-67864475D01*
X98808140Y-67997336D01*
X98718750Y-68152164D01*
X98718747Y-68152170D01*
X98663504Y-68322192D01*
X98663503Y-68322194D01*
X98644815Y-68500000D01*
X23750500Y-68500000D01*
X23750500Y-67000000D01*
X143144815Y-67000000D01*
X143163503Y-67177805D01*
X143163504Y-67177807D01*
X143218747Y-67347829D01*
X143218750Y-67347835D01*
X143308141Y-67502665D01*
X143349812Y-67548946D01*
X143427764Y-67635521D01*
X143427767Y-67635523D01*
X143427770Y-67635526D01*
X143572407Y-67740612D01*
X143735733Y-67813329D01*
X143910609Y-67850500D01*
X143910610Y-67850500D01*
X144089388Y-67850500D01*
X144089391Y-67850500D01*
X144105747Y-67847023D01*
X144163623Y-67848538D01*
X144170942Y-67850500D01*
X144170943Y-67850500D01*
X149525500Y-67850500D01*
X149592539Y-67870185D01*
X149638294Y-67922989D01*
X149649500Y-67974500D01*
X149649500Y-68598270D01*
X149629815Y-68665309D01*
X149617650Y-68681242D01*
X149558144Y-68747329D01*
X149558139Y-68747336D01*
X149468750Y-68902164D01*
X149468747Y-68902170D01*
X149413504Y-69072192D01*
X149413503Y-69072194D01*
X149394815Y-69250000D01*
X149413503Y-69427805D01*
X149413504Y-69427807D01*
X149468747Y-69597829D01*
X149468750Y-69597835D01*
X149558141Y-69752665D01*
X149599812Y-69798946D01*
X149677764Y-69885521D01*
X149677767Y-69885523D01*
X149677770Y-69885526D01*
X149822407Y-69990612D01*
X149985733Y-70063329D01*
X150160609Y-70100500D01*
X150160610Y-70100500D01*
X150339389Y-70100500D01*
X150339391Y-70100500D01*
X150514267Y-70063329D01*
X150677593Y-69990612D01*
X150822230Y-69885526D01*
X150941859Y-69752665D01*
X151031250Y-69597835D01*
X151086497Y-69427803D01*
X151105185Y-69250000D01*
X151086497Y-69072197D01*
X151043281Y-68939192D01*
X151031252Y-68902170D01*
X151031249Y-68902164D01*
X150999882Y-68847835D01*
X150941859Y-68747335D01*
X150941855Y-68747329D01*
X150882350Y-68681242D01*
X150852120Y-68618250D01*
X150850500Y-68598270D01*
X150850500Y-67901728D01*
X150870185Y-67834689D01*
X150882350Y-67818756D01*
X150941859Y-67752665D01*
X151031250Y-67597835D01*
X151086497Y-67427803D01*
X151105185Y-67250000D01*
X151086497Y-67072197D01*
X151039909Y-66928814D01*
X151031252Y-66902170D01*
X151031249Y-66902164D01*
X150941859Y-66747335D01*
X150856172Y-66652170D01*
X150822235Y-66614478D01*
X150822232Y-66614476D01*
X150822231Y-66614475D01*
X150822230Y-66614474D01*
X150677593Y-66509388D01*
X150514267Y-66436671D01*
X150514265Y-66436670D01*
X150386594Y-66409533D01*
X150339391Y-66399500D01*
X150160609Y-66399500D01*
X150129954Y-66406015D01*
X149985733Y-66436670D01*
X149985728Y-66436672D01*
X149822408Y-66509387D01*
X149677772Y-66614472D01*
X149674245Y-66617649D01*
X149611253Y-66647879D01*
X149591271Y-66649500D01*
X144851303Y-66649500D01*
X144784264Y-66629815D01*
X144743916Y-66587500D01*
X144698818Y-66509389D01*
X144691859Y-66497335D01*
X144603768Y-66399500D01*
X144572235Y-66364478D01*
X144572232Y-66364476D01*
X144572231Y-66364475D01*
X144572230Y-66364474D01*
X144427593Y-66259388D01*
X144264267Y-66186671D01*
X144264265Y-66186670D01*
X144136594Y-66159533D01*
X144089391Y-66149500D01*
X143910609Y-66149500D01*
X143879954Y-66156015D01*
X143735733Y-66186670D01*
X143735728Y-66186672D01*
X143572408Y-66259387D01*
X143427768Y-66364475D01*
X143308140Y-66497336D01*
X143218750Y-66652164D01*
X143218747Y-66652170D01*
X143163504Y-66822192D01*
X143163503Y-66822194D01*
X143144815Y-67000000D01*
X23750500Y-67000000D01*
X23750500Y-65060000D01*
X125479586Y-65060000D01*
X125499192Y-65259071D01*
X125514791Y-65310493D01*
X125554518Y-65441458D01*
X125557261Y-65450498D01*
X125645334Y-65615269D01*
X125651557Y-65626912D01*
X125778458Y-65781542D01*
X125933088Y-65908443D01*
X126109504Y-66002740D01*
X126300927Y-66060807D01*
X126500000Y-66080414D01*
X126699073Y-66060807D01*
X126890496Y-66002740D01*
X127066912Y-65908443D01*
X127221542Y-65781542D01*
X127348443Y-65626912D01*
X127442740Y-65450496D01*
X127500807Y-65259073D01*
X127520414Y-65060000D01*
X127500807Y-64860927D01*
X127461091Y-64730000D01*
X152184659Y-64730000D01*
X152203975Y-64926129D01*
X152261187Y-65114729D01*
X152262321Y-65116850D01*
X152262580Y-65118094D01*
X152263518Y-65120359D01*
X152263088Y-65120536D01*
X152276564Y-65185253D01*
X152252233Y-65249614D01*
X152246205Y-65257666D01*
X152246202Y-65257671D01*
X152195908Y-65392517D01*
X152189501Y-65452116D01*
X152189500Y-65452135D01*
X152189500Y-66547870D01*
X152189501Y-66547876D01*
X152195908Y-66607483D01*
X152246202Y-66742328D01*
X152246206Y-66742335D01*
X152332452Y-66857544D01*
X152332455Y-66857547D01*
X152447664Y-66943793D01*
X152447671Y-66943797D01*
X152582517Y-66994091D01*
X152582516Y-66994091D01*
X152589444Y-66994835D01*
X152642127Y-67000500D01*
X153737872Y-67000499D01*
X153797483Y-66994091D01*
X153932331Y-66943796D01*
X153940379Y-66937770D01*
X154005842Y-66913351D01*
X154069474Y-66926895D01*
X154069645Y-66926483D01*
X154071875Y-66927406D01*
X154073146Y-66927677D01*
X154075273Y-66928814D01*
X154263868Y-66986024D01*
X154460000Y-67005341D01*
X154656132Y-66986024D01*
X154844727Y-66928814D01*
X154846853Y-66927678D01*
X154978060Y-66857546D01*
X155018538Y-66835910D01*
X155170883Y-66710883D01*
X155295910Y-66558538D01*
X155388814Y-66384727D01*
X155446024Y-66196132D01*
X155465341Y-66000000D01*
X155451236Y-65856791D01*
X155464255Y-65788147D01*
X155512320Y-65737437D01*
X155580170Y-65720762D01*
X155586771Y-65721234D01*
X155730000Y-65735341D01*
X155926132Y-65716024D01*
X156114727Y-65658814D01*
X156288538Y-65565910D01*
X156288544Y-65565904D01*
X156293607Y-65562523D01*
X156294703Y-65564164D01*
X156350639Y-65540405D01*
X156419507Y-65552194D01*
X156436148Y-65562888D01*
X156436393Y-65562523D01*
X156441458Y-65565907D01*
X156441462Y-65565910D01*
X156615273Y-65658814D01*
X156803868Y-65716024D01*
X157000000Y-65735341D01*
X157143208Y-65721236D01*
X157211852Y-65734255D01*
X157262562Y-65782320D01*
X157279237Y-65850170D01*
X157278763Y-65856793D01*
X157264659Y-65999999D01*
X157283975Y-66196129D01*
X157283976Y-66196132D01*
X157335043Y-66364478D01*
X157341188Y-66384733D01*
X157434086Y-66558532D01*
X157434090Y-66558539D01*
X157559116Y-66710883D01*
X157711460Y-66835909D01*
X157711467Y-66835913D01*
X157885266Y-66928811D01*
X157885269Y-66928811D01*
X157885273Y-66928814D01*
X158073868Y-66986024D01*
X158270000Y-67005341D01*
X158466132Y-66986024D01*
X158654727Y-66928814D01*
X158656853Y-66927678D01*
X158788060Y-66857546D01*
X158828538Y-66835910D01*
X158980883Y-66710883D01*
X159105910Y-66558538D01*
X159198814Y-66384727D01*
X159256024Y-66196132D01*
X159275341Y-66000000D01*
X159261236Y-65856791D01*
X159274255Y-65788147D01*
X159322320Y-65737437D01*
X159390170Y-65720762D01*
X159396771Y-65721234D01*
X159540000Y-65735341D01*
X159683208Y-65721236D01*
X159751852Y-65734255D01*
X159802562Y-65782320D01*
X159819237Y-65850170D01*
X159818763Y-65856793D01*
X159804659Y-65999999D01*
X159823975Y-66196129D01*
X159823976Y-66196132D01*
X159875043Y-66364478D01*
X159881188Y-66384733D01*
X159974086Y-66558532D01*
X159974090Y-66558539D01*
X160099116Y-66710883D01*
X160251460Y-66835909D01*
X160251467Y-66835913D01*
X160425266Y-66928811D01*
X160425269Y-66928811D01*
X160425273Y-66928814D01*
X160613868Y-66986024D01*
X160810000Y-67005341D01*
X161006132Y-66986024D01*
X161194727Y-66928814D01*
X161196853Y-66927678D01*
X161328060Y-66857546D01*
X161368538Y-66835910D01*
X161520883Y-66710883D01*
X161645910Y-66558538D01*
X161738814Y-66384727D01*
X161796024Y-66196132D01*
X161815341Y-66000000D01*
X161796024Y-65803868D01*
X161738814Y-65615273D01*
X161645910Y-65441462D01*
X161645907Y-65441458D01*
X161642523Y-65436393D01*
X161644164Y-65435296D01*
X161620405Y-65379361D01*
X161632194Y-65310493D01*
X161642888Y-65293851D01*
X161642523Y-65293607D01*
X161645904Y-65288544D01*
X161645910Y-65288538D01*
X161738814Y-65114727D01*
X161796024Y-64926132D01*
X161815341Y-64730000D01*
X161796024Y-64533868D01*
X161738814Y-64345273D01*
X161738811Y-64345269D01*
X161738811Y-64345266D01*
X161645913Y-64171467D01*
X161645909Y-64171460D01*
X161520883Y-64019116D01*
X161368539Y-63894090D01*
X161368532Y-63894086D01*
X161194733Y-63801188D01*
X161194727Y-63801186D01*
X161006132Y-63743976D01*
X161006129Y-63743975D01*
X160810000Y-63724659D01*
X160613870Y-63743975D01*
X160425266Y-63801188D01*
X160251467Y-63894086D01*
X160246399Y-63897473D01*
X160245305Y-63895836D01*
X160189337Y-63919596D01*
X160120471Y-63907795D01*
X160103843Y-63897109D01*
X160103601Y-63897473D01*
X160098532Y-63894086D01*
X159924733Y-63801188D01*
X159924727Y-63801186D01*
X159736132Y-63743976D01*
X159736129Y-63743975D01*
X159540000Y-63724659D01*
X159343870Y-63743975D01*
X159155266Y-63801188D01*
X158981467Y-63894086D01*
X158976399Y-63897473D01*
X158975305Y-63895836D01*
X158919337Y-63919596D01*
X158850471Y-63907795D01*
X158833843Y-63897109D01*
X158833601Y-63897473D01*
X158828532Y-63894086D01*
X158654733Y-63801188D01*
X158654727Y-63801186D01*
X158466132Y-63743976D01*
X158466129Y-63743975D01*
X158270000Y-63724659D01*
X158073870Y-63743975D01*
X157885266Y-63801188D01*
X157711467Y-63894086D01*
X157706399Y-63897473D01*
X157705305Y-63895836D01*
X157649337Y-63919596D01*
X157580471Y-63907795D01*
X157563843Y-63897109D01*
X157563601Y-63897473D01*
X157558532Y-63894086D01*
X157384733Y-63801188D01*
X157384727Y-63801186D01*
X157196132Y-63743976D01*
X157196129Y-63743975D01*
X157000000Y-63724659D01*
X156803870Y-63743975D01*
X156615266Y-63801188D01*
X156441467Y-63894086D01*
X156436399Y-63897473D01*
X156435305Y-63895836D01*
X156379337Y-63919596D01*
X156310471Y-63907795D01*
X156293843Y-63897109D01*
X156293601Y-63897473D01*
X156288532Y-63894086D01*
X156114733Y-63801188D01*
X156114727Y-63801186D01*
X155926132Y-63743976D01*
X155926129Y-63743975D01*
X155730000Y-63724659D01*
X155533870Y-63743975D01*
X155345266Y-63801188D01*
X155171467Y-63894086D01*
X155166399Y-63897473D01*
X155165305Y-63895836D01*
X155109337Y-63919596D01*
X155040471Y-63907795D01*
X155023843Y-63897109D01*
X155023601Y-63897473D01*
X155018532Y-63894086D01*
X154844733Y-63801188D01*
X154844727Y-63801186D01*
X154656132Y-63743976D01*
X154656129Y-63743975D01*
X154460000Y-63724659D01*
X154263870Y-63743975D01*
X154075266Y-63801188D01*
X153901467Y-63894086D01*
X153896399Y-63897473D01*
X153895305Y-63895836D01*
X153839337Y-63919596D01*
X153770471Y-63907795D01*
X153753843Y-63897109D01*
X153753601Y-63897473D01*
X153748532Y-63894086D01*
X153574733Y-63801188D01*
X153574727Y-63801186D01*
X153386132Y-63743976D01*
X153386129Y-63743975D01*
X153190000Y-63724659D01*
X152993870Y-63743975D01*
X152805266Y-63801188D01*
X152631467Y-63894086D01*
X152631460Y-63894090D01*
X152479116Y-64019116D01*
X152354090Y-64171460D01*
X152354086Y-64171467D01*
X152261188Y-64345266D01*
X152203975Y-64533870D01*
X152184659Y-64730000D01*
X127461091Y-64730000D01*
X127442740Y-64669504D01*
X127348443Y-64493088D01*
X127221542Y-64338458D01*
X127066912Y-64211557D01*
X126890496Y-64117260D01*
X126794784Y-64088226D01*
X126699071Y-64059192D01*
X126500000Y-64039586D01*
X126300928Y-64059192D01*
X126109501Y-64117261D01*
X125933087Y-64211557D01*
X125778458Y-64338458D01*
X125651557Y-64493087D01*
X125557261Y-64669501D01*
X125499192Y-64860928D01*
X125479586Y-65060000D01*
X23750500Y-65060000D01*
X23750500Y-55250000D01*
X100894815Y-55250000D01*
X100913503Y-55427805D01*
X100913504Y-55427807D01*
X100968747Y-55597829D01*
X100968750Y-55597835D01*
X101058141Y-55752665D01*
X101099812Y-55798946D01*
X101177764Y-55885521D01*
X101177767Y-55885523D01*
X101177770Y-55885526D01*
X101322407Y-55990612D01*
X101485733Y-56063329D01*
X101660609Y-56100500D01*
X101660610Y-56100500D01*
X101839389Y-56100500D01*
X101839391Y-56100500D01*
X102014267Y-56063329D01*
X102074677Y-56036431D01*
X102143927Y-56027146D01*
X102207204Y-56056774D01*
X102212795Y-56062030D01*
X102613066Y-56462301D01*
X102646551Y-56523624D01*
X102648706Y-56537020D01*
X102663503Y-56677804D01*
X102663504Y-56677807D01*
X102718747Y-56847829D01*
X102718750Y-56847835D01*
X102808141Y-57002665D01*
X102849812Y-57048946D01*
X102927764Y-57135521D01*
X102927767Y-57135523D01*
X102927770Y-57135526D01*
X103072407Y-57240612D01*
X103235733Y-57313329D01*
X103410609Y-57350500D01*
X103410610Y-57350500D01*
X103589389Y-57350500D01*
X103589391Y-57350500D01*
X103764267Y-57313329D01*
X103927593Y-57240612D01*
X104072230Y-57135526D01*
X104191859Y-57002665D01*
X104281250Y-56847835D01*
X104336497Y-56677803D01*
X104355185Y-56500000D01*
X104336497Y-56322197D01*
X104281250Y-56152165D01*
X104191859Y-55997335D01*
X104145003Y-55945296D01*
X104072235Y-55864478D01*
X104072232Y-55864476D01*
X104072231Y-55864475D01*
X104072230Y-55864474D01*
X103927593Y-55759388D01*
X103764267Y-55686671D01*
X103764265Y-55686670D01*
X103636594Y-55659533D01*
X103589391Y-55649500D01*
X103589390Y-55649500D01*
X103550097Y-55649500D01*
X103483058Y-55629815D01*
X103462416Y-55613181D01*
X102737590Y-54888355D01*
X102737588Y-54888352D01*
X102618717Y-54769481D01*
X102618716Y-54769480D01*
X102531904Y-54719360D01*
X102531904Y-54719359D01*
X102531900Y-54719358D01*
X102481785Y-54690423D01*
X102481784Y-54690422D01*
X102481783Y-54690422D01*
X102481781Y-54690421D01*
X102397101Y-54667730D01*
X102337441Y-54631364D01*
X102337048Y-54630930D01*
X102322232Y-54614476D01*
X102322231Y-54614475D01*
X102322230Y-54614474D01*
X102177593Y-54509388D01*
X102014267Y-54436671D01*
X102014265Y-54436670D01*
X101886594Y-54409533D01*
X101839391Y-54399500D01*
X101660609Y-54399500D01*
X101629954Y-54406015D01*
X101485733Y-54436670D01*
X101485728Y-54436672D01*
X101322408Y-54509387D01*
X101177768Y-54614475D01*
X101058140Y-54747336D01*
X100968750Y-54902164D01*
X100968747Y-54902170D01*
X100913504Y-55072192D01*
X100913503Y-55072194D01*
X100894815Y-55250000D01*
X23750500Y-55250000D01*
X23750500Y-51999999D01*
X174707180Y-51999999D01*
X174707180Y-52000000D01*
X174726820Y-52224491D01*
X174726821Y-52224498D01*
X174785145Y-52442165D01*
X174785149Y-52442176D01*
X174880382Y-52646404D01*
X174880385Y-52646410D01*
X175009643Y-52831011D01*
X175168988Y-52990356D01*
X175168991Y-52990358D01*
X175353590Y-53119615D01*
X175467262Y-53172620D01*
X175557823Y-53214850D01*
X175557825Y-53214850D01*
X175557830Y-53214853D01*
X175775504Y-53273179D01*
X175955100Y-53288891D01*
X175999999Y-53292820D01*
X176000000Y-53292820D01*
X176000001Y-53292820D01*
X176037416Y-53289546D01*
X176224496Y-53273179D01*
X176442170Y-53214853D01*
X176646410Y-53119615D01*
X176831009Y-52990358D01*
X176990358Y-52831009D01*
X177119615Y-52646410D01*
X177187887Y-52499999D01*
X195207180Y-52499999D01*
X195207180Y-52500000D01*
X195226820Y-52724491D01*
X195226821Y-52724498D01*
X195285145Y-52942165D01*
X195285149Y-52942176D01*
X195380382Y-53146404D01*
X195380385Y-53146410D01*
X195509643Y-53331011D01*
X195668988Y-53490356D01*
X195668991Y-53490358D01*
X195853590Y-53619615D01*
X195967262Y-53672620D01*
X196057823Y-53714850D01*
X196057825Y-53714850D01*
X196057830Y-53714853D01*
X196275504Y-53773179D01*
X196455100Y-53788891D01*
X196499999Y-53792820D01*
X196500000Y-53792820D01*
X196500001Y-53792820D01*
X196537416Y-53789546D01*
X196724496Y-53773179D01*
X196942170Y-53714853D01*
X197146410Y-53619615D01*
X197331009Y-53490358D01*
X197490358Y-53331009D01*
X197619615Y-53146410D01*
X197714853Y-52942170D01*
X197773179Y-52724496D01*
X197792820Y-52500000D01*
X197773179Y-52275504D01*
X197714853Y-52057830D01*
X197619615Y-51853590D01*
X197490358Y-51668991D01*
X197490356Y-51668988D01*
X197331011Y-51509643D01*
X197146410Y-51380385D01*
X197146404Y-51380382D01*
X196942176Y-51285149D01*
X196942165Y-51285145D01*
X196724498Y-51226821D01*
X196724491Y-51226820D01*
X196500001Y-51207180D01*
X196499999Y-51207180D01*
X196275508Y-51226820D01*
X196275501Y-51226821D01*
X196057834Y-51285145D01*
X196057823Y-51285149D01*
X195853595Y-51380382D01*
X195853589Y-51380385D01*
X195668988Y-51509643D01*
X195509643Y-51668988D01*
X195380385Y-51853589D01*
X195380382Y-51853595D01*
X195285149Y-52057823D01*
X195285145Y-52057834D01*
X195226821Y-52275501D01*
X195226820Y-52275508D01*
X195207180Y-52499999D01*
X177187887Y-52499999D01*
X177214853Y-52442170D01*
X177273179Y-52224496D01*
X177292820Y-52000000D01*
X177273179Y-51775504D01*
X177214853Y-51557830D01*
X177119615Y-51353590D01*
X176990358Y-51168991D01*
X176990356Y-51168988D01*
X176831011Y-51009643D01*
X176646410Y-50880385D01*
X176646404Y-50880382D01*
X176442176Y-50785149D01*
X176442165Y-50785145D01*
X176224498Y-50726821D01*
X176224491Y-50726820D01*
X176000001Y-50707180D01*
X175999999Y-50707180D01*
X175775508Y-50726820D01*
X175775501Y-50726821D01*
X175557834Y-50785145D01*
X175557823Y-50785149D01*
X175353595Y-50880382D01*
X175353589Y-50880385D01*
X175168988Y-51009643D01*
X175009643Y-51168988D01*
X174880385Y-51353589D01*
X174880382Y-51353595D01*
X174785149Y-51557823D01*
X174785145Y-51557834D01*
X174726821Y-51775501D01*
X174726820Y-51775508D01*
X174707180Y-51999999D01*
X23750500Y-51999999D01*
X23750500Y-47000009D01*
X174707180Y-47000009D01*
X174707180Y-47000010D01*
X174726820Y-47224501D01*
X174726821Y-47224508D01*
X174785145Y-47442175D01*
X174785149Y-47442186D01*
X174880382Y-47646414D01*
X174880385Y-47646420D01*
X175009643Y-47831021D01*
X175168988Y-47990366D01*
X175168991Y-47990368D01*
X175353590Y-48119625D01*
X175467262Y-48172630D01*
X175557823Y-48214860D01*
X175557825Y-48214860D01*
X175557830Y-48214863D01*
X175775504Y-48273189D01*
X175955100Y-48288901D01*
X175999999Y-48292830D01*
X176000000Y-48292830D01*
X176000001Y-48292830D01*
X176037416Y-48289556D01*
X176224496Y-48273189D01*
X176442170Y-48214863D01*
X176646410Y-48119625D01*
X176831009Y-47990368D01*
X176990358Y-47831019D01*
X177119615Y-47646420D01*
X177214853Y-47442180D01*
X177273179Y-47224506D01*
X177292820Y-47000010D01*
X177292820Y-47000009D01*
X179707180Y-47000009D01*
X179707180Y-47000010D01*
X179726820Y-47224501D01*
X179726821Y-47224508D01*
X179785145Y-47442175D01*
X179785149Y-47442186D01*
X179880382Y-47646414D01*
X179880385Y-47646420D01*
X180009643Y-47831021D01*
X180168988Y-47990366D01*
X180168991Y-47990368D01*
X180353590Y-48119625D01*
X180467262Y-48172630D01*
X180557823Y-48214860D01*
X180557825Y-48214860D01*
X180557830Y-48214863D01*
X180775504Y-48273189D01*
X180955100Y-48288901D01*
X180999999Y-48292830D01*
X181000000Y-48292830D01*
X181000001Y-48292830D01*
X181037416Y-48289556D01*
X181224496Y-48273189D01*
X181442170Y-48214863D01*
X181646410Y-48119625D01*
X181831009Y-47990368D01*
X181990358Y-47831019D01*
X182119615Y-47646420D01*
X182187887Y-47500009D01*
X195207180Y-47500009D01*
X195207180Y-47500010D01*
X195226820Y-47724501D01*
X195226821Y-47724508D01*
X195285145Y-47942175D01*
X195285149Y-47942186D01*
X195380382Y-48146414D01*
X195380385Y-48146420D01*
X195509643Y-48331021D01*
X195668988Y-48490366D01*
X195668991Y-48490368D01*
X195853590Y-48619625D01*
X195967262Y-48672630D01*
X196057823Y-48714860D01*
X196057825Y-48714860D01*
X196057830Y-48714863D01*
X196275504Y-48773189D01*
X196455100Y-48788901D01*
X196499999Y-48792830D01*
X196500000Y-48792830D01*
X196500001Y-48792830D01*
X196537416Y-48789556D01*
X196724496Y-48773189D01*
X196942170Y-48714863D01*
X197146410Y-48619625D01*
X197331009Y-48490368D01*
X197490358Y-48331019D01*
X197619615Y-48146420D01*
X197714853Y-47942180D01*
X197773179Y-47724506D01*
X197792820Y-47500010D01*
X197792820Y-47500009D01*
X200207180Y-47500009D01*
X200207180Y-47500010D01*
X200226820Y-47724501D01*
X200226821Y-47724508D01*
X200285145Y-47942175D01*
X200285149Y-47942186D01*
X200380382Y-48146414D01*
X200380385Y-48146420D01*
X200509643Y-48331021D01*
X200668988Y-48490366D01*
X200668991Y-48490368D01*
X200853590Y-48619625D01*
X200967262Y-48672630D01*
X201057823Y-48714860D01*
X201057825Y-48714860D01*
X201057830Y-48714863D01*
X201275504Y-48773189D01*
X201455100Y-48788901D01*
X201499999Y-48792830D01*
X201500000Y-48792830D01*
X201500001Y-48792830D01*
X201537416Y-48789556D01*
X201724496Y-48773189D01*
X201942170Y-48714863D01*
X202146410Y-48619625D01*
X202331009Y-48490368D01*
X202490358Y-48331019D01*
X202619615Y-48146420D01*
X202714853Y-47942180D01*
X202773179Y-47724506D01*
X202792820Y-47500010D01*
X202773179Y-47275514D01*
X202714853Y-47057840D01*
X202619615Y-46853600D01*
X202490358Y-46669001D01*
X202490356Y-46668998D01*
X202331011Y-46509653D01*
X202146410Y-46380395D01*
X202146404Y-46380392D01*
X201942176Y-46285159D01*
X201942165Y-46285155D01*
X201724498Y-46226831D01*
X201724491Y-46226830D01*
X201500001Y-46207190D01*
X201499999Y-46207190D01*
X201275508Y-46226830D01*
X201275501Y-46226831D01*
X201057834Y-46285155D01*
X201057823Y-46285159D01*
X200853595Y-46380392D01*
X200853589Y-46380395D01*
X200668988Y-46509653D01*
X200509643Y-46668998D01*
X200380385Y-46853599D01*
X200380382Y-46853605D01*
X200285149Y-47057833D01*
X200285145Y-47057844D01*
X200226821Y-47275511D01*
X200226820Y-47275518D01*
X200207180Y-47500009D01*
X197792820Y-47500009D01*
X197773179Y-47275514D01*
X197714853Y-47057840D01*
X197619615Y-46853600D01*
X197490358Y-46669001D01*
X197490356Y-46668998D01*
X197331011Y-46509653D01*
X197146410Y-46380395D01*
X197146404Y-46380392D01*
X196942176Y-46285159D01*
X196942165Y-46285155D01*
X196724498Y-46226831D01*
X196724491Y-46226830D01*
X196500001Y-46207190D01*
X196499999Y-46207190D01*
X196275508Y-46226830D01*
X196275501Y-46226831D01*
X196057834Y-46285155D01*
X196057823Y-46285159D01*
X195853595Y-46380392D01*
X195853589Y-46380395D01*
X195668988Y-46509653D01*
X195509643Y-46668998D01*
X195380385Y-46853599D01*
X195380382Y-46853605D01*
X195285149Y-47057833D01*
X195285145Y-47057844D01*
X195226821Y-47275511D01*
X195226820Y-47275518D01*
X195207180Y-47500009D01*
X182187887Y-47500009D01*
X182214853Y-47442180D01*
X182273179Y-47224506D01*
X182292820Y-47000010D01*
X182273179Y-46775514D01*
X182214853Y-46557840D01*
X182119615Y-46353600D01*
X181990358Y-46169001D01*
X181990356Y-46168998D01*
X181831011Y-46009653D01*
X181646410Y-45880395D01*
X181646404Y-45880392D01*
X181442176Y-45785159D01*
X181442165Y-45785155D01*
X181224498Y-45726831D01*
X181224491Y-45726830D01*
X181000001Y-45707190D01*
X180999999Y-45707190D01*
X180775508Y-45726830D01*
X180775501Y-45726831D01*
X180557834Y-45785155D01*
X180557823Y-45785159D01*
X180353595Y-45880392D01*
X180353589Y-45880395D01*
X180168988Y-46009653D01*
X180009643Y-46168998D01*
X179880385Y-46353599D01*
X179880382Y-46353605D01*
X179785149Y-46557833D01*
X179785145Y-46557844D01*
X179726821Y-46775511D01*
X179726820Y-46775518D01*
X179707180Y-47000009D01*
X177292820Y-47000009D01*
X177273179Y-46775514D01*
X177214853Y-46557840D01*
X177119615Y-46353600D01*
X176990358Y-46169001D01*
X176990356Y-46168998D01*
X176831011Y-46009653D01*
X176646410Y-45880395D01*
X176646404Y-45880392D01*
X176442176Y-45785159D01*
X176442165Y-45785155D01*
X176224498Y-45726831D01*
X176224491Y-45726830D01*
X176000001Y-45707190D01*
X175999999Y-45707190D01*
X175775508Y-45726830D01*
X175775501Y-45726831D01*
X175557834Y-45785155D01*
X175557823Y-45785159D01*
X175353595Y-45880392D01*
X175353589Y-45880395D01*
X175168988Y-46009653D01*
X175009643Y-46168998D01*
X174880385Y-46353599D01*
X174880382Y-46353605D01*
X174785149Y-46557833D01*
X174785145Y-46557844D01*
X174726821Y-46775511D01*
X174726820Y-46775518D01*
X174707180Y-47000009D01*
X23750500Y-47000009D01*
X23750500Y-39124500D01*
X23770185Y-39057461D01*
X23822989Y-39011706D01*
X23874500Y-39000500D01*
X143597357Y-39000500D01*
X143664396Y-39020185D01*
G37*
%TD.AperFunction*%
%TD*%
M02*
